G04 #@! TF.GenerationSoftware,KiCad,Pcbnew,(5.0.2)-1*
G04 #@! TF.CreationDate,2019-02-16T20:24:50+11:00*
G04 #@! TF.ProjectId,lightning trigger,6c696768-746e-4696-9e67-207472696767,rev?*
G04 #@! TF.SameCoordinates,Original*
G04 #@! TF.FileFunction,Copper,L2,Bot*
G04 #@! TF.FilePolarity,Positive*
%FSLAX46Y46*%
G04 Gerber Fmt 4.6, Leading zero omitted, Abs format (unit mm)*
G04 Created by KiCad (PCBNEW (5.0.2)-1) date 16/02/2019 8:24:50 PM*
%MOMM*%
%LPD*%
G01*
G04 APERTURE LIST*
G04 #@! TA.AperFunction,ComponentPad*
%ADD10R,1.700000X1.700000*%
G04 #@! TD*
G04 #@! TA.AperFunction,ComponentPad*
%ADD11O,1.700000X1.700000*%
G04 #@! TD*
G04 #@! TA.AperFunction,ComponentPad*
%ADD12C,1.800000*%
G04 #@! TD*
G04 #@! TA.AperFunction,ComponentPad*
%ADD13R,1.800000X1.800000*%
G04 #@! TD*
G04 #@! TA.AperFunction,ComponentPad*
%ADD14C,1.500000*%
G04 #@! TD*
G04 #@! TA.AperFunction,ComponentPad*
%ADD15R,0.850000X0.850000*%
G04 #@! TD*
G04 #@! TA.AperFunction,ComponentPad*
%ADD16O,0.850000X0.850000*%
G04 #@! TD*
G04 #@! TA.AperFunction,ViaPad*
%ADD17C,0.600000*%
G04 #@! TD*
G04 #@! TA.AperFunction,Conductor*
%ADD18C,0.250000*%
G04 #@! TD*
G04 #@! TA.AperFunction,Conductor*
%ADD19C,0.400000*%
G04 #@! TD*
G04 #@! TA.AperFunction,Conductor*
%ADD20C,0.500000*%
G04 #@! TD*
G04 #@! TA.AperFunction,Conductor*
%ADD21C,0.254000*%
G04 #@! TD*
G04 APERTURE END LIST*
D10*
G04 #@! TO.P,J7,1*
G04 #@! TO.N,+BATT*
X-9779000Y9906000D03*
G04 #@! TD*
G04 #@! TO.P,J8,1*
G04 #@! TO.N,-BAT*
X-6096000Y9906000D03*
G04 #@! TD*
D11*
G04 #@! TO.P,MK1,2*
G04 #@! TO.N,Net-(C1-Pad2)*
X5143500Y-27432000D03*
D10*
G04 #@! TO.P,MK1,1*
G04 #@! TO.N,GNDD*
X7683500Y-27432000D03*
G04 #@! TD*
D12*
G04 #@! TO.P,Q1,2*
G04 #@! TO.N,LIGHT_OUT*
X-9601200Y-30734000D03*
D13*
G04 #@! TO.P,Q1,1*
G04 #@! TO.N,VDDA*
X-7061200Y-30734000D03*
G04 #@! TD*
D10*
G04 #@! TO.P,J2,1*
G04 #@! TO.N,GNDD*
X-8763000Y5461000D03*
D11*
G04 #@! TO.P,J2,2*
G04 #@! TO.N,RST*
X-6223000Y5461000D03*
G04 #@! TO.P,J2,3*
G04 #@! TO.N,FOCUS2*
X-8763000Y2921000D03*
G04 #@! TO.P,J2,4*
G04 #@! TO.N,SCK*
X-6223000Y2921000D03*
G04 #@! TO.P,J2,5*
G04 #@! TO.N,VIN*
X-8763000Y381000D03*
G04 #@! TO.P,J2,6*
G04 #@! TO.N,MISO*
X-6223000Y381000D03*
G04 #@! TD*
D10*
G04 #@! TO.P,J3,1*
G04 #@! TO.N,GNDD*
X-3800000Y-20000000D03*
D11*
G04 #@! TO.P,J3,2*
G04 #@! TO.N,VIN*
X-1260000Y-20000000D03*
G04 #@! TO.P,J3,3*
G04 #@! TO.N,SCL*
X1280000Y-20000000D03*
G04 #@! TO.P,J3,4*
G04 #@! TO.N,SDA*
X3820000Y-20000000D03*
G04 #@! TD*
D14*
G04 #@! TO.P,Y1,1*
G04 #@! TO.N,Net-(C2-Pad1)*
X6223000Y-12573000D03*
G04 #@! TO.P,Y1,2*
G04 #@! TO.N,Net-(C3-Pad1)*
X6223000Y-7673000D03*
G04 #@! TD*
D15*
G04 #@! TO.P,J1,1*
G04 #@! TO.N,GNDD*
X-10033000Y-3667000D03*
D16*
G04 #@! TO.P,J1,2*
X-10033000Y-2667000D03*
G04 #@! TD*
D17*
G04 #@! TO.N,SHUTTER*
X6350000Y-2413000D03*
X18415000Y7366000D03*
G04 #@! TO.N,FOCUS*
X5715000Y-1778000D03*
X13335000Y5969000D03*
G04 #@! TO.N,RST*
X-4182275Y-8440000D03*
G04 #@! TO.N,SDA*
X635000Y-21717000D03*
X2460999Y-21717000D03*
G04 #@! TO.N,LEFT*
X-508000Y-10795000D03*
X1905000Y11293010D03*
G04 #@! TO.N,CENTER*
X-456625Y-11593361D03*
X998544Y11293010D03*
G04 #@! TO.N,DOWN*
X-375000Y-13140000D03*
X198531Y11293010D03*
G04 #@! TO.N,UP*
X-945181Y-3136903D03*
X-635000Y11293010D03*
G04 #@! TO.N,RIGHT*
X-3429000Y12065000D03*
X-1744434Y-3171503D03*
G04 #@! TO.N,Net-(R12-Pad2)*
X-10795000Y14859000D03*
X-7874000Y17526000D03*
G04 #@! TO.N,GNDD*
X-10922000Y-5969000D03*
X-12446000Y-9906000D03*
X-10287000Y-26162000D03*
X1397000Y-27686000D03*
X508000Y-30861000D03*
X-13843000Y6985000D03*
X-6604000Y-21971000D03*
X-4699000Y-24638000D03*
X2032000Y-25400000D03*
X3556000Y-22606000D03*
X-2159000Y-24765000D03*
X-5842000Y-9271000D03*
X2921000Y-4953000D03*
X3302000Y-10668000D03*
X3175000Y-12827000D03*
X-3937000Y24765000D03*
X-5207000Y13462000D03*
X-6223000Y23622000D03*
X-7620000Y32258000D03*
X9779000Y13208000D03*
X8636000Y-10414000D03*
X-6604000Y-2286000D03*
X-9652000Y-1524000D03*
X-7874000Y-1905000D03*
X-7874000Y-2794000D03*
X4445000Y-22606000D03*
G04 #@! TO.N,VIN*
X-3365500Y-25908000D03*
X-5969000Y-6096000D03*
X-3351013Y-7690000D03*
G04 #@! TD*
D18*
G04 #@! TO.N,SHUTTER*
X6350000Y-2413000D02*
X8636000Y-2413000D01*
X8636000Y-2413000D02*
X18415000Y7366000D01*
G04 #@! TO.N,FOCUS*
X5715000Y-1778000D02*
X13335000Y5842000D01*
X13335000Y5842000D02*
X13335000Y5969000D01*
G04 #@! TO.N,RST*
X-4182275Y-8440000D02*
X-4182275Y4944275D01*
X-4699000Y5461000D02*
X-6223000Y5461000D01*
X-4182275Y4944275D02*
X-4699000Y5461000D01*
G04 #@! TO.N,SDA*
X635000Y-21717000D02*
X2460999Y-21717000D01*
G04 #@! TO.N,LEFT*
X-508000Y-10795000D02*
X1905000Y-8382000D01*
X1905000Y-8382000D02*
X1905000Y10868746D01*
X1905000Y10868746D02*
X1905000Y11293010D01*
G04 #@! TO.N,CENTER*
X-2022002Y-5734033D02*
X998544Y-2713487D01*
X998544Y10868746D02*
X998544Y11293010D01*
X998544Y-2713487D02*
X998544Y10868746D01*
X-2022002Y-10452248D02*
X-2022002Y-5734033D01*
X-456625Y-11593361D02*
X-880889Y-11593361D01*
X-880889Y-11593361D02*
X-2022002Y-10452248D01*
G04 #@! TO.N,DOWN*
X-2726013Y-11313987D02*
X-2726013Y-5801633D01*
X-900000Y-13140000D02*
X-2726013Y-11313987D01*
X-2726013Y-5801633D02*
X198531Y-2877089D01*
X198531Y10868746D02*
X198531Y11293010D01*
X-375000Y-13140000D02*
X-900000Y-13140000D01*
X198531Y-2877089D02*
X198531Y10868746D01*
G04 #@! TO.N,UP*
X-635000Y10868746D02*
X-635000Y11293010D01*
X-635000Y-2826722D02*
X-635000Y10868746D01*
X-945181Y-3136903D02*
X-635000Y-2826722D01*
G04 #@! TO.N,RIGHT*
X-3429000Y12065000D02*
X-3429000Y-1486937D01*
X-3429000Y-1486937D02*
X-2044433Y-2871504D01*
X-2044433Y-2871504D02*
X-1744434Y-3171503D01*
G04 #@! TO.N,Net-(R12-Pad2)*
X-10795000Y14859000D02*
X-8128000Y17526000D01*
X-8128000Y17526000D02*
X-7874000Y17526000D01*
G04 #@! TO.N,GNDD*
X1732001Y-25100001D02*
X2032000Y-25400000D01*
X1097001Y-24465001D02*
X1732001Y-25100001D01*
X-1859001Y-24465001D02*
X1097001Y-24465001D01*
X-2159000Y-24765000D02*
X-1859001Y-24465001D01*
G04 #@! TO.N,VIN*
X-1260000Y-21202081D02*
X-3365500Y-23307581D01*
X-1260000Y-20000000D02*
X-1260000Y-21202081D01*
X-3365500Y-23307581D02*
X-3365500Y-25908000D01*
D19*
X-3351013Y-17908987D02*
X-3351013Y-7690000D01*
X-1260000Y-20000000D02*
X-3351013Y-17908987D01*
D20*
X-8763000Y-3302000D02*
X-8763000Y381000D01*
X-5969000Y-6096000D02*
X-8763000Y-3302000D01*
G04 #@! TD*
D21*
G04 #@! TO.N,GNDD*
G36*
X11296104Y34100449D02*
X12599305Y33753778D01*
X13845058Y33237455D01*
X15011400Y32560579D01*
X16077745Y31735097D01*
X17025280Y30775571D01*
X17419614Y30252725D01*
X19377585Y25553596D01*
X19489032Y24584494D01*
X19526046Y24183171D01*
X15024003Y24183163D01*
X14975779Y24186324D01*
X14951769Y24183163D01*
X14927560Y24183163D01*
X14880173Y24173737D01*
X14183157Y24081973D01*
X14158787Y24086820D01*
X14039005Y24062994D01*
X13991081Y24056685D01*
X13968149Y24048900D01*
X13944392Y24044175D01*
X13899726Y24025674D01*
X13784087Y23986419D01*
X13765406Y23970037D01*
X13205788Y23738234D01*
X13180991Y23736609D01*
X13071450Y23682590D01*
X13026800Y23664095D01*
X13006666Y23650642D01*
X12984938Y23639927D01*
X12946581Y23610494D01*
X12845044Y23542650D01*
X12831239Y23521990D01*
X12350687Y23153249D01*
X12327153Y23145260D01*
X12235320Y23064725D01*
X12196984Y23035308D01*
X12181018Y23017103D01*
X12162805Y23001130D01*
X12133376Y22962777D01*
X12052854Y22870960D01*
X12044867Y22847430D01*
X11676122Y22366873D01*
X11655462Y22353068D01*
X11587611Y22251522D01*
X11558185Y22213174D01*
X11547474Y22191454D01*
X11534016Y22171313D01*
X11515515Y22126649D01*
X11461503Y22017122D01*
X11459878Y21992327D01*
X11228076Y21432707D01*
X11211692Y21414024D01*
X11172434Y21298375D01*
X11153937Y21253718D01*
X11149212Y21229964D01*
X11141427Y21207030D01*
X11135118Y21159105D01*
X11111292Y21039324D01*
X11116140Y21014953D01*
X11037077Y20414410D01*
X11026086Y20392123D01*
X11018098Y20270255D01*
X11011789Y20222332D01*
X11013373Y20198164D01*
X11011789Y20173997D01*
X11018098Y20126074D01*
X11026086Y20004205D01*
X11037077Y19981918D01*
X11116140Y19381373D01*
X11111292Y19357002D01*
X11135118Y19237219D01*
X11141427Y19189297D01*
X11149212Y19166364D01*
X11153937Y19142608D01*
X11172436Y19097948D01*
X11211692Y18982303D01*
X11228076Y18963620D01*
X11459878Y18404003D01*
X11461503Y18379206D01*
X11515521Y18269668D01*
X11534017Y18225015D01*
X11547472Y18204879D01*
X11558185Y18183154D01*
X11587613Y18144803D01*
X11655462Y18043259D01*
X11676124Y18029453D01*
X12044867Y17548898D01*
X12052854Y17525369D01*
X12133375Y17433552D01*
X12162805Y17395198D01*
X12181015Y17379228D01*
X12196983Y17361020D01*
X12235327Y17331597D01*
X12327153Y17251068D01*
X12350685Y17243080D01*
X12831239Y16874337D01*
X12845044Y16853677D01*
X12946581Y16785832D01*
X12984938Y16756400D01*
X13006667Y16745685D01*
X13026800Y16732232D01*
X13071447Y16713739D01*
X13180990Y16659718D01*
X13205788Y16658093D01*
X13765406Y16426291D01*
X13784088Y16409907D01*
X13899728Y16370653D01*
X13944392Y16352152D01*
X13968150Y16347426D01*
X13991082Y16339642D01*
X14039003Y16333333D01*
X14158787Y16309507D01*
X14183158Y16314355D01*
X14880167Y16222592D01*
X14927563Y16213164D01*
X14951777Y16213164D01*
X14975780Y16210004D01*
X15023994Y16213164D01*
X20142865Y16213174D01*
X20206517Y15343540D01*
X20364272Y10718045D01*
X20388143Y6086225D01*
X20277985Y1455677D01*
X20033891Y-3169755D01*
X19656064Y-7786170D01*
X19144824Y-12389720D01*
X18663480Y-15816830D01*
X18292024Y-15816831D01*
X18274071Y-15813260D01*
X12460156Y-15813260D01*
X12409252Y-15810295D01*
X12387930Y-15813260D01*
X12366399Y-15813260D01*
X12316380Y-15823210D01*
X11663152Y-15914045D01*
X11658822Y-15913184D01*
X11634374Y-15918047D01*
X11617412Y-15920406D01*
X11593005Y-15915735D01*
X11473401Y-15940431D01*
X11425523Y-15947089D01*
X11402644Y-15955041D01*
X11378925Y-15959939D01*
X11334402Y-15978761D01*
X11219045Y-16018858D01*
X11200483Y-16035377D01*
X10464120Y-16346680D01*
X10283252Y-16469444D01*
X10222942Y-16561141D01*
X9850720Y-16846757D01*
X9827188Y-16854745D01*
X9735362Y-16935274D01*
X9697018Y-16964697D01*
X9681050Y-16982905D01*
X9662840Y-16998875D01*
X9633412Y-17037227D01*
X9552889Y-17129046D01*
X9544902Y-17152575D01*
X9176159Y-17633130D01*
X9155497Y-17646936D01*
X9087648Y-17748480D01*
X9058220Y-17786831D01*
X9047507Y-17808556D01*
X9034052Y-17828692D01*
X9015556Y-17873345D01*
X8961538Y-17982883D01*
X8959913Y-18007680D01*
X8728111Y-18567297D01*
X8711727Y-18585980D01*
X8672471Y-18701625D01*
X8653972Y-18746285D01*
X8649247Y-18770041D01*
X8641462Y-18792974D01*
X8635153Y-18840896D01*
X8611327Y-18960679D01*
X8616175Y-18985050D01*
X8537112Y-19585595D01*
X8526121Y-19607882D01*
X8518133Y-19729752D01*
X8511824Y-19777674D01*
X8513408Y-19801841D01*
X8511824Y-19826008D01*
X8518133Y-19873930D01*
X8526121Y-19995800D01*
X8537112Y-20018087D01*
X8616175Y-20618632D01*
X8611327Y-20643003D01*
X8635153Y-20762786D01*
X8641462Y-20810708D01*
X8649247Y-20833641D01*
X8653972Y-20857397D01*
X8672471Y-20902057D01*
X8711727Y-21017702D01*
X8728111Y-21036385D01*
X8959913Y-21596002D01*
X8961538Y-21620799D01*
X9015556Y-21730337D01*
X9029337Y-21763606D01*
X7739078Y-21844247D01*
X7712110Y-21848886D01*
X6823110Y-22102886D01*
X6806420Y-22108946D01*
X4520420Y-23124946D01*
X4479935Y-23153519D01*
X4453465Y-23195410D01*
X4445000Y-23241000D01*
X4445000Y-25654000D01*
X-5181Y-25654000D01*
X-127110Y-22727713D01*
X-138792Y-22679557D01*
X-168014Y-22639537D01*
X-210326Y-22613746D01*
X-254000Y-22606000D01*
X-1589117Y-22606000D01*
X-775527Y-21792410D01*
X-712071Y-21750010D01*
X-641088Y-21643777D01*
X-544096Y-21498619D01*
X-521693Y-21385990D01*
X-500286Y-21278369D01*
X-189375Y-21070625D01*
X10000Y-20772239D01*
X110275Y-20922311D01*
X105365Y-20924345D01*
X-157655Y-21187365D01*
X-300000Y-21531017D01*
X-300000Y-21902983D01*
X-157655Y-22246635D01*
X105365Y-22509655D01*
X449017Y-22652000D01*
X820983Y-22652000D01*
X1164635Y-22509655D01*
X1197290Y-22477000D01*
X1898709Y-22477000D01*
X1931364Y-22509655D01*
X2275016Y-22652000D01*
X2646982Y-22652000D01*
X2990634Y-22509655D01*
X3253654Y-22246635D01*
X3395999Y-21902983D01*
X3395999Y-21531017D01*
X3350288Y-21420661D01*
X3673744Y-21485000D01*
X3966256Y-21485000D01*
X4399418Y-21398839D01*
X4890625Y-21070625D01*
X5218839Y-20579418D01*
X5334092Y-20000000D01*
X5218839Y-19420582D01*
X4890625Y-18929375D01*
X4399418Y-18601161D01*
X3966256Y-18515000D01*
X3673744Y-18515000D01*
X3240582Y-18601161D01*
X2749375Y-18929375D01*
X2550000Y-19227761D01*
X2350625Y-18929375D01*
X1859418Y-18601161D01*
X1426256Y-18515000D01*
X1133744Y-18515000D01*
X700582Y-18601161D01*
X209375Y-18929375D01*
X10000Y-19227761D01*
X-189375Y-18929375D01*
X-680582Y-18601161D01*
X-1113744Y-18515000D01*
X-1406256Y-18515000D01*
X-1537939Y-18541193D01*
X-2516013Y-17563120D01*
X-2516013Y-12598789D01*
X-1490327Y-13624476D01*
X-1447929Y-13687929D01*
X-1384476Y-13730327D01*
X-1384474Y-13730329D01*
X-1259098Y-13814102D01*
X-1196537Y-13855904D01*
X-974852Y-13900000D01*
X-974848Y-13900000D01*
X-927964Y-13909326D01*
X-904635Y-13932655D01*
X-560983Y-14075000D01*
X-189017Y-14075000D01*
X154635Y-13932655D01*
X417655Y-13669635D01*
X560000Y-13325983D01*
X560000Y-12954017D01*
X417655Y-12610365D01*
X154635Y-12347345D01*
X124262Y-12334764D01*
X161520Y-12297506D01*
X4838000Y-12297506D01*
X4838000Y-12848494D01*
X5048853Y-13357540D01*
X5438460Y-13747147D01*
X5947506Y-13958000D01*
X6498494Y-13958000D01*
X7007540Y-13747147D01*
X7397147Y-13357540D01*
X7608000Y-12848494D01*
X7608000Y-12297506D01*
X7433127Y-11875322D01*
X12865000Y-11875322D01*
X12865000Y-12724678D01*
X13190034Y-13509380D01*
X13790620Y-14109966D01*
X14575322Y-14435000D01*
X15424678Y-14435000D01*
X16209380Y-14109966D01*
X16809966Y-13509380D01*
X17135000Y-12724678D01*
X17135000Y-11875322D01*
X16809966Y-11090620D01*
X16209380Y-10490034D01*
X15424678Y-10165000D01*
X14575322Y-10165000D01*
X13790620Y-10490034D01*
X13190034Y-11090620D01*
X12865000Y-11875322D01*
X7433127Y-11875322D01*
X7397147Y-11788460D01*
X7007540Y-11398853D01*
X6498494Y-11188000D01*
X5947506Y-11188000D01*
X5438460Y-11398853D01*
X5048853Y-11788460D01*
X4838000Y-12297506D01*
X161520Y-12297506D01*
X336030Y-12122996D01*
X478375Y-11779344D01*
X478375Y-11407378D01*
X364378Y-11132165D01*
X427000Y-10980983D01*
X427000Y-10934801D01*
X2389476Y-8972327D01*
X2452929Y-8929929D01*
X2495327Y-8866476D01*
X2495329Y-8866474D01*
X2620903Y-8678538D01*
X2620904Y-8678537D01*
X2665000Y-8456852D01*
X2665000Y-8456848D01*
X2679888Y-8382001D01*
X2665000Y-8307154D01*
X2665000Y-7397506D01*
X4838000Y-7397506D01*
X4838000Y-7948494D01*
X5048853Y-8457540D01*
X5438460Y-8847147D01*
X5947506Y-9058000D01*
X6498494Y-9058000D01*
X7007540Y-8847147D01*
X7397147Y-8457540D01*
X7608000Y-7948494D01*
X7608000Y-7397506D01*
X7397147Y-6888460D01*
X7007540Y-6498853D01*
X6498494Y-6288000D01*
X5947506Y-6288000D01*
X5438460Y-6498853D01*
X5048853Y-6888460D01*
X4838000Y-7397506D01*
X2665000Y-7397506D01*
X2665000Y-5205398D01*
X11582000Y-5205398D01*
X11582000Y-5716602D01*
X11777629Y-6188894D01*
X12139106Y-6550371D01*
X12611398Y-6746000D01*
X13122602Y-6746000D01*
X13594894Y-6550371D01*
X13956371Y-6188894D01*
X14152000Y-5716602D01*
X14152000Y-5205398D01*
X16582000Y-5205398D01*
X16582000Y-5716602D01*
X16777629Y-6188894D01*
X17139106Y-6550371D01*
X17611398Y-6746000D01*
X18122602Y-6746000D01*
X18594894Y-6550371D01*
X18956371Y-6188894D01*
X19152000Y-5716602D01*
X19152000Y-5205398D01*
X18956371Y-4733106D01*
X18594894Y-4371629D01*
X18122602Y-4176000D01*
X17611398Y-4176000D01*
X17139106Y-4371629D01*
X16777629Y-4733106D01*
X16582000Y-5205398D01*
X14152000Y-5205398D01*
X13956371Y-4733106D01*
X13594894Y-4371629D01*
X13122602Y-4176000D01*
X12611398Y-4176000D01*
X12139106Y-4371629D01*
X11777629Y-4733106D01*
X11582000Y-5205398D01*
X2665000Y-5205398D01*
X2665000Y-1592017D01*
X4780000Y-1592017D01*
X4780000Y-1963983D01*
X4922345Y-2307635D01*
X5185365Y-2570655D01*
X5448395Y-2679605D01*
X5557345Y-2942635D01*
X5820365Y-3205655D01*
X6164017Y-3348000D01*
X6535983Y-3348000D01*
X6879635Y-3205655D01*
X6912290Y-3173000D01*
X8561153Y-3173000D01*
X8636000Y-3187888D01*
X8710847Y-3173000D01*
X8710852Y-3173000D01*
X8932537Y-3128904D01*
X9183929Y-2960929D01*
X9226331Y-2897470D01*
X18554803Y6431000D01*
X18600983Y6431000D01*
X18944635Y6573345D01*
X19207655Y6836365D01*
X19350000Y7180017D01*
X19350000Y7551983D01*
X19207655Y7895635D01*
X18944635Y8158655D01*
X18600983Y8301000D01*
X18229017Y8301000D01*
X17885365Y8158655D01*
X17622345Y7895635D01*
X17480000Y7551983D01*
X17480000Y7505803D01*
X8321199Y-1653000D01*
X6914801Y-1653000D01*
X13658951Y5091148D01*
X13864635Y5176345D01*
X14127655Y5439365D01*
X14270000Y5783017D01*
X14270000Y6154983D01*
X14127655Y6498635D01*
X13864635Y6761655D01*
X13520983Y6904000D01*
X13149017Y6904000D01*
X12805365Y6761655D01*
X12542345Y6498635D01*
X12400000Y6154983D01*
X12400000Y5981803D01*
X5575199Y-843000D01*
X5529017Y-843000D01*
X5185365Y-985345D01*
X4922345Y-1248365D01*
X4780000Y-1592017D01*
X2665000Y-1592017D01*
X2665000Y10730720D01*
X2697655Y10763375D01*
X2840000Y11107027D01*
X2840000Y11478993D01*
X2697655Y11822645D01*
X2434635Y12085665D01*
X2090983Y12228010D01*
X1719017Y12228010D01*
X1451772Y12117314D01*
X1184527Y12228010D01*
X812561Y12228010D01*
X598538Y12139359D01*
X384514Y12228010D01*
X12548Y12228010D01*
X-218235Y12132417D01*
X-449017Y12228010D01*
X-820983Y12228010D01*
X-1164635Y12085665D01*
X-1427655Y11822645D01*
X-1570000Y11478993D01*
X-1570000Y11107027D01*
X-1427655Y10763375D01*
X-1394999Y10730719D01*
X-1395000Y-2304206D01*
X-1558451Y-2236503D01*
X-1604631Y-2236503D01*
X-2669000Y-1172136D01*
X-2669000Y11502710D01*
X-2636345Y11535365D01*
X-2494000Y11879017D01*
X-2494000Y12250983D01*
X-2636345Y12594635D01*
X-2899365Y12857655D01*
X-3243017Y13000000D01*
X-3614983Y13000000D01*
X-3958635Y12857655D01*
X-4221655Y12594635D01*
X-4364000Y12250983D01*
X-4364000Y11879017D01*
X-4221655Y11535365D01*
X-4189000Y11502710D01*
X-4189000Y6034272D01*
X-4402463Y6176904D01*
X-4624148Y6221000D01*
X-4624153Y6221000D01*
X-4699000Y6235888D01*
X-4773847Y6221000D01*
X-4944822Y6221000D01*
X-5152375Y6531625D01*
X-5643582Y6859839D01*
X-6076744Y6946000D01*
X-6369256Y6946000D01*
X-6802418Y6859839D01*
X-7293625Y6531625D01*
X-7308096Y6509968D01*
X-7374673Y6670699D01*
X-7553302Y6849327D01*
X-7786691Y6946000D01*
X-8477250Y6946000D01*
X-8636000Y6787250D01*
X-8636000Y5588000D01*
X-8616000Y5588000D01*
X-8616000Y5334000D01*
X-8636000Y5334000D01*
X-8636000Y5314000D01*
X-8890000Y5314000D01*
X-8890000Y5334000D01*
X-10089250Y5334000D01*
X-10248000Y5175250D01*
X-10248000Y4484690D01*
X-10151327Y4251301D01*
X-9972698Y4072673D01*
X-9811967Y4006096D01*
X-9833625Y3991625D01*
X-10161839Y3500418D01*
X-10277092Y2921000D01*
X-10161839Y2341582D01*
X-9833625Y1850375D01*
X-9535239Y1651000D01*
X-9833625Y1451625D01*
X-10161839Y960418D01*
X-10277092Y381000D01*
X-10161839Y-198418D01*
X-9833625Y-689625D01*
X-9647999Y-813656D01*
X-9648000Y-1696092D01*
X-9742935Y-1647446D01*
X-9906000Y-1773372D01*
X-9906000Y-2540000D01*
X-9886000Y-2540000D01*
X-9886000Y-2637105D01*
X-9905998Y-2611108D01*
X-9905998Y-2607000D01*
X-9909158Y-2607000D01*
X-10160000Y-2280905D01*
X-10160000Y-1773372D01*
X-10323065Y-1647446D01*
X-10691152Y-1836058D01*
X-10857728Y-2032000D01*
X-15367000Y-2032000D01*
X-15387406Y-2033650D01*
X-20053729Y-2793284D01*
X-20277969Y1455625D01*
X-20293753Y2119000D01*
X-19977180Y2119000D01*
X-19578397Y2284182D01*
X-19273182Y2589397D01*
X-19108000Y2988180D01*
X-19108000Y3419820D01*
X-19273182Y3818603D01*
X-19578397Y4123818D01*
X-19977180Y4289000D01*
X-20345383Y4289000D01*
X-20388142Y6086172D01*
X-20386334Y6437310D01*
X-10248000Y6437310D01*
X-10248000Y5746750D01*
X-10089250Y5588000D01*
X-8890000Y5588000D01*
X-8890000Y6787250D01*
X-9048750Y6946000D01*
X-9739309Y6946000D01*
X-9972698Y6849327D01*
X-10151327Y6670699D01*
X-10248000Y6437310D01*
X-20386334Y6437310D01*
X-20373553Y8919000D01*
X-19977180Y8919000D01*
X-19578397Y9084182D01*
X-19273182Y9389397D01*
X-19108000Y9788180D01*
X-19108000Y10219820D01*
X-19273182Y10618603D01*
X-19578397Y10923818D01*
X-19977180Y11089000D01*
X-20351635Y11089000D01*
X-20282215Y13124678D01*
X-17135000Y13124678D01*
X-17135000Y12275322D01*
X-16809966Y11490620D01*
X-16209380Y10890034D01*
X-15424678Y10565000D01*
X-14575322Y10565000D01*
X-14114207Y10756000D01*
X-11276440Y10756000D01*
X-11276440Y9056000D01*
X-11227157Y8808235D01*
X-11086809Y8598191D01*
X-10876765Y8457843D01*
X-10629000Y8408560D01*
X-8929000Y8408560D01*
X-8681235Y8457843D01*
X-8471191Y8598191D01*
X-8330843Y8808235D01*
X-8281560Y9056000D01*
X-8281560Y10756000D01*
X-7593440Y10756000D01*
X-7593440Y9056000D01*
X-7544157Y8808235D01*
X-7403809Y8598191D01*
X-7193765Y8457843D01*
X-6946000Y8408560D01*
X-5246000Y8408560D01*
X-4998235Y8457843D01*
X-4788191Y8598191D01*
X-4647843Y8808235D01*
X-4598560Y9056000D01*
X-4598560Y10756000D01*
X-4647843Y11003765D01*
X-4788191Y11213809D01*
X-4998235Y11354157D01*
X-5246000Y11403440D01*
X-6946000Y11403440D01*
X-7193765Y11354157D01*
X-7403809Y11213809D01*
X-7544157Y11003765D01*
X-7593440Y10756000D01*
X-8281560Y10756000D01*
X-8330843Y11003765D01*
X-8471191Y11213809D01*
X-8681235Y11354157D01*
X-8929000Y11403440D01*
X-10629000Y11403440D01*
X-10876765Y11354157D01*
X-11086809Y11213809D01*
X-11227157Y11003765D01*
X-11276440Y10756000D01*
X-14114207Y10756000D01*
X-13790620Y10890034D01*
X-13190034Y11490620D01*
X-12865000Y12275322D01*
X-12865000Y13124678D01*
X-13190034Y13909380D01*
X-13790620Y14509966D01*
X-14575322Y14835000D01*
X-15424678Y14835000D01*
X-16209380Y14509966D01*
X-16809966Y13909380D01*
X-17135000Y13124678D01*
X-20282215Y13124678D01*
X-20216729Y15044983D01*
X-11730000Y15044983D01*
X-11730000Y14673017D01*
X-11587655Y14329365D01*
X-11324635Y14066345D01*
X-10980983Y13924000D01*
X-10609017Y13924000D01*
X-10265365Y14066345D01*
X-10002345Y14329365D01*
X-9982920Y14376263D01*
X208503Y14376263D01*
X208503Y13924731D01*
X381296Y13507571D01*
X700577Y13188290D01*
X1117737Y13015497D01*
X1569269Y13015497D01*
X1832855Y13124678D01*
X12865000Y13124678D01*
X12865000Y12275322D01*
X13190034Y11490620D01*
X13790620Y10890034D01*
X14575322Y10565000D01*
X15424678Y10565000D01*
X16209380Y10890034D01*
X16809966Y11490620D01*
X17135000Y12275322D01*
X17135000Y13124678D01*
X16809966Y13909380D01*
X16209380Y14509966D01*
X15424678Y14835000D01*
X14575322Y14835000D01*
X13790620Y14509966D01*
X13190034Y13909380D01*
X12865000Y13124678D01*
X1832855Y13124678D01*
X1986429Y13188290D01*
X2305710Y13507571D01*
X2478503Y13924731D01*
X2478503Y14376263D01*
X2305710Y14793423D01*
X1986429Y15112704D01*
X1569269Y15285497D01*
X1117737Y15285497D01*
X700577Y15112704D01*
X381296Y14793423D01*
X208503Y14376263D01*
X-9982920Y14376263D01*
X-9860000Y14673017D01*
X-9860000Y14719199D01*
X-7988198Y16591000D01*
X-7688017Y16591000D01*
X-7344365Y16733345D01*
X-7081345Y16996365D01*
X-7065992Y17033432D01*
X-2328503Y17033432D01*
X-2328503Y16641574D01*
X-2178545Y16279545D01*
X-1901461Y16002461D01*
X-1539432Y15852503D01*
X-1147574Y15852503D01*
X-785545Y16002461D01*
X-508461Y16279545D01*
X-358503Y16641574D01*
X-358503Y17033432D01*
X-508461Y17395461D01*
X-785545Y17672545D01*
X-1147574Y17822503D01*
X-1539432Y17822503D01*
X-1901461Y17672545D01*
X-2178545Y17395461D01*
X-2328503Y17033432D01*
X-7065992Y17033432D01*
X-6939000Y17340017D01*
X-6939000Y17711983D01*
X-7081345Y18055635D01*
X-7344365Y18318655D01*
X-7688017Y18461000D01*
X-8059983Y18461000D01*
X-8403635Y18318655D01*
X-8592848Y18129442D01*
X-8675929Y18073929D01*
X-8718329Y18010473D01*
X-10934801Y15794000D01*
X-10980983Y15794000D01*
X-11324635Y15651655D01*
X-11587655Y15388635D01*
X-11730000Y15044983D01*
X-20216729Y15044983D01*
X-20206424Y15347142D01*
X-20151773Y16213101D01*
X-15024107Y16213111D01*
X-14975883Y16209950D01*
X-14951873Y16213111D01*
X-14927662Y16213111D01*
X-14880272Y16222538D01*
X-14183260Y16314302D01*
X-14158890Y16309454D01*
X-14039110Y16333279D01*
X-13991184Y16339589D01*
X-13968250Y16347374D01*
X-13944496Y16352099D01*
X-13899835Y16370598D01*
X-13784189Y16409855D01*
X-13765508Y16426238D01*
X-13474589Y16546740D01*
X-13474588Y16546741D01*
X-13205889Y16658040D01*
X-13181094Y16659665D01*
X-13071563Y16713679D01*
X-13026901Y16732179D01*
X-13006762Y16745635D01*
X-12985041Y16756347D01*
X-12946694Y16785772D01*
X-12845146Y16853624D01*
X-12831340Y16874286D01*
X-12350787Y17243027D01*
X-12327256Y17251015D01*
X-12235430Y17331544D01*
X-12197086Y17360966D01*
X-12181119Y17379173D01*
X-12162907Y17395144D01*
X-12133480Y17433494D01*
X-12052956Y17525313D01*
X-12044968Y17548845D01*
X-11676224Y18029401D01*
X-11655563Y18043206D01*
X-11587714Y18144749D01*
X-11558287Y18183099D01*
X-11547574Y18204822D01*
X-11534118Y18224961D01*
X-11515620Y18269619D01*
X-11461605Y18379151D01*
X-11459980Y18403947D01*
X-11228178Y18963568D01*
X-11211794Y18982250D01*
X-11172538Y19097894D01*
X-11154039Y19142555D01*
X-11149314Y19166311D01*
X-11141529Y19189244D01*
X-11135220Y19237168D01*
X-11111394Y19356950D01*
X-11116242Y19381321D01*
X-11037178Y19981866D01*
X-11026188Y20004152D01*
X-11018201Y20126015D01*
X-11011891Y20173941D01*
X-11013475Y20198110D01*
X-11011891Y20222279D01*
X-11018201Y20270205D01*
X-11026188Y20392068D01*
X-11037178Y20414354D01*
X-11116242Y21014901D01*
X-11111394Y21039272D01*
X-11135220Y21159056D01*
X-11141529Y21206977D01*
X-11149313Y21229909D01*
X-11154039Y21253667D01*
X-11172540Y21298331D01*
X-11211794Y21413971D01*
X-11228178Y21432653D01*
X-11459980Y21992271D01*
X-11461605Y22017069D01*
X-11515626Y22126612D01*
X-11534119Y22171259D01*
X-11547572Y22191392D01*
X-11558287Y22213121D01*
X-11587719Y22251478D01*
X-11655564Y22353015D01*
X-11676224Y22366820D01*
X-12044967Y22847374D01*
X-12052955Y22870906D01*
X-12133484Y22962732D01*
X-12162907Y23001076D01*
X-12181115Y23017044D01*
X-12197085Y23035254D01*
X-12235437Y23064682D01*
X-12327256Y23145205D01*
X-12350785Y23153192D01*
X-12831340Y23521935D01*
X-12845146Y23542597D01*
X-12946690Y23610446D01*
X-12985041Y23639874D01*
X-13006766Y23650587D01*
X-13026902Y23664042D01*
X-13071555Y23682538D01*
X-13181093Y23736556D01*
X-13205890Y23738181D01*
X-13608247Y23904843D01*
X-13608248Y23904843D01*
X-13765507Y23969982D01*
X-13784190Y23986367D01*
X-13899836Y24025623D01*
X-13944495Y24044122D01*
X-13968251Y24048847D01*
X-13991184Y24056632D01*
X-14039106Y24062941D01*
X-14158889Y24086767D01*
X-14183260Y24081919D01*
X-14880265Y24173682D01*
X-14927665Y24183110D01*
X-14951881Y24183110D01*
X-14975884Y24186270D01*
X-15024098Y24183110D01*
X-19526109Y24183102D01*
X-19489094Y24584453D01*
X-19330393Y25964505D01*
X-19000142Y27271957D01*
X-18767197Y27854602D01*
X5363000Y27854602D01*
X5363000Y27343398D01*
X5558629Y26871106D01*
X5920106Y26509629D01*
X6392398Y26314000D01*
X6903602Y26314000D01*
X7375894Y26509629D01*
X7737371Y26871106D01*
X7933000Y27343398D01*
X7933000Y27854602D01*
X7737371Y28326894D01*
X7375894Y28688371D01*
X6903602Y28884000D01*
X6392398Y28884000D01*
X5920106Y28688371D01*
X5558629Y28326894D01*
X5363000Y27854602D01*
X-18767197Y27854602D01*
X-18499520Y28524119D01*
X-17837368Y29698876D01*
X-17025361Y30775518D01*
X-16851049Y30952037D01*
X-10453000Y30952037D01*
X-10453000Y30599963D01*
X-10318267Y30274688D01*
X-10069312Y30025733D01*
X-9744037Y29891000D01*
X-9391963Y29891000D01*
X-9066688Y30025733D01*
X-8817733Y30274688D01*
X-8683000Y30599963D01*
X-8683000Y30952037D01*
X-6453000Y30952037D01*
X-6453000Y30599963D01*
X-6318267Y30274688D01*
X-6069312Y30025733D01*
X-5744037Y29891000D01*
X-5391963Y29891000D01*
X-5066688Y30025733D01*
X-4817733Y30274688D01*
X-4683000Y30599963D01*
X-4683000Y30952037D01*
X-4817733Y31277312D01*
X-5066688Y31526267D01*
X-5391963Y31661000D01*
X-5744037Y31661000D01*
X-6069312Y31526267D01*
X-6318267Y31277312D01*
X-6453000Y30952037D01*
X-8683000Y30952037D01*
X-8817733Y31277312D01*
X-9066688Y31526267D01*
X-9391963Y31661000D01*
X-9744037Y31661000D01*
X-10069312Y31526267D01*
X-10318267Y31277312D01*
X-10453000Y30952037D01*
X-16851049Y30952037D01*
X-16077828Y31735046D01*
X-15011489Y32560528D01*
X-14504767Y32854602D01*
X5363000Y32854602D01*
X5363000Y32343398D01*
X5558629Y31871106D01*
X5920106Y31509629D01*
X6392398Y31314000D01*
X6903602Y31314000D01*
X7375894Y31509629D01*
X7737371Y31871106D01*
X7933000Y32343398D01*
X7933000Y32854602D01*
X7737371Y33326894D01*
X7375894Y33688371D01*
X6903602Y33884000D01*
X6392398Y33884000D01*
X5920106Y33688371D01*
X5558629Y33326894D01*
X5363000Y32854602D01*
X-14504767Y32854602D01*
X-13845150Y33237407D01*
X-12599403Y33753735D01*
X-11296198Y34100409D01*
X-9958559Y34271309D01*
X-8631354Y34263546D01*
X-8629222Y34263122D01*
X-8558872Y34263122D01*
X-8488749Y34262712D01*
X-8486622Y34263122D01*
X-72441Y34263138D01*
X-72437Y34263137D01*
X8486515Y34263153D01*
X8488650Y34262741D01*
X8559010Y34263153D01*
X8629123Y34263153D01*
X8631248Y34263576D01*
X9958453Y34271345D01*
X11296104Y34100449D01*
X11296104Y34100449D01*
G37*
X11296104Y34100449D02*
X12599305Y33753778D01*
X13845058Y33237455D01*
X15011400Y32560579D01*
X16077745Y31735097D01*
X17025280Y30775571D01*
X17419614Y30252725D01*
X19377585Y25553596D01*
X19489032Y24584494D01*
X19526046Y24183171D01*
X15024003Y24183163D01*
X14975779Y24186324D01*
X14951769Y24183163D01*
X14927560Y24183163D01*
X14880173Y24173737D01*
X14183157Y24081973D01*
X14158787Y24086820D01*
X14039005Y24062994D01*
X13991081Y24056685D01*
X13968149Y24048900D01*
X13944392Y24044175D01*
X13899726Y24025674D01*
X13784087Y23986419D01*
X13765406Y23970037D01*
X13205788Y23738234D01*
X13180991Y23736609D01*
X13071450Y23682590D01*
X13026800Y23664095D01*
X13006666Y23650642D01*
X12984938Y23639927D01*
X12946581Y23610494D01*
X12845044Y23542650D01*
X12831239Y23521990D01*
X12350687Y23153249D01*
X12327153Y23145260D01*
X12235320Y23064725D01*
X12196984Y23035308D01*
X12181018Y23017103D01*
X12162805Y23001130D01*
X12133376Y22962777D01*
X12052854Y22870960D01*
X12044867Y22847430D01*
X11676122Y22366873D01*
X11655462Y22353068D01*
X11587611Y22251522D01*
X11558185Y22213174D01*
X11547474Y22191454D01*
X11534016Y22171313D01*
X11515515Y22126649D01*
X11461503Y22017122D01*
X11459878Y21992327D01*
X11228076Y21432707D01*
X11211692Y21414024D01*
X11172434Y21298375D01*
X11153937Y21253718D01*
X11149212Y21229964D01*
X11141427Y21207030D01*
X11135118Y21159105D01*
X11111292Y21039324D01*
X11116140Y21014953D01*
X11037077Y20414410D01*
X11026086Y20392123D01*
X11018098Y20270255D01*
X11011789Y20222332D01*
X11013373Y20198164D01*
X11011789Y20173997D01*
X11018098Y20126074D01*
X11026086Y20004205D01*
X11037077Y19981918D01*
X11116140Y19381373D01*
X11111292Y19357002D01*
X11135118Y19237219D01*
X11141427Y19189297D01*
X11149212Y19166364D01*
X11153937Y19142608D01*
X11172436Y19097948D01*
X11211692Y18982303D01*
X11228076Y18963620D01*
X11459878Y18404003D01*
X11461503Y18379206D01*
X11515521Y18269668D01*
X11534017Y18225015D01*
X11547472Y18204879D01*
X11558185Y18183154D01*
X11587613Y18144803D01*
X11655462Y18043259D01*
X11676124Y18029453D01*
X12044867Y17548898D01*
X12052854Y17525369D01*
X12133375Y17433552D01*
X12162805Y17395198D01*
X12181015Y17379228D01*
X12196983Y17361020D01*
X12235327Y17331597D01*
X12327153Y17251068D01*
X12350685Y17243080D01*
X12831239Y16874337D01*
X12845044Y16853677D01*
X12946581Y16785832D01*
X12984938Y16756400D01*
X13006667Y16745685D01*
X13026800Y16732232D01*
X13071447Y16713739D01*
X13180990Y16659718D01*
X13205788Y16658093D01*
X13765406Y16426291D01*
X13784088Y16409907D01*
X13899728Y16370653D01*
X13944392Y16352152D01*
X13968150Y16347426D01*
X13991082Y16339642D01*
X14039003Y16333333D01*
X14158787Y16309507D01*
X14183158Y16314355D01*
X14880167Y16222592D01*
X14927563Y16213164D01*
X14951777Y16213164D01*
X14975780Y16210004D01*
X15023994Y16213164D01*
X20142865Y16213174D01*
X20206517Y15343540D01*
X20364272Y10718045D01*
X20388143Y6086225D01*
X20277985Y1455677D01*
X20033891Y-3169755D01*
X19656064Y-7786170D01*
X19144824Y-12389720D01*
X18663480Y-15816830D01*
X18292024Y-15816831D01*
X18274071Y-15813260D01*
X12460156Y-15813260D01*
X12409252Y-15810295D01*
X12387930Y-15813260D01*
X12366399Y-15813260D01*
X12316380Y-15823210D01*
X11663152Y-15914045D01*
X11658822Y-15913184D01*
X11634374Y-15918047D01*
X11617412Y-15920406D01*
X11593005Y-15915735D01*
X11473401Y-15940431D01*
X11425523Y-15947089D01*
X11402644Y-15955041D01*
X11378925Y-15959939D01*
X11334402Y-15978761D01*
X11219045Y-16018858D01*
X11200483Y-16035377D01*
X10464120Y-16346680D01*
X10283252Y-16469444D01*
X10222942Y-16561141D01*
X9850720Y-16846757D01*
X9827188Y-16854745D01*
X9735362Y-16935274D01*
X9697018Y-16964697D01*
X9681050Y-16982905D01*
X9662840Y-16998875D01*
X9633412Y-17037227D01*
X9552889Y-17129046D01*
X9544902Y-17152575D01*
X9176159Y-17633130D01*
X9155497Y-17646936D01*
X9087648Y-17748480D01*
X9058220Y-17786831D01*
X9047507Y-17808556D01*
X9034052Y-17828692D01*
X9015556Y-17873345D01*
X8961538Y-17982883D01*
X8959913Y-18007680D01*
X8728111Y-18567297D01*
X8711727Y-18585980D01*
X8672471Y-18701625D01*
X8653972Y-18746285D01*
X8649247Y-18770041D01*
X8641462Y-18792974D01*
X8635153Y-18840896D01*
X8611327Y-18960679D01*
X8616175Y-18985050D01*
X8537112Y-19585595D01*
X8526121Y-19607882D01*
X8518133Y-19729752D01*
X8511824Y-19777674D01*
X8513408Y-19801841D01*
X8511824Y-19826008D01*
X8518133Y-19873930D01*
X8526121Y-19995800D01*
X8537112Y-20018087D01*
X8616175Y-20618632D01*
X8611327Y-20643003D01*
X8635153Y-20762786D01*
X8641462Y-20810708D01*
X8649247Y-20833641D01*
X8653972Y-20857397D01*
X8672471Y-20902057D01*
X8711727Y-21017702D01*
X8728111Y-21036385D01*
X8959913Y-21596002D01*
X8961538Y-21620799D01*
X9015556Y-21730337D01*
X9029337Y-21763606D01*
X7739078Y-21844247D01*
X7712110Y-21848886D01*
X6823110Y-22102886D01*
X6806420Y-22108946D01*
X4520420Y-23124946D01*
X4479935Y-23153519D01*
X4453465Y-23195410D01*
X4445000Y-23241000D01*
X4445000Y-25654000D01*
X-5181Y-25654000D01*
X-127110Y-22727713D01*
X-138792Y-22679557D01*
X-168014Y-22639537D01*
X-210326Y-22613746D01*
X-254000Y-22606000D01*
X-1589117Y-22606000D01*
X-775527Y-21792410D01*
X-712071Y-21750010D01*
X-641088Y-21643777D01*
X-544096Y-21498619D01*
X-521693Y-21385990D01*
X-500286Y-21278369D01*
X-189375Y-21070625D01*
X10000Y-20772239D01*
X110275Y-20922311D01*
X105365Y-20924345D01*
X-157655Y-21187365D01*
X-300000Y-21531017D01*
X-300000Y-21902983D01*
X-157655Y-22246635D01*
X105365Y-22509655D01*
X449017Y-22652000D01*
X820983Y-22652000D01*
X1164635Y-22509655D01*
X1197290Y-22477000D01*
X1898709Y-22477000D01*
X1931364Y-22509655D01*
X2275016Y-22652000D01*
X2646982Y-22652000D01*
X2990634Y-22509655D01*
X3253654Y-22246635D01*
X3395999Y-21902983D01*
X3395999Y-21531017D01*
X3350288Y-21420661D01*
X3673744Y-21485000D01*
X3966256Y-21485000D01*
X4399418Y-21398839D01*
X4890625Y-21070625D01*
X5218839Y-20579418D01*
X5334092Y-20000000D01*
X5218839Y-19420582D01*
X4890625Y-18929375D01*
X4399418Y-18601161D01*
X3966256Y-18515000D01*
X3673744Y-18515000D01*
X3240582Y-18601161D01*
X2749375Y-18929375D01*
X2550000Y-19227761D01*
X2350625Y-18929375D01*
X1859418Y-18601161D01*
X1426256Y-18515000D01*
X1133744Y-18515000D01*
X700582Y-18601161D01*
X209375Y-18929375D01*
X10000Y-19227761D01*
X-189375Y-18929375D01*
X-680582Y-18601161D01*
X-1113744Y-18515000D01*
X-1406256Y-18515000D01*
X-1537939Y-18541193D01*
X-2516013Y-17563120D01*
X-2516013Y-12598789D01*
X-1490327Y-13624476D01*
X-1447929Y-13687929D01*
X-1384476Y-13730327D01*
X-1384474Y-13730329D01*
X-1259098Y-13814102D01*
X-1196537Y-13855904D01*
X-974852Y-13900000D01*
X-974848Y-13900000D01*
X-927964Y-13909326D01*
X-904635Y-13932655D01*
X-560983Y-14075000D01*
X-189017Y-14075000D01*
X154635Y-13932655D01*
X417655Y-13669635D01*
X560000Y-13325983D01*
X560000Y-12954017D01*
X417655Y-12610365D01*
X154635Y-12347345D01*
X124262Y-12334764D01*
X161520Y-12297506D01*
X4838000Y-12297506D01*
X4838000Y-12848494D01*
X5048853Y-13357540D01*
X5438460Y-13747147D01*
X5947506Y-13958000D01*
X6498494Y-13958000D01*
X7007540Y-13747147D01*
X7397147Y-13357540D01*
X7608000Y-12848494D01*
X7608000Y-12297506D01*
X7433127Y-11875322D01*
X12865000Y-11875322D01*
X12865000Y-12724678D01*
X13190034Y-13509380D01*
X13790620Y-14109966D01*
X14575322Y-14435000D01*
X15424678Y-14435000D01*
X16209380Y-14109966D01*
X16809966Y-13509380D01*
X17135000Y-12724678D01*
X17135000Y-11875322D01*
X16809966Y-11090620D01*
X16209380Y-10490034D01*
X15424678Y-10165000D01*
X14575322Y-10165000D01*
X13790620Y-10490034D01*
X13190034Y-11090620D01*
X12865000Y-11875322D01*
X7433127Y-11875322D01*
X7397147Y-11788460D01*
X7007540Y-11398853D01*
X6498494Y-11188000D01*
X5947506Y-11188000D01*
X5438460Y-11398853D01*
X5048853Y-11788460D01*
X4838000Y-12297506D01*
X161520Y-12297506D01*
X336030Y-12122996D01*
X478375Y-11779344D01*
X478375Y-11407378D01*
X364378Y-11132165D01*
X427000Y-10980983D01*
X427000Y-10934801D01*
X2389476Y-8972327D01*
X2452929Y-8929929D01*
X2495327Y-8866476D01*
X2495329Y-8866474D01*
X2620903Y-8678538D01*
X2620904Y-8678537D01*
X2665000Y-8456852D01*
X2665000Y-8456848D01*
X2679888Y-8382001D01*
X2665000Y-8307154D01*
X2665000Y-7397506D01*
X4838000Y-7397506D01*
X4838000Y-7948494D01*
X5048853Y-8457540D01*
X5438460Y-8847147D01*
X5947506Y-9058000D01*
X6498494Y-9058000D01*
X7007540Y-8847147D01*
X7397147Y-8457540D01*
X7608000Y-7948494D01*
X7608000Y-7397506D01*
X7397147Y-6888460D01*
X7007540Y-6498853D01*
X6498494Y-6288000D01*
X5947506Y-6288000D01*
X5438460Y-6498853D01*
X5048853Y-6888460D01*
X4838000Y-7397506D01*
X2665000Y-7397506D01*
X2665000Y-5205398D01*
X11582000Y-5205398D01*
X11582000Y-5716602D01*
X11777629Y-6188894D01*
X12139106Y-6550371D01*
X12611398Y-6746000D01*
X13122602Y-6746000D01*
X13594894Y-6550371D01*
X13956371Y-6188894D01*
X14152000Y-5716602D01*
X14152000Y-5205398D01*
X16582000Y-5205398D01*
X16582000Y-5716602D01*
X16777629Y-6188894D01*
X17139106Y-6550371D01*
X17611398Y-6746000D01*
X18122602Y-6746000D01*
X18594894Y-6550371D01*
X18956371Y-6188894D01*
X19152000Y-5716602D01*
X19152000Y-5205398D01*
X18956371Y-4733106D01*
X18594894Y-4371629D01*
X18122602Y-4176000D01*
X17611398Y-4176000D01*
X17139106Y-4371629D01*
X16777629Y-4733106D01*
X16582000Y-5205398D01*
X14152000Y-5205398D01*
X13956371Y-4733106D01*
X13594894Y-4371629D01*
X13122602Y-4176000D01*
X12611398Y-4176000D01*
X12139106Y-4371629D01*
X11777629Y-4733106D01*
X11582000Y-5205398D01*
X2665000Y-5205398D01*
X2665000Y-1592017D01*
X4780000Y-1592017D01*
X4780000Y-1963983D01*
X4922345Y-2307635D01*
X5185365Y-2570655D01*
X5448395Y-2679605D01*
X5557345Y-2942635D01*
X5820365Y-3205655D01*
X6164017Y-3348000D01*
X6535983Y-3348000D01*
X6879635Y-3205655D01*
X6912290Y-3173000D01*
X8561153Y-3173000D01*
X8636000Y-3187888D01*
X8710847Y-3173000D01*
X8710852Y-3173000D01*
X8932537Y-3128904D01*
X9183929Y-2960929D01*
X9226331Y-2897470D01*
X18554803Y6431000D01*
X18600983Y6431000D01*
X18944635Y6573345D01*
X19207655Y6836365D01*
X19350000Y7180017D01*
X19350000Y7551983D01*
X19207655Y7895635D01*
X18944635Y8158655D01*
X18600983Y8301000D01*
X18229017Y8301000D01*
X17885365Y8158655D01*
X17622345Y7895635D01*
X17480000Y7551983D01*
X17480000Y7505803D01*
X8321199Y-1653000D01*
X6914801Y-1653000D01*
X13658951Y5091148D01*
X13864635Y5176345D01*
X14127655Y5439365D01*
X14270000Y5783017D01*
X14270000Y6154983D01*
X14127655Y6498635D01*
X13864635Y6761655D01*
X13520983Y6904000D01*
X13149017Y6904000D01*
X12805365Y6761655D01*
X12542345Y6498635D01*
X12400000Y6154983D01*
X12400000Y5981803D01*
X5575199Y-843000D01*
X5529017Y-843000D01*
X5185365Y-985345D01*
X4922345Y-1248365D01*
X4780000Y-1592017D01*
X2665000Y-1592017D01*
X2665000Y10730720D01*
X2697655Y10763375D01*
X2840000Y11107027D01*
X2840000Y11478993D01*
X2697655Y11822645D01*
X2434635Y12085665D01*
X2090983Y12228010D01*
X1719017Y12228010D01*
X1451772Y12117314D01*
X1184527Y12228010D01*
X812561Y12228010D01*
X598538Y12139359D01*
X384514Y12228010D01*
X12548Y12228010D01*
X-218235Y12132417D01*
X-449017Y12228010D01*
X-820983Y12228010D01*
X-1164635Y12085665D01*
X-1427655Y11822645D01*
X-1570000Y11478993D01*
X-1570000Y11107027D01*
X-1427655Y10763375D01*
X-1394999Y10730719D01*
X-1395000Y-2304206D01*
X-1558451Y-2236503D01*
X-1604631Y-2236503D01*
X-2669000Y-1172136D01*
X-2669000Y11502710D01*
X-2636345Y11535365D01*
X-2494000Y11879017D01*
X-2494000Y12250983D01*
X-2636345Y12594635D01*
X-2899365Y12857655D01*
X-3243017Y13000000D01*
X-3614983Y13000000D01*
X-3958635Y12857655D01*
X-4221655Y12594635D01*
X-4364000Y12250983D01*
X-4364000Y11879017D01*
X-4221655Y11535365D01*
X-4189000Y11502710D01*
X-4189000Y6034272D01*
X-4402463Y6176904D01*
X-4624148Y6221000D01*
X-4624153Y6221000D01*
X-4699000Y6235888D01*
X-4773847Y6221000D01*
X-4944822Y6221000D01*
X-5152375Y6531625D01*
X-5643582Y6859839D01*
X-6076744Y6946000D01*
X-6369256Y6946000D01*
X-6802418Y6859839D01*
X-7293625Y6531625D01*
X-7308096Y6509968D01*
X-7374673Y6670699D01*
X-7553302Y6849327D01*
X-7786691Y6946000D01*
X-8477250Y6946000D01*
X-8636000Y6787250D01*
X-8636000Y5588000D01*
X-8616000Y5588000D01*
X-8616000Y5334000D01*
X-8636000Y5334000D01*
X-8636000Y5314000D01*
X-8890000Y5314000D01*
X-8890000Y5334000D01*
X-10089250Y5334000D01*
X-10248000Y5175250D01*
X-10248000Y4484690D01*
X-10151327Y4251301D01*
X-9972698Y4072673D01*
X-9811967Y4006096D01*
X-9833625Y3991625D01*
X-10161839Y3500418D01*
X-10277092Y2921000D01*
X-10161839Y2341582D01*
X-9833625Y1850375D01*
X-9535239Y1651000D01*
X-9833625Y1451625D01*
X-10161839Y960418D01*
X-10277092Y381000D01*
X-10161839Y-198418D01*
X-9833625Y-689625D01*
X-9647999Y-813656D01*
X-9648000Y-1696092D01*
X-9742935Y-1647446D01*
X-9906000Y-1773372D01*
X-9906000Y-2540000D01*
X-9886000Y-2540000D01*
X-9886000Y-2637105D01*
X-9905998Y-2611108D01*
X-9905998Y-2607000D01*
X-9909158Y-2607000D01*
X-10160000Y-2280905D01*
X-10160000Y-1773372D01*
X-10323065Y-1647446D01*
X-10691152Y-1836058D01*
X-10857728Y-2032000D01*
X-15367000Y-2032000D01*
X-15387406Y-2033650D01*
X-20053729Y-2793284D01*
X-20277969Y1455625D01*
X-20293753Y2119000D01*
X-19977180Y2119000D01*
X-19578397Y2284182D01*
X-19273182Y2589397D01*
X-19108000Y2988180D01*
X-19108000Y3419820D01*
X-19273182Y3818603D01*
X-19578397Y4123818D01*
X-19977180Y4289000D01*
X-20345383Y4289000D01*
X-20388142Y6086172D01*
X-20386334Y6437310D01*
X-10248000Y6437310D01*
X-10248000Y5746750D01*
X-10089250Y5588000D01*
X-8890000Y5588000D01*
X-8890000Y6787250D01*
X-9048750Y6946000D01*
X-9739309Y6946000D01*
X-9972698Y6849327D01*
X-10151327Y6670699D01*
X-10248000Y6437310D01*
X-20386334Y6437310D01*
X-20373553Y8919000D01*
X-19977180Y8919000D01*
X-19578397Y9084182D01*
X-19273182Y9389397D01*
X-19108000Y9788180D01*
X-19108000Y10219820D01*
X-19273182Y10618603D01*
X-19578397Y10923818D01*
X-19977180Y11089000D01*
X-20351635Y11089000D01*
X-20282215Y13124678D01*
X-17135000Y13124678D01*
X-17135000Y12275322D01*
X-16809966Y11490620D01*
X-16209380Y10890034D01*
X-15424678Y10565000D01*
X-14575322Y10565000D01*
X-14114207Y10756000D01*
X-11276440Y10756000D01*
X-11276440Y9056000D01*
X-11227157Y8808235D01*
X-11086809Y8598191D01*
X-10876765Y8457843D01*
X-10629000Y8408560D01*
X-8929000Y8408560D01*
X-8681235Y8457843D01*
X-8471191Y8598191D01*
X-8330843Y8808235D01*
X-8281560Y9056000D01*
X-8281560Y10756000D01*
X-7593440Y10756000D01*
X-7593440Y9056000D01*
X-7544157Y8808235D01*
X-7403809Y8598191D01*
X-7193765Y8457843D01*
X-6946000Y8408560D01*
X-5246000Y8408560D01*
X-4998235Y8457843D01*
X-4788191Y8598191D01*
X-4647843Y8808235D01*
X-4598560Y9056000D01*
X-4598560Y10756000D01*
X-4647843Y11003765D01*
X-4788191Y11213809D01*
X-4998235Y11354157D01*
X-5246000Y11403440D01*
X-6946000Y11403440D01*
X-7193765Y11354157D01*
X-7403809Y11213809D01*
X-7544157Y11003765D01*
X-7593440Y10756000D01*
X-8281560Y10756000D01*
X-8330843Y11003765D01*
X-8471191Y11213809D01*
X-8681235Y11354157D01*
X-8929000Y11403440D01*
X-10629000Y11403440D01*
X-10876765Y11354157D01*
X-11086809Y11213809D01*
X-11227157Y11003765D01*
X-11276440Y10756000D01*
X-14114207Y10756000D01*
X-13790620Y10890034D01*
X-13190034Y11490620D01*
X-12865000Y12275322D01*
X-12865000Y13124678D01*
X-13190034Y13909380D01*
X-13790620Y14509966D01*
X-14575322Y14835000D01*
X-15424678Y14835000D01*
X-16209380Y14509966D01*
X-16809966Y13909380D01*
X-17135000Y13124678D01*
X-20282215Y13124678D01*
X-20216729Y15044983D01*
X-11730000Y15044983D01*
X-11730000Y14673017D01*
X-11587655Y14329365D01*
X-11324635Y14066345D01*
X-10980983Y13924000D01*
X-10609017Y13924000D01*
X-10265365Y14066345D01*
X-10002345Y14329365D01*
X-9982920Y14376263D01*
X208503Y14376263D01*
X208503Y13924731D01*
X381296Y13507571D01*
X700577Y13188290D01*
X1117737Y13015497D01*
X1569269Y13015497D01*
X1832855Y13124678D01*
X12865000Y13124678D01*
X12865000Y12275322D01*
X13190034Y11490620D01*
X13790620Y10890034D01*
X14575322Y10565000D01*
X15424678Y10565000D01*
X16209380Y10890034D01*
X16809966Y11490620D01*
X17135000Y12275322D01*
X17135000Y13124678D01*
X16809966Y13909380D01*
X16209380Y14509966D01*
X15424678Y14835000D01*
X14575322Y14835000D01*
X13790620Y14509966D01*
X13190034Y13909380D01*
X12865000Y13124678D01*
X1832855Y13124678D01*
X1986429Y13188290D01*
X2305710Y13507571D01*
X2478503Y13924731D01*
X2478503Y14376263D01*
X2305710Y14793423D01*
X1986429Y15112704D01*
X1569269Y15285497D01*
X1117737Y15285497D01*
X700577Y15112704D01*
X381296Y14793423D01*
X208503Y14376263D01*
X-9982920Y14376263D01*
X-9860000Y14673017D01*
X-9860000Y14719199D01*
X-7988198Y16591000D01*
X-7688017Y16591000D01*
X-7344365Y16733345D01*
X-7081345Y16996365D01*
X-7065992Y17033432D01*
X-2328503Y17033432D01*
X-2328503Y16641574D01*
X-2178545Y16279545D01*
X-1901461Y16002461D01*
X-1539432Y15852503D01*
X-1147574Y15852503D01*
X-785545Y16002461D01*
X-508461Y16279545D01*
X-358503Y16641574D01*
X-358503Y17033432D01*
X-508461Y17395461D01*
X-785545Y17672545D01*
X-1147574Y17822503D01*
X-1539432Y17822503D01*
X-1901461Y17672545D01*
X-2178545Y17395461D01*
X-2328503Y17033432D01*
X-7065992Y17033432D01*
X-6939000Y17340017D01*
X-6939000Y17711983D01*
X-7081345Y18055635D01*
X-7344365Y18318655D01*
X-7688017Y18461000D01*
X-8059983Y18461000D01*
X-8403635Y18318655D01*
X-8592848Y18129442D01*
X-8675929Y18073929D01*
X-8718329Y18010473D01*
X-10934801Y15794000D01*
X-10980983Y15794000D01*
X-11324635Y15651655D01*
X-11587655Y15388635D01*
X-11730000Y15044983D01*
X-20216729Y15044983D01*
X-20206424Y15347142D01*
X-20151773Y16213101D01*
X-15024107Y16213111D01*
X-14975883Y16209950D01*
X-14951873Y16213111D01*
X-14927662Y16213111D01*
X-14880272Y16222538D01*
X-14183260Y16314302D01*
X-14158890Y16309454D01*
X-14039110Y16333279D01*
X-13991184Y16339589D01*
X-13968250Y16347374D01*
X-13944496Y16352099D01*
X-13899835Y16370598D01*
X-13784189Y16409855D01*
X-13765508Y16426238D01*
X-13474589Y16546740D01*
X-13474588Y16546741D01*
X-13205889Y16658040D01*
X-13181094Y16659665D01*
X-13071563Y16713679D01*
X-13026901Y16732179D01*
X-13006762Y16745635D01*
X-12985041Y16756347D01*
X-12946694Y16785772D01*
X-12845146Y16853624D01*
X-12831340Y16874286D01*
X-12350787Y17243027D01*
X-12327256Y17251015D01*
X-12235430Y17331544D01*
X-12197086Y17360966D01*
X-12181119Y17379173D01*
X-12162907Y17395144D01*
X-12133480Y17433494D01*
X-12052956Y17525313D01*
X-12044968Y17548845D01*
X-11676224Y18029401D01*
X-11655563Y18043206D01*
X-11587714Y18144749D01*
X-11558287Y18183099D01*
X-11547574Y18204822D01*
X-11534118Y18224961D01*
X-11515620Y18269619D01*
X-11461605Y18379151D01*
X-11459980Y18403947D01*
X-11228178Y18963568D01*
X-11211794Y18982250D01*
X-11172538Y19097894D01*
X-11154039Y19142555D01*
X-11149314Y19166311D01*
X-11141529Y19189244D01*
X-11135220Y19237168D01*
X-11111394Y19356950D01*
X-11116242Y19381321D01*
X-11037178Y19981866D01*
X-11026188Y20004152D01*
X-11018201Y20126015D01*
X-11011891Y20173941D01*
X-11013475Y20198110D01*
X-11011891Y20222279D01*
X-11018201Y20270205D01*
X-11026188Y20392068D01*
X-11037178Y20414354D01*
X-11116242Y21014901D01*
X-11111394Y21039272D01*
X-11135220Y21159056D01*
X-11141529Y21206977D01*
X-11149313Y21229909D01*
X-11154039Y21253667D01*
X-11172540Y21298331D01*
X-11211794Y21413971D01*
X-11228178Y21432653D01*
X-11459980Y21992271D01*
X-11461605Y22017069D01*
X-11515626Y22126612D01*
X-11534119Y22171259D01*
X-11547572Y22191392D01*
X-11558287Y22213121D01*
X-11587719Y22251478D01*
X-11655564Y22353015D01*
X-11676224Y22366820D01*
X-12044967Y22847374D01*
X-12052955Y22870906D01*
X-12133484Y22962732D01*
X-12162907Y23001076D01*
X-12181115Y23017044D01*
X-12197085Y23035254D01*
X-12235437Y23064682D01*
X-12327256Y23145205D01*
X-12350785Y23153192D01*
X-12831340Y23521935D01*
X-12845146Y23542597D01*
X-12946690Y23610446D01*
X-12985041Y23639874D01*
X-13006766Y23650587D01*
X-13026902Y23664042D01*
X-13071555Y23682538D01*
X-13181093Y23736556D01*
X-13205890Y23738181D01*
X-13608247Y23904843D01*
X-13608248Y23904843D01*
X-13765507Y23969982D01*
X-13784190Y23986367D01*
X-13899836Y24025623D01*
X-13944495Y24044122D01*
X-13968251Y24048847D01*
X-13991184Y24056632D01*
X-14039106Y24062941D01*
X-14158889Y24086767D01*
X-14183260Y24081919D01*
X-14880265Y24173682D01*
X-14927665Y24183110D01*
X-14951881Y24183110D01*
X-14975884Y24186270D01*
X-15024098Y24183110D01*
X-19526109Y24183102D01*
X-19489094Y24584453D01*
X-19330393Y25964505D01*
X-19000142Y27271957D01*
X-18767197Y27854602D01*
X5363000Y27854602D01*
X5363000Y27343398D01*
X5558629Y26871106D01*
X5920106Y26509629D01*
X6392398Y26314000D01*
X6903602Y26314000D01*
X7375894Y26509629D01*
X7737371Y26871106D01*
X7933000Y27343398D01*
X7933000Y27854602D01*
X7737371Y28326894D01*
X7375894Y28688371D01*
X6903602Y28884000D01*
X6392398Y28884000D01*
X5920106Y28688371D01*
X5558629Y28326894D01*
X5363000Y27854602D01*
X-18767197Y27854602D01*
X-18499520Y28524119D01*
X-17837368Y29698876D01*
X-17025361Y30775518D01*
X-16851049Y30952037D01*
X-10453000Y30952037D01*
X-10453000Y30599963D01*
X-10318267Y30274688D01*
X-10069312Y30025733D01*
X-9744037Y29891000D01*
X-9391963Y29891000D01*
X-9066688Y30025733D01*
X-8817733Y30274688D01*
X-8683000Y30599963D01*
X-8683000Y30952037D01*
X-6453000Y30952037D01*
X-6453000Y30599963D01*
X-6318267Y30274688D01*
X-6069312Y30025733D01*
X-5744037Y29891000D01*
X-5391963Y29891000D01*
X-5066688Y30025733D01*
X-4817733Y30274688D01*
X-4683000Y30599963D01*
X-4683000Y30952037D01*
X-4817733Y31277312D01*
X-5066688Y31526267D01*
X-5391963Y31661000D01*
X-5744037Y31661000D01*
X-6069312Y31526267D01*
X-6318267Y31277312D01*
X-6453000Y30952037D01*
X-8683000Y30952037D01*
X-8817733Y31277312D01*
X-9066688Y31526267D01*
X-9391963Y31661000D01*
X-9744037Y31661000D01*
X-10069312Y31526267D01*
X-10318267Y31277312D01*
X-10453000Y30952037D01*
X-16851049Y30952037D01*
X-16077828Y31735046D01*
X-15011489Y32560528D01*
X-14504767Y32854602D01*
X5363000Y32854602D01*
X5363000Y32343398D01*
X5558629Y31871106D01*
X5920106Y31509629D01*
X6392398Y31314000D01*
X6903602Y31314000D01*
X7375894Y31509629D01*
X7737371Y31871106D01*
X7933000Y32343398D01*
X7933000Y32854602D01*
X7737371Y33326894D01*
X7375894Y33688371D01*
X6903602Y33884000D01*
X6392398Y33884000D01*
X5920106Y33688371D01*
X5558629Y33326894D01*
X5363000Y32854602D01*
X-14504767Y32854602D01*
X-13845150Y33237407D01*
X-12599403Y33753735D01*
X-11296198Y34100409D01*
X-9958559Y34271309D01*
X-8631354Y34263546D01*
X-8629222Y34263122D01*
X-8558872Y34263122D01*
X-8488749Y34262712D01*
X-8486622Y34263122D01*
X-72441Y34263138D01*
X-72437Y34263137D01*
X8486515Y34263153D01*
X8488650Y34262741D01*
X8559010Y34263153D01*
X8629123Y34263153D01*
X8631248Y34263576D01*
X9958453Y34271345D01*
X11296104Y34100449D01*
G36*
X-4942275Y-7877710D02*
X-4974930Y-7910365D01*
X-5117275Y-8254017D01*
X-5117275Y-8625983D01*
X-4974930Y-8969635D01*
X-4711910Y-9232655D01*
X-4368258Y-9375000D01*
X-4186012Y-9375000D01*
X-4186013Y-17826754D01*
X-4202370Y-17908987D01*
X-4186013Y-17991220D01*
X-4186013Y-17991223D01*
X-4137565Y-18234787D01*
X-3953014Y-18510988D01*
X-3927002Y-18528369D01*
X-3927002Y-18673748D01*
X-4085750Y-18515000D01*
X-4776310Y-18515000D01*
X-5009699Y-18611673D01*
X-5188327Y-18790302D01*
X-5285000Y-19023691D01*
X-5285000Y-19714250D01*
X-5126250Y-19873000D01*
X-3927000Y-19873000D01*
X-3927000Y-19853000D01*
X-3673000Y-19853000D01*
X-3673000Y-19873000D01*
X-3653000Y-19873000D01*
X-3653000Y-20127000D01*
X-3673000Y-20127000D01*
X-3673000Y-21326250D01*
X-3514250Y-21485000D01*
X-2823690Y-21485000D01*
X-2590301Y-21388327D01*
X-2411673Y-21209698D01*
X-2345096Y-21048967D01*
X-2330625Y-21070625D01*
X-2254327Y-21121606D01*
X-3738720Y-22606000D01*
X-4445000Y-22606000D01*
X-4493601Y-22615667D01*
X-4534803Y-22643197D01*
X-4562333Y-22684399D01*
X-4572000Y-22733000D01*
X-4572000Y-24892000D01*
X-7231749Y-24892000D01*
X-6975847Y-20285750D01*
X-5285000Y-20285750D01*
X-5285000Y-20976309D01*
X-5188327Y-21209698D01*
X-5009699Y-21388327D01*
X-4776310Y-21485000D01*
X-4085750Y-21485000D01*
X-3927000Y-21326250D01*
X-3927000Y-20127000D01*
X-5126250Y-20127000D01*
X-5285000Y-20285750D01*
X-6975847Y-20285750D01*
X-6237571Y-6996791D01*
X-6154983Y-7031000D01*
X-5783017Y-7031000D01*
X-5439365Y-6888655D01*
X-5176345Y-6625635D01*
X-5034000Y-6281983D01*
X-5034000Y-5910017D01*
X-5176345Y-5566365D01*
X-5439365Y-5303345D01*
X-5560076Y-5253345D01*
X-7878000Y-2935422D01*
X-7878000Y-813656D01*
X-7692375Y-689625D01*
X-7493000Y-391239D01*
X-7293625Y-689625D01*
X-6802418Y-1017839D01*
X-6369256Y-1104000D01*
X-6076744Y-1104000D01*
X-5643582Y-1017839D01*
X-5152375Y-689625D01*
X-4942274Y-375187D01*
X-4942275Y-7877710D01*
X-4942275Y-7877710D01*
G37*
X-4942275Y-7877710D02*
X-4974930Y-7910365D01*
X-5117275Y-8254017D01*
X-5117275Y-8625983D01*
X-4974930Y-8969635D01*
X-4711910Y-9232655D01*
X-4368258Y-9375000D01*
X-4186012Y-9375000D01*
X-4186013Y-17826754D01*
X-4202370Y-17908987D01*
X-4186013Y-17991220D01*
X-4186013Y-17991223D01*
X-4137565Y-18234787D01*
X-3953014Y-18510988D01*
X-3927002Y-18528369D01*
X-3927002Y-18673748D01*
X-4085750Y-18515000D01*
X-4776310Y-18515000D01*
X-5009699Y-18611673D01*
X-5188327Y-18790302D01*
X-5285000Y-19023691D01*
X-5285000Y-19714250D01*
X-5126250Y-19873000D01*
X-3927000Y-19873000D01*
X-3927000Y-19853000D01*
X-3673000Y-19853000D01*
X-3673000Y-19873000D01*
X-3653000Y-19873000D01*
X-3653000Y-20127000D01*
X-3673000Y-20127000D01*
X-3673000Y-21326250D01*
X-3514250Y-21485000D01*
X-2823690Y-21485000D01*
X-2590301Y-21388327D01*
X-2411673Y-21209698D01*
X-2345096Y-21048967D01*
X-2330625Y-21070625D01*
X-2254327Y-21121606D01*
X-3738720Y-22606000D01*
X-4445000Y-22606000D01*
X-4493601Y-22615667D01*
X-4534803Y-22643197D01*
X-4562333Y-22684399D01*
X-4572000Y-22733000D01*
X-4572000Y-24892000D01*
X-7231749Y-24892000D01*
X-6975847Y-20285750D01*
X-5285000Y-20285750D01*
X-5285000Y-20976309D01*
X-5188327Y-21209698D01*
X-5009699Y-21388327D01*
X-4776310Y-21485000D01*
X-4085750Y-21485000D01*
X-3927000Y-21326250D01*
X-3927000Y-20127000D01*
X-5126250Y-20127000D01*
X-5285000Y-20285750D01*
X-6975847Y-20285750D01*
X-6237571Y-6996791D01*
X-6154983Y-7031000D01*
X-5783017Y-7031000D01*
X-5439365Y-6888655D01*
X-5176345Y-6625635D01*
X-5034000Y-6281983D01*
X-5034000Y-5910017D01*
X-5176345Y-5566365D01*
X-5439365Y-5303345D01*
X-5560076Y-5253345D01*
X-7878000Y-2935422D01*
X-7878000Y-813656D01*
X-7692375Y-689625D01*
X-7493000Y-391239D01*
X-7293625Y-689625D01*
X-6802418Y-1017839D01*
X-6369256Y-1104000D01*
X-6076744Y-1104000D01*
X-5643582Y-1017839D01*
X-5152375Y-689625D01*
X-4942274Y-375187D01*
X-4942275Y-7877710D01*
G36*
X-11093000Y-3284631D02*
X-11093000Y-3381250D01*
X-10934250Y-3540000D01*
X-10609073Y-3540000D01*
X-10323065Y-3686554D01*
X-10299744Y-3668545D01*
X-10234289Y-3794000D01*
X-10934250Y-3794000D01*
X-11093000Y-3952750D01*
X-11093000Y-4218310D01*
X-10996327Y-4451699D01*
X-10817698Y-4630327D01*
X-10584309Y-4727000D01*
X-10318750Y-4727000D01*
X-10160000Y-4568250D01*
X-10160000Y-3936388D01*
X-9906000Y-4423221D01*
X-9906000Y-4568250D01*
X-9747787Y-4726463D01*
X-9014022Y-6132846D01*
X-8191296Y-14613255D01*
X-7810430Y-26039231D01*
X-7799148Y-26087483D01*
X-7770261Y-26127744D01*
X-7728165Y-26153887D01*
X-7691547Y-26161745D01*
X-4180083Y-26384695D01*
X-4158155Y-26437635D01*
X-3895135Y-26700655D01*
X-3551483Y-26843000D01*
X-3179517Y-26843000D01*
X-2835865Y-26700655D01*
X-2572845Y-26437635D01*
X-2571200Y-26433664D01*
X3955353Y-26537260D01*
X3744661Y-26852582D01*
X3629408Y-27432000D01*
X3744661Y-28011418D01*
X3911617Y-28261286D01*
X3572389Y-28261286D01*
X3500001Y-28246887D01*
X3427613Y-28261286D01*
X3213218Y-28303932D01*
X2970096Y-28466381D01*
X2807647Y-28709503D01*
X2750602Y-28996286D01*
X2765001Y-29068674D01*
X2765002Y-34261696D01*
X-5764999Y-34266453D01*
X-5764999Y-33074251D01*
X-5750600Y-33001863D01*
X-5807645Y-32715080D01*
X-5970094Y-32471958D01*
X-6213216Y-32309509D01*
X-6354328Y-32281440D01*
X-6161200Y-32281440D01*
X-5913435Y-32232157D01*
X-5703391Y-32091809D01*
X-5563043Y-31881765D01*
X-5513760Y-31634000D01*
X-5513760Y-29834000D01*
X-5563043Y-29586235D01*
X-5703391Y-29376191D01*
X-5913435Y-29235843D01*
X-6161200Y-29186560D01*
X-7961200Y-29186560D01*
X-8208965Y-29235843D01*
X-8419009Y-29376191D01*
X-8559357Y-29586235D01*
X-8562475Y-29601908D01*
X-8731693Y-29432690D01*
X-9295870Y-29199000D01*
X-9906530Y-29199000D01*
X-10470707Y-29432690D01*
X-10902510Y-29864493D01*
X-11136200Y-30428670D01*
X-11136200Y-31039330D01*
X-10902510Y-31603507D01*
X-10470707Y-32035310D01*
X-9911689Y-32266863D01*
X-10027611Y-32266863D01*
X-10099999Y-32252464D01*
X-10231634Y-32278648D01*
X-10386782Y-32309509D01*
X-10629904Y-32471958D01*
X-10792353Y-32715080D01*
X-10849398Y-33001863D01*
X-10834999Y-33074252D01*
X-10834998Y-34268541D01*
X-11210913Y-34266970D01*
X-11756535Y-34236137D01*
X-12273214Y-34147794D01*
X-12776643Y-34001807D01*
X-13260434Y-33800028D01*
X-13718400Y-33545037D01*
X-14144725Y-33240074D01*
X-14533983Y-32889021D01*
X-14881214Y-32496350D01*
X-15181996Y-32067058D01*
X-15432498Y-31606619D01*
X-15629536Y-31120878D01*
X-15777206Y-30592383D01*
X-16815324Y-26084808D01*
X-17274964Y-23786893D01*
X-12524073Y-23786884D01*
X-12475849Y-23790045D01*
X-12451839Y-23786884D01*
X-12427627Y-23786884D01*
X-12380236Y-23777457D01*
X-11683225Y-23685694D01*
X-11658854Y-23690542D01*
X-11539078Y-23666717D01*
X-11491149Y-23660407D01*
X-11468211Y-23652621D01*
X-11444459Y-23647896D01*
X-11399808Y-23629401D01*
X-11284155Y-23590142D01*
X-11265471Y-23573757D01*
X-11073544Y-23494258D01*
X-10705853Y-23341956D01*
X-10681058Y-23340331D01*
X-10571531Y-23286318D01*
X-10526867Y-23267818D01*
X-10506725Y-23254360D01*
X-10485006Y-23243649D01*
X-10446665Y-23214229D01*
X-10345111Y-23146373D01*
X-10331304Y-23125709D01*
X-9850750Y-22756967D01*
X-9827221Y-22748980D01*
X-9735402Y-22668457D01*
X-9697050Y-22639029D01*
X-9681080Y-22620819D01*
X-9662872Y-22604851D01*
X-9633449Y-22566507D01*
X-9552920Y-22474681D01*
X-9544932Y-22451149D01*
X-9176189Y-21970595D01*
X-9155529Y-21956790D01*
X-9087684Y-21855253D01*
X-9058252Y-21816896D01*
X-9047537Y-21795167D01*
X-9034084Y-21775034D01*
X-9015591Y-21730387D01*
X-8961570Y-21620844D01*
X-8959945Y-21596046D01*
X-8728143Y-21036428D01*
X-8711759Y-21017746D01*
X-8672505Y-20902106D01*
X-8654004Y-20857442D01*
X-8649278Y-20833684D01*
X-8641494Y-20810752D01*
X-8635185Y-20762831D01*
X-8611359Y-20643047D01*
X-8616207Y-20618676D01*
X-8537143Y-20018129D01*
X-8526153Y-19995843D01*
X-8518166Y-19873980D01*
X-8511856Y-19826054D01*
X-8513440Y-19801885D01*
X-8511856Y-19777716D01*
X-8518166Y-19729790D01*
X-8526153Y-19607927D01*
X-8537143Y-19585641D01*
X-8616207Y-18985094D01*
X-8611359Y-18960723D01*
X-8635185Y-18840939D01*
X-8641494Y-18793018D01*
X-8649278Y-18770086D01*
X-8654004Y-18746328D01*
X-8672505Y-18701664D01*
X-8711759Y-18586024D01*
X-8728143Y-18567342D01*
X-8959945Y-18007724D01*
X-8961570Y-17982926D01*
X-9015591Y-17873383D01*
X-9034084Y-17828736D01*
X-9047537Y-17808603D01*
X-9058252Y-17786874D01*
X-9087684Y-17748517D01*
X-9155529Y-17646980D01*
X-9176189Y-17633175D01*
X-9544933Y-17152620D01*
X-9552921Y-17129088D01*
X-9633445Y-17037269D01*
X-9662872Y-16998919D01*
X-9681084Y-16982948D01*
X-9697051Y-16964741D01*
X-9735395Y-16935319D01*
X-9827221Y-16854790D01*
X-9850752Y-16846802D01*
X-10331305Y-16478061D01*
X-10345111Y-16457399D01*
X-10446659Y-16389547D01*
X-10485006Y-16360122D01*
X-10506727Y-16349410D01*
X-10526866Y-16335954D01*
X-10571528Y-16317454D01*
X-10681059Y-16263440D01*
X-10705853Y-16261815D01*
X-11108210Y-16095153D01*
X-11265472Y-16030013D01*
X-11284155Y-16013628D01*
X-11399801Y-15974372D01*
X-11444460Y-15955873D01*
X-11468216Y-15951148D01*
X-11491149Y-15943363D01*
X-11539071Y-15937054D01*
X-11658854Y-15913228D01*
X-11683225Y-15918076D01*
X-12380230Y-15826313D01*
X-12427630Y-15816885D01*
X-12451846Y-15816885D01*
X-12475849Y-15813725D01*
X-12524063Y-15816885D01*
X-18663401Y-15816897D01*
X-19144760Y-12389776D01*
X-19201893Y-11875322D01*
X-17135000Y-11875322D01*
X-17135000Y-12724678D01*
X-16809966Y-13509380D01*
X-16209380Y-14109966D01*
X-15424678Y-14435000D01*
X-14575322Y-14435000D01*
X-13790620Y-14109966D01*
X-13190034Y-13509380D01*
X-12865000Y-12724678D01*
X-12865000Y-11875322D01*
X-13190034Y-11090620D01*
X-13790620Y-10490034D01*
X-14575322Y-10165000D01*
X-15424678Y-10165000D01*
X-16209380Y-10490034D01*
X-16809966Y-11090620D01*
X-17135000Y-11875322D01*
X-19201893Y-11875322D01*
X-19656013Y-7786255D01*
X-19979397Y-3835203D01*
X-15359591Y-3175231D01*
X-11093000Y-3284631D01*
X-11093000Y-3284631D01*
G37*
X-11093000Y-3284631D02*
X-11093000Y-3381250D01*
X-10934250Y-3540000D01*
X-10609073Y-3540000D01*
X-10323065Y-3686554D01*
X-10299744Y-3668545D01*
X-10234289Y-3794000D01*
X-10934250Y-3794000D01*
X-11093000Y-3952750D01*
X-11093000Y-4218310D01*
X-10996327Y-4451699D01*
X-10817698Y-4630327D01*
X-10584309Y-4727000D01*
X-10318750Y-4727000D01*
X-10160000Y-4568250D01*
X-10160000Y-3936388D01*
X-9906000Y-4423221D01*
X-9906000Y-4568250D01*
X-9747787Y-4726463D01*
X-9014022Y-6132846D01*
X-8191296Y-14613255D01*
X-7810430Y-26039231D01*
X-7799148Y-26087483D01*
X-7770261Y-26127744D01*
X-7728165Y-26153887D01*
X-7691547Y-26161745D01*
X-4180083Y-26384695D01*
X-4158155Y-26437635D01*
X-3895135Y-26700655D01*
X-3551483Y-26843000D01*
X-3179517Y-26843000D01*
X-2835865Y-26700655D01*
X-2572845Y-26437635D01*
X-2571200Y-26433664D01*
X3955353Y-26537260D01*
X3744661Y-26852582D01*
X3629408Y-27432000D01*
X3744661Y-28011418D01*
X3911617Y-28261286D01*
X3572389Y-28261286D01*
X3500001Y-28246887D01*
X3427613Y-28261286D01*
X3213218Y-28303932D01*
X2970096Y-28466381D01*
X2807647Y-28709503D01*
X2750602Y-28996286D01*
X2765001Y-29068674D01*
X2765002Y-34261696D01*
X-5764999Y-34266453D01*
X-5764999Y-33074251D01*
X-5750600Y-33001863D01*
X-5807645Y-32715080D01*
X-5970094Y-32471958D01*
X-6213216Y-32309509D01*
X-6354328Y-32281440D01*
X-6161200Y-32281440D01*
X-5913435Y-32232157D01*
X-5703391Y-32091809D01*
X-5563043Y-31881765D01*
X-5513760Y-31634000D01*
X-5513760Y-29834000D01*
X-5563043Y-29586235D01*
X-5703391Y-29376191D01*
X-5913435Y-29235843D01*
X-6161200Y-29186560D01*
X-7961200Y-29186560D01*
X-8208965Y-29235843D01*
X-8419009Y-29376191D01*
X-8559357Y-29586235D01*
X-8562475Y-29601908D01*
X-8731693Y-29432690D01*
X-9295870Y-29199000D01*
X-9906530Y-29199000D01*
X-10470707Y-29432690D01*
X-10902510Y-29864493D01*
X-11136200Y-30428670D01*
X-11136200Y-31039330D01*
X-10902510Y-31603507D01*
X-10470707Y-32035310D01*
X-9911689Y-32266863D01*
X-10027611Y-32266863D01*
X-10099999Y-32252464D01*
X-10231634Y-32278648D01*
X-10386782Y-32309509D01*
X-10629904Y-32471958D01*
X-10792353Y-32715080D01*
X-10849398Y-33001863D01*
X-10834999Y-33074252D01*
X-10834998Y-34268541D01*
X-11210913Y-34266970D01*
X-11756535Y-34236137D01*
X-12273214Y-34147794D01*
X-12776643Y-34001807D01*
X-13260434Y-33800028D01*
X-13718400Y-33545037D01*
X-14144725Y-33240074D01*
X-14533983Y-32889021D01*
X-14881214Y-32496350D01*
X-15181996Y-32067058D01*
X-15432498Y-31606619D01*
X-15629536Y-31120878D01*
X-15777206Y-30592383D01*
X-16815324Y-26084808D01*
X-17274964Y-23786893D01*
X-12524073Y-23786884D01*
X-12475849Y-23790045D01*
X-12451839Y-23786884D01*
X-12427627Y-23786884D01*
X-12380236Y-23777457D01*
X-11683225Y-23685694D01*
X-11658854Y-23690542D01*
X-11539078Y-23666717D01*
X-11491149Y-23660407D01*
X-11468211Y-23652621D01*
X-11444459Y-23647896D01*
X-11399808Y-23629401D01*
X-11284155Y-23590142D01*
X-11265471Y-23573757D01*
X-11073544Y-23494258D01*
X-10705853Y-23341956D01*
X-10681058Y-23340331D01*
X-10571531Y-23286318D01*
X-10526867Y-23267818D01*
X-10506725Y-23254360D01*
X-10485006Y-23243649D01*
X-10446665Y-23214229D01*
X-10345111Y-23146373D01*
X-10331304Y-23125709D01*
X-9850750Y-22756967D01*
X-9827221Y-22748980D01*
X-9735402Y-22668457D01*
X-9697050Y-22639029D01*
X-9681080Y-22620819D01*
X-9662872Y-22604851D01*
X-9633449Y-22566507D01*
X-9552920Y-22474681D01*
X-9544932Y-22451149D01*
X-9176189Y-21970595D01*
X-9155529Y-21956790D01*
X-9087684Y-21855253D01*
X-9058252Y-21816896D01*
X-9047537Y-21795167D01*
X-9034084Y-21775034D01*
X-9015591Y-21730387D01*
X-8961570Y-21620844D01*
X-8959945Y-21596046D01*
X-8728143Y-21036428D01*
X-8711759Y-21017746D01*
X-8672505Y-20902106D01*
X-8654004Y-20857442D01*
X-8649278Y-20833684D01*
X-8641494Y-20810752D01*
X-8635185Y-20762831D01*
X-8611359Y-20643047D01*
X-8616207Y-20618676D01*
X-8537143Y-20018129D01*
X-8526153Y-19995843D01*
X-8518166Y-19873980D01*
X-8511856Y-19826054D01*
X-8513440Y-19801885D01*
X-8511856Y-19777716D01*
X-8518166Y-19729790D01*
X-8526153Y-19607927D01*
X-8537143Y-19585641D01*
X-8616207Y-18985094D01*
X-8611359Y-18960723D01*
X-8635185Y-18840939D01*
X-8641494Y-18793018D01*
X-8649278Y-18770086D01*
X-8654004Y-18746328D01*
X-8672505Y-18701664D01*
X-8711759Y-18586024D01*
X-8728143Y-18567342D01*
X-8959945Y-18007724D01*
X-8961570Y-17982926D01*
X-9015591Y-17873383D01*
X-9034084Y-17828736D01*
X-9047537Y-17808603D01*
X-9058252Y-17786874D01*
X-9087684Y-17748517D01*
X-9155529Y-17646980D01*
X-9176189Y-17633175D01*
X-9544933Y-17152620D01*
X-9552921Y-17129088D01*
X-9633445Y-17037269D01*
X-9662872Y-16998919D01*
X-9681084Y-16982948D01*
X-9697051Y-16964741D01*
X-9735395Y-16935319D01*
X-9827221Y-16854790D01*
X-9850752Y-16846802D01*
X-10331305Y-16478061D01*
X-10345111Y-16457399D01*
X-10446659Y-16389547D01*
X-10485006Y-16360122D01*
X-10506727Y-16349410D01*
X-10526866Y-16335954D01*
X-10571528Y-16317454D01*
X-10681059Y-16263440D01*
X-10705853Y-16261815D01*
X-11108210Y-16095153D01*
X-11265472Y-16030013D01*
X-11284155Y-16013628D01*
X-11399801Y-15974372D01*
X-11444460Y-15955873D01*
X-11468216Y-15951148D01*
X-11491149Y-15943363D01*
X-11539071Y-15937054D01*
X-11658854Y-15913228D01*
X-11683225Y-15918076D01*
X-12380230Y-15826313D01*
X-12427630Y-15816885D01*
X-12451846Y-15816885D01*
X-12475849Y-15813725D01*
X-12524063Y-15816885D01*
X-18663401Y-15816897D01*
X-19144760Y-12389776D01*
X-19201893Y-11875322D01*
X-17135000Y-11875322D01*
X-17135000Y-12724678D01*
X-16809966Y-13509380D01*
X-16209380Y-14109966D01*
X-15424678Y-14435000D01*
X-14575322Y-14435000D01*
X-13790620Y-14109966D01*
X-13190034Y-13509380D01*
X-12865000Y-12724678D01*
X-12865000Y-11875322D01*
X-13190034Y-11090620D01*
X-13790620Y-10490034D01*
X-14575322Y-10165000D01*
X-15424678Y-10165000D01*
X-16209380Y-10490034D01*
X-16809966Y-11090620D01*
X-17135000Y-11875322D01*
X-19201893Y-11875322D01*
X-19656013Y-7786255D01*
X-19979397Y-3835203D01*
X-15359591Y-3175231D01*
X-11093000Y-3284631D01*
G36*
X16625696Y-26908631D02*
X15777342Y-30592300D01*
X15629667Y-31120828D01*
X15432634Y-31606559D01*
X15182131Y-32067005D01*
X14881353Y-32496293D01*
X14534126Y-32888964D01*
X14144871Y-33240019D01*
X13718547Y-33544983D01*
X13260576Y-33799980D01*
X12776794Y-34001759D01*
X12273357Y-34147751D01*
X11756680Y-34236096D01*
X11214857Y-34266716D01*
X10235001Y-34260664D01*
X10235001Y-29068674D01*
X10249400Y-28996286D01*
X10192355Y-28709503D01*
X10029906Y-28466381D01*
X9786784Y-28303932D01*
X9572389Y-28261286D01*
X9500001Y-28246887D01*
X9427613Y-28261286D01*
X9168500Y-28261286D01*
X9168500Y-27717750D01*
X9009750Y-27559000D01*
X7810500Y-27559000D01*
X7810500Y-27579000D01*
X7556500Y-27579000D01*
X7556500Y-27559000D01*
X7536500Y-27559000D01*
X7536500Y-27305000D01*
X7556500Y-27305000D01*
X7556500Y-27285000D01*
X7810500Y-27285000D01*
X7810500Y-27305000D01*
X9009750Y-27305000D01*
X9168500Y-27146250D01*
X9168500Y-26687130D01*
X16625696Y-26908631D01*
X16625696Y-26908631D01*
G37*
X16625696Y-26908631D02*
X15777342Y-30592300D01*
X15629667Y-31120828D01*
X15432634Y-31606559D01*
X15182131Y-32067005D01*
X14881353Y-32496293D01*
X14534126Y-32888964D01*
X14144871Y-33240019D01*
X13718547Y-33544983D01*
X13260576Y-33799980D01*
X12776794Y-34001759D01*
X12273357Y-34147751D01*
X11756680Y-34236096D01*
X11214857Y-34266716D01*
X10235001Y-34260664D01*
X10235001Y-29068674D01*
X10249400Y-28996286D01*
X10192355Y-28709503D01*
X10029906Y-28466381D01*
X9786784Y-28303932D01*
X9572389Y-28261286D01*
X9500001Y-28246887D01*
X9427613Y-28261286D01*
X9168500Y-28261286D01*
X9168500Y-27717750D01*
X9009750Y-27559000D01*
X7810500Y-27559000D01*
X7810500Y-27579000D01*
X7556500Y-27579000D01*
X7556500Y-27559000D01*
X7536500Y-27559000D01*
X7536500Y-27305000D01*
X7556500Y-27305000D01*
X7556500Y-27285000D01*
X7810500Y-27285000D01*
X7810500Y-27305000D01*
X9009750Y-27305000D01*
X9168500Y-27146250D01*
X9168500Y-26687130D01*
X16625696Y-26908631D01*
G04 #@! TD*
M02*
