M48
;DRILL file {KiCad (5.0.2)-1} date 16/02/2019 8:25:23 PM
;FORMAT={3:3/ absolute / metric / suppress trailing zeros}
FMAT,2
METRIC,LZ
T1C0.400
T2C0.500
T3C0.800
T4C0.900
T5C1.000
T6C0.500
T7C0.700
T8C0.900
T9C1.000
T10C1.300
T11C3.000
%
G90
G05
T1
X-013843Y006985
X-012446Y-009906
X-010922Y-005969
X-010795Y014859
X-010287Y-026162
X-009652Y-001524
X-007874Y017526
X-007874Y-001905
X-007874Y-002794
X-00762Y032258
X-006604Y-002286
X-006604Y-021971
X-006223Y023622
X-005969Y-006096
X-005842Y-009271
X-005207Y013462
X-004699Y-024638
X-004182Y-00844
X-003937Y024765
X-003429Y012065
X-003366Y-025908
X-003351Y-00769
X-002159Y-024765
X-001744Y-003172
X-000945Y-003137
X-000635Y011293
X-000508Y-010795
X-000457Y-011593
X-000375Y-01314
X000199Y011293
X000508Y-030861
X000635Y-021717
X000999Y011293
X001397Y-027686
X001905Y011293
X002032Y-0254
X002461Y-021717
X002921Y-004953
X003175Y-012827
X003302Y-010668
X003556Y-022606
X004445Y-022606
X005715Y-001778
X00635Y-002413
X008636Y-010414
X009779Y013208
X013335Y005969
X018415Y007366
T2
X-010033Y-002667
X-010033Y-003667
T3
X006223Y-007673
X006223Y-012573
T4
X-009601Y-030734
X-007061Y-030734
T5
X-008763Y005461
X-008763Y002921
X-008763Y000381
X-006223Y005461
X-006223Y002921
X-006223Y000381
X005143Y-027432
X007683Y-027432
X-009779Y009906
X-006096Y009906
X-0038Y-02
X-00126Y-02
X00128Y-02
X00382Y-02
T6
X-009568Y030776
X-005568Y030776
T7
X-001344Y016838
T8
X-020193Y010004
X-020193Y003204
T9
X001344Y01415
T10
X006648Y032599
X006648Y027599
X012867Y-005461
X017867Y-005461
T11
X-015Y0127
X015Y-0123
X-015Y-0123
X015Y0127
T0
M30
