G04 #@! TF.GenerationSoftware,KiCad,Pcbnew,(5.0.2)-1*
G04 #@! TF.CreationDate,2019-02-16T20:24:50+11:00*
G04 #@! TF.ProjectId,lightning trigger,6c696768-746e-4696-9e67-207472696767,rev?*
G04 #@! TF.SameCoordinates,Original*
G04 #@! TF.FileFunction,Copper,L1,Top*
G04 #@! TF.FilePolarity,Positive*
%FSLAX46Y46*%
G04 Gerber Fmt 4.6, Leading zero omitted, Abs format (unit mm)*
G04 Created by KiCad (PCBNEW (5.0.2)-1) date 16/02/2019 8:24:50 PM*
%MOMM*%
%LPD*%
G01*
G04 APERTURE LIST*
G04 #@! TA.AperFunction,SMDPad,CuDef*
%ADD10R,0.600000X1.300000*%
G04 #@! TD*
G04 #@! TA.AperFunction,SMDPad,CuDef*
%ADD11R,0.720000X1.780000*%
G04 #@! TD*
G04 #@! TA.AperFunction,SMDPad,CuDef*
%ADD12R,1.500000X1.500000*%
G04 #@! TD*
G04 #@! TA.AperFunction,ComponentPad*
%ADD13R,1.700000X1.700000*%
G04 #@! TD*
G04 #@! TA.AperFunction,SMDPad,CuDef*
%ADD14C,1.100000*%
G04 #@! TD*
G04 #@! TA.AperFunction,Conductor*
%ADD15C,0.100000*%
G04 #@! TD*
G04 #@! TA.AperFunction,SMDPad,CuDef*
%ADD16C,1.800000*%
G04 #@! TD*
G04 #@! TA.AperFunction,ComponentPad*
%ADD17O,1.700000X1.700000*%
G04 #@! TD*
G04 #@! TA.AperFunction,SMDPad,CuDef*
%ADD18R,1.300000X0.700000*%
G04 #@! TD*
G04 #@! TA.AperFunction,ComponentPad*
%ADD19C,1.800000*%
G04 #@! TD*
G04 #@! TA.AperFunction,ComponentPad*
%ADD20R,1.800000X1.800000*%
G04 #@! TD*
G04 #@! TA.AperFunction,SMDPad,CuDef*
%ADD21R,1.250000X1.000000*%
G04 #@! TD*
G04 #@! TA.AperFunction,SMDPad,CuDef*
%ADD22R,1.000000X1.250000*%
G04 #@! TD*
G04 #@! TA.AperFunction,SMDPad,CuDef*
%ADD23R,1.200000X1.200000*%
G04 #@! TD*
G04 #@! TA.AperFunction,SMDPad,CuDef*
%ADD24R,0.700000X1.300000*%
G04 #@! TD*
G04 #@! TA.AperFunction,SMDPad,CuDef*
%ADD25R,1.060000X0.650000*%
G04 #@! TD*
G04 #@! TA.AperFunction,SMDPad,CuDef*
%ADD26R,1.600000X0.550000*%
G04 #@! TD*
G04 #@! TA.AperFunction,SMDPad,CuDef*
%ADD27R,0.550000X1.600000*%
G04 #@! TD*
G04 #@! TA.AperFunction,SMDPad,CuDef*
%ADD28R,1.524000X1.524000*%
G04 #@! TD*
G04 #@! TA.AperFunction,SMDPad,CuDef*
%ADD29R,0.650000X1.060000*%
G04 #@! TD*
G04 #@! TA.AperFunction,ComponentPad*
%ADD30C,1.500000*%
G04 #@! TD*
G04 #@! TA.AperFunction,ComponentPad*
%ADD31R,0.850000X0.850000*%
G04 #@! TD*
G04 #@! TA.AperFunction,ComponentPad*
%ADD32O,0.850000X0.850000*%
G04 #@! TD*
G04 #@! TA.AperFunction,SMDPad,CuDef*
%ADD33R,1.100000X1.000000*%
G04 #@! TD*
G04 #@! TA.AperFunction,SMDPad,CuDef*
%ADD34R,1.500000X1.400000*%
G04 #@! TD*
G04 #@! TA.AperFunction,SMDPad,CuDef*
%ADD35R,1.350000X1.500000*%
G04 #@! TD*
G04 #@! TA.AperFunction,SMDPad,CuDef*
%ADD36R,0.400000X1.800000*%
G04 #@! TD*
G04 #@! TA.AperFunction,SMDPad,CuDef*
%ADD37R,1.450000X0.450000*%
G04 #@! TD*
G04 #@! TA.AperFunction,SMDPad,CuDef*
%ADD38R,0.450000X1.450000*%
G04 #@! TD*
G04 #@! TA.AperFunction,SMDPad,CuDef*
%ADD39C,0.975000*%
G04 #@! TD*
G04 #@! TA.AperFunction,SMDPad,CuDef*
%ADD40R,2.500000X1.200000*%
G04 #@! TD*
G04 #@! TA.AperFunction,ViaPad*
%ADD41C,0.600000*%
G04 #@! TD*
G04 #@! TA.AperFunction,Conductor*
%ADD42C,0.400000*%
G04 #@! TD*
G04 #@! TA.AperFunction,Conductor*
%ADD43C,0.500000*%
G04 #@! TD*
G04 #@! TA.AperFunction,Conductor*
%ADD44C,0.250000*%
G04 #@! TD*
G04 #@! TA.AperFunction,Conductor*
%ADD45C,0.254000*%
G04 #@! TD*
G04 APERTURE END LIST*
D10*
G04 #@! TO.P,Q2,3*
G04 #@! TO.N,VIN*
X-15367000Y-1998000D03*
G04 #@! TO.P,Q2,2*
G04 #@! TO.N,VDDA*
X-14417000Y-4098000D03*
G04 #@! TO.P,Q2,1*
G04 #@! TO.N,Net-(C4-Pad1)*
X-16317000Y-4098000D03*
G04 #@! TD*
D11*
G04 #@! TO.P,U8,5*
G04 #@! TO.N,+BATT*
X-10160000Y20955000D03*
G04 #@! TO.P,U8,8*
G04 #@! TO.N,Net-(C7-Pad1)*
X-6350000Y20955000D03*
G04 #@! TO.P,U8,1*
G04 #@! TO.N,GNDD*
X-6350000Y25635000D03*
G04 #@! TO.P,U8,4*
G04 #@! TO.N,Net-(C7-Pad1)*
X-10160000Y25635000D03*
G04 #@! TO.P,U8,3*
G04 #@! TO.N,GNDD*
X-8890000Y25635000D03*
G04 #@! TO.P,U8,2*
G04 #@! TO.N,Net-(R13-Pad2)*
X-7620000Y25635000D03*
G04 #@! TO.P,U8,7*
G04 #@! TO.N,Net-(D2-Pad1)*
X-7620000Y20955000D03*
G04 #@! TO.P,U8,6*
G04 #@! TO.N,Net-(D1-Pad1)*
X-8890000Y20955000D03*
G04 #@! TD*
D12*
G04 #@! TO.P,J5,6*
G04 #@! TO.N,Net-(J5-Pad6)*
X9398000Y26399000D03*
G04 #@! TO.P,J5,5*
G04 #@! TO.N,Net-(J5-Pad5)*
X3898000Y26399000D03*
G04 #@! TO.P,J5,1*
G04 #@! TO.N,Net-(J5-Pad1)*
X9398000Y33799000D03*
G04 #@! TO.P,J5,4*
G04 #@! TO.N,Net-(J5-Pad4)*
X3898000Y33799000D03*
G04 #@! TO.P,J5,2*
G04 #@! TO.N,Net-(J5-Pad2)*
X3898000Y30099000D03*
G04 #@! TO.P,J5,3*
G04 #@! TO.N,Net-(J5-Pad3)*
X9398000Y30099000D03*
G04 #@! TD*
D13*
G04 #@! TO.P,J7,1*
G04 #@! TO.N,+BATT*
X-9779000Y9906000D03*
G04 #@! TD*
G04 #@! TO.P,J8,1*
G04 #@! TO.N,-BAT*
X-6096000Y9906000D03*
G04 #@! TD*
D14*
G04 #@! TO.P,S1,1*
G04 #@! TO.N,LEFT*
X3323402Y16837503D03*
D15*
G04 #@! TD*
G04 #@! TO.N,LEFT*
G04 #@! TO.C,S1*
G36*
X3429468Y17721386D02*
X4207285Y16943569D01*
X3217336Y15953620D01*
X2439519Y16731437D01*
X3429468Y17721386D01*
X3429468Y17721386D01*
G37*
D14*
G04 #@! TO.P,S1,2*
G04 #@! TO.N,CENTER*
X2333452Y17827452D03*
D15*
G04 #@! TD*
G04 #@! TO.N,CENTER*
G04 #@! TO.C,S1*
G36*
X2439518Y18711335D02*
X3217335Y17933518D01*
X2227386Y16943569D01*
X1449569Y17721386D01*
X2439518Y18711335D01*
X2439518Y18711335D01*
G37*
D14*
G04 #@! TO.P,S1,3*
G04 #@! TO.N,DOWN*
X1343503Y18817402D03*
D15*
G04 #@! TD*
G04 #@! TO.N,DOWN*
G04 #@! TO.C,S1*
G36*
X1449569Y19701285D02*
X2227386Y18923468D01*
X1237437Y17933519D01*
X459620Y18711336D01*
X1449569Y19701285D01*
X1449569Y19701285D01*
G37*
D14*
G04 #@! TO.P,S1,4*
G04 #@! TO.N,UP*
X-1343503Y12170598D03*
D15*
G04 #@! TD*
G04 #@! TO.N,UP*
G04 #@! TO.C,S1*
G36*
X-1237437Y13054481D02*
X-459620Y12276664D01*
X-1449569Y11286715D01*
X-2227386Y12064532D01*
X-1237437Y13054481D01*
X-1237437Y13054481D01*
G37*
D14*
G04 #@! TO.P,S1,5*
G04 #@! TO.N,RIGHT*
X-2333452Y13160548D03*
D15*
G04 #@! TD*
G04 #@! TO.N,RIGHT*
G04 #@! TO.C,S1*
G36*
X-2227386Y14044431D02*
X-1449569Y13266614D01*
X-2439518Y12276665D01*
X-3217335Y13054482D01*
X-2227386Y14044431D01*
X-2227386Y14044431D01*
G37*
D14*
G04 #@! TO.P,S1,6*
G04 #@! TO.N,VIN*
X-3323402Y14150497D03*
D15*
G04 #@! TD*
G04 #@! TO.N,VIN*
G04 #@! TO.C,S1*
G36*
X-3217336Y15034380D02*
X-2439519Y14256563D01*
X-3429468Y13266614D01*
X-4207285Y14044431D01*
X-3217336Y15034380D01*
X-3217336Y15034380D01*
G37*
D16*
G04 #@! TO.P,S1,*
G04 #@! TO.N,*
X2863782Y12630218D03*
D15*
G04 #@! TD*
G04 #@! TO.N,*
G04 #@! TO.C,S1*
G36*
X2934493Y13973721D02*
X4207285Y12700929D01*
X2793071Y11286715D01*
X1520279Y12559507D01*
X2934493Y13973721D01*
X2934493Y13973721D01*
G37*
D16*
G04 #@! TO.P,S1,*
G04 #@! TO.N,*
X-2863782Y18357782D03*
D15*
G04 #@! TD*
G04 #@! TO.N,*
G04 #@! TO.C,S1*
G36*
X-2793071Y19701285D02*
X-1520279Y18428493D01*
X-2934493Y17014279D01*
X-4207285Y18287071D01*
X-2793071Y19701285D01*
X-2793071Y19701285D01*
G37*
D17*
G04 #@! TO.P,MK1,2*
G04 #@! TO.N,Net-(C1-Pad2)*
X5143500Y-27432000D03*
D13*
G04 #@! TO.P,MK1,1*
G04 #@! TO.N,GNDD*
X7683500Y-27432000D03*
G04 #@! TD*
D18*
G04 #@! TO.P,R11,1*
G04 #@! TO.N,Net-(C8-Pad1)*
X-10795000Y16896000D03*
G04 #@! TO.P,R11,2*
G04 #@! TO.N,+BATT*
X-10795000Y18796000D03*
G04 #@! TD*
D19*
G04 #@! TO.P,Q1,2*
G04 #@! TO.N,LIGHT_OUT*
X-9601200Y-30734000D03*
D20*
G04 #@! TO.P,Q1,1*
G04 #@! TO.N,VDDA*
X-7061200Y-30734000D03*
G04 #@! TD*
D21*
G04 #@! TO.P,C1,1*
G04 #@! TO.N,Net-(C1-Pad1)*
X1651000Y-29861000D03*
G04 #@! TO.P,C1,2*
G04 #@! TO.N,Net-(C1-Pad2)*
X1651000Y-31861000D03*
G04 #@! TD*
D22*
G04 #@! TO.P,C2,1*
G04 #@! TO.N,Net-(C2-Pad1)*
X4810000Y-16510000D03*
G04 #@! TO.P,C2,2*
G04 #@! TO.N,GNDD*
X2810000Y-16510000D03*
G04 #@! TD*
D23*
G04 #@! TO.P,D1,2*
G04 #@! TO.N,Net-(D1-Pad2)*
X-15578000Y25400000D03*
G04 #@! TO.P,D1,1*
G04 #@! TO.N,Net-(D1-Pad1)*
X-13378000Y25400000D03*
G04 #@! TD*
G04 #@! TO.P,D2,2*
G04 #@! TO.N,Net-(D1-Pad2)*
X-15578000Y27305000D03*
G04 #@! TO.P,D2,1*
G04 #@! TO.N,Net-(D2-Pad1)*
X-13378000Y27305000D03*
G04 #@! TD*
D13*
G04 #@! TO.P,J2,1*
G04 #@! TO.N,GNDD*
X-8763000Y5461000D03*
D17*
G04 #@! TO.P,J2,2*
G04 #@! TO.N,RST*
X-6223000Y5461000D03*
G04 #@! TO.P,J2,3*
G04 #@! TO.N,FOCUS2*
X-8763000Y2921000D03*
G04 #@! TO.P,J2,4*
G04 #@! TO.N,SCK*
X-6223000Y2921000D03*
G04 #@! TO.P,J2,5*
G04 #@! TO.N,VIN*
X-8763000Y381000D03*
G04 #@! TO.P,J2,6*
G04 #@! TO.N,MISO*
X-6223000Y381000D03*
G04 #@! TD*
D13*
G04 #@! TO.P,J3,1*
G04 #@! TO.N,GNDD*
X-3800000Y-20000000D03*
D17*
G04 #@! TO.P,J3,2*
G04 #@! TO.N,VIN*
X-1260000Y-20000000D03*
G04 #@! TO.P,J3,3*
G04 #@! TO.N,SCL*
X1280000Y-20000000D03*
G04 #@! TO.P,J3,4*
G04 #@! TO.N,SDA*
X3820000Y-20000000D03*
G04 #@! TD*
D22*
G04 #@! TO.P,L1,1*
G04 #@! TO.N,Net-(L1-Pad1)*
X-18907000Y-127000D03*
G04 #@! TO.P,L1,2*
G04 #@! TO.N,VIN*
X-16907000Y-127000D03*
G04 #@! TD*
D24*
G04 #@! TO.P,R1,1*
G04 #@! TO.N,Net-(C1-Pad2)*
X1966000Y-33782000D03*
G04 #@! TO.P,R1,2*
G04 #@! TO.N,VDDA*
X66000Y-33782000D03*
G04 #@! TD*
G04 #@! TO.P,R2,1*
G04 #@! TO.N,GNDD*
X-259000Y-28067000D03*
G04 #@! TO.P,R2,2*
G04 #@! TO.N,Net-(R2-Pad2)*
X-2159000Y-28067000D03*
G04 #@! TD*
D18*
G04 #@! TO.P,R3,1*
G04 #@! TO.N,LEFT*
X3810000Y21082000D03*
G04 #@! TO.P,R3,2*
G04 #@! TO.N,GNDD*
X3810000Y22982000D03*
G04 #@! TD*
G04 #@! TO.P,R4,1*
G04 #@! TO.N,CENTER*
X1905000Y21082000D03*
G04 #@! TO.P,R4,2*
G04 #@! TO.N,GNDD*
X1905000Y22982000D03*
G04 #@! TD*
G04 #@! TO.P,R5,1*
G04 #@! TO.N,DOWN*
X0Y21082000D03*
G04 #@! TO.P,R5,2*
G04 #@! TO.N,GNDD*
X0Y22982000D03*
G04 #@! TD*
G04 #@! TO.P,R6,1*
G04 #@! TO.N,UP*
X-1905000Y21082000D03*
G04 #@! TO.P,R6,2*
G04 #@! TO.N,GNDD*
X-1905000Y22982000D03*
G04 #@! TD*
G04 #@! TO.P,R7,1*
G04 #@! TO.N,RIGHT*
X-3810000Y21082000D03*
G04 #@! TO.P,R7,2*
G04 #@! TO.N,GNDD*
X-3810000Y22982000D03*
G04 #@! TD*
G04 #@! TO.P,R8,1*
G04 #@! TO.N,Net-(C4-Pad1)*
X-18288000Y-4252000D03*
G04 #@! TO.P,R8,2*
G04 #@! TO.N,Net-(L1-Pad1)*
X-18288000Y-2352000D03*
G04 #@! TD*
G04 #@! TO.P,R12,1*
G04 #@! TO.N,-BAT*
X-10795000Y13655000D03*
G04 #@! TO.P,R12,2*
G04 #@! TO.N,Net-(R12-Pad2)*
X-10795000Y15555000D03*
G04 #@! TD*
D24*
G04 #@! TO.P,R13,1*
G04 #@! TO.N,GNDD*
X-4003000Y27686000D03*
G04 #@! TO.P,R13,2*
G04 #@! TO.N,Net-(R13-Pad2)*
X-5903000Y27686000D03*
G04 #@! TD*
D25*
G04 #@! TO.P,U1,1*
G04 #@! TO.N,MICROPHONE_OUT*
X-170000Y-31811000D03*
G04 #@! TO.P,U1,2*
G04 #@! TO.N,GNDD*
X-170000Y-30861000D03*
G04 #@! TO.P,U1,3*
G04 #@! TO.N,Net-(C1-Pad1)*
X-170000Y-29911000D03*
G04 #@! TO.P,U1,4*
G04 #@! TO.N,Net-(R2-Pad2)*
X-2370000Y-29911000D03*
G04 #@! TO.P,U1,5*
G04 #@! TO.N,VDDA*
X-2370000Y-31811000D03*
G04 #@! TD*
D26*
G04 #@! TO.P,U3,1*
G04 #@! TO.N,CENTER*
X1075000Y-11690000D03*
G04 #@! TO.P,U3,2*
G04 #@! TO.N,LEFT*
X1075000Y-10890000D03*
G04 #@! TO.P,U3,3*
G04 #@! TO.N,GNDD*
X1075000Y-10090000D03*
G04 #@! TO.P,U3,4*
G04 #@! TO.N,VIN*
X1075000Y-9290000D03*
G04 #@! TO.P,U3,5*
G04 #@! TO.N,GNDD*
X1075000Y-8490000D03*
G04 #@! TO.P,U3,6*
G04 #@! TO.N,VIN*
X1075000Y-7690000D03*
G04 #@! TO.P,U3,7*
G04 #@! TO.N,Net-(C2-Pad1)*
X1075000Y-6890000D03*
G04 #@! TO.P,U3,8*
G04 #@! TO.N,Net-(C3-Pad1)*
X1075000Y-6090000D03*
D27*
G04 #@! TO.P,U3,9*
G04 #@! TO.N,UP*
X-375000Y-4640000D03*
G04 #@! TO.P,U3,10*
G04 #@! TO.N,RIGHT*
X-1175000Y-4640000D03*
G04 #@! TO.P,U3,11*
G04 #@! TO.N,Net-(U3-Pad11)*
X-1975000Y-4640000D03*
G04 #@! TO.P,U3,12*
G04 #@! TO.N,SHUTTER*
X-2775000Y-4640000D03*
G04 #@! TO.P,U3,13*
G04 #@! TO.N,FOCUS*
X-3575000Y-4640000D03*
G04 #@! TO.P,U3,14*
G04 #@! TO.N,SHUTTER2*
X-4375000Y-4640000D03*
G04 #@! TO.P,U3,15*
G04 #@! TO.N,FOCUS2*
X-5175000Y-4640000D03*
G04 #@! TO.P,U3,16*
G04 #@! TO.N,MISO*
X-5975000Y-4640000D03*
D26*
G04 #@! TO.P,U3,17*
G04 #@! TO.N,SCK*
X-7425000Y-6090000D03*
G04 #@! TO.P,U3,18*
G04 #@! TO.N,VDDA*
X-7425000Y-6890000D03*
G04 #@! TO.P,U3,19*
G04 #@! TO.N,Net-(U3-Pad19)*
X-7425000Y-7690000D03*
G04 #@! TO.P,U3,20*
G04 #@! TO.N,VDDA*
X-7425000Y-8490000D03*
G04 #@! TO.P,U3,21*
G04 #@! TO.N,GNDD*
X-7425000Y-9290000D03*
G04 #@! TO.P,U3,22*
G04 #@! TO.N,Net-(U3-Pad22)*
X-7425000Y-10090000D03*
G04 #@! TO.P,U3,23*
G04 #@! TO.N,LIGHT_OUT*
X-7425000Y-10890000D03*
G04 #@! TO.P,U3,24*
G04 #@! TO.N,MICROPHONE_OUT*
X-7425000Y-11690000D03*
D27*
G04 #@! TO.P,U3,25*
G04 #@! TO.N,Net-(U3-Pad25)*
X-5975000Y-13140000D03*
G04 #@! TO.P,U3,26*
G04 #@! TO.N,Net-(U3-Pad26)*
X-5175000Y-13140000D03*
G04 #@! TO.P,U3,27*
G04 #@! TO.N,SDA*
X-4375000Y-13140000D03*
G04 #@! TO.P,U3,28*
G04 #@! TO.N,SCL*
X-3575000Y-13140000D03*
G04 #@! TO.P,U3,29*
G04 #@! TO.N,RST*
X-2775000Y-13140000D03*
G04 #@! TO.P,U3,30*
G04 #@! TO.N,Net-(U3-Pad30)*
X-1975000Y-13140000D03*
G04 #@! TO.P,U3,31*
G04 #@! TO.N,Net-(U3-Pad31)*
X-1175000Y-13140000D03*
G04 #@! TO.P,U3,32*
G04 #@! TO.N,DOWN*
X-375000Y-13140000D03*
G04 #@! TD*
D28*
G04 #@! TO.P,U5,8*
G04 #@! TO.N,Net-(J5-Pad4)*
X-2667000Y8945000D03*
G04 #@! TO.P,U5,7*
G04 #@! TO.N,Net-(J5-Pad1)*
X-127000Y8945000D03*
G04 #@! TO.P,U5,6*
G04 #@! TO.N,Net-(J5-Pad2)*
X2413000Y8945000D03*
G04 #@! TO.P,U5,5*
G04 #@! TO.N,Net-(J5-Pad1)*
X4953000Y8945000D03*
G04 #@! TO.P,U5,4*
G04 #@! TO.N,Net-(R10-Pad1)*
X4953000Y-55000D03*
G04 #@! TO.P,U5,3*
G04 #@! TO.N,SHUTTER2*
X2413000Y-55000D03*
G04 #@! TO.P,U5,2*
G04 #@! TO.N,Net-(R9-Pad1)*
X-127000Y-55000D03*
G04 #@! TO.P,U5,1*
G04 #@! TO.N,FOCUS2*
X-2667000Y-55000D03*
G04 #@! TD*
D29*
G04 #@! TO.P,U6,1*
G04 #@! TO.N,-BAT*
X-8760500Y12679500D03*
G04 #@! TO.P,U6,2*
G04 #@! TO.N,Net-(U6-Pad2)*
X-7810500Y12679500D03*
G04 #@! TO.P,U6,3*
G04 #@! TO.N,GNDD*
X-6860500Y12679500D03*
G04 #@! TO.P,U6,4*
G04 #@! TO.N,Net-(U6-Pad4)*
X-6860500Y14879500D03*
G04 #@! TO.P,U6,6*
G04 #@! TO.N,Net-(U6-Pad6)*
X-8760500Y14879500D03*
G04 #@! TO.P,U6,5*
G04 #@! TO.N,Net-(U6-Pad5)*
X-7810500Y14879500D03*
G04 #@! TD*
G04 #@! TO.P,U7,1*
G04 #@! TO.N,Net-(U6-Pad6)*
X-8763000Y16596000D03*
G04 #@! TO.P,U7,2*
G04 #@! TO.N,Net-(R12-Pad2)*
X-7813000Y16596000D03*
G04 #@! TO.P,U7,3*
G04 #@! TO.N,Net-(U6-Pad4)*
X-6863000Y16596000D03*
G04 #@! TO.P,U7,4*
G04 #@! TO.N,Net-(U7-Pad4)*
X-6863000Y18796000D03*
G04 #@! TO.P,U7,6*
G04 #@! TO.N,-BAT*
X-8763000Y18796000D03*
G04 #@! TO.P,U7,5*
G04 #@! TO.N,Net-(C8-Pad1)*
X-7813000Y18796000D03*
G04 #@! TD*
D30*
G04 #@! TO.P,Y1,1*
G04 #@! TO.N,Net-(C2-Pad1)*
X6223000Y-12573000D03*
G04 #@! TO.P,Y1,2*
G04 #@! TO.N,Net-(C3-Pad1)*
X6223000Y-7673000D03*
G04 #@! TD*
D21*
G04 #@! TO.P,C4,1*
G04 #@! TO.N,Net-(C4-Pad1)*
X-16510000Y-5747000D03*
G04 #@! TO.P,C4,2*
G04 #@! TO.N,GNDD*
X-16510000Y-7747000D03*
G04 #@! TD*
D22*
G04 #@! TO.P,C5,1*
G04 #@! TO.N,VIN*
X-15224000Y-127000D03*
G04 #@! TO.P,C5,2*
G04 #@! TO.N,GNDD*
X-13224000Y-127000D03*
G04 #@! TD*
D21*
G04 #@! TO.P,C6,1*
G04 #@! TO.N,Net-(C4-Pad1)*
X-18415000Y-5731000D03*
G04 #@! TO.P,C6,2*
G04 #@! TO.N,GNDD*
X-18415000Y-7731000D03*
G04 #@! TD*
D22*
G04 #@! TO.P,C7,1*
G04 #@! TO.N,Net-(C7-Pad1)*
X-8382000Y27813000D03*
G04 #@! TO.P,C7,2*
G04 #@! TO.N,GNDD*
X-10382000Y27813000D03*
G04 #@! TD*
D21*
G04 #@! TO.P,C8,1*
G04 #@! TO.N,Net-(C8-Pad1)*
X-5080000Y17205200D03*
G04 #@! TO.P,C8,2*
G04 #@! TO.N,GNDD*
X-5080000Y15205200D03*
G04 #@! TD*
D24*
G04 #@! TO.P,R15,1*
G04 #@! TO.N,Net-(C7-Pad1)*
X-13528000Y29210000D03*
G04 #@! TO.P,R15,2*
G04 #@! TO.N,Net-(D1-Pad2)*
X-15428000Y29210000D03*
G04 #@! TD*
D18*
G04 #@! TO.P,R16,1*
G04 #@! TO.N,VIN*
X-2286000Y-17460000D03*
G04 #@! TO.P,R16,2*
G04 #@! TO.N,SDA*
X-2286000Y-15560000D03*
G04 #@! TD*
G04 #@! TO.P,R17,2*
G04 #@! TO.N,SCL*
X-381000Y-15560000D03*
G04 #@! TO.P,R17,1*
G04 #@! TO.N,VIN*
X-381000Y-17460000D03*
G04 #@! TD*
D22*
G04 #@! TO.P,C3,2*
G04 #@! TO.N,GNDD*
X3191000Y-3556000D03*
G04 #@! TO.P,C3,1*
G04 #@! TO.N,Net-(C3-Pad1)*
X5191000Y-3556000D03*
G04 #@! TD*
D18*
G04 #@! TO.P,R9,1*
G04 #@! TO.N,Net-(R9-Pad1)*
X7874000Y7813000D03*
G04 #@! TO.P,R9,2*
G04 #@! TO.N,GNDD*
X7874000Y9713000D03*
G04 #@! TD*
G04 #@! TO.P,R10,2*
G04 #@! TO.N,GNDD*
X7874000Y4638000D03*
G04 #@! TO.P,R10,1*
G04 #@! TO.N,Net-(R10-Pad1)*
X7874000Y6538000D03*
G04 #@! TD*
D22*
G04 #@! TO.P,C9,1*
G04 #@! TO.N,VDDA*
X-12732000Y-7747000D03*
G04 #@! TO.P,C9,2*
G04 #@! TO.N,GNDD*
X-14732000Y-7747000D03*
G04 #@! TD*
G04 #@! TO.P,C10,1*
G04 #@! TO.N,VDDA*
X-12732000Y-5842000D03*
G04 #@! TO.P,C10,2*
G04 #@! TO.N,GNDD*
X-14732000Y-5842000D03*
G04 #@! TD*
D31*
G04 #@! TO.P,J1,1*
G04 #@! TO.N,GNDD*
X-10033000Y-3667000D03*
D32*
G04 #@! TO.P,J1,2*
X-10033000Y-2667000D03*
G04 #@! TD*
D12*
G04 #@! TO.P,J4,3*
G04 #@! TO.N,Net-(J4-Pad3)*
X15367000Y-8211000D03*
G04 #@! TO.P,J4,2*
G04 #@! TO.N,Net-(J4-Pad2)*
X15367000Y-2711000D03*
G04 #@! TO.P,J4,4*
G04 #@! TO.N,Net-(J4-Pad4)*
X19067000Y-2711000D03*
G04 #@! TO.P,J4,1*
G04 #@! TO.N,Net-(J4-Pad1)*
X19067000Y-8211000D03*
G04 #@! TO.P,J4,5*
G04 #@! TO.N,Net-(J4-Pad5)*
X11667000Y-2711000D03*
G04 #@! TO.P,J4,6*
G04 #@! TO.N,Net-(J4-Pad6)*
X11667000Y-8211000D03*
G04 #@! TD*
D18*
G04 #@! TO.P,R18,1*
G04 #@! TO.N,Net-(R18-Pad1)*
X7874000Y188000D03*
G04 #@! TO.P,R18,2*
G04 #@! TO.N,GNDD*
X7874000Y-1712000D03*
G04 #@! TD*
G04 #@! TO.P,R19,2*
G04 #@! TO.N,GNDD*
X7874000Y3363000D03*
G04 #@! TO.P,R19,1*
G04 #@! TO.N,Net-(R19-Pad1)*
X7874000Y1463000D03*
G04 #@! TD*
D28*
G04 #@! TO.P,U9,1*
G04 #@! TO.N,SHUTTER*
X18542000Y8945000D03*
G04 #@! TO.P,U9,2*
G04 #@! TO.N,Net-(R18-Pad1)*
X16002000Y8945000D03*
G04 #@! TO.P,U9,3*
G04 #@! TO.N,FOCUS*
X13462000Y8945000D03*
G04 #@! TO.P,U9,4*
G04 #@! TO.N,Net-(R19-Pad1)*
X10922000Y8945000D03*
G04 #@! TO.P,U9,5*
G04 #@! TO.N,Net-(J4-Pad1)*
X10922000Y-55000D03*
G04 #@! TO.P,U9,6*
G04 #@! TO.N,Net-(J4-Pad2)*
X13462000Y-55000D03*
G04 #@! TO.P,U9,7*
G04 #@! TO.N,Net-(J4-Pad1)*
X16002000Y-55000D03*
G04 #@! TO.P,U9,8*
G04 #@! TO.N,Net-(J4-Pad4)*
X18542000Y-55000D03*
G04 #@! TD*
D33*
G04 #@! TO.P,J6,*
G04 #@! TO.N,*
X-6068000Y34076000D03*
X-9068000Y34076000D03*
D34*
X-10818000Y30226000D03*
X-4318000Y30226000D03*
D35*
X-11643000Y32926000D03*
X-3493000Y32926000D03*
D36*
G04 #@! TO.P,J6,5*
G04 #@! TO.N,GNDD*
X-8868000Y30056000D03*
G04 #@! TO.P,J6,4*
G04 #@! TO.N,Net-(J6-Pad4)*
X-8218000Y30056000D03*
G04 #@! TO.P,J6,3*
G04 #@! TO.N,Net-(J6-Pad3)*
X-7568000Y30056000D03*
G04 #@! TO.P,J6,2*
G04 #@! TO.N,Net-(J6-Pad2)*
X-6918000Y30056000D03*
G04 #@! TO.P,J6,1*
G04 #@! TO.N,Net-(C7-Pad1)*
X-6268000Y30056000D03*
G04 #@! TD*
D37*
G04 #@! TO.P,U2,1*
G04 #@! TO.N,GNDD*
X3511000Y-25425000D03*
G04 #@! TO.P,U2,2*
G04 #@! TO.N,SCL*
X3511000Y-24785000D03*
G04 #@! TO.P,U2,3*
G04 #@! TO.N,SDA*
X3511000Y-24132000D03*
G04 #@! TO.P,U2,4*
G04 #@! TO.N,GNDD*
X3511000Y-23495000D03*
G04 #@! TO.P,U2,5*
G04 #@! TO.N,MICROPHONE_OUT*
X-889000Y-23495000D03*
G04 #@! TO.P,U2,6*
G04 #@! TO.N,Net-(R2-Pad2)*
X-889000Y-24135000D03*
G04 #@! TO.P,U2,7*
G04 #@! TO.N,GNDD*
X-889000Y-24785000D03*
G04 #@! TO.P,U2,8*
G04 #@! TO.N,VIN*
X-889000Y-25425000D03*
G04 #@! TD*
D38*
G04 #@! TO.P,U10,8*
G04 #@! TO.N,VIN*
X-4750000Y-27876500D03*
G04 #@! TO.P,U10,7*
X-5390000Y-27876500D03*
G04 #@! TO.P,U10,6*
G04 #@! TO.N,LIGHT_OUT*
X-6040000Y-27876500D03*
G04 #@! TO.P,U10,5*
G04 #@! TO.N,GNDD*
X-6680000Y-27876500D03*
G04 #@! TO.P,U10,4*
X-6680000Y-23476500D03*
G04 #@! TO.P,U10,3*
G04 #@! TO.N,SDA*
X-6043000Y-23476500D03*
G04 #@! TO.P,U10,2*
G04 #@! TO.N,SCL*
X-5390000Y-23476500D03*
G04 #@! TO.P,U10,1*
G04 #@! TO.N,GNDD*
X-4750000Y-23476500D03*
G04 #@! TD*
D15*
G04 #@! TO.N,Net-(R14-Pad1)*
G04 #@! TO.C,R14*
G36*
X-15020858Y2603826D02*
X-14997197Y2600316D01*
X-14973993Y2594504D01*
X-14951471Y2586446D01*
X-14929847Y2576218D01*
X-14909330Y2563921D01*
X-14890117Y2549671D01*
X-14872393Y2533607D01*
X-14856329Y2515883D01*
X-14842079Y2496670D01*
X-14829782Y2476153D01*
X-14819554Y2454529D01*
X-14811496Y2432007D01*
X-14805684Y2408803D01*
X-14802174Y2385142D01*
X-14801000Y2361250D01*
X-14801000Y1448750D01*
X-14802174Y1424858D01*
X-14805684Y1401197D01*
X-14811496Y1377993D01*
X-14819554Y1355471D01*
X-14829782Y1333847D01*
X-14842079Y1313330D01*
X-14856329Y1294117D01*
X-14872393Y1276393D01*
X-14890117Y1260329D01*
X-14909330Y1246079D01*
X-14929847Y1233782D01*
X-14951471Y1223554D01*
X-14973993Y1215496D01*
X-14997197Y1209684D01*
X-15020858Y1206174D01*
X-15044750Y1205000D01*
X-15532250Y1205000D01*
X-15556142Y1206174D01*
X-15579803Y1209684D01*
X-15603007Y1215496D01*
X-15625529Y1223554D01*
X-15647153Y1233782D01*
X-15667670Y1246079D01*
X-15686883Y1260329D01*
X-15704607Y1276393D01*
X-15720671Y1294117D01*
X-15734921Y1313330D01*
X-15747218Y1333847D01*
X-15757446Y1355471D01*
X-15765504Y1377993D01*
X-15771316Y1401197D01*
X-15774826Y1424858D01*
X-15776000Y1448750D01*
X-15776000Y2361250D01*
X-15774826Y2385142D01*
X-15771316Y2408803D01*
X-15765504Y2432007D01*
X-15757446Y2454529D01*
X-15747218Y2476153D01*
X-15734921Y2496670D01*
X-15720671Y2515883D01*
X-15704607Y2533607D01*
X-15686883Y2549671D01*
X-15667670Y2563921D01*
X-15647153Y2576218D01*
X-15625529Y2586446D01*
X-15603007Y2594504D01*
X-15579803Y2600316D01*
X-15556142Y2603826D01*
X-15532250Y2605000D01*
X-15044750Y2605000D01*
X-15020858Y2603826D01*
X-15020858Y2603826D01*
G37*
D39*
G04 #@! TD*
G04 #@! TO.P,R14,1*
G04 #@! TO.N,Net-(R14-Pad1)*
X-15288500Y1905000D03*
D15*
G04 #@! TO.N,GNDD*
G04 #@! TO.C,R14*
G36*
X-13145858Y2603826D02*
X-13122197Y2600316D01*
X-13098993Y2594504D01*
X-13076471Y2586446D01*
X-13054847Y2576218D01*
X-13034330Y2563921D01*
X-13015117Y2549671D01*
X-12997393Y2533607D01*
X-12981329Y2515883D01*
X-12967079Y2496670D01*
X-12954782Y2476153D01*
X-12944554Y2454529D01*
X-12936496Y2432007D01*
X-12930684Y2408803D01*
X-12927174Y2385142D01*
X-12926000Y2361250D01*
X-12926000Y1448750D01*
X-12927174Y1424858D01*
X-12930684Y1401197D01*
X-12936496Y1377993D01*
X-12944554Y1355471D01*
X-12954782Y1333847D01*
X-12967079Y1313330D01*
X-12981329Y1294117D01*
X-12997393Y1276393D01*
X-13015117Y1260329D01*
X-13034330Y1246079D01*
X-13054847Y1233782D01*
X-13076471Y1223554D01*
X-13098993Y1215496D01*
X-13122197Y1209684D01*
X-13145858Y1206174D01*
X-13169750Y1205000D01*
X-13657250Y1205000D01*
X-13681142Y1206174D01*
X-13704803Y1209684D01*
X-13728007Y1215496D01*
X-13750529Y1223554D01*
X-13772153Y1233782D01*
X-13792670Y1246079D01*
X-13811883Y1260329D01*
X-13829607Y1276393D01*
X-13845671Y1294117D01*
X-13859921Y1313330D01*
X-13872218Y1333847D01*
X-13882446Y1355471D01*
X-13890504Y1377993D01*
X-13896316Y1401197D01*
X-13899826Y1424858D01*
X-13901000Y1448750D01*
X-13901000Y2361250D01*
X-13899826Y2385142D01*
X-13896316Y2408803D01*
X-13890504Y2432007D01*
X-13882446Y2454529D01*
X-13872218Y2476153D01*
X-13859921Y2496670D01*
X-13845671Y2515883D01*
X-13829607Y2533607D01*
X-13811883Y2549671D01*
X-13792670Y2563921D01*
X-13772153Y2576218D01*
X-13750529Y2586446D01*
X-13728007Y2594504D01*
X-13704803Y2600316D01*
X-13681142Y2603826D01*
X-13657250Y2605000D01*
X-13169750Y2605000D01*
X-13145858Y2603826D01*
X-13145858Y2603826D01*
G37*
D39*
G04 #@! TD*
G04 #@! TO.P,R14,2*
G04 #@! TO.N,GNDD*
X-13413500Y1905000D03*
D40*
G04 #@! TO.P,SW1,1*
G04 #@! TO.N,+BATT*
X-17443000Y9104000D03*
G04 #@! TO.P,SW1,2*
G04 #@! TO.N,VIN*
X-17443000Y6604000D03*
G04 #@! TO.P,SW1,3*
G04 #@! TO.N,Net-(R14-Pad1)*
X-17443000Y4104000D03*
G04 #@! TD*
D41*
G04 #@! TO.N,SHUTTER*
X6350000Y-2413000D03*
X18415000Y7366000D03*
G04 #@! TO.N,FOCUS*
X5715000Y-1778000D03*
X13335000Y5969000D03*
G04 #@! TO.N,RST*
X-4182275Y-8440000D03*
G04 #@! TO.N,SDA*
X635000Y-21717000D03*
X2460999Y-21717000D03*
G04 #@! TO.N,LEFT*
X-508000Y-10795000D03*
X1905000Y11293010D03*
G04 #@! TO.N,CENTER*
X-456625Y-11593361D03*
X998544Y11293010D03*
G04 #@! TO.N,DOWN*
X-375000Y-13140000D03*
X198531Y11293010D03*
G04 #@! TO.N,UP*
X-945181Y-3136903D03*
X-635000Y11293010D03*
G04 #@! TO.N,RIGHT*
X-3429000Y12065000D03*
X-1744434Y-3171503D03*
G04 #@! TO.N,Net-(R12-Pad2)*
X-10795000Y14859000D03*
X-7874000Y17526000D03*
G04 #@! TO.N,GNDD*
X-10922000Y-5969000D03*
X-12446000Y-9906000D03*
X-10287000Y-26162000D03*
X1397000Y-27686000D03*
X508000Y-30861000D03*
X-13843000Y6985000D03*
X-6604000Y-21971000D03*
X-4699000Y-24638000D03*
X2032000Y-25400000D03*
X3556000Y-22606000D03*
X-2159000Y-24765000D03*
X-5842000Y-9271000D03*
X2921000Y-4953000D03*
X3302000Y-10668000D03*
X3175000Y-12827000D03*
X-3937000Y24765000D03*
X-5207000Y13462000D03*
X-6223000Y23622000D03*
X-7620000Y32258000D03*
X9779000Y13208000D03*
X8636000Y-10414000D03*
X-6604000Y-2286000D03*
X-9652000Y-1524000D03*
X-7874000Y-1905000D03*
X-7874000Y-2794000D03*
X4445000Y-22606000D03*
G04 #@! TO.N,VIN*
X-3365500Y-25908000D03*
X-5969000Y-6096000D03*
X-3351013Y-7690000D03*
G04 #@! TD*
D42*
G04 #@! TO.N,+BATT*
X-10160000Y20425000D02*
X-10795000Y19790000D01*
X-10160000Y20955000D02*
X-10160000Y20425000D01*
X-10795000Y19790000D02*
X-10795000Y18796000D01*
X-11029000Y9906000D02*
X-9779000Y9906000D01*
X-11845001Y10722001D02*
X-11029000Y9906000D01*
X-11845001Y18045999D02*
X-11845001Y10722001D01*
X-11095000Y18796000D02*
X-11845001Y18045999D01*
X-10795000Y18796000D02*
X-11095000Y18796000D01*
D43*
X-17443000Y9104000D02*
X-14391000Y9104000D01*
X-12772999Y10722001D02*
X-11845001Y10722001D01*
X-14391000Y9104000D02*
X-12772999Y10722001D01*
D44*
G04 #@! TO.N,Net-(C1-Pad1)*
X1601000Y-29911000D02*
X1651000Y-29861000D01*
X-170000Y-29911000D02*
X1601000Y-29911000D01*
G04 #@! TO.N,Net-(C2-Pad1)*
X4810000Y-13986000D02*
X6223000Y-12573000D01*
X4810000Y-16510000D02*
X4810000Y-13986000D01*
X6223000Y-11512340D02*
X6223000Y-12573000D01*
X6223000Y-10988000D02*
X6223000Y-11512340D01*
X2125000Y-6890000D02*
X6223000Y-10988000D01*
X1075000Y-6890000D02*
X2125000Y-6890000D01*
G04 #@! TO.N,Net-(D2-Pad1)*
X-7620000Y22095000D02*
X-7620000Y20955000D01*
X-13378000Y27305000D02*
X-12528000Y27305000D01*
X-12528000Y27305000D02*
X-12452999Y27229999D01*
X-12452999Y27229999D02*
X-12452999Y26092997D01*
X-12452999Y26092997D02*
X-8839002Y22479000D01*
X-8839002Y22479000D02*
X-8004000Y22479000D01*
X-8004000Y22479000D02*
X-7620000Y22095000D01*
G04 #@! TO.N,SHUTTER*
X-2192447Y-2413000D02*
X6350000Y-2413000D01*
X-2775000Y-4640000D02*
X-2775000Y-2995553D01*
X-2775000Y-2995553D02*
X-2192447Y-2413000D01*
X18415000Y8818000D02*
X18542000Y8945000D01*
X18415000Y7366000D02*
X18415000Y8818000D01*
G04 #@! TO.N,FOCUS*
X13462000Y6096000D02*
X13335000Y5969000D01*
X13462000Y8945000D02*
X13462000Y6096000D01*
X-3575000Y-4640000D02*
X-3575000Y-3159142D01*
X-2193858Y-1778000D02*
X5290736Y-1778000D01*
X-3575000Y-3159142D02*
X-2193858Y-1778000D01*
X5290736Y-1778000D02*
X5715000Y-1778000D01*
G04 #@! TO.N,MICROPHONE_OUT*
X-7425000Y-21903000D02*
X-7425000Y-11690000D01*
X-2159000Y-23495000D02*
X-4445000Y-25781000D01*
X-889000Y-23495000D02*
X-2159000Y-23495000D01*
X-4445000Y-25781000D02*
X-7874000Y-25781000D01*
X-7874000Y-25781000D02*
X-8636000Y-25019000D01*
X-8636000Y-25019000D02*
X-8636000Y-23114000D01*
X-8636000Y-23114000D02*
X-7425000Y-21903000D01*
X-1270000Y-31491000D02*
X-950000Y-31811000D01*
X508000Y-23495000D02*
X611012Y-23598012D01*
X-1270000Y-27178000D02*
X-1270000Y-31491000D01*
X-889000Y-23495000D02*
X508000Y-23495000D01*
X611012Y-23598012D02*
X611012Y-26185988D01*
X-950000Y-31811000D02*
X-170000Y-31811000D01*
X611012Y-26185988D02*
X-127000Y-26924000D01*
X-127000Y-26924000D02*
X-1016000Y-26924000D01*
X-1016000Y-26924000D02*
X-1270000Y-27178000D01*
G04 #@! TO.N,LIGHT_OUT*
X-8550001Y-10965001D02*
X-8550001Y-16722999D01*
X-7425000Y-10890000D02*
X-8475000Y-10890000D01*
X-8475000Y-10890000D02*
X-8550001Y-10965001D01*
X-8550001Y-16722999D02*
X-8128000Y-17145000D01*
X-8128000Y-17145000D02*
X-8128000Y-21717000D01*
X-8128000Y-21717000D02*
X-9271000Y-22860000D01*
X-6040000Y-26901500D02*
X-6652500Y-26289000D01*
X-6040000Y-27876500D02*
X-6040000Y-26901500D01*
X-6652500Y-26289000D02*
X-8128000Y-26289000D01*
X-9271000Y-25146000D02*
X-9271000Y-22860000D01*
X-8128000Y-26289000D02*
X-9271000Y-25146000D01*
X-6040000Y-28851500D02*
X-6398500Y-29210000D01*
X-6040000Y-27876500D02*
X-6040000Y-28851500D01*
X-8077200Y-29210000D02*
X-9601200Y-30734000D01*
X-6398500Y-29210000D02*
X-8077200Y-29210000D01*
G04 #@! TO.N,RST*
X-2775000Y-13140000D02*
X-2775000Y-9847275D01*
X-2775000Y-9847275D02*
X-4182275Y-8440000D01*
G04 #@! TO.N,SCK*
X-7425000Y1719000D02*
X-6223000Y2921000D01*
X-7425000Y-6090000D02*
X-7425000Y1719000D01*
G04 #@! TO.N,MISO*
X-5975000Y133000D02*
X-6223000Y381000D01*
X-5975000Y-4640000D02*
X-5975000Y133000D01*
G04 #@! TO.N,SCL*
X1280000Y-21202081D02*
X1280000Y-20000000D01*
X2536000Y-24785000D02*
X1280000Y-23529000D01*
X3511000Y-24785000D02*
X2536000Y-24785000D01*
X-5390000Y-22501500D02*
X-5240500Y-22352000D01*
X-5390000Y-23476500D02*
X-5390000Y-22501500D01*
X-5240500Y-22352000D02*
X1280000Y-22352000D01*
X1280000Y-23529000D02*
X1280000Y-22352000D01*
X1280000Y-22352000D02*
X1280000Y-21202081D01*
X-381000Y-14960000D02*
X-381000Y-15560000D01*
X-736000Y-14605000D02*
X-381000Y-14960000D01*
X-3160000Y-14605000D02*
X-736000Y-14605000D01*
X-3575000Y-14190000D02*
X-3160000Y-14605000D01*
X-3575000Y-13140000D02*
X-3575000Y-14190000D01*
X-381000Y-16160000D02*
X-31000Y-16510000D01*
X-381000Y-15560000D02*
X-381000Y-16160000D01*
X1280000Y-18797919D02*
X1280000Y-20000000D01*
X1280000Y-17535998D02*
X1280000Y-18797919D01*
X254002Y-16510000D02*
X1280000Y-17535998D01*
X-31000Y-16510000D02*
X254002Y-16510000D01*
G04 #@! TO.N,SDA*
X2970001Y-20849999D02*
X3820000Y-20000000D01*
X2460999Y-21359001D02*
X2970001Y-20849999D01*
X2460999Y-24056999D02*
X2460999Y-21359001D01*
X2536000Y-24132000D02*
X2460999Y-24056999D01*
X3511000Y-24132000D02*
X2536000Y-24132000D01*
X-6043000Y-22501500D02*
X-5385500Y-21844000D01*
X-5385500Y-21844000D02*
X508000Y-21844000D01*
X508000Y-21844000D02*
X635000Y-21717000D01*
X-3186000Y-15560000D02*
X-2286000Y-15560000D01*
X-4375000Y-14371000D02*
X-3186000Y-15560000D01*
X-4375000Y-13140000D02*
X-4375000Y-14371000D01*
X-6043000Y-22501500D02*
X-6043000Y-23476500D01*
X-6043000Y-19017000D02*
X-6043000Y-22501500D01*
X-2586000Y-15560000D02*
X-6043000Y-19017000D01*
X-2286000Y-15560000D02*
X-2586000Y-15560000D01*
G04 #@! TO.N,Net-(J5-Pad2)*
X2413000Y9810597D02*
X5334000Y12731597D01*
X2413000Y8945000D02*
X2413000Y9810597D01*
X3898000Y29099000D02*
X3898000Y30099000D01*
X5334000Y27663000D02*
X3898000Y29099000D01*
X5334000Y12731597D02*
X5334000Y27663000D01*
G04 #@! TO.N,Net-(J5-Pad4)*
X2633993Y10668000D02*
X4785001Y12819008D01*
X4267001Y25323999D02*
X2887999Y25323999D01*
X2887999Y25323999D02*
X2822999Y25388999D01*
X-2667000Y8945000D02*
X-2667000Y9957000D01*
X4785001Y12819008D02*
X4785001Y24805999D01*
X2822999Y25388999D02*
X2822999Y31723999D01*
X2822999Y31723999D02*
X3898000Y32799000D01*
X4785001Y24805999D02*
X4267001Y25323999D01*
X-1956000Y10668000D02*
X2633993Y10668000D01*
X3898000Y32799000D02*
X3898000Y33799000D01*
X-2667000Y9957000D02*
X-1956000Y10668000D01*
G04 #@! TO.N,Net-(J5-Pad1)*
X4953000Y7933000D02*
X4953000Y8945000D01*
X4877999Y7857999D02*
X4953000Y7933000D01*
X-51999Y7857999D02*
X4877999Y7857999D01*
X-127000Y7933000D02*
X-51999Y7857999D01*
X-127000Y8945000D02*
X-127000Y7933000D01*
X9398000Y32799000D02*
X9398000Y33799000D01*
X8322999Y31723999D02*
X9398000Y32799000D01*
X8322999Y13326999D02*
X8322999Y31723999D01*
X4953000Y9957000D02*
X8322999Y13326999D01*
X4953000Y8945000D02*
X4953000Y9957000D01*
G04 #@! TO.N,-BAT*
X-8760500Y13459500D02*
X-8760500Y12679500D01*
X-9413001Y14112001D02*
X-8760500Y13459500D01*
X-9413001Y17365999D02*
X-9413001Y14112001D01*
X-8763000Y18016000D02*
X-9413001Y17365999D01*
X-8763000Y18796000D02*
X-8763000Y18016000D01*
X-8760500Y11899500D02*
X-8672000Y11811000D01*
X-8760500Y12679500D02*
X-8760500Y11899500D01*
X-8672000Y11811000D02*
X-6731000Y11811000D01*
X-6096000Y11176000D02*
X-6096000Y9906000D01*
X-6731000Y11811000D02*
X-6096000Y11176000D01*
X-9437999Y14112001D02*
X-9413001Y14112001D01*
X-9895000Y13655000D02*
X-9437999Y14112001D01*
X-10795000Y13655000D02*
X-9895000Y13655000D01*
D43*
G04 #@! TO.N,Net-(L1-Pad1)*
X-18907000Y-1733000D02*
X-18288000Y-2352000D01*
X-18907000Y-127000D02*
X-18907000Y-1733000D01*
D44*
G04 #@! TO.N,VDDA*
X-7061200Y-31884000D02*
X-7061200Y-30734000D01*
D43*
X-3400000Y-31811000D02*
X-2370000Y-31811000D01*
X-4584200Y-31811000D02*
X-3400000Y-31811000D01*
X-5661200Y-30734000D02*
X-4584200Y-31811000D01*
X-7061200Y-30734000D02*
X-5661200Y-30734000D01*
X-2370000Y-31811000D02*
X-2370000Y-33126500D01*
X-1714500Y-33782000D02*
X66000Y-33782000D01*
X-2370000Y-33126500D02*
X-1714500Y-33782000D01*
X-12732000Y-5842000D02*
X-12732000Y-7747000D01*
X-13617000Y-4098000D02*
X-12700000Y-5015000D01*
X-14417000Y-4098000D02*
X-13617000Y-4098000D01*
X-12700000Y-5810000D02*
X-12732000Y-5842000D01*
X-12700000Y-5015000D02*
X-12700000Y-5810000D01*
X-11874500Y-24650312D02*
X-8713764Y-21489576D01*
X-11874500Y-30797500D02*
X-11874500Y-24650312D01*
X-7061200Y-32134000D02*
X-7312200Y-32385000D01*
X-10287000Y-32385000D02*
X-11874500Y-30797500D01*
X-7312200Y-32385000D02*
X-10287000Y-32385000D01*
X-7061200Y-30734000D02*
X-7061200Y-32134000D01*
X-8713764Y-21489576D02*
X-8713764Y-17702236D01*
X-8713764Y-17702236D02*
X-10684000Y-15732000D01*
X-10684000Y-8795000D02*
X-10684000Y-15732000D01*
X-11732000Y-7747000D02*
X-10684000Y-8795000D01*
X-12732000Y-7747000D02*
X-11732000Y-7747000D01*
X-9030000Y-8795000D02*
X-10684000Y-8795000D01*
X-8725000Y-8490000D02*
X-9030000Y-8795000D01*
X-7425000Y-8490000D02*
X-8725000Y-8490000D01*
X-9030000Y-7195000D02*
X-9030000Y-8795000D01*
X-8725000Y-6890000D02*
X-9030000Y-7195000D01*
X-7425000Y-6890000D02*
X-8725000Y-6890000D01*
D44*
G04 #@! TO.N,Net-(R2-Pad2)*
X-2370000Y-28278000D02*
X-2159000Y-28067000D01*
X-2370000Y-29911000D02*
X-2370000Y-28278000D01*
X-889000Y-24135000D02*
X86000Y-24135000D01*
X-1465989Y-26473989D02*
X-2159000Y-27167000D01*
X-2159000Y-27167000D02*
X-2159000Y-28067000D01*
X-402987Y-26473989D02*
X-1465989Y-26473989D01*
X161001Y-25910001D02*
X-402987Y-26473989D01*
X161001Y-24210001D02*
X161001Y-25910001D01*
X86000Y-24135000D02*
X161001Y-24210001D01*
G04 #@! TO.N,LEFT*
X3889086Y21002914D02*
X3810000Y21082000D01*
X3889086Y17403187D02*
X3889086Y21002914D01*
X3323402Y16837503D02*
X3889086Y17403187D01*
X-413000Y-10890000D02*
X-508000Y-10795000D01*
X1075000Y-10890000D02*
X-413000Y-10890000D01*
X1195269Y12002741D02*
X1605001Y11593009D01*
X1605001Y11593009D02*
X1905000Y11293010D01*
X1195269Y12694133D02*
X1195269Y12002741D01*
X3323402Y14822266D02*
X1195269Y12694133D01*
X3323402Y16837503D02*
X3323402Y14822266D01*
G04 #@! TO.N,CENTER*
X1905000Y20482000D02*
X1905000Y21082000D01*
X2899136Y19487864D02*
X1905000Y20482000D01*
X2899136Y18393136D02*
X2899136Y19487864D01*
X2333452Y17827452D02*
X2899136Y18393136D01*
X1075000Y-11690000D02*
X-359986Y-11690000D01*
X-359986Y-11690000D02*
X-456625Y-11593361D01*
X745258Y12807738D02*
X745258Y11699331D01*
X-498002Y14050998D02*
X745258Y12807738D01*
X998544Y11446045D02*
X998544Y11293010D01*
X745258Y11699331D02*
X998544Y11446045D01*
X2333452Y17827452D02*
X-498002Y14995998D01*
X-498002Y14995998D02*
X-498002Y14050998D01*
G04 #@! TO.N,DOWN*
X0Y20160905D02*
X0Y21082000D01*
X1343503Y18817402D02*
X0Y20160905D01*
X1343503Y18817402D02*
X777819Y18251718D01*
X198531Y12718054D02*
X198531Y11717274D01*
X198531Y11717274D02*
X198531Y11293010D01*
X-948013Y15599402D02*
X-948013Y13864598D01*
X-948013Y13864598D02*
X198531Y12718054D01*
X777819Y17325234D02*
X-948013Y15599402D01*
X777819Y18251718D02*
X777819Y17325234D01*
G04 #@! TO.N,UP*
X-1343503Y12170598D02*
X-777819Y12736282D01*
X-777819Y12736282D02*
X-777819Y13057993D01*
X-1398024Y15785802D02*
X-668502Y16515324D01*
X-777819Y13057993D02*
X-1398024Y13678198D01*
X-1905000Y20482000D02*
X-1905000Y21082000D01*
X-1398024Y13678198D02*
X-1398024Y15785802D01*
X-668502Y19245502D02*
X-1905000Y20482000D01*
X-668502Y16515324D02*
X-668502Y19245502D01*
X-828097Y-3136903D02*
X-945181Y-3136903D01*
X-375000Y-3590000D02*
X-828097Y-3136903D01*
X-375000Y-4640000D02*
X-375000Y-3590000D01*
X-1343503Y12170598D02*
X-635000Y11462095D01*
X-635000Y11462095D02*
X-635000Y11293010D01*
G04 #@! TO.N,RIGHT*
X-3510000Y21082000D02*
X-3810000Y21082000D01*
X-1195269Y18767269D02*
X-3510000Y21082000D01*
X-1195269Y18293867D02*
X-1195269Y18767269D01*
X-2114509Y17374627D02*
X-1195269Y18293867D01*
X-2333452Y13160548D02*
X-2114509Y13379491D01*
X-2114509Y13379491D02*
X-2114509Y17374627D01*
X-3429000Y12065000D02*
X-2333452Y13160548D01*
X-1175000Y-4640000D02*
X-1175000Y-3800002D01*
X-1175000Y-3800002D02*
X-1744434Y-3230568D01*
X-1744434Y-3230568D02*
X-1744434Y-3171503D01*
G04 #@! TO.N,Net-(R9-Pad1)*
X-127000Y957000D02*
X-127000Y-55000D01*
X6729000Y7813000D02*
X-127000Y957000D01*
X7874000Y7813000D02*
X6729000Y7813000D01*
G04 #@! TO.N,Net-(R10-Pad1)*
X4953000Y957000D02*
X4953000Y-55000D01*
X4953000Y3917000D02*
X4953000Y957000D01*
X7574000Y6538000D02*
X4953000Y3917000D01*
X7874000Y6538000D02*
X7574000Y6538000D01*
G04 #@! TO.N,Net-(R12-Pad2)*
X-10795000Y15555000D02*
X-10734000Y15555000D01*
X-10734000Y15555000D02*
X-10795000Y15494000D01*
X-10795000Y15494000D02*
X-10795000Y14859000D01*
X-7813000Y17465000D02*
X-7874000Y17526000D01*
X-7813000Y16596000D02*
X-7813000Y17465000D01*
G04 #@! TO.N,Net-(R13-Pad2)*
X-7620000Y26569000D02*
X-7620000Y25635000D01*
X-6503000Y27686000D02*
X-7620000Y26569000D01*
X-5903000Y27686000D02*
X-6503000Y27686000D01*
G04 #@! TO.N,Net-(U6-Pad4)*
X-6863000Y14882000D02*
X-6860500Y14879500D01*
X-6863000Y16596000D02*
X-6863000Y14882000D01*
G04 #@! TO.N,Net-(U6-Pad6)*
X-8763000Y14882000D02*
X-8760500Y14879500D01*
X-8763000Y16596000D02*
X-8763000Y14882000D01*
G04 #@! TO.N,Net-(C1-Pad2)*
X1651000Y-33467000D02*
X1966000Y-33782000D01*
X1651000Y-31861000D02*
X1651000Y-33467000D01*
X3941419Y-27432000D02*
X2857500Y-28515919D01*
X5143500Y-27432000D02*
X3941419Y-27432000D01*
X1776000Y-31861000D02*
X1651000Y-31861000D01*
X2857500Y-30779500D02*
X1776000Y-31861000D01*
X2857500Y-28515919D02*
X2857500Y-30779500D01*
G04 #@! TO.N,Net-(C3-Pad1)*
X5191000Y-3681000D02*
X5191000Y-3556000D01*
X2782000Y-6090000D02*
X5191000Y-3681000D01*
X1075000Y-6090000D02*
X2782000Y-6090000D01*
X6223000Y-7673000D02*
X6223000Y-5842000D01*
X5191000Y-4810000D02*
X5191000Y-3556000D01*
X6223000Y-5842000D02*
X5191000Y-4810000D01*
D43*
G04 #@! TO.N,Net-(C4-Pad1)*
X-16526000Y-5731000D02*
X-16510000Y-5747000D01*
X-18415000Y-5731000D02*
X-16526000Y-5731000D01*
X-16317000Y-5554000D02*
X-16510000Y-5747000D01*
X-16317000Y-4098000D02*
X-16317000Y-5554000D01*
X-18288000Y-5604000D02*
X-18415000Y-5731000D01*
X-18288000Y-4252000D02*
X-18288000Y-5604000D01*
D42*
G04 #@! TO.N,Net-(C7-Pad1)*
X-7482000Y27813000D02*
X-8382000Y27813000D01*
X-6558999Y28736001D02*
X-7482000Y27813000D01*
X-6417997Y28736001D02*
X-6558999Y28736001D01*
X-6268000Y28885998D02*
X-6417997Y28736001D01*
X-6268000Y30056000D02*
X-6268000Y28885998D01*
X-10160000Y26335002D02*
X-10160000Y25635000D01*
X-8682002Y27813000D02*
X-10160000Y26335002D01*
X-8382000Y27813000D02*
X-8682002Y27813000D01*
D44*
X-10770000Y25635000D02*
X-11938000Y26803000D01*
X-10160000Y25635000D02*
X-10770000Y25635000D01*
X-11938000Y26803000D02*
X-11938000Y28448000D01*
X-12700000Y29210000D02*
X-13528000Y29210000D01*
X-11938000Y28448000D02*
X-12700000Y29210000D01*
D42*
X-8229013Y23004011D02*
X-7109011Y23004011D01*
X-7109011Y23004011D02*
X-6350000Y22245000D01*
X-10160000Y24934998D02*
X-8229013Y23004011D01*
X-10160000Y25635000D02*
X-10160000Y24934998D01*
X-6350000Y22245000D02*
X-6350000Y20955000D01*
D44*
G04 #@! TO.N,Net-(C8-Pad1)*
X-7813000Y19576000D02*
X-7813000Y18796000D01*
X-7888001Y19651001D02*
X-7813000Y19576000D01*
X-9304999Y19651001D02*
X-7888001Y19651001D01*
X-10795000Y16896000D02*
X-10795000Y17496000D01*
X-10795000Y17496000D02*
X-10384000Y17907000D01*
X-10384000Y17907000D02*
X-10098998Y17907000D01*
X-10098998Y17907000D02*
X-9652000Y18353998D01*
X-9652000Y18353998D02*
X-9652000Y19304000D01*
X-9652000Y19304000D02*
X-9304999Y19651001D01*
X-5080000Y17955200D02*
X-5080000Y17205200D01*
X-5080000Y18453002D02*
X-5080000Y17955200D01*
X-6277999Y19651001D02*
X-5080000Y18453002D01*
X-7888001Y19651001D02*
X-6277999Y19651001D01*
G04 #@! TO.N,Net-(D1-Pad1)*
X-8890000Y21762000D02*
X-8890000Y20955000D01*
X-12528000Y25400000D02*
X-8890000Y21762000D01*
X-13378000Y25400000D02*
X-12528000Y25400000D01*
G04 #@! TO.N,GNDD*
X-10708000Y-3667000D02*
X-10033000Y-3667000D01*
D43*
X-14732000Y-5842000D02*
X-14732000Y-7747000D01*
X-16510000Y-7747000D02*
X-14732000Y-7747000D01*
X-16526000Y-7731000D02*
X-16510000Y-7747000D01*
X-18415000Y-7731000D02*
X-16526000Y-7731000D01*
D44*
X1551001Y-26256999D02*
X-259000Y-28067000D01*
X7608499Y-26256999D02*
X1551001Y-26256999D01*
X7683500Y-26332000D02*
X7608499Y-26256999D01*
X7683500Y-27432000D02*
X7683500Y-26332000D01*
X-170000Y-30861000D02*
X508000Y-30861000D01*
X-8793000Y31130000D02*
X-8788400Y31134600D01*
X-8793000Y29980000D02*
X-8793000Y31130000D01*
X-8788400Y31134600D02*
X-8788400Y31445200D01*
X-6350000Y25105000D02*
X-6350000Y25635000D01*
X-7035001Y24419999D02*
X-6350000Y25105000D01*
X-8204999Y24419999D02*
X-7035001Y24419999D01*
X-8890000Y25105000D02*
X-8204999Y24419999D01*
X-8890000Y25635000D02*
X-8890000Y25105000D01*
X-8793000Y29980000D02*
X-8793000Y29280000D01*
X-8868000Y29452000D02*
X-8868000Y30056000D01*
X-10382000Y27938000D02*
X-8868000Y29452000D01*
X-10382000Y27813000D02*
X-10382000Y27938000D01*
X2057000Y-25425000D02*
X2032000Y-25400000D01*
X3511000Y-25425000D02*
X2057000Y-25425000D01*
X-4750000Y-24587000D02*
X-4699000Y-24638000D01*
X-4750000Y-23476500D02*
X-4750000Y-24587000D01*
X-6680000Y-22047000D02*
X-6604000Y-21971000D01*
X-6680000Y-23476500D02*
X-6680000Y-22047000D01*
X-889000Y-24785000D02*
X-2139000Y-24785000D01*
X-2139000Y-24785000D02*
X-2159000Y-24765000D01*
X-7425000Y-9290000D02*
X-5861000Y-9290000D01*
X-5861000Y-9290000D02*
X-5842000Y-9271000D01*
X2125000Y-10090000D02*
X2182000Y-10033000D01*
X1075000Y-10090000D02*
X2125000Y-10090000D01*
X2125000Y-8490000D02*
X2144000Y-8509000D01*
X1075000Y-8490000D02*
X2125000Y-8490000D01*
X-7955001Y-1823999D02*
X-7875010Y-1903990D01*
X-9352001Y-1823999D02*
X-7955001Y-1823999D01*
X-9652000Y-1524000D02*
X-9352001Y-1823999D01*
X3556000Y-23450000D02*
X3511000Y-23495000D01*
X3556000Y-22606000D02*
X3556000Y-23450000D01*
X-10634040Y-2667000D02*
X-11176000Y-3208960D01*
X-10033000Y-2667000D02*
X-10634040Y-2667000D01*
G04 #@! TO.N,FOCUS2*
X-5175000Y-2563000D02*
X-2667000Y-55000D01*
X-5175000Y-4640000D02*
X-5175000Y-2563000D01*
X-7913001Y3770999D02*
X-8763000Y2921000D01*
X-7587999Y4096001D02*
X-7913001Y3770999D01*
X-5658999Y4096001D02*
X-7587999Y4096001D01*
X-2667000Y1104002D02*
X-5658999Y4096001D01*
X-2667000Y-55000D02*
X-2667000Y1104002D01*
G04 #@! TO.N,Net-(J4-Pad2)*
X15106000Y-2711000D02*
X15367000Y-2711000D01*
X13462000Y-1067000D02*
X15106000Y-2711000D01*
X13462000Y-55000D02*
X13462000Y-1067000D01*
G04 #@! TO.N,Net-(J4-Pad4)*
X18542000Y-2186000D02*
X19067000Y-2711000D01*
X18542000Y-55000D02*
X18542000Y-2186000D01*
G04 #@! TO.N,Net-(J4-Pad1)*
X18067000Y-8211000D02*
X19067000Y-8211000D01*
X16891999Y-7035999D02*
X18067000Y-8211000D01*
X16891999Y-1956999D02*
X16891999Y-7035999D01*
X16002000Y-1067000D02*
X16891999Y-1956999D01*
X16002000Y-55000D02*
X16002000Y-1067000D01*
X14291999Y-4435999D02*
X16891999Y-7035999D01*
X14291999Y-3250997D02*
X14291999Y-4435999D01*
X11096002Y-55000D02*
X14291999Y-3250997D01*
X10922000Y-55000D02*
X11096002Y-55000D01*
G04 #@! TO.N,SHUTTER2*
X2413000Y-1067000D02*
X2413000Y-55000D01*
X-2322269Y-1270000D02*
X2210000Y-1270000D01*
X2210000Y-1270000D02*
X2413000Y-1067000D01*
X-4375000Y-3322731D02*
X-2322269Y-1270000D01*
X-4375000Y-4640000D02*
X-4375000Y-3322731D01*
G04 #@! TO.N,Net-(R18-Pad1)*
X16002000Y7933000D02*
X16002000Y8945000D01*
X16002000Y7416000D02*
X16002000Y7933000D01*
X8774000Y188000D02*
X16002000Y7416000D01*
X7874000Y188000D02*
X8774000Y188000D01*
G04 #@! TO.N,Net-(R19-Pad1)*
X10922000Y7933000D02*
X10922000Y8945000D01*
X10922000Y4211000D02*
X10922000Y7933000D01*
X8174000Y1463000D02*
X10922000Y4211000D01*
X7874000Y1463000D02*
X8174000Y1463000D01*
G04 #@! TO.N,Net-(D1-Pad2)*
X-15428000Y27455000D02*
X-15578000Y27305000D01*
X-15428000Y29210000D02*
X-15428000Y27455000D01*
X-15578000Y25400000D02*
X-15578000Y27305000D01*
D43*
G04 #@! TO.N,VIN*
X-4750000Y-27876500D02*
X-5364999Y-27876500D01*
D44*
X-3365500Y-25992000D02*
X-3365500Y-25908000D01*
X-4750000Y-27376500D02*
X-3365500Y-25992000D01*
X-4750000Y-27876500D02*
X-4750000Y-27376500D01*
X-2882500Y-25425000D02*
X-3365500Y-25908000D01*
X-889000Y-25425000D02*
X-2882500Y-25425000D01*
X-1270000Y-18787919D02*
X-1270000Y-17460000D01*
X-1260000Y-18797919D02*
X-1270000Y-18787919D01*
X-1260000Y-20000000D02*
X-1260000Y-18797919D01*
X-2286000Y-17460000D02*
X-1270000Y-17460000D01*
X-1270000Y-17460000D02*
X-381000Y-17460000D01*
D43*
X-16907000Y-127000D02*
X-15224000Y-127000D01*
X-15367000Y-270000D02*
X-15224000Y-127000D01*
X-15367000Y-1998000D02*
X-15367000Y-270000D01*
X-18093000Y6604000D02*
X-17443000Y6604000D01*
X-19193000Y5504000D02*
X-18093000Y6604000D01*
X-19193000Y3284000D02*
X-19193000Y5504000D01*
X-16907000Y998000D02*
X-19193000Y3284000D01*
X-16907000Y-127000D02*
X-16907000Y998000D01*
X-11142000Y-1998000D02*
X-8763000Y381000D01*
X-15367000Y-1998000D02*
X-11142000Y-1998000D01*
D42*
X-1651000Y-7764000D02*
X-1651000Y-7690000D01*
X-125000Y-9290000D02*
X-1651000Y-7764000D01*
X1075000Y-9290000D02*
X-125000Y-9290000D01*
D43*
X-1651000Y-7690000D02*
X1075000Y-7690000D01*
X-5969000Y-6096000D02*
X-4375000Y-7690000D01*
X-4375000Y-7690000D02*
X-3351013Y-7690000D01*
X-3351013Y-7690000D02*
X-1651000Y-7690000D01*
D44*
X-9873001Y6636001D02*
X-10541000Y5968002D01*
X-7080997Y6636001D02*
X-9873001Y6636001D01*
X-4699000Y9017998D02*
X-7080997Y6636001D01*
X-3323402Y14150497D02*
X-4699000Y12774899D01*
X-4699000Y12774899D02*
X-4699000Y9017998D01*
X-10541000Y2159000D02*
X-8763000Y381000D01*
X-10541000Y5968002D02*
X-10541000Y2159000D01*
D43*
G04 #@! TO.N,Net-(R14-Pad1)*
X-17443000Y4059500D02*
X-15288500Y1905000D01*
X-17443000Y4104000D02*
X-17443000Y4059500D01*
G04 #@! TD*
D45*
G04 #@! TO.N,GNDD*
G36*
X1945671Y-25269473D02*
X1988071Y-25332929D01*
X2151000Y-25441795D01*
X2151000Y-25552002D01*
X2295248Y-25552002D01*
X2225488Y-25621762D01*
X1371012Y-25633467D01*
X1371012Y-24694814D01*
X1945671Y-25269473D01*
X1945671Y-25269473D01*
G37*
X1945671Y-25269473D02*
X1988071Y-25332929D01*
X2151000Y-25441795D01*
X2151000Y-25552002D01*
X2295248Y-25552002D01*
X2225488Y-25621762D01*
X1371012Y-25633467D01*
X1371012Y-24694814D01*
X1945671Y-25269473D01*
G36*
X-4637500Y-24677750D02*
X-4572000Y-24743250D01*
X-4572000Y-24833198D01*
X-4630802Y-24892000D01*
X-7231749Y-24892000D01*
X-7224226Y-24756591D01*
X-7031310Y-24836500D01*
X-6951250Y-24836500D01*
X-6792500Y-24677750D01*
X-6792500Y-24559500D01*
X-6725809Y-24659309D01*
X-6515765Y-24799657D01*
X-6428169Y-24817081D01*
X-6408750Y-24836500D01*
X-6330541Y-24836500D01*
X-6268000Y-24848940D01*
X-5818000Y-24848940D01*
X-5716500Y-24828751D01*
X-5615000Y-24848940D01*
X-5165000Y-24848940D01*
X-5101683Y-24836346D01*
X-5101310Y-24836500D01*
X-5021250Y-24836500D01*
X-5001086Y-24816336D01*
X-4917235Y-24799657D01*
X-4707191Y-24659309D01*
X-4637500Y-24555010D01*
X-4637500Y-24677750D01*
X-4637500Y-24677750D01*
G37*
X-4637500Y-24677750D02*
X-4572000Y-24743250D01*
X-4572000Y-24833198D01*
X-4630802Y-24892000D01*
X-7231749Y-24892000D01*
X-7224226Y-24756591D01*
X-7031310Y-24836500D01*
X-6951250Y-24836500D01*
X-6792500Y-24677750D01*
X-6792500Y-24559500D01*
X-6725809Y-24659309D01*
X-6515765Y-24799657D01*
X-6428169Y-24817081D01*
X-6408750Y-24836500D01*
X-6330541Y-24836500D01*
X-6268000Y-24848940D01*
X-5818000Y-24848940D01*
X-5716500Y-24828751D01*
X-5615000Y-24848940D01*
X-5165000Y-24848940D01*
X-5101683Y-24836346D01*
X-5101310Y-24836500D01*
X-5021250Y-24836500D01*
X-5001086Y-24816336D01*
X-4917235Y-24799657D01*
X-4707191Y-24659309D01*
X-4637500Y-24555010D01*
X-4637500Y-24677750D01*
G36*
X9512560Y-817000D02*
X9561843Y-1064765D01*
X9702191Y-1274809D01*
X9912235Y-1415157D01*
X10160000Y-1464440D01*
X10517186Y-1464440D01*
X10459191Y-1503191D01*
X10318843Y-1713235D01*
X10269560Y-1961000D01*
X10269560Y-3461000D01*
X10318843Y-3708765D01*
X10459191Y-3918809D01*
X10669235Y-4059157D01*
X10917000Y-4108440D01*
X12417000Y-4108440D01*
X12664765Y-4059157D01*
X12874809Y-3918809D01*
X13015157Y-3708765D01*
X13064440Y-3461000D01*
X13064440Y-3098241D01*
X13531999Y-3565800D01*
X13532000Y-4345578D01*
X13122602Y-4176000D01*
X12611398Y-4176000D01*
X12139106Y-4371629D01*
X11777629Y-4733106D01*
X11582000Y-5205398D01*
X11582000Y-5716602D01*
X11777629Y-6188894D01*
X12139106Y-6550371D01*
X12611398Y-6746000D01*
X13122602Y-6746000D01*
X13594894Y-6550371D01*
X13956371Y-6188894D01*
X14152000Y-5716602D01*
X14152000Y-5370801D01*
X15594758Y-6813560D01*
X14617000Y-6813560D01*
X14369235Y-6862843D01*
X14159191Y-7003191D01*
X14018843Y-7213235D01*
X13969560Y-7461000D01*
X13969560Y-8961000D01*
X14018843Y-9208765D01*
X14159191Y-9418809D01*
X14369235Y-9559157D01*
X14617000Y-9608440D01*
X16117000Y-9608440D01*
X16364765Y-9559157D01*
X16574809Y-9418809D01*
X16715157Y-9208765D01*
X16764440Y-8961000D01*
X16764440Y-7983242D01*
X17476673Y-8695476D01*
X17519071Y-8758929D01*
X17582524Y-8801327D01*
X17582526Y-8801329D01*
X17669560Y-8859483D01*
X17669560Y-8961000D01*
X17718843Y-9208765D01*
X17859191Y-9418809D01*
X18069235Y-9559157D01*
X18317000Y-9608440D01*
X19453695Y-9608440D01*
X19144824Y-12389720D01*
X18663480Y-15816830D01*
X18292024Y-15816831D01*
X18274071Y-15813260D01*
X12460156Y-15813260D01*
X12409252Y-15810295D01*
X12387930Y-15813260D01*
X12366399Y-15813260D01*
X12316380Y-15823210D01*
X11663152Y-15914045D01*
X11658822Y-15913184D01*
X11634374Y-15918047D01*
X11617412Y-15920406D01*
X11593005Y-15915735D01*
X11473401Y-15940431D01*
X11425523Y-15947089D01*
X11402644Y-15955041D01*
X11378925Y-15959939D01*
X11334402Y-15978761D01*
X11219045Y-16018858D01*
X11200483Y-16035377D01*
X10464120Y-16346680D01*
X10283252Y-16469444D01*
X10222942Y-16561141D01*
X9850720Y-16846757D01*
X9827188Y-16854745D01*
X9735362Y-16935274D01*
X9697018Y-16964697D01*
X9681050Y-16982905D01*
X9662840Y-16998875D01*
X9633412Y-17037227D01*
X9552889Y-17129046D01*
X9544902Y-17152575D01*
X9176159Y-17633130D01*
X9155497Y-17646936D01*
X9087648Y-17748480D01*
X9058220Y-17786831D01*
X9047507Y-17808556D01*
X9034052Y-17828692D01*
X9015556Y-17873345D01*
X8961538Y-17982883D01*
X8959913Y-18007680D01*
X8728111Y-18567297D01*
X8711727Y-18585980D01*
X8672471Y-18701625D01*
X8653972Y-18746285D01*
X8649247Y-18770041D01*
X8641462Y-18792974D01*
X8635153Y-18840896D01*
X8611327Y-18960679D01*
X8616175Y-18985050D01*
X8537112Y-19585595D01*
X8526121Y-19607882D01*
X8518133Y-19729752D01*
X8511824Y-19777674D01*
X8513408Y-19801841D01*
X8511824Y-19826008D01*
X8518133Y-19873930D01*
X8526121Y-19995800D01*
X8537112Y-20018087D01*
X8616175Y-20618632D01*
X8611327Y-20643003D01*
X8635153Y-20762786D01*
X8641462Y-20810708D01*
X8649247Y-20833641D01*
X8653972Y-20857397D01*
X8672471Y-20902057D01*
X8711727Y-21017702D01*
X8728111Y-21036385D01*
X8959913Y-21596002D01*
X8961538Y-21620799D01*
X9015556Y-21730337D01*
X9028233Y-21760943D01*
X7612542Y-21844219D01*
X7571154Y-21853769D01*
X4812765Y-23003098D01*
X4774327Y-22910301D01*
X4595698Y-22731673D01*
X4362309Y-22635000D01*
X3796750Y-22635000D01*
X3638000Y-22793750D01*
X3638000Y-23259560D01*
X3384000Y-23259560D01*
X3384000Y-22793750D01*
X3225250Y-22635000D01*
X3220999Y-22635000D01*
X3220999Y-22279290D01*
X3253654Y-22246635D01*
X3395999Y-21902983D01*
X3395999Y-21531017D01*
X3386564Y-21508238D01*
X3453593Y-21441209D01*
X3673744Y-21485000D01*
X3966256Y-21485000D01*
X4399418Y-21398839D01*
X4890625Y-21070625D01*
X5218839Y-20579418D01*
X5334092Y-20000000D01*
X5218839Y-19420582D01*
X4890625Y-18929375D01*
X4399418Y-18601161D01*
X3966256Y-18515000D01*
X3673744Y-18515000D01*
X3240582Y-18601161D01*
X2749375Y-18929375D01*
X2550000Y-19227761D01*
X2350625Y-18929375D01*
X2040000Y-18721822D01*
X2040000Y-17710481D01*
X2183691Y-17770000D01*
X2524250Y-17770000D01*
X2683000Y-17611250D01*
X2683000Y-16637000D01*
X1833750Y-16637000D01*
X1675000Y-16795750D01*
X1675000Y-16856196D01*
X885309Y-16066506D01*
X916440Y-15910000D01*
X916440Y-15758690D01*
X1675000Y-15758690D01*
X1675000Y-16224250D01*
X1833750Y-16383000D01*
X2683000Y-16383000D01*
X2683000Y-15408750D01*
X2524250Y-15250000D01*
X2183691Y-15250000D01*
X1950302Y-15346673D01*
X1771673Y-15525301D01*
X1675000Y-15758690D01*
X916440Y-15758690D01*
X916440Y-15210000D01*
X867157Y-14962235D01*
X726809Y-14752191D01*
X516765Y-14611843D01*
X269000Y-14562560D01*
X267483Y-14562560D01*
X248352Y-14533929D01*
X219258Y-14490387D01*
X357809Y-14397809D01*
X498157Y-14187765D01*
X547440Y-13940000D01*
X547440Y-13356306D01*
X560000Y-13325983D01*
X560000Y-12954017D01*
X547440Y-12923694D01*
X547440Y-12612440D01*
X1875000Y-12612440D01*
X2122765Y-12563157D01*
X2332809Y-12422809D01*
X2473157Y-12212765D01*
X2522440Y-11965000D01*
X2522440Y-11415000D01*
X2497576Y-11290000D01*
X2522440Y-11165000D01*
X2522440Y-10615000D01*
X2501783Y-10511148D01*
X2510000Y-10491310D01*
X2510000Y-10375750D01*
X2416112Y-10281862D01*
X2332809Y-10157191D01*
X2232251Y-10090000D01*
X2332809Y-10022809D01*
X2416112Y-9898138D01*
X2510000Y-9804250D01*
X2510000Y-9688690D01*
X2501783Y-9668852D01*
X2522440Y-9565000D01*
X2522440Y-9015000D01*
X2501783Y-8911148D01*
X2510000Y-8891310D01*
X2510000Y-8775750D01*
X2416112Y-8681862D01*
X2332809Y-8557191D01*
X2232251Y-8490000D01*
X2332809Y-8422809D01*
X2416112Y-8298138D01*
X2437224Y-8277026D01*
X5463000Y-11302802D01*
X5463000Y-11388688D01*
X5438460Y-11398853D01*
X5048853Y-11788460D01*
X4838000Y-12297506D01*
X4838000Y-12848494D01*
X4848165Y-12873034D01*
X4325528Y-13395671D01*
X4262072Y-13438071D01*
X4219672Y-13501527D01*
X4219671Y-13501528D01*
X4094097Y-13689463D01*
X4035112Y-13986000D01*
X4050001Y-14060852D01*
X4050000Y-15295018D01*
X3852191Y-15427191D01*
X3811346Y-15488320D01*
X3669698Y-15346673D01*
X3436309Y-15250000D01*
X3095750Y-15250000D01*
X2937000Y-15408750D01*
X2937000Y-16383000D01*
X2957000Y-16383000D01*
X2957000Y-16637000D01*
X2937000Y-16637000D01*
X2937000Y-17611250D01*
X3095750Y-17770000D01*
X3436309Y-17770000D01*
X3669698Y-17673327D01*
X3811346Y-17531680D01*
X3852191Y-17592809D01*
X4062235Y-17733157D01*
X4310000Y-17782440D01*
X5310000Y-17782440D01*
X5557765Y-17733157D01*
X5767809Y-17592809D01*
X5908157Y-17382765D01*
X5957440Y-17135000D01*
X5957440Y-15885000D01*
X5908157Y-15637235D01*
X5767809Y-15427191D01*
X5570000Y-15295018D01*
X5570000Y-14300801D01*
X5922966Y-13947835D01*
X5947506Y-13958000D01*
X6498494Y-13958000D01*
X7007540Y-13747147D01*
X7397147Y-13357540D01*
X7608000Y-12848494D01*
X7608000Y-12297506D01*
X7433127Y-11875322D01*
X12865000Y-11875322D01*
X12865000Y-12724678D01*
X13190034Y-13509380D01*
X13790620Y-14109966D01*
X14575322Y-14435000D01*
X15424678Y-14435000D01*
X16209380Y-14109966D01*
X16809966Y-13509380D01*
X17135000Y-12724678D01*
X17135000Y-11875322D01*
X16809966Y-11090620D01*
X16209380Y-10490034D01*
X15424678Y-10165000D01*
X14575322Y-10165000D01*
X13790620Y-10490034D01*
X13190034Y-11090620D01*
X12865000Y-11875322D01*
X7433127Y-11875322D01*
X7397147Y-11788460D01*
X7007540Y-11398853D01*
X6983000Y-11388688D01*
X6983000Y-11062846D01*
X6997888Y-10987999D01*
X6983000Y-10913152D01*
X6983000Y-10913148D01*
X6938904Y-10691463D01*
X6770929Y-10440071D01*
X6707473Y-10397671D01*
X3100818Y-6791017D01*
X3329929Y-6637929D01*
X3372331Y-6574470D01*
X4621362Y-5325440D01*
X4643071Y-5357929D01*
X4706529Y-5400331D01*
X5463001Y-6156803D01*
X5463001Y-6488688D01*
X5438460Y-6498853D01*
X5048853Y-6888460D01*
X4838000Y-7397506D01*
X4838000Y-7948494D01*
X5048853Y-8457540D01*
X5438460Y-8847147D01*
X5947506Y-9058000D01*
X6498494Y-9058000D01*
X7007540Y-8847147D01*
X7397147Y-8457540D01*
X7608000Y-7948494D01*
X7608000Y-7461000D01*
X10269560Y-7461000D01*
X10269560Y-8961000D01*
X10318843Y-9208765D01*
X10459191Y-9418809D01*
X10669235Y-9559157D01*
X10917000Y-9608440D01*
X12417000Y-9608440D01*
X12664765Y-9559157D01*
X12874809Y-9418809D01*
X13015157Y-9208765D01*
X13064440Y-8961000D01*
X13064440Y-7461000D01*
X13015157Y-7213235D01*
X12874809Y-7003191D01*
X12664765Y-6862843D01*
X12417000Y-6813560D01*
X10917000Y-6813560D01*
X10669235Y-6862843D01*
X10459191Y-7003191D01*
X10318843Y-7213235D01*
X10269560Y-7461000D01*
X7608000Y-7461000D01*
X7608000Y-7397506D01*
X7397147Y-6888460D01*
X7007540Y-6498853D01*
X6983000Y-6488688D01*
X6983000Y-5916846D01*
X6997888Y-5841999D01*
X6983000Y-5767152D01*
X6983000Y-5767148D01*
X6938904Y-5545463D01*
X6847439Y-5408576D01*
X6813329Y-5357526D01*
X6813327Y-5357524D01*
X6770929Y-5294071D01*
X6707475Y-5251673D01*
X6116320Y-4660518D01*
X6148809Y-4638809D01*
X6289157Y-4428765D01*
X6338440Y-4181000D01*
X6338440Y-3348000D01*
X6535983Y-3348000D01*
X6879635Y-3205655D01*
X7142655Y-2942635D01*
X7244400Y-2697000D01*
X7588250Y-2697000D01*
X7747000Y-2538250D01*
X7747000Y-1839000D01*
X8001000Y-1839000D01*
X8001000Y-2538250D01*
X8159750Y-2697000D01*
X8650310Y-2697000D01*
X8883699Y-2600327D01*
X9062327Y-2421698D01*
X9159000Y-2188309D01*
X9159000Y-1997750D01*
X9000250Y-1839000D01*
X8001000Y-1839000D01*
X7747000Y-1839000D01*
X7727000Y-1839000D01*
X7727000Y-1585000D01*
X7747000Y-1585000D01*
X7747000Y-1565000D01*
X8001000Y-1565000D01*
X8001000Y-1585000D01*
X9000250Y-1585000D01*
X9159000Y-1426250D01*
X9159000Y-1235691D01*
X9062327Y-1002302D01*
X8883699Y-823673D01*
X8743791Y-765721D01*
X8771765Y-760157D01*
X8981809Y-619809D01*
X9039031Y-534171D01*
X9070537Y-527904D01*
X9321929Y-359929D01*
X9364331Y-296470D01*
X9512560Y-148241D01*
X9512560Y-817000D01*
X9512560Y-817000D01*
G37*
X9512560Y-817000D02*
X9561843Y-1064765D01*
X9702191Y-1274809D01*
X9912235Y-1415157D01*
X10160000Y-1464440D01*
X10517186Y-1464440D01*
X10459191Y-1503191D01*
X10318843Y-1713235D01*
X10269560Y-1961000D01*
X10269560Y-3461000D01*
X10318843Y-3708765D01*
X10459191Y-3918809D01*
X10669235Y-4059157D01*
X10917000Y-4108440D01*
X12417000Y-4108440D01*
X12664765Y-4059157D01*
X12874809Y-3918809D01*
X13015157Y-3708765D01*
X13064440Y-3461000D01*
X13064440Y-3098241D01*
X13531999Y-3565800D01*
X13532000Y-4345578D01*
X13122602Y-4176000D01*
X12611398Y-4176000D01*
X12139106Y-4371629D01*
X11777629Y-4733106D01*
X11582000Y-5205398D01*
X11582000Y-5716602D01*
X11777629Y-6188894D01*
X12139106Y-6550371D01*
X12611398Y-6746000D01*
X13122602Y-6746000D01*
X13594894Y-6550371D01*
X13956371Y-6188894D01*
X14152000Y-5716602D01*
X14152000Y-5370801D01*
X15594758Y-6813560D01*
X14617000Y-6813560D01*
X14369235Y-6862843D01*
X14159191Y-7003191D01*
X14018843Y-7213235D01*
X13969560Y-7461000D01*
X13969560Y-8961000D01*
X14018843Y-9208765D01*
X14159191Y-9418809D01*
X14369235Y-9559157D01*
X14617000Y-9608440D01*
X16117000Y-9608440D01*
X16364765Y-9559157D01*
X16574809Y-9418809D01*
X16715157Y-9208765D01*
X16764440Y-8961000D01*
X16764440Y-7983242D01*
X17476673Y-8695476D01*
X17519071Y-8758929D01*
X17582524Y-8801327D01*
X17582526Y-8801329D01*
X17669560Y-8859483D01*
X17669560Y-8961000D01*
X17718843Y-9208765D01*
X17859191Y-9418809D01*
X18069235Y-9559157D01*
X18317000Y-9608440D01*
X19453695Y-9608440D01*
X19144824Y-12389720D01*
X18663480Y-15816830D01*
X18292024Y-15816831D01*
X18274071Y-15813260D01*
X12460156Y-15813260D01*
X12409252Y-15810295D01*
X12387930Y-15813260D01*
X12366399Y-15813260D01*
X12316380Y-15823210D01*
X11663152Y-15914045D01*
X11658822Y-15913184D01*
X11634374Y-15918047D01*
X11617412Y-15920406D01*
X11593005Y-15915735D01*
X11473401Y-15940431D01*
X11425523Y-15947089D01*
X11402644Y-15955041D01*
X11378925Y-15959939D01*
X11334402Y-15978761D01*
X11219045Y-16018858D01*
X11200483Y-16035377D01*
X10464120Y-16346680D01*
X10283252Y-16469444D01*
X10222942Y-16561141D01*
X9850720Y-16846757D01*
X9827188Y-16854745D01*
X9735362Y-16935274D01*
X9697018Y-16964697D01*
X9681050Y-16982905D01*
X9662840Y-16998875D01*
X9633412Y-17037227D01*
X9552889Y-17129046D01*
X9544902Y-17152575D01*
X9176159Y-17633130D01*
X9155497Y-17646936D01*
X9087648Y-17748480D01*
X9058220Y-17786831D01*
X9047507Y-17808556D01*
X9034052Y-17828692D01*
X9015556Y-17873345D01*
X8961538Y-17982883D01*
X8959913Y-18007680D01*
X8728111Y-18567297D01*
X8711727Y-18585980D01*
X8672471Y-18701625D01*
X8653972Y-18746285D01*
X8649247Y-18770041D01*
X8641462Y-18792974D01*
X8635153Y-18840896D01*
X8611327Y-18960679D01*
X8616175Y-18985050D01*
X8537112Y-19585595D01*
X8526121Y-19607882D01*
X8518133Y-19729752D01*
X8511824Y-19777674D01*
X8513408Y-19801841D01*
X8511824Y-19826008D01*
X8518133Y-19873930D01*
X8526121Y-19995800D01*
X8537112Y-20018087D01*
X8616175Y-20618632D01*
X8611327Y-20643003D01*
X8635153Y-20762786D01*
X8641462Y-20810708D01*
X8649247Y-20833641D01*
X8653972Y-20857397D01*
X8672471Y-20902057D01*
X8711727Y-21017702D01*
X8728111Y-21036385D01*
X8959913Y-21596002D01*
X8961538Y-21620799D01*
X9015556Y-21730337D01*
X9028233Y-21760943D01*
X7612542Y-21844219D01*
X7571154Y-21853769D01*
X4812765Y-23003098D01*
X4774327Y-22910301D01*
X4595698Y-22731673D01*
X4362309Y-22635000D01*
X3796750Y-22635000D01*
X3638000Y-22793750D01*
X3638000Y-23259560D01*
X3384000Y-23259560D01*
X3384000Y-22793750D01*
X3225250Y-22635000D01*
X3220999Y-22635000D01*
X3220999Y-22279290D01*
X3253654Y-22246635D01*
X3395999Y-21902983D01*
X3395999Y-21531017D01*
X3386564Y-21508238D01*
X3453593Y-21441209D01*
X3673744Y-21485000D01*
X3966256Y-21485000D01*
X4399418Y-21398839D01*
X4890625Y-21070625D01*
X5218839Y-20579418D01*
X5334092Y-20000000D01*
X5218839Y-19420582D01*
X4890625Y-18929375D01*
X4399418Y-18601161D01*
X3966256Y-18515000D01*
X3673744Y-18515000D01*
X3240582Y-18601161D01*
X2749375Y-18929375D01*
X2550000Y-19227761D01*
X2350625Y-18929375D01*
X2040000Y-18721822D01*
X2040000Y-17710481D01*
X2183691Y-17770000D01*
X2524250Y-17770000D01*
X2683000Y-17611250D01*
X2683000Y-16637000D01*
X1833750Y-16637000D01*
X1675000Y-16795750D01*
X1675000Y-16856196D01*
X885309Y-16066506D01*
X916440Y-15910000D01*
X916440Y-15758690D01*
X1675000Y-15758690D01*
X1675000Y-16224250D01*
X1833750Y-16383000D01*
X2683000Y-16383000D01*
X2683000Y-15408750D01*
X2524250Y-15250000D01*
X2183691Y-15250000D01*
X1950302Y-15346673D01*
X1771673Y-15525301D01*
X1675000Y-15758690D01*
X916440Y-15758690D01*
X916440Y-15210000D01*
X867157Y-14962235D01*
X726809Y-14752191D01*
X516765Y-14611843D01*
X269000Y-14562560D01*
X267483Y-14562560D01*
X248352Y-14533929D01*
X219258Y-14490387D01*
X357809Y-14397809D01*
X498157Y-14187765D01*
X547440Y-13940000D01*
X547440Y-13356306D01*
X560000Y-13325983D01*
X560000Y-12954017D01*
X547440Y-12923694D01*
X547440Y-12612440D01*
X1875000Y-12612440D01*
X2122765Y-12563157D01*
X2332809Y-12422809D01*
X2473157Y-12212765D01*
X2522440Y-11965000D01*
X2522440Y-11415000D01*
X2497576Y-11290000D01*
X2522440Y-11165000D01*
X2522440Y-10615000D01*
X2501783Y-10511148D01*
X2510000Y-10491310D01*
X2510000Y-10375750D01*
X2416112Y-10281862D01*
X2332809Y-10157191D01*
X2232251Y-10090000D01*
X2332809Y-10022809D01*
X2416112Y-9898138D01*
X2510000Y-9804250D01*
X2510000Y-9688690D01*
X2501783Y-9668852D01*
X2522440Y-9565000D01*
X2522440Y-9015000D01*
X2501783Y-8911148D01*
X2510000Y-8891310D01*
X2510000Y-8775750D01*
X2416112Y-8681862D01*
X2332809Y-8557191D01*
X2232251Y-8490000D01*
X2332809Y-8422809D01*
X2416112Y-8298138D01*
X2437224Y-8277026D01*
X5463000Y-11302802D01*
X5463000Y-11388688D01*
X5438460Y-11398853D01*
X5048853Y-11788460D01*
X4838000Y-12297506D01*
X4838000Y-12848494D01*
X4848165Y-12873034D01*
X4325528Y-13395671D01*
X4262072Y-13438071D01*
X4219672Y-13501527D01*
X4219671Y-13501528D01*
X4094097Y-13689463D01*
X4035112Y-13986000D01*
X4050001Y-14060852D01*
X4050000Y-15295018D01*
X3852191Y-15427191D01*
X3811346Y-15488320D01*
X3669698Y-15346673D01*
X3436309Y-15250000D01*
X3095750Y-15250000D01*
X2937000Y-15408750D01*
X2937000Y-16383000D01*
X2957000Y-16383000D01*
X2957000Y-16637000D01*
X2937000Y-16637000D01*
X2937000Y-17611250D01*
X3095750Y-17770000D01*
X3436309Y-17770000D01*
X3669698Y-17673327D01*
X3811346Y-17531680D01*
X3852191Y-17592809D01*
X4062235Y-17733157D01*
X4310000Y-17782440D01*
X5310000Y-17782440D01*
X5557765Y-17733157D01*
X5767809Y-17592809D01*
X5908157Y-17382765D01*
X5957440Y-17135000D01*
X5957440Y-15885000D01*
X5908157Y-15637235D01*
X5767809Y-15427191D01*
X5570000Y-15295018D01*
X5570000Y-14300801D01*
X5922966Y-13947835D01*
X5947506Y-13958000D01*
X6498494Y-13958000D01*
X7007540Y-13747147D01*
X7397147Y-13357540D01*
X7608000Y-12848494D01*
X7608000Y-12297506D01*
X7433127Y-11875322D01*
X12865000Y-11875322D01*
X12865000Y-12724678D01*
X13190034Y-13509380D01*
X13790620Y-14109966D01*
X14575322Y-14435000D01*
X15424678Y-14435000D01*
X16209380Y-14109966D01*
X16809966Y-13509380D01*
X17135000Y-12724678D01*
X17135000Y-11875322D01*
X16809966Y-11090620D01*
X16209380Y-10490034D01*
X15424678Y-10165000D01*
X14575322Y-10165000D01*
X13790620Y-10490034D01*
X13190034Y-11090620D01*
X12865000Y-11875322D01*
X7433127Y-11875322D01*
X7397147Y-11788460D01*
X7007540Y-11398853D01*
X6983000Y-11388688D01*
X6983000Y-11062846D01*
X6997888Y-10987999D01*
X6983000Y-10913152D01*
X6983000Y-10913148D01*
X6938904Y-10691463D01*
X6770929Y-10440071D01*
X6707473Y-10397671D01*
X3100818Y-6791017D01*
X3329929Y-6637929D01*
X3372331Y-6574470D01*
X4621362Y-5325440D01*
X4643071Y-5357929D01*
X4706529Y-5400331D01*
X5463001Y-6156803D01*
X5463001Y-6488688D01*
X5438460Y-6498853D01*
X5048853Y-6888460D01*
X4838000Y-7397506D01*
X4838000Y-7948494D01*
X5048853Y-8457540D01*
X5438460Y-8847147D01*
X5947506Y-9058000D01*
X6498494Y-9058000D01*
X7007540Y-8847147D01*
X7397147Y-8457540D01*
X7608000Y-7948494D01*
X7608000Y-7461000D01*
X10269560Y-7461000D01*
X10269560Y-8961000D01*
X10318843Y-9208765D01*
X10459191Y-9418809D01*
X10669235Y-9559157D01*
X10917000Y-9608440D01*
X12417000Y-9608440D01*
X12664765Y-9559157D01*
X12874809Y-9418809D01*
X13015157Y-9208765D01*
X13064440Y-8961000D01*
X13064440Y-7461000D01*
X13015157Y-7213235D01*
X12874809Y-7003191D01*
X12664765Y-6862843D01*
X12417000Y-6813560D01*
X10917000Y-6813560D01*
X10669235Y-6862843D01*
X10459191Y-7003191D01*
X10318843Y-7213235D01*
X10269560Y-7461000D01*
X7608000Y-7461000D01*
X7608000Y-7397506D01*
X7397147Y-6888460D01*
X7007540Y-6498853D01*
X6983000Y-6488688D01*
X6983000Y-5916846D01*
X6997888Y-5841999D01*
X6983000Y-5767152D01*
X6983000Y-5767148D01*
X6938904Y-5545463D01*
X6847439Y-5408576D01*
X6813329Y-5357526D01*
X6813327Y-5357524D01*
X6770929Y-5294071D01*
X6707475Y-5251673D01*
X6116320Y-4660518D01*
X6148809Y-4638809D01*
X6289157Y-4428765D01*
X6338440Y-4181000D01*
X6338440Y-3348000D01*
X6535983Y-3348000D01*
X6879635Y-3205655D01*
X7142655Y-2942635D01*
X7244400Y-2697000D01*
X7588250Y-2697000D01*
X7747000Y-2538250D01*
X7747000Y-1839000D01*
X8001000Y-1839000D01*
X8001000Y-2538250D01*
X8159750Y-2697000D01*
X8650310Y-2697000D01*
X8883699Y-2600327D01*
X9062327Y-2421698D01*
X9159000Y-2188309D01*
X9159000Y-1997750D01*
X9000250Y-1839000D01*
X8001000Y-1839000D01*
X7747000Y-1839000D01*
X7727000Y-1839000D01*
X7727000Y-1585000D01*
X7747000Y-1585000D01*
X7747000Y-1565000D01*
X8001000Y-1565000D01*
X8001000Y-1585000D01*
X9000250Y-1585000D01*
X9159000Y-1426250D01*
X9159000Y-1235691D01*
X9062327Y-1002302D01*
X8883699Y-823673D01*
X8743791Y-765721D01*
X8771765Y-760157D01*
X8981809Y-619809D01*
X9039031Y-534171D01*
X9070537Y-527904D01*
X9321929Y-359929D01*
X9364331Y-296470D01*
X9512560Y-148241D01*
X9512560Y-817000D01*
G36*
X-3583440Y-17810000D02*
X-3534157Y-18057765D01*
X-3393809Y-18267809D01*
X-3183765Y-18408157D01*
X-2936000Y-18457440D01*
X-2030000Y-18457440D01*
X-2030000Y-18713072D01*
X-2033540Y-18730869D01*
X-2330625Y-18929375D01*
X-2345096Y-18951033D01*
X-2411673Y-18790302D01*
X-2590301Y-18611673D01*
X-2823690Y-18515000D01*
X-3514250Y-18515000D01*
X-3673000Y-18673750D01*
X-3673000Y-19873000D01*
X-3653000Y-19873000D01*
X-3653000Y-20127000D01*
X-3673000Y-20127000D01*
X-3673000Y-20147000D01*
X-3927000Y-20147000D01*
X-3927000Y-20127000D01*
X-3947000Y-20127000D01*
X-3947000Y-19873000D01*
X-3927000Y-19873000D01*
X-3927000Y-18673750D01*
X-4085750Y-18515000D01*
X-4466199Y-18515000D01*
X-3583440Y-17632242D01*
X-3583440Y-17810000D01*
X-3583440Y-17810000D01*
G37*
X-3583440Y-17810000D02*
X-3534157Y-18057765D01*
X-3393809Y-18267809D01*
X-3183765Y-18408157D01*
X-2936000Y-18457440D01*
X-2030000Y-18457440D01*
X-2030000Y-18713072D01*
X-2033540Y-18730869D01*
X-2330625Y-18929375D01*
X-2345096Y-18951033D01*
X-2411673Y-18790302D01*
X-2590301Y-18611673D01*
X-2823690Y-18515000D01*
X-3514250Y-18515000D01*
X-3673000Y-18673750D01*
X-3673000Y-19873000D01*
X-3653000Y-19873000D01*
X-3653000Y-20127000D01*
X-3673000Y-20127000D01*
X-3673000Y-20147000D01*
X-3927000Y-20147000D01*
X-3927000Y-20127000D01*
X-3947000Y-20127000D01*
X-3947000Y-19873000D01*
X-3927000Y-19873000D01*
X-3927000Y-18673750D01*
X-4085750Y-18515000D01*
X-4466199Y-18515000D01*
X-3583440Y-17632242D01*
X-3583440Y-17810000D01*
G36*
X-5101250Y-8215329D02*
X-5117275Y-8254017D01*
X-5117275Y-8625983D01*
X-4974930Y-8969635D01*
X-4711910Y-9232655D01*
X-4368258Y-9375000D01*
X-4322077Y-9375000D01*
X-3534999Y-10162079D01*
X-3535000Y-11692560D01*
X-3850000Y-11692560D01*
X-3975000Y-11717424D01*
X-4100000Y-11692560D01*
X-4650000Y-11692560D01*
X-4775000Y-11717424D01*
X-4900000Y-11692560D01*
X-5450000Y-11692560D01*
X-5575000Y-11717424D01*
X-5700000Y-11692560D01*
X-5977560Y-11692560D01*
X-5977560Y-11415000D01*
X-6002424Y-11290000D01*
X-5977560Y-11165000D01*
X-5977560Y-10615000D01*
X-6002424Y-10490000D01*
X-5977560Y-10365000D01*
X-5977560Y-9815000D01*
X-5998217Y-9711148D01*
X-5990000Y-9691310D01*
X-5990000Y-9575750D01*
X-6083888Y-9481862D01*
X-6167191Y-9357191D01*
X-6267749Y-9290000D01*
X-6167191Y-9222809D01*
X-6083888Y-9098138D01*
X-5990000Y-9004250D01*
X-5990000Y-8888690D01*
X-5998217Y-8868852D01*
X-5977560Y-8765000D01*
X-5977560Y-8215000D01*
X-6002424Y-8090000D01*
X-5977560Y-7965000D01*
X-5977560Y-7415000D01*
X-5996426Y-7320152D01*
X-5101250Y-8215329D01*
X-5101250Y-8215329D01*
G37*
X-5101250Y-8215329D02*
X-5117275Y-8254017D01*
X-5117275Y-8625983D01*
X-4974930Y-8969635D01*
X-4711910Y-9232655D01*
X-4368258Y-9375000D01*
X-4322077Y-9375000D01*
X-3534999Y-10162079D01*
X-3535000Y-11692560D01*
X-3850000Y-11692560D01*
X-3975000Y-11717424D01*
X-4100000Y-11692560D01*
X-4650000Y-11692560D01*
X-4775000Y-11717424D01*
X-4900000Y-11692560D01*
X-5450000Y-11692560D01*
X-5575000Y-11717424D01*
X-5700000Y-11692560D01*
X-5977560Y-11692560D01*
X-5977560Y-11415000D01*
X-6002424Y-11290000D01*
X-5977560Y-11165000D01*
X-5977560Y-10615000D01*
X-6002424Y-10490000D01*
X-5977560Y-10365000D01*
X-5977560Y-9815000D01*
X-5998217Y-9711148D01*
X-5990000Y-9691310D01*
X-5990000Y-9575750D01*
X-6083888Y-9481862D01*
X-6167191Y-9357191D01*
X-6267749Y-9290000D01*
X-6167191Y-9222809D01*
X-6083888Y-9098138D01*
X-5990000Y-9004250D01*
X-5990000Y-8888690D01*
X-5998217Y-8868852D01*
X-5977560Y-8765000D01*
X-5977560Y-8215000D01*
X-6002424Y-8090000D01*
X-5977560Y-7965000D01*
X-5977560Y-7415000D01*
X-5996426Y-7320152D01*
X-5101250Y-8215329D01*
G36*
X2056000Y-3270250D02*
X2214750Y-3429000D01*
X3064000Y-3429000D01*
X3064000Y-3409000D01*
X3318000Y-3409000D01*
X3318000Y-3429000D01*
X3338000Y-3429000D01*
X3338000Y-3683000D01*
X3318000Y-3683000D01*
X3318000Y-3703000D01*
X3064000Y-3703000D01*
X3064000Y-3683000D01*
X2214750Y-3683000D01*
X2056000Y-3841750D01*
X2056000Y-4307310D01*
X2152673Y-4540699D01*
X2331302Y-4719327D01*
X2564691Y-4816000D01*
X2905250Y-4816000D01*
X3063998Y-4657252D01*
X3063998Y-4733200D01*
X2467199Y-5330000D01*
X2292115Y-5330000D01*
X2122765Y-5216843D01*
X1875000Y-5167560D01*
X547440Y-5167560D01*
X547440Y-3840000D01*
X498157Y-3592235D01*
X358869Y-3383777D01*
X340904Y-3293463D01*
X260413Y-3173000D01*
X2056000Y-3173000D01*
X2056000Y-3270250D01*
X2056000Y-3270250D01*
G37*
X2056000Y-3270250D02*
X2214750Y-3429000D01*
X3064000Y-3429000D01*
X3064000Y-3409000D01*
X3318000Y-3409000D01*
X3318000Y-3429000D01*
X3338000Y-3429000D01*
X3338000Y-3683000D01*
X3318000Y-3683000D01*
X3318000Y-3703000D01*
X3064000Y-3703000D01*
X3064000Y-3683000D01*
X2214750Y-3683000D01*
X2056000Y-3841750D01*
X2056000Y-4307310D01*
X2152673Y-4540699D01*
X2331302Y-4719327D01*
X2564691Y-4816000D01*
X2905250Y-4816000D01*
X3063998Y-4657252D01*
X3063998Y-4733200D01*
X2467199Y-5330000D01*
X2292115Y-5330000D01*
X2122765Y-5216843D01*
X1875000Y-5167560D01*
X547440Y-5167560D01*
X547440Y-3840000D01*
X498157Y-3592235D01*
X358869Y-3383777D01*
X340904Y-3293463D01*
X260413Y-3173000D01*
X2056000Y-3173000D01*
X2056000Y-3270250D01*
G36*
X-8185000Y-4848405D02*
X-9191465Y-3540000D01*
X-9131750Y-3540000D01*
X-8973000Y-3381250D01*
X-8973000Y-3115690D01*
X-9026082Y-2987539D01*
X-9013460Y-2957062D01*
X-9067249Y-2888153D01*
X-9069673Y-2882301D01*
X-9079444Y-2872530D01*
X-9140743Y-2794000D01*
X-9157974Y-2794000D01*
X-9248302Y-2703673D01*
X-9481691Y-2607000D01*
X-9747250Y-2607000D01*
X-9838763Y-2698513D01*
X-9905998Y-2611108D01*
X-9905998Y-2607000D01*
X-9909158Y-2607000D01*
X-9976081Y-2520000D01*
X-9906000Y-2520000D01*
X-9906000Y-2540000D01*
X-9140743Y-2540000D01*
X-9013460Y-2376938D01*
X-9106959Y-2151174D01*
X-9374848Y-1836058D01*
X-9608668Y-1716246D01*
X-8981960Y-1089538D01*
X-8909256Y-1104000D01*
X-8616744Y-1104000D01*
X-8184999Y-1018121D01*
X-8185000Y-4848405D01*
X-8185000Y-4848405D01*
G37*
X-8185000Y-4848405D02*
X-9191465Y-3540000D01*
X-9131750Y-3540000D01*
X-8973000Y-3381250D01*
X-8973000Y-3115690D01*
X-9026082Y-2987539D01*
X-9013460Y-2957062D01*
X-9067249Y-2888153D01*
X-9069673Y-2882301D01*
X-9079444Y-2872530D01*
X-9140743Y-2794000D01*
X-9157974Y-2794000D01*
X-9248302Y-2703673D01*
X-9481691Y-2607000D01*
X-9747250Y-2607000D01*
X-9838763Y-2698513D01*
X-9905998Y-2611108D01*
X-9905998Y-2607000D01*
X-9909158Y-2607000D01*
X-9976081Y-2520000D01*
X-9906000Y-2520000D01*
X-9906000Y-2540000D01*
X-9140743Y-2540000D01*
X-9013460Y-2376938D01*
X-9106959Y-2151174D01*
X-9374848Y-1836058D01*
X-9608668Y-1716246D01*
X-8981960Y-1089538D01*
X-8909256Y-1104000D01*
X-8616744Y-1104000D01*
X-8184999Y-1018121D01*
X-8185000Y-4848405D01*
G36*
X11296104Y34100449D02*
X12599305Y33753778D01*
X13845058Y33237455D01*
X15011400Y32560579D01*
X16077745Y31735097D01*
X17025280Y30775571D01*
X17419614Y30252725D01*
X19377585Y25553596D01*
X19489032Y24584494D01*
X19526046Y24183171D01*
X15024003Y24183163D01*
X14975779Y24186324D01*
X14951769Y24183163D01*
X14927560Y24183163D01*
X14880173Y24173737D01*
X14183157Y24081973D01*
X14158787Y24086820D01*
X14039005Y24062994D01*
X13991081Y24056685D01*
X13968149Y24048900D01*
X13944392Y24044175D01*
X13899726Y24025674D01*
X13784087Y23986419D01*
X13765406Y23970037D01*
X13205788Y23738234D01*
X13180991Y23736609D01*
X13071450Y23682590D01*
X13026800Y23664095D01*
X13006666Y23650642D01*
X12984938Y23639927D01*
X12946581Y23610494D01*
X12845044Y23542650D01*
X12831239Y23521990D01*
X12350687Y23153249D01*
X12327153Y23145260D01*
X12235320Y23064725D01*
X12196984Y23035308D01*
X12181018Y23017103D01*
X12162805Y23001130D01*
X12133376Y22962777D01*
X12052854Y22870960D01*
X12044867Y22847430D01*
X11676122Y22366873D01*
X11655462Y22353068D01*
X11587611Y22251522D01*
X11558185Y22213174D01*
X11547474Y22191454D01*
X11534016Y22171313D01*
X11515515Y22126649D01*
X11461503Y22017122D01*
X11459878Y21992327D01*
X11228076Y21432707D01*
X11211692Y21414024D01*
X11172434Y21298375D01*
X11153937Y21253718D01*
X11149212Y21229964D01*
X11141427Y21207030D01*
X11135118Y21159105D01*
X11111292Y21039324D01*
X11116140Y21014953D01*
X11037077Y20414410D01*
X11026086Y20392123D01*
X11018098Y20270255D01*
X11011789Y20222332D01*
X11013373Y20198164D01*
X11011789Y20173997D01*
X11018098Y20126074D01*
X11026086Y20004205D01*
X11037077Y19981918D01*
X11116140Y19381373D01*
X11111292Y19357002D01*
X11135118Y19237219D01*
X11141427Y19189297D01*
X11149212Y19166364D01*
X11153937Y19142608D01*
X11172436Y19097948D01*
X11211692Y18982303D01*
X11228076Y18963620D01*
X11459878Y18404003D01*
X11461503Y18379206D01*
X11515521Y18269668D01*
X11534017Y18225015D01*
X11547472Y18204879D01*
X11558185Y18183154D01*
X11587613Y18144803D01*
X11655462Y18043259D01*
X11676124Y18029453D01*
X12044867Y17548898D01*
X12052854Y17525369D01*
X12133375Y17433552D01*
X12162805Y17395198D01*
X12181015Y17379228D01*
X12196983Y17361020D01*
X12235327Y17331597D01*
X12327153Y17251068D01*
X12350685Y17243080D01*
X12831239Y16874337D01*
X12845044Y16853677D01*
X12946581Y16785832D01*
X12984938Y16756400D01*
X13006667Y16745685D01*
X13026800Y16732232D01*
X13071447Y16713739D01*
X13180990Y16659718D01*
X13205788Y16658093D01*
X13765406Y16426291D01*
X13784088Y16409907D01*
X13899728Y16370653D01*
X13944392Y16352152D01*
X13968150Y16347426D01*
X13991082Y16339642D01*
X14039003Y16333333D01*
X14158787Y16309507D01*
X14183158Y16314355D01*
X14880167Y16222592D01*
X14927563Y16213164D01*
X14951777Y16213164D01*
X14975780Y16210004D01*
X15023994Y16213164D01*
X20142865Y16213174D01*
X20206517Y15343540D01*
X20364272Y10718045D01*
X20388143Y6086225D01*
X20277985Y1455677D01*
X20127049Y-1404460D01*
X20064765Y-1362843D01*
X19817000Y-1313560D01*
X19703814Y-1313560D01*
X19761809Y-1274809D01*
X19902157Y-1064765D01*
X19951440Y-817000D01*
X19951440Y707000D01*
X19902157Y954765D01*
X19761809Y1164809D01*
X19551765Y1305157D01*
X19304000Y1354440D01*
X17780000Y1354440D01*
X17532235Y1305157D01*
X17322191Y1164809D01*
X17272000Y1089693D01*
X17221809Y1164809D01*
X17011765Y1305157D01*
X16764000Y1354440D01*
X15240000Y1354440D01*
X14992235Y1305157D01*
X14782191Y1164809D01*
X14732000Y1089693D01*
X14681809Y1164809D01*
X14471765Y1305157D01*
X14224000Y1354440D01*
X12700000Y1354440D01*
X12452235Y1305157D01*
X12242191Y1164809D01*
X12192000Y1089693D01*
X12141809Y1164809D01*
X11931765Y1305157D01*
X11684000Y1354440D01*
X11015241Y1354440D01*
X16486473Y6825671D01*
X16549929Y6868071D01*
X16717904Y7119463D01*
X16762000Y7341148D01*
X16762000Y7341152D01*
X16776888Y7416000D01*
X16762000Y7490848D01*
X16762000Y7535560D01*
X16764000Y7535560D01*
X17011765Y7584843D01*
X17221809Y7725191D01*
X17272000Y7800307D01*
X17322191Y7725191D01*
X17501984Y7605056D01*
X17480000Y7551983D01*
X17480000Y7180017D01*
X17622345Y6836365D01*
X17885365Y6573345D01*
X18229017Y6431000D01*
X18600983Y6431000D01*
X18944635Y6573345D01*
X19207655Y6836365D01*
X19350000Y7180017D01*
X19350000Y7544710D01*
X19551765Y7584843D01*
X19761809Y7725191D01*
X19902157Y7935235D01*
X19951440Y8183000D01*
X19951440Y9707000D01*
X19902157Y9954765D01*
X19761809Y10164809D01*
X19551765Y10305157D01*
X19304000Y10354440D01*
X17780000Y10354440D01*
X17532235Y10305157D01*
X17322191Y10164809D01*
X17272000Y10089693D01*
X17221809Y10164809D01*
X17011765Y10305157D01*
X16764000Y10354440D01*
X15240000Y10354440D01*
X14992235Y10305157D01*
X14782191Y10164809D01*
X14732000Y10089693D01*
X14681809Y10164809D01*
X14471765Y10305157D01*
X14224000Y10354440D01*
X12700000Y10354440D01*
X12452235Y10305157D01*
X12242191Y10164809D01*
X12192000Y10089693D01*
X12141809Y10164809D01*
X11931765Y10305157D01*
X11684000Y10354440D01*
X10160000Y10354440D01*
X9912235Y10305157D01*
X9702191Y10164809D01*
X9561843Y9954765D01*
X9512560Y9707000D01*
X9512560Y8183000D01*
X9561843Y7935235D01*
X9702191Y7725191D01*
X9912235Y7584843D01*
X10160000Y7535560D01*
X10162001Y7535560D01*
X10162000Y4525802D01*
X9126201Y3490002D01*
X9000252Y3490002D01*
X9159000Y3648750D01*
X9159000Y3839309D01*
X9092232Y4000500D01*
X9159000Y4161691D01*
X9159000Y4352250D01*
X9000250Y4511000D01*
X8001000Y4511000D01*
X8001000Y3490000D01*
X8021000Y3490000D01*
X8021000Y3236000D01*
X8001000Y3236000D01*
X8001000Y3216000D01*
X7747000Y3216000D01*
X7747000Y3236000D01*
X6747750Y3236000D01*
X6589000Y3077250D01*
X6589000Y2886691D01*
X6685673Y2653302D01*
X6864301Y2474673D01*
X7004209Y2416721D01*
X6976235Y2411157D01*
X6766191Y2270809D01*
X6625843Y2060765D01*
X6576560Y1813000D01*
X6576560Y1113000D01*
X6625843Y865235D01*
X6652393Y825500D01*
X6625843Y785765D01*
X6576560Y538000D01*
X6576560Y-162000D01*
X6625843Y-409765D01*
X6766191Y-619809D01*
X6976235Y-760157D01*
X7004209Y-765721D01*
X6864301Y-823673D01*
X6685673Y-1002302D01*
X6589000Y-1235691D01*
X6589000Y-1426250D01*
X6714831Y-1552081D01*
X6616605Y-1511395D01*
X6507655Y-1248365D01*
X6314965Y-1055675D01*
X6362440Y-817000D01*
X6362440Y707000D01*
X6313157Y954765D01*
X6172809Y1164809D01*
X5962765Y1305157D01*
X5715000Y1354440D01*
X5713000Y1354440D01*
X5713000Y3602199D01*
X6621800Y4510998D01*
X6747748Y4510998D01*
X6589000Y4352250D01*
X6589000Y4161691D01*
X6655768Y4000500D01*
X6589000Y3839309D01*
X6589000Y3648750D01*
X6747750Y3490000D01*
X7747000Y3490000D01*
X7747000Y4511000D01*
X7727000Y4511000D01*
X7727000Y4765000D01*
X7747000Y4765000D01*
X7747000Y4785000D01*
X8001000Y4785000D01*
X8001000Y4765000D01*
X9000250Y4765000D01*
X9159000Y4923750D01*
X9159000Y5114309D01*
X9062327Y5347698D01*
X8883699Y5526327D01*
X8743791Y5584279D01*
X8771765Y5589843D01*
X8981809Y5730191D01*
X9122157Y5940235D01*
X9171440Y6188000D01*
X9171440Y6888000D01*
X9122157Y7135765D01*
X9095607Y7175500D01*
X9122157Y7215235D01*
X9171440Y7463000D01*
X9171440Y8163000D01*
X9122157Y8410765D01*
X8981809Y8620809D01*
X8771765Y8761157D01*
X8743791Y8766721D01*
X8883699Y8824673D01*
X9062327Y9003302D01*
X9159000Y9236691D01*
X9159000Y9427250D01*
X9000250Y9586000D01*
X8001000Y9586000D01*
X8001000Y9566000D01*
X7747000Y9566000D01*
X7747000Y9586000D01*
X6747750Y9586000D01*
X6589000Y9427250D01*
X6589000Y9236691D01*
X6685673Y9003302D01*
X6864301Y8824673D01*
X7004209Y8766721D01*
X6976235Y8761157D01*
X6766191Y8620809D01*
X6742411Y8585220D01*
X6728999Y8587888D01*
X6654152Y8573000D01*
X6654148Y8573000D01*
X6432463Y8528904D01*
X6362440Y8482116D01*
X6362440Y9707000D01*
X6313157Y9954765D01*
X6197964Y10127162D01*
X6260111Y10189309D01*
X6589000Y10189309D01*
X6589000Y9998750D01*
X6747750Y9840000D01*
X7747000Y9840000D01*
X7747000Y10539250D01*
X8001000Y10539250D01*
X8001000Y9840000D01*
X9000250Y9840000D01*
X9159000Y9998750D01*
X9159000Y10189309D01*
X9062327Y10422698D01*
X8883699Y10601327D01*
X8650310Y10698000D01*
X8159750Y10698000D01*
X8001000Y10539250D01*
X7747000Y10539250D01*
X7588250Y10698000D01*
X7097690Y10698000D01*
X6864301Y10601327D01*
X6685673Y10422698D01*
X6589000Y10189309D01*
X6260111Y10189309D01*
X8807475Y12736672D01*
X8870928Y12779070D01*
X8913326Y12842523D01*
X8913328Y12842525D01*
X9018549Y13000000D01*
X9038903Y13030462D01*
X9057643Y13124678D01*
X12865000Y13124678D01*
X12865000Y12275322D01*
X13190034Y11490620D01*
X13790620Y10890034D01*
X14575322Y10565000D01*
X15424678Y10565000D01*
X16209380Y10890034D01*
X16809966Y11490620D01*
X17135000Y12275322D01*
X17135000Y13124678D01*
X16809966Y13909380D01*
X16209380Y14509966D01*
X15424678Y14835000D01*
X14575322Y14835000D01*
X13790620Y14509966D01*
X13190034Y13909380D01*
X12865000Y13124678D01*
X9057643Y13124678D01*
X9082999Y13252147D01*
X9082999Y13252151D01*
X9097887Y13326998D01*
X9082999Y13401845D01*
X9082999Y25001560D01*
X10148000Y25001560D01*
X10395765Y25050843D01*
X10605809Y25191191D01*
X10746157Y25401235D01*
X10795440Y25649000D01*
X10795440Y27149000D01*
X10746157Y27396765D01*
X10605809Y27606809D01*
X10395765Y27747157D01*
X10148000Y27796440D01*
X9082999Y27796440D01*
X9082999Y28701560D01*
X10148000Y28701560D01*
X10395765Y28750843D01*
X10605809Y28891191D01*
X10746157Y29101235D01*
X10795440Y29349000D01*
X10795440Y30849000D01*
X10746157Y31096765D01*
X10605809Y31306809D01*
X10395765Y31447157D01*
X10148000Y31496440D01*
X9170241Y31496440D01*
X9882473Y32208671D01*
X9945929Y32251071D01*
X10046483Y32401560D01*
X10148000Y32401560D01*
X10395765Y32450843D01*
X10605809Y32591191D01*
X10746157Y32801235D01*
X10795440Y33049000D01*
X10795440Y34164413D01*
X11296104Y34100449D01*
X11296104Y34100449D01*
G37*
X11296104Y34100449D02*
X12599305Y33753778D01*
X13845058Y33237455D01*
X15011400Y32560579D01*
X16077745Y31735097D01*
X17025280Y30775571D01*
X17419614Y30252725D01*
X19377585Y25553596D01*
X19489032Y24584494D01*
X19526046Y24183171D01*
X15024003Y24183163D01*
X14975779Y24186324D01*
X14951769Y24183163D01*
X14927560Y24183163D01*
X14880173Y24173737D01*
X14183157Y24081973D01*
X14158787Y24086820D01*
X14039005Y24062994D01*
X13991081Y24056685D01*
X13968149Y24048900D01*
X13944392Y24044175D01*
X13899726Y24025674D01*
X13784087Y23986419D01*
X13765406Y23970037D01*
X13205788Y23738234D01*
X13180991Y23736609D01*
X13071450Y23682590D01*
X13026800Y23664095D01*
X13006666Y23650642D01*
X12984938Y23639927D01*
X12946581Y23610494D01*
X12845044Y23542650D01*
X12831239Y23521990D01*
X12350687Y23153249D01*
X12327153Y23145260D01*
X12235320Y23064725D01*
X12196984Y23035308D01*
X12181018Y23017103D01*
X12162805Y23001130D01*
X12133376Y22962777D01*
X12052854Y22870960D01*
X12044867Y22847430D01*
X11676122Y22366873D01*
X11655462Y22353068D01*
X11587611Y22251522D01*
X11558185Y22213174D01*
X11547474Y22191454D01*
X11534016Y22171313D01*
X11515515Y22126649D01*
X11461503Y22017122D01*
X11459878Y21992327D01*
X11228076Y21432707D01*
X11211692Y21414024D01*
X11172434Y21298375D01*
X11153937Y21253718D01*
X11149212Y21229964D01*
X11141427Y21207030D01*
X11135118Y21159105D01*
X11111292Y21039324D01*
X11116140Y21014953D01*
X11037077Y20414410D01*
X11026086Y20392123D01*
X11018098Y20270255D01*
X11011789Y20222332D01*
X11013373Y20198164D01*
X11011789Y20173997D01*
X11018098Y20126074D01*
X11026086Y20004205D01*
X11037077Y19981918D01*
X11116140Y19381373D01*
X11111292Y19357002D01*
X11135118Y19237219D01*
X11141427Y19189297D01*
X11149212Y19166364D01*
X11153937Y19142608D01*
X11172436Y19097948D01*
X11211692Y18982303D01*
X11228076Y18963620D01*
X11459878Y18404003D01*
X11461503Y18379206D01*
X11515521Y18269668D01*
X11534017Y18225015D01*
X11547472Y18204879D01*
X11558185Y18183154D01*
X11587613Y18144803D01*
X11655462Y18043259D01*
X11676124Y18029453D01*
X12044867Y17548898D01*
X12052854Y17525369D01*
X12133375Y17433552D01*
X12162805Y17395198D01*
X12181015Y17379228D01*
X12196983Y17361020D01*
X12235327Y17331597D01*
X12327153Y17251068D01*
X12350685Y17243080D01*
X12831239Y16874337D01*
X12845044Y16853677D01*
X12946581Y16785832D01*
X12984938Y16756400D01*
X13006667Y16745685D01*
X13026800Y16732232D01*
X13071447Y16713739D01*
X13180990Y16659718D01*
X13205788Y16658093D01*
X13765406Y16426291D01*
X13784088Y16409907D01*
X13899728Y16370653D01*
X13944392Y16352152D01*
X13968150Y16347426D01*
X13991082Y16339642D01*
X14039003Y16333333D01*
X14158787Y16309507D01*
X14183158Y16314355D01*
X14880167Y16222592D01*
X14927563Y16213164D01*
X14951777Y16213164D01*
X14975780Y16210004D01*
X15023994Y16213164D01*
X20142865Y16213174D01*
X20206517Y15343540D01*
X20364272Y10718045D01*
X20388143Y6086225D01*
X20277985Y1455677D01*
X20127049Y-1404460D01*
X20064765Y-1362843D01*
X19817000Y-1313560D01*
X19703814Y-1313560D01*
X19761809Y-1274809D01*
X19902157Y-1064765D01*
X19951440Y-817000D01*
X19951440Y707000D01*
X19902157Y954765D01*
X19761809Y1164809D01*
X19551765Y1305157D01*
X19304000Y1354440D01*
X17780000Y1354440D01*
X17532235Y1305157D01*
X17322191Y1164809D01*
X17272000Y1089693D01*
X17221809Y1164809D01*
X17011765Y1305157D01*
X16764000Y1354440D01*
X15240000Y1354440D01*
X14992235Y1305157D01*
X14782191Y1164809D01*
X14732000Y1089693D01*
X14681809Y1164809D01*
X14471765Y1305157D01*
X14224000Y1354440D01*
X12700000Y1354440D01*
X12452235Y1305157D01*
X12242191Y1164809D01*
X12192000Y1089693D01*
X12141809Y1164809D01*
X11931765Y1305157D01*
X11684000Y1354440D01*
X11015241Y1354440D01*
X16486473Y6825671D01*
X16549929Y6868071D01*
X16717904Y7119463D01*
X16762000Y7341148D01*
X16762000Y7341152D01*
X16776888Y7416000D01*
X16762000Y7490848D01*
X16762000Y7535560D01*
X16764000Y7535560D01*
X17011765Y7584843D01*
X17221809Y7725191D01*
X17272000Y7800307D01*
X17322191Y7725191D01*
X17501984Y7605056D01*
X17480000Y7551983D01*
X17480000Y7180017D01*
X17622345Y6836365D01*
X17885365Y6573345D01*
X18229017Y6431000D01*
X18600983Y6431000D01*
X18944635Y6573345D01*
X19207655Y6836365D01*
X19350000Y7180017D01*
X19350000Y7544710D01*
X19551765Y7584843D01*
X19761809Y7725191D01*
X19902157Y7935235D01*
X19951440Y8183000D01*
X19951440Y9707000D01*
X19902157Y9954765D01*
X19761809Y10164809D01*
X19551765Y10305157D01*
X19304000Y10354440D01*
X17780000Y10354440D01*
X17532235Y10305157D01*
X17322191Y10164809D01*
X17272000Y10089693D01*
X17221809Y10164809D01*
X17011765Y10305157D01*
X16764000Y10354440D01*
X15240000Y10354440D01*
X14992235Y10305157D01*
X14782191Y10164809D01*
X14732000Y10089693D01*
X14681809Y10164809D01*
X14471765Y10305157D01*
X14224000Y10354440D01*
X12700000Y10354440D01*
X12452235Y10305157D01*
X12242191Y10164809D01*
X12192000Y10089693D01*
X12141809Y10164809D01*
X11931765Y10305157D01*
X11684000Y10354440D01*
X10160000Y10354440D01*
X9912235Y10305157D01*
X9702191Y10164809D01*
X9561843Y9954765D01*
X9512560Y9707000D01*
X9512560Y8183000D01*
X9561843Y7935235D01*
X9702191Y7725191D01*
X9912235Y7584843D01*
X10160000Y7535560D01*
X10162001Y7535560D01*
X10162000Y4525802D01*
X9126201Y3490002D01*
X9000252Y3490002D01*
X9159000Y3648750D01*
X9159000Y3839309D01*
X9092232Y4000500D01*
X9159000Y4161691D01*
X9159000Y4352250D01*
X9000250Y4511000D01*
X8001000Y4511000D01*
X8001000Y3490000D01*
X8021000Y3490000D01*
X8021000Y3236000D01*
X8001000Y3236000D01*
X8001000Y3216000D01*
X7747000Y3216000D01*
X7747000Y3236000D01*
X6747750Y3236000D01*
X6589000Y3077250D01*
X6589000Y2886691D01*
X6685673Y2653302D01*
X6864301Y2474673D01*
X7004209Y2416721D01*
X6976235Y2411157D01*
X6766191Y2270809D01*
X6625843Y2060765D01*
X6576560Y1813000D01*
X6576560Y1113000D01*
X6625843Y865235D01*
X6652393Y825500D01*
X6625843Y785765D01*
X6576560Y538000D01*
X6576560Y-162000D01*
X6625843Y-409765D01*
X6766191Y-619809D01*
X6976235Y-760157D01*
X7004209Y-765721D01*
X6864301Y-823673D01*
X6685673Y-1002302D01*
X6589000Y-1235691D01*
X6589000Y-1426250D01*
X6714831Y-1552081D01*
X6616605Y-1511395D01*
X6507655Y-1248365D01*
X6314965Y-1055675D01*
X6362440Y-817000D01*
X6362440Y707000D01*
X6313157Y954765D01*
X6172809Y1164809D01*
X5962765Y1305157D01*
X5715000Y1354440D01*
X5713000Y1354440D01*
X5713000Y3602199D01*
X6621800Y4510998D01*
X6747748Y4510998D01*
X6589000Y4352250D01*
X6589000Y4161691D01*
X6655768Y4000500D01*
X6589000Y3839309D01*
X6589000Y3648750D01*
X6747750Y3490000D01*
X7747000Y3490000D01*
X7747000Y4511000D01*
X7727000Y4511000D01*
X7727000Y4765000D01*
X7747000Y4765000D01*
X7747000Y4785000D01*
X8001000Y4785000D01*
X8001000Y4765000D01*
X9000250Y4765000D01*
X9159000Y4923750D01*
X9159000Y5114309D01*
X9062327Y5347698D01*
X8883699Y5526327D01*
X8743791Y5584279D01*
X8771765Y5589843D01*
X8981809Y5730191D01*
X9122157Y5940235D01*
X9171440Y6188000D01*
X9171440Y6888000D01*
X9122157Y7135765D01*
X9095607Y7175500D01*
X9122157Y7215235D01*
X9171440Y7463000D01*
X9171440Y8163000D01*
X9122157Y8410765D01*
X8981809Y8620809D01*
X8771765Y8761157D01*
X8743791Y8766721D01*
X8883699Y8824673D01*
X9062327Y9003302D01*
X9159000Y9236691D01*
X9159000Y9427250D01*
X9000250Y9586000D01*
X8001000Y9586000D01*
X8001000Y9566000D01*
X7747000Y9566000D01*
X7747000Y9586000D01*
X6747750Y9586000D01*
X6589000Y9427250D01*
X6589000Y9236691D01*
X6685673Y9003302D01*
X6864301Y8824673D01*
X7004209Y8766721D01*
X6976235Y8761157D01*
X6766191Y8620809D01*
X6742411Y8585220D01*
X6728999Y8587888D01*
X6654152Y8573000D01*
X6654148Y8573000D01*
X6432463Y8528904D01*
X6362440Y8482116D01*
X6362440Y9707000D01*
X6313157Y9954765D01*
X6197964Y10127162D01*
X6260111Y10189309D01*
X6589000Y10189309D01*
X6589000Y9998750D01*
X6747750Y9840000D01*
X7747000Y9840000D01*
X7747000Y10539250D01*
X8001000Y10539250D01*
X8001000Y9840000D01*
X9000250Y9840000D01*
X9159000Y9998750D01*
X9159000Y10189309D01*
X9062327Y10422698D01*
X8883699Y10601327D01*
X8650310Y10698000D01*
X8159750Y10698000D01*
X8001000Y10539250D01*
X7747000Y10539250D01*
X7588250Y10698000D01*
X7097690Y10698000D01*
X6864301Y10601327D01*
X6685673Y10422698D01*
X6589000Y10189309D01*
X6260111Y10189309D01*
X8807475Y12736672D01*
X8870928Y12779070D01*
X8913326Y12842523D01*
X8913328Y12842525D01*
X9018549Y13000000D01*
X9038903Y13030462D01*
X9057643Y13124678D01*
X12865000Y13124678D01*
X12865000Y12275322D01*
X13190034Y11490620D01*
X13790620Y10890034D01*
X14575322Y10565000D01*
X15424678Y10565000D01*
X16209380Y10890034D01*
X16809966Y11490620D01*
X17135000Y12275322D01*
X17135000Y13124678D01*
X16809966Y13909380D01*
X16209380Y14509966D01*
X15424678Y14835000D01*
X14575322Y14835000D01*
X13790620Y14509966D01*
X13190034Y13909380D01*
X12865000Y13124678D01*
X9057643Y13124678D01*
X9082999Y13252147D01*
X9082999Y13252151D01*
X9097887Y13326998D01*
X9082999Y13401845D01*
X9082999Y25001560D01*
X10148000Y25001560D01*
X10395765Y25050843D01*
X10605809Y25191191D01*
X10746157Y25401235D01*
X10795440Y25649000D01*
X10795440Y27149000D01*
X10746157Y27396765D01*
X10605809Y27606809D01*
X10395765Y27747157D01*
X10148000Y27796440D01*
X9082999Y27796440D01*
X9082999Y28701560D01*
X10148000Y28701560D01*
X10395765Y28750843D01*
X10605809Y28891191D01*
X10746157Y29101235D01*
X10795440Y29349000D01*
X10795440Y30849000D01*
X10746157Y31096765D01*
X10605809Y31306809D01*
X10395765Y31447157D01*
X10148000Y31496440D01*
X9170241Y31496440D01*
X9882473Y32208671D01*
X9945929Y32251071D01*
X10046483Y32401560D01*
X10148000Y32401560D01*
X10395765Y32450843D01*
X10605809Y32591191D01*
X10746157Y32801235D01*
X10795440Y33049000D01*
X10795440Y34164413D01*
X11296104Y34100449D01*
G36*
X-7544157Y11003765D02*
X-7593440Y10756000D01*
X-7593440Y9056000D01*
X-7544157Y8808235D01*
X-7403809Y8598191D01*
X-7193765Y8457843D01*
X-6946000Y8408560D01*
X-6383240Y8408560D01*
X-7395798Y7396001D01*
X-9798155Y7396001D01*
X-9873002Y7410889D01*
X-9947849Y7396001D01*
X-9947853Y7396001D01*
X-10169538Y7351905D01*
X-10420930Y7183930D01*
X-10463330Y7120474D01*
X-11025470Y6558333D01*
X-11088929Y6515931D01*
X-11256904Y6264538D01*
X-11301000Y6042853D01*
X-11301000Y6042849D01*
X-11315888Y5968002D01*
X-11301000Y5893155D01*
X-11300999Y2233852D01*
X-11315888Y2159000D01*
X-11256903Y1862463D01*
X-11133294Y1677470D01*
X-11088928Y1611071D01*
X-11025472Y1568671D01*
X-10204209Y747408D01*
X-10277092Y381000D01*
X-10233538Y162040D01*
X-11508578Y-1113000D01*
X-12186974Y-1113000D01*
X-12185673Y-1111699D01*
X-12089000Y-878310D01*
X-12089000Y-412750D01*
X-12247750Y-254000D01*
X-13097000Y-254000D01*
X-13097000Y-274000D01*
X-13351000Y-274000D01*
X-13351000Y-254000D01*
X-13371000Y-254000D01*
X-13371000Y0D01*
X-13351000Y0D01*
X-13351000Y20000D01*
X-13097000Y20000D01*
X-13097000Y0D01*
X-12247750Y0D01*
X-12089000Y158750D01*
X-12089000Y624310D01*
X-12185673Y857699D01*
X-12324877Y996903D01*
X-12291000Y1078690D01*
X-12291000Y1619250D01*
X-12449750Y1778000D01*
X-13286500Y1778000D01*
X-13286500Y1758000D01*
X-13540500Y1758000D01*
X-13540500Y1778000D01*
X-13560500Y1778000D01*
X-13560500Y2032000D01*
X-13540500Y2032000D01*
X-13540500Y3081250D01*
X-13286500Y3081250D01*
X-13286500Y2032000D01*
X-12449750Y2032000D01*
X-12291000Y2190750D01*
X-12291000Y2731310D01*
X-12387673Y2964699D01*
X-12566302Y3143327D01*
X-12799691Y3240000D01*
X-13127750Y3240000D01*
X-13286500Y3081250D01*
X-13540500Y3081250D01*
X-13699250Y3240000D01*
X-14027309Y3240000D01*
X-14260698Y3143327D01*
X-14413793Y2990233D01*
X-14414584Y2991416D01*
X-14703706Y3184602D01*
X-15044750Y3252440D01*
X-15384361Y3252440D01*
X-15560552Y3428630D01*
X-15545560Y3504000D01*
X-15545560Y4704000D01*
X-15594843Y4951765D01*
X-15735191Y5161809D01*
X-15945235Y5302157D01*
X-16193000Y5351440D01*
X-18093982Y5351440D01*
X-18088862Y5356560D01*
X-16193000Y5356560D01*
X-15945235Y5405843D01*
X-15735191Y5546191D01*
X-15594843Y5756235D01*
X-15545560Y6004000D01*
X-15545560Y7204000D01*
X-15594843Y7451765D01*
X-15735191Y7661809D01*
X-15945235Y7802157D01*
X-16193000Y7851440D01*
X-18693000Y7851440D01*
X-18940765Y7802157D01*
X-19150809Y7661809D01*
X-19291157Y7451765D01*
X-19340440Y7204000D01*
X-19340440Y6608138D01*
X-19757155Y6191423D01*
X-19831048Y6142049D01*
X-19880422Y6068156D01*
X-19880424Y6068154D01*
X-20026652Y5849309D01*
X-20095337Y5504000D01*
X-20077999Y5416835D01*
X-20078000Y4289000D01*
X-20345383Y4289000D01*
X-20388142Y6086172D01*
X-20373553Y8919000D01*
X-19977180Y8919000D01*
X-19578397Y9084182D01*
X-19340440Y9322139D01*
X-19340440Y8504000D01*
X-19291157Y8256235D01*
X-19150809Y8046191D01*
X-18940765Y7905843D01*
X-18693000Y7856560D01*
X-16193000Y7856560D01*
X-15945235Y7905843D01*
X-15735191Y8046191D01*
X-15619723Y8219000D01*
X-14478161Y8219000D01*
X-14391000Y8201663D01*
X-14303839Y8219000D01*
X-14303835Y8219000D01*
X-14045690Y8270348D01*
X-13752951Y8465951D01*
X-13703575Y8539847D01*
X-12406420Y9837001D01*
X-12140868Y9837001D01*
X-11677586Y9373718D01*
X-11631001Y9303999D01*
X-11354801Y9119448D01*
X-11276440Y9103861D01*
X-11276440Y9056000D01*
X-11227157Y8808235D01*
X-11086809Y8598191D01*
X-10876765Y8457843D01*
X-10629000Y8408560D01*
X-8929000Y8408560D01*
X-8681235Y8457843D01*
X-8471191Y8598191D01*
X-8330843Y8808235D01*
X-8281560Y9056000D01*
X-8281560Y10756000D01*
X-8330843Y11003765D01*
X-8362405Y11051000D01*
X-7512595Y11051000D01*
X-7544157Y11003765D01*
X-7544157Y11003765D01*
G37*
X-7544157Y11003765D02*
X-7593440Y10756000D01*
X-7593440Y9056000D01*
X-7544157Y8808235D01*
X-7403809Y8598191D01*
X-7193765Y8457843D01*
X-6946000Y8408560D01*
X-6383240Y8408560D01*
X-7395798Y7396001D01*
X-9798155Y7396001D01*
X-9873002Y7410889D01*
X-9947849Y7396001D01*
X-9947853Y7396001D01*
X-10169538Y7351905D01*
X-10420930Y7183930D01*
X-10463330Y7120474D01*
X-11025470Y6558333D01*
X-11088929Y6515931D01*
X-11256904Y6264538D01*
X-11301000Y6042853D01*
X-11301000Y6042849D01*
X-11315888Y5968002D01*
X-11301000Y5893155D01*
X-11300999Y2233852D01*
X-11315888Y2159000D01*
X-11256903Y1862463D01*
X-11133294Y1677470D01*
X-11088928Y1611071D01*
X-11025472Y1568671D01*
X-10204209Y747408D01*
X-10277092Y381000D01*
X-10233538Y162040D01*
X-11508578Y-1113000D01*
X-12186974Y-1113000D01*
X-12185673Y-1111699D01*
X-12089000Y-878310D01*
X-12089000Y-412750D01*
X-12247750Y-254000D01*
X-13097000Y-254000D01*
X-13097000Y-274000D01*
X-13351000Y-274000D01*
X-13351000Y-254000D01*
X-13371000Y-254000D01*
X-13371000Y0D01*
X-13351000Y0D01*
X-13351000Y20000D01*
X-13097000Y20000D01*
X-13097000Y0D01*
X-12247750Y0D01*
X-12089000Y158750D01*
X-12089000Y624310D01*
X-12185673Y857699D01*
X-12324877Y996903D01*
X-12291000Y1078690D01*
X-12291000Y1619250D01*
X-12449750Y1778000D01*
X-13286500Y1778000D01*
X-13286500Y1758000D01*
X-13540500Y1758000D01*
X-13540500Y1778000D01*
X-13560500Y1778000D01*
X-13560500Y2032000D01*
X-13540500Y2032000D01*
X-13540500Y3081250D01*
X-13286500Y3081250D01*
X-13286500Y2032000D01*
X-12449750Y2032000D01*
X-12291000Y2190750D01*
X-12291000Y2731310D01*
X-12387673Y2964699D01*
X-12566302Y3143327D01*
X-12799691Y3240000D01*
X-13127750Y3240000D01*
X-13286500Y3081250D01*
X-13540500Y3081250D01*
X-13699250Y3240000D01*
X-14027309Y3240000D01*
X-14260698Y3143327D01*
X-14413793Y2990233D01*
X-14414584Y2991416D01*
X-14703706Y3184602D01*
X-15044750Y3252440D01*
X-15384361Y3252440D01*
X-15560552Y3428630D01*
X-15545560Y3504000D01*
X-15545560Y4704000D01*
X-15594843Y4951765D01*
X-15735191Y5161809D01*
X-15945235Y5302157D01*
X-16193000Y5351440D01*
X-18093982Y5351440D01*
X-18088862Y5356560D01*
X-16193000Y5356560D01*
X-15945235Y5405843D01*
X-15735191Y5546191D01*
X-15594843Y5756235D01*
X-15545560Y6004000D01*
X-15545560Y7204000D01*
X-15594843Y7451765D01*
X-15735191Y7661809D01*
X-15945235Y7802157D01*
X-16193000Y7851440D01*
X-18693000Y7851440D01*
X-18940765Y7802157D01*
X-19150809Y7661809D01*
X-19291157Y7451765D01*
X-19340440Y7204000D01*
X-19340440Y6608138D01*
X-19757155Y6191423D01*
X-19831048Y6142049D01*
X-19880422Y6068156D01*
X-19880424Y6068154D01*
X-20026652Y5849309D01*
X-20095337Y5504000D01*
X-20077999Y5416835D01*
X-20078000Y4289000D01*
X-20345383Y4289000D01*
X-20388142Y6086172D01*
X-20373553Y8919000D01*
X-19977180Y8919000D01*
X-19578397Y9084182D01*
X-19340440Y9322139D01*
X-19340440Y8504000D01*
X-19291157Y8256235D01*
X-19150809Y8046191D01*
X-18940765Y7905843D01*
X-18693000Y7856560D01*
X-16193000Y7856560D01*
X-15945235Y7905843D01*
X-15735191Y8046191D01*
X-15619723Y8219000D01*
X-14478161Y8219000D01*
X-14391000Y8201663D01*
X-14303839Y8219000D01*
X-14303835Y8219000D01*
X-14045690Y8270348D01*
X-13752951Y8465951D01*
X-13703575Y8539847D01*
X-12406420Y9837001D01*
X-12140868Y9837001D01*
X-11677586Y9373718D01*
X-11631001Y9303999D01*
X-11354801Y9119448D01*
X-11276440Y9103861D01*
X-11276440Y9056000D01*
X-11227157Y8808235D01*
X-11086809Y8598191D01*
X-10876765Y8457843D01*
X-10629000Y8408560D01*
X-8929000Y8408560D01*
X-8681235Y8457843D01*
X-8471191Y8598191D01*
X-8330843Y8808235D01*
X-8281560Y9056000D01*
X-8281560Y10756000D01*
X-8330843Y11003765D01*
X-8362405Y11051000D01*
X-7512595Y11051000D01*
X-7544157Y11003765D01*
G36*
X-8636000Y5588000D02*
X-8616000Y5588000D01*
X-8616000Y5334000D01*
X-8636000Y5334000D01*
X-8636000Y5314000D01*
X-8890000Y5314000D01*
X-8890000Y5334000D01*
X-8910000Y5334000D01*
X-8910000Y5588000D01*
X-8890000Y5588000D01*
X-8890000Y5608000D01*
X-8636000Y5608000D01*
X-8636000Y5588000D01*
X-8636000Y5588000D01*
G37*
X-8636000Y5588000D02*
X-8616000Y5588000D01*
X-8616000Y5334000D01*
X-8636000Y5334000D01*
X-8636000Y5314000D01*
X-8890000Y5314000D01*
X-8890000Y5334000D01*
X-8910000Y5334000D01*
X-8910000Y5588000D01*
X-8890000Y5588000D01*
X-8890000Y5608000D01*
X-8636000Y5608000D01*
X-8636000Y5588000D01*
G36*
X-4953000Y15332200D02*
X-4933000Y15332200D01*
X-4933000Y15078200D01*
X-4953000Y15078200D01*
X-4953000Y14228950D01*
X-4840416Y14116366D01*
X-4854725Y14044431D01*
X-4805442Y13796666D01*
X-4784050Y13764651D01*
X-5183470Y13365230D01*
X-5246929Y13322828D01*
X-5414904Y13071435D01*
X-5459000Y12849750D01*
X-5459000Y12849746D01*
X-5473888Y12774899D01*
X-5459000Y12700052D01*
X-5459000Y11590625D01*
X-5548071Y11723929D01*
X-5611527Y11766329D01*
X-5900500Y12055301D01*
X-5900500Y12393750D01*
X-6059250Y12552500D01*
X-6563142Y12552500D01*
X-6656148Y12571000D01*
X-6656153Y12571000D01*
X-6731000Y12585888D01*
X-6805847Y12571000D01*
X-6838060Y12571000D01*
X-6838060Y12826500D01*
X-6733500Y12826500D01*
X-6733500Y12806500D01*
X-6059250Y12806500D01*
X-5900500Y12965250D01*
X-5900500Y13335809D01*
X-5997173Y13569198D01*
X-6175801Y13747827D01*
X-6248148Y13777794D01*
X-6077691Y13891691D01*
X-5937343Y14101735D01*
X-5935067Y14113178D01*
X-5831310Y14070200D01*
X-5365750Y14070200D01*
X-5207000Y14228950D01*
X-5207000Y15078200D01*
X-5227000Y15078200D01*
X-5227000Y15332200D01*
X-5207000Y15332200D01*
X-5207000Y15352200D01*
X-4953000Y15352200D01*
X-4953000Y15332200D01*
X-4953000Y15332200D01*
G37*
X-4953000Y15332200D02*
X-4933000Y15332200D01*
X-4933000Y15078200D01*
X-4953000Y15078200D01*
X-4953000Y14228950D01*
X-4840416Y14116366D01*
X-4854725Y14044431D01*
X-4805442Y13796666D01*
X-4784050Y13764651D01*
X-5183470Y13365230D01*
X-5246929Y13322828D01*
X-5414904Y13071435D01*
X-5459000Y12849750D01*
X-5459000Y12849746D01*
X-5473888Y12774899D01*
X-5459000Y12700052D01*
X-5459000Y11590625D01*
X-5548071Y11723929D01*
X-5611527Y11766329D01*
X-5900500Y12055301D01*
X-5900500Y12393750D01*
X-6059250Y12552500D01*
X-6563142Y12552500D01*
X-6656148Y12571000D01*
X-6656153Y12571000D01*
X-6731000Y12585888D01*
X-6805847Y12571000D01*
X-6838060Y12571000D01*
X-6838060Y12826500D01*
X-6733500Y12826500D01*
X-6733500Y12806500D01*
X-6059250Y12806500D01*
X-5900500Y12965250D01*
X-5900500Y13335809D01*
X-5997173Y13569198D01*
X-6175801Y13747827D01*
X-6248148Y13777794D01*
X-6077691Y13891691D01*
X-5937343Y14101735D01*
X-5935067Y14113178D01*
X-5831310Y14070200D01*
X-5365750Y14070200D01*
X-5207000Y14228950D01*
X-5207000Y15078200D01*
X-5227000Y15078200D01*
X-5227000Y15332200D01*
X-5207000Y15332200D01*
X-5207000Y15352200D01*
X-4953000Y15352200D01*
X-4953000Y15332200D01*
G36*
X2500560Y33049000D02*
X2549843Y32801235D01*
X2660230Y32636031D01*
X2338527Y32314328D01*
X2275071Y32271928D01*
X2232671Y32208472D01*
X2232670Y32208471D01*
X2107096Y32020536D01*
X2048111Y31723999D01*
X2063000Y31649147D01*
X2062999Y25463846D01*
X2048111Y25388999D01*
X2062999Y25314152D01*
X2062999Y25314148D01*
X2107095Y25092463D01*
X2275070Y24841070D01*
X2314035Y24815035D01*
X2340070Y24776070D01*
X2591462Y24608095D01*
X2813147Y24563999D01*
X2813152Y24563999D01*
X2887999Y24549111D01*
X2962846Y24563999D01*
X3952200Y24563999D01*
X4025002Y24491196D01*
X4025002Y23896252D01*
X3937000Y23808250D01*
X3937000Y23109000D01*
X3957000Y23109000D01*
X3957000Y22855000D01*
X3937000Y22855000D01*
X3937000Y22835000D01*
X3683000Y22835000D01*
X3683000Y22855000D01*
X2032000Y22855000D01*
X2032000Y22835000D01*
X1778000Y22835000D01*
X1778000Y22855000D01*
X127000Y22855000D01*
X127000Y22835000D01*
X-127000Y22835000D01*
X-127000Y22855000D01*
X-1778000Y22855000D01*
X-1778000Y22835000D01*
X-2032000Y22835000D01*
X-2032000Y22855000D01*
X-3683000Y22855000D01*
X-3683000Y22835000D01*
X-3937000Y22835000D01*
X-3937000Y22855000D01*
X-4936250Y22855000D01*
X-5095000Y22696250D01*
X-5095000Y22505691D01*
X-4998327Y22272302D01*
X-4819699Y22093673D01*
X-4679791Y22035721D01*
X-4707765Y22030157D01*
X-4917809Y21889809D01*
X-5058157Y21679765D01*
X-5107440Y21432000D01*
X-5107440Y20732000D01*
X-5058157Y20484235D01*
X-4917809Y20274191D01*
X-4707765Y20133843D01*
X-4460000Y20084560D01*
X-3587361Y20084560D01*
X-3456388Y19953586D01*
X-4482792Y18927182D01*
X-4489671Y18937476D01*
X-4489673Y18937478D01*
X-4532071Y19000931D01*
X-4595524Y19043329D01*
X-5388125Y19835928D01*
X-5342560Y20065000D01*
X-5342560Y21845000D01*
X-5391843Y22092765D01*
X-5500794Y22255821D01*
X-5552452Y22515518D01*
X-5563448Y22570801D01*
X-5747999Y22847001D01*
X-5817717Y22893585D01*
X-6382441Y23458309D01*
X-5095000Y23458309D01*
X-5095000Y23267750D01*
X-4936250Y23109000D01*
X-3937000Y23109000D01*
X-3937000Y23808250D01*
X-3683000Y23808250D01*
X-3683000Y23109000D01*
X-2032000Y23109000D01*
X-2032000Y23808250D01*
X-1778000Y23808250D01*
X-1778000Y23109000D01*
X-127000Y23109000D01*
X-127000Y23808250D01*
X127000Y23808250D01*
X127000Y23109000D01*
X1778000Y23109000D01*
X1778000Y23808250D01*
X2032000Y23808250D01*
X2032000Y23109000D01*
X3683000Y23109000D01*
X3683000Y23808250D01*
X3524250Y23967000D01*
X3033690Y23967000D01*
X2857500Y23894020D01*
X2681310Y23967000D01*
X2190750Y23967000D01*
X2032000Y23808250D01*
X1778000Y23808250D01*
X1619250Y23967000D01*
X1128690Y23967000D01*
X952500Y23894020D01*
X776310Y23967000D01*
X285750Y23967000D01*
X127000Y23808250D01*
X-127000Y23808250D01*
X-285750Y23967000D01*
X-776310Y23967000D01*
X-952500Y23894020D01*
X-1128690Y23967000D01*
X-1619250Y23967000D01*
X-1778000Y23808250D01*
X-2032000Y23808250D01*
X-2190750Y23967000D01*
X-2681310Y23967000D01*
X-2857500Y23894020D01*
X-3033690Y23967000D01*
X-3524250Y23967000D01*
X-3683000Y23808250D01*
X-3937000Y23808250D01*
X-4095750Y23967000D01*
X-4586310Y23967000D01*
X-4819699Y23870327D01*
X-4998327Y23691698D01*
X-5095000Y23458309D01*
X-6382441Y23458309D01*
X-6460424Y23536291D01*
X-6507010Y23606012D01*
X-6783210Y23790563D01*
X-7026774Y23839011D01*
X-7026778Y23839011D01*
X-7109011Y23855368D01*
X-7191244Y23839011D01*
X-7883145Y23839011D01*
X-8181843Y24137709D01*
X-7980000Y24097560D01*
X-7260000Y24097560D01*
X-7012235Y24146843D01*
X-6978950Y24169083D01*
X-6836310Y24110000D01*
X-6635750Y24110000D01*
X-6477000Y24268750D01*
X-6477000Y25508000D01*
X-6223000Y25508000D01*
X-6223000Y24268750D01*
X-6064250Y24110000D01*
X-5863690Y24110000D01*
X-5630301Y24206673D01*
X-5451673Y24385302D01*
X-5355000Y24618691D01*
X-5355000Y25349250D01*
X-5513750Y25508000D01*
X-6223000Y25508000D01*
X-6477000Y25508000D01*
X-6497000Y25508000D01*
X-6497000Y25762000D01*
X-6477000Y25762000D01*
X-6477000Y25782000D01*
X-6223000Y25782000D01*
X-6223000Y25762000D01*
X-5513750Y25762000D01*
X-5355000Y25920750D01*
X-5355000Y26427944D01*
X-5305235Y26437843D01*
X-5095191Y26578191D01*
X-4954843Y26788235D01*
X-4949279Y26816209D01*
X-4891327Y26676301D01*
X-4712698Y26497673D01*
X-4479309Y26401000D01*
X-4288750Y26401000D01*
X-4130000Y26559750D01*
X-4130000Y27559000D01*
X-3876000Y27559000D01*
X-3876000Y26559750D01*
X-3717250Y26401000D01*
X-3526691Y26401000D01*
X-3293302Y26497673D01*
X-3114673Y26676301D01*
X-3018000Y26909690D01*
X-3018000Y27400250D01*
X-3176750Y27559000D01*
X-3876000Y27559000D01*
X-4130000Y27559000D01*
X-4150000Y27559000D01*
X-4150000Y27813000D01*
X-4130000Y27813000D01*
X-4130000Y27833000D01*
X-3876000Y27833000D01*
X-3876000Y27813000D01*
X-3176750Y27813000D01*
X-3018000Y27971750D01*
X-3018000Y28462310D01*
X-3114673Y28695699D01*
X-3293302Y28874327D01*
X-3389324Y28914101D01*
X-3320235Y28927843D01*
X-3110191Y29068191D01*
X-2969843Y29278235D01*
X-2920560Y29526000D01*
X-2920560Y30926000D01*
X-2969843Y31173765D01*
X-3110191Y31383809D01*
X-3320235Y31524157D01*
X-3342371Y31528560D01*
X-2818000Y31528560D01*
X-2570235Y31577843D01*
X-2360191Y31718191D01*
X-2219843Y31928235D01*
X-2170560Y32176000D01*
X-2170560Y33676000D01*
X-2219843Y33923765D01*
X-2360191Y34133809D01*
X-2553737Y34263133D01*
X-72441Y34263138D01*
X-72437Y34263137D01*
X2500560Y34263142D01*
X2500560Y33049000D01*
X2500560Y33049000D01*
G37*
X2500560Y33049000D02*
X2549843Y32801235D01*
X2660230Y32636031D01*
X2338527Y32314328D01*
X2275071Y32271928D01*
X2232671Y32208472D01*
X2232670Y32208471D01*
X2107096Y32020536D01*
X2048111Y31723999D01*
X2063000Y31649147D01*
X2062999Y25463846D01*
X2048111Y25388999D01*
X2062999Y25314152D01*
X2062999Y25314148D01*
X2107095Y25092463D01*
X2275070Y24841070D01*
X2314035Y24815035D01*
X2340070Y24776070D01*
X2591462Y24608095D01*
X2813147Y24563999D01*
X2813152Y24563999D01*
X2887999Y24549111D01*
X2962846Y24563999D01*
X3952200Y24563999D01*
X4025002Y24491196D01*
X4025002Y23896252D01*
X3937000Y23808250D01*
X3937000Y23109000D01*
X3957000Y23109000D01*
X3957000Y22855000D01*
X3937000Y22855000D01*
X3937000Y22835000D01*
X3683000Y22835000D01*
X3683000Y22855000D01*
X2032000Y22855000D01*
X2032000Y22835000D01*
X1778000Y22835000D01*
X1778000Y22855000D01*
X127000Y22855000D01*
X127000Y22835000D01*
X-127000Y22835000D01*
X-127000Y22855000D01*
X-1778000Y22855000D01*
X-1778000Y22835000D01*
X-2032000Y22835000D01*
X-2032000Y22855000D01*
X-3683000Y22855000D01*
X-3683000Y22835000D01*
X-3937000Y22835000D01*
X-3937000Y22855000D01*
X-4936250Y22855000D01*
X-5095000Y22696250D01*
X-5095000Y22505691D01*
X-4998327Y22272302D01*
X-4819699Y22093673D01*
X-4679791Y22035721D01*
X-4707765Y22030157D01*
X-4917809Y21889809D01*
X-5058157Y21679765D01*
X-5107440Y21432000D01*
X-5107440Y20732000D01*
X-5058157Y20484235D01*
X-4917809Y20274191D01*
X-4707765Y20133843D01*
X-4460000Y20084560D01*
X-3587361Y20084560D01*
X-3456388Y19953586D01*
X-4482792Y18927182D01*
X-4489671Y18937476D01*
X-4489673Y18937478D01*
X-4532071Y19000931D01*
X-4595524Y19043329D01*
X-5388125Y19835928D01*
X-5342560Y20065000D01*
X-5342560Y21845000D01*
X-5391843Y22092765D01*
X-5500794Y22255821D01*
X-5552452Y22515518D01*
X-5563448Y22570801D01*
X-5747999Y22847001D01*
X-5817717Y22893585D01*
X-6382441Y23458309D01*
X-5095000Y23458309D01*
X-5095000Y23267750D01*
X-4936250Y23109000D01*
X-3937000Y23109000D01*
X-3937000Y23808250D01*
X-3683000Y23808250D01*
X-3683000Y23109000D01*
X-2032000Y23109000D01*
X-2032000Y23808250D01*
X-1778000Y23808250D01*
X-1778000Y23109000D01*
X-127000Y23109000D01*
X-127000Y23808250D01*
X127000Y23808250D01*
X127000Y23109000D01*
X1778000Y23109000D01*
X1778000Y23808250D01*
X2032000Y23808250D01*
X2032000Y23109000D01*
X3683000Y23109000D01*
X3683000Y23808250D01*
X3524250Y23967000D01*
X3033690Y23967000D01*
X2857500Y23894020D01*
X2681310Y23967000D01*
X2190750Y23967000D01*
X2032000Y23808250D01*
X1778000Y23808250D01*
X1619250Y23967000D01*
X1128690Y23967000D01*
X952500Y23894020D01*
X776310Y23967000D01*
X285750Y23967000D01*
X127000Y23808250D01*
X-127000Y23808250D01*
X-285750Y23967000D01*
X-776310Y23967000D01*
X-952500Y23894020D01*
X-1128690Y23967000D01*
X-1619250Y23967000D01*
X-1778000Y23808250D01*
X-2032000Y23808250D01*
X-2190750Y23967000D01*
X-2681310Y23967000D01*
X-2857500Y23894020D01*
X-3033690Y23967000D01*
X-3524250Y23967000D01*
X-3683000Y23808250D01*
X-3937000Y23808250D01*
X-4095750Y23967000D01*
X-4586310Y23967000D01*
X-4819699Y23870327D01*
X-4998327Y23691698D01*
X-5095000Y23458309D01*
X-6382441Y23458309D01*
X-6460424Y23536291D01*
X-6507010Y23606012D01*
X-6783210Y23790563D01*
X-7026774Y23839011D01*
X-7026778Y23839011D01*
X-7109011Y23855368D01*
X-7191244Y23839011D01*
X-7883145Y23839011D01*
X-8181843Y24137709D01*
X-7980000Y24097560D01*
X-7260000Y24097560D01*
X-7012235Y24146843D01*
X-6978950Y24169083D01*
X-6836310Y24110000D01*
X-6635750Y24110000D01*
X-6477000Y24268750D01*
X-6477000Y25508000D01*
X-6223000Y25508000D01*
X-6223000Y24268750D01*
X-6064250Y24110000D01*
X-5863690Y24110000D01*
X-5630301Y24206673D01*
X-5451673Y24385302D01*
X-5355000Y24618691D01*
X-5355000Y25349250D01*
X-5513750Y25508000D01*
X-6223000Y25508000D01*
X-6477000Y25508000D01*
X-6497000Y25508000D01*
X-6497000Y25762000D01*
X-6477000Y25762000D01*
X-6477000Y25782000D01*
X-6223000Y25782000D01*
X-6223000Y25762000D01*
X-5513750Y25762000D01*
X-5355000Y25920750D01*
X-5355000Y26427944D01*
X-5305235Y26437843D01*
X-5095191Y26578191D01*
X-4954843Y26788235D01*
X-4949279Y26816209D01*
X-4891327Y26676301D01*
X-4712698Y26497673D01*
X-4479309Y26401000D01*
X-4288750Y26401000D01*
X-4130000Y26559750D01*
X-4130000Y27559000D01*
X-3876000Y27559000D01*
X-3876000Y26559750D01*
X-3717250Y26401000D01*
X-3526691Y26401000D01*
X-3293302Y26497673D01*
X-3114673Y26676301D01*
X-3018000Y26909690D01*
X-3018000Y27400250D01*
X-3176750Y27559000D01*
X-3876000Y27559000D01*
X-4130000Y27559000D01*
X-4150000Y27559000D01*
X-4150000Y27813000D01*
X-4130000Y27813000D01*
X-4130000Y27833000D01*
X-3876000Y27833000D01*
X-3876000Y27813000D01*
X-3176750Y27813000D01*
X-3018000Y27971750D01*
X-3018000Y28462310D01*
X-3114673Y28695699D01*
X-3293302Y28874327D01*
X-3389324Y28914101D01*
X-3320235Y28927843D01*
X-3110191Y29068191D01*
X-2969843Y29278235D01*
X-2920560Y29526000D01*
X-2920560Y30926000D01*
X-2969843Y31173765D01*
X-3110191Y31383809D01*
X-3320235Y31524157D01*
X-3342371Y31528560D01*
X-2818000Y31528560D01*
X-2570235Y31577843D01*
X-2360191Y31718191D01*
X-2219843Y31928235D01*
X-2170560Y32176000D01*
X-2170560Y33676000D01*
X-2219843Y33923765D01*
X-2360191Y34133809D01*
X-2553737Y34263133D01*
X-72441Y34263138D01*
X-72437Y34263137D01*
X2500560Y34263142D01*
X2500560Y33049000D01*
G36*
X-8763000Y25762000D02*
X-8743000Y25762000D01*
X-8743000Y25508000D01*
X-8763000Y25508000D01*
X-8763000Y25488000D01*
X-9017000Y25488000D01*
X-9017000Y25508000D01*
X-9037000Y25508000D01*
X-9037000Y25762000D01*
X-9017000Y25762000D01*
X-9017000Y25782000D01*
X-8763000Y25782000D01*
X-8763000Y25762000D01*
X-8763000Y25762000D01*
G37*
X-8763000Y25762000D02*
X-8743000Y25762000D01*
X-8743000Y25508000D01*
X-8763000Y25508000D01*
X-8763000Y25488000D01*
X-9017000Y25488000D01*
X-9017000Y25508000D01*
X-9037000Y25508000D01*
X-9037000Y25762000D01*
X-9017000Y25762000D01*
X-9017000Y25782000D01*
X-8763000Y25782000D01*
X-8763000Y25762000D01*
G36*
X-10255000Y27940000D02*
X-10235000Y27940000D01*
X-10235000Y27686000D01*
X-10255000Y27686000D01*
X-10255000Y27666000D01*
X-10509000Y27666000D01*
X-10509000Y27686000D01*
X-10529000Y27686000D01*
X-10529000Y27940000D01*
X-10509000Y27940000D01*
X-10509000Y27960000D01*
X-10255000Y27960000D01*
X-10255000Y27940000D01*
X-10255000Y27940000D01*
G37*
X-10255000Y27940000D02*
X-10235000Y27940000D01*
X-10235000Y27686000D01*
X-10255000Y27686000D01*
X-10255000Y27666000D01*
X-10509000Y27666000D01*
X-10509000Y27686000D01*
X-10529000Y27686000D01*
X-10529000Y27940000D01*
X-10509000Y27940000D01*
X-10509000Y27960000D01*
X-10255000Y27960000D01*
X-10255000Y27940000D01*
G36*
X-4625809Y34133809D02*
X-4766157Y33923765D01*
X-4815440Y33676000D01*
X-4815440Y32176000D01*
X-4766157Y31928235D01*
X-4625809Y31718191D01*
X-4415765Y31577843D01*
X-4393629Y31573440D01*
X-5068000Y31573440D01*
X-5144053Y31558312D01*
X-5391963Y31661000D01*
X-5744037Y31661000D01*
X-5943018Y31578580D01*
X-6068000Y31603440D01*
X-6468000Y31603440D01*
X-6593000Y31578576D01*
X-6718000Y31603440D01*
X-7118000Y31603440D01*
X-7243000Y31578576D01*
X-7368000Y31603440D01*
X-7768000Y31603440D01*
X-7893000Y31578576D01*
X-8018000Y31603440D01*
X-8418000Y31603440D01*
X-8521853Y31582783D01*
X-8541691Y31591000D01*
X-8609250Y31591000D01*
X-8641208Y31559042D01*
X-8665765Y31554157D01*
X-8875809Y31413809D01*
X-8907220Y31366799D01*
X-8968000Y31427579D01*
X-8968000Y31432250D01*
X-9126750Y31591000D01*
X-9194309Y31591000D01*
X-9208638Y31585065D01*
X-9391963Y31661000D01*
X-9744037Y31661000D01*
X-9991947Y31558312D01*
X-10068000Y31573440D01*
X-10742371Y31573440D01*
X-10720235Y31577843D01*
X-10510191Y31718191D01*
X-10369843Y31928235D01*
X-10320560Y32176000D01*
X-10320560Y33676000D01*
X-10369843Y33923765D01*
X-10510191Y34133809D01*
X-10594395Y34190073D01*
X-10265440Y34232101D01*
X-10265440Y33576000D01*
X-10216157Y33328235D01*
X-10075809Y33118191D01*
X-9865765Y32977843D01*
X-9618000Y32928560D01*
X-8518000Y32928560D01*
X-8270235Y32977843D01*
X-8060191Y33118191D01*
X-7919843Y33328235D01*
X-7870560Y33576000D01*
X-7870560Y34263123D01*
X-7265440Y34263125D01*
X-7265440Y33576000D01*
X-7216157Y33328235D01*
X-7075809Y33118191D01*
X-6865765Y32977843D01*
X-6618000Y32928560D01*
X-5518000Y32928560D01*
X-5270235Y32977843D01*
X-5060191Y33118191D01*
X-4919843Y33328235D01*
X-4870560Y33576000D01*
X-4870560Y34263129D01*
X-4432268Y34263130D01*
X-4625809Y34133809D01*
X-4625809Y34133809D01*
G37*
X-4625809Y34133809D02*
X-4766157Y33923765D01*
X-4815440Y33676000D01*
X-4815440Y32176000D01*
X-4766157Y31928235D01*
X-4625809Y31718191D01*
X-4415765Y31577843D01*
X-4393629Y31573440D01*
X-5068000Y31573440D01*
X-5144053Y31558312D01*
X-5391963Y31661000D01*
X-5744037Y31661000D01*
X-5943018Y31578580D01*
X-6068000Y31603440D01*
X-6468000Y31603440D01*
X-6593000Y31578576D01*
X-6718000Y31603440D01*
X-7118000Y31603440D01*
X-7243000Y31578576D01*
X-7368000Y31603440D01*
X-7768000Y31603440D01*
X-7893000Y31578576D01*
X-8018000Y31603440D01*
X-8418000Y31603440D01*
X-8521853Y31582783D01*
X-8541691Y31591000D01*
X-8609250Y31591000D01*
X-8641208Y31559042D01*
X-8665765Y31554157D01*
X-8875809Y31413809D01*
X-8907220Y31366799D01*
X-8968000Y31427579D01*
X-8968000Y31432250D01*
X-9126750Y31591000D01*
X-9194309Y31591000D01*
X-9208638Y31585065D01*
X-9391963Y31661000D01*
X-9744037Y31661000D01*
X-9991947Y31558312D01*
X-10068000Y31573440D01*
X-10742371Y31573440D01*
X-10720235Y31577843D01*
X-10510191Y31718191D01*
X-10369843Y31928235D01*
X-10320560Y32176000D01*
X-10320560Y33676000D01*
X-10369843Y33923765D01*
X-10510191Y34133809D01*
X-10594395Y34190073D01*
X-10265440Y34232101D01*
X-10265440Y33576000D01*
X-10216157Y33328235D01*
X-10075809Y33118191D01*
X-9865765Y32977843D01*
X-9618000Y32928560D01*
X-8518000Y32928560D01*
X-8270235Y32977843D01*
X-8060191Y33118191D01*
X-7919843Y33328235D01*
X-7870560Y33576000D01*
X-7870560Y34263123D01*
X-7265440Y34263125D01*
X-7265440Y33576000D01*
X-7216157Y33328235D01*
X-7075809Y33118191D01*
X-6865765Y32977843D01*
X-6618000Y32928560D01*
X-5518000Y32928560D01*
X-5270235Y32977843D01*
X-5060191Y33118191D01*
X-4919843Y33328235D01*
X-4870560Y33576000D01*
X-4870560Y34263129D01*
X-4432268Y34263130D01*
X-4625809Y34133809D01*
G36*
X17086357Y-24730299D02*
X16815449Y-26084696D01*
X15777342Y-30592300D01*
X15629667Y-31120828D01*
X15432634Y-31606559D01*
X15182131Y-32067005D01*
X14881353Y-32496293D01*
X14534126Y-32888964D01*
X14144871Y-33240019D01*
X13718547Y-33544983D01*
X13260576Y-33799980D01*
X12776794Y-34001759D01*
X12273357Y-34147751D01*
X11756680Y-34236096D01*
X11214857Y-34266716D01*
X10235001Y-34260664D01*
X10235001Y-29068674D01*
X10249400Y-28996286D01*
X10192355Y-28709503D01*
X10029906Y-28466381D01*
X9786784Y-28303932D01*
X9572389Y-28261286D01*
X9500001Y-28246887D01*
X9427613Y-28261286D01*
X9168500Y-28261286D01*
X9168500Y-27717750D01*
X9009750Y-27559000D01*
X7810500Y-27559000D01*
X7810500Y-27579000D01*
X7556500Y-27579000D01*
X7556500Y-27559000D01*
X7536500Y-27559000D01*
X7536500Y-27305000D01*
X7556500Y-27305000D01*
X7556500Y-26105750D01*
X7810500Y-26105750D01*
X7810500Y-27305000D01*
X9009750Y-27305000D01*
X9168500Y-27146250D01*
X9168500Y-26455691D01*
X9071827Y-26222302D01*
X8893199Y-26043673D01*
X8659810Y-25947000D01*
X7969250Y-25947000D01*
X7810500Y-26105750D01*
X7556500Y-26105750D01*
X7397750Y-25947000D01*
X6707190Y-25947000D01*
X6473801Y-26043673D01*
X6295173Y-26222302D01*
X6228596Y-26383033D01*
X6214125Y-26361375D01*
X5722918Y-26033161D01*
X5289756Y-25947000D01*
X4997244Y-25947000D01*
X4782614Y-25989692D01*
X4837763Y-25856551D01*
X7461405Y-24321968D01*
X17086357Y-24730299D01*
X17086357Y-24730299D01*
G37*
X17086357Y-24730299D02*
X16815449Y-26084696D01*
X15777342Y-30592300D01*
X15629667Y-31120828D01*
X15432634Y-31606559D01*
X15182131Y-32067005D01*
X14881353Y-32496293D01*
X14534126Y-32888964D01*
X14144871Y-33240019D01*
X13718547Y-33544983D01*
X13260576Y-33799980D01*
X12776794Y-34001759D01*
X12273357Y-34147751D01*
X11756680Y-34236096D01*
X11214857Y-34266716D01*
X10235001Y-34260664D01*
X10235001Y-29068674D01*
X10249400Y-28996286D01*
X10192355Y-28709503D01*
X10029906Y-28466381D01*
X9786784Y-28303932D01*
X9572389Y-28261286D01*
X9500001Y-28246887D01*
X9427613Y-28261286D01*
X9168500Y-28261286D01*
X9168500Y-27717750D01*
X9009750Y-27559000D01*
X7810500Y-27559000D01*
X7810500Y-27579000D01*
X7556500Y-27579000D01*
X7556500Y-27559000D01*
X7536500Y-27559000D01*
X7536500Y-27305000D01*
X7556500Y-27305000D01*
X7556500Y-26105750D01*
X7810500Y-26105750D01*
X7810500Y-27305000D01*
X9009750Y-27305000D01*
X9168500Y-27146250D01*
X9168500Y-26455691D01*
X9071827Y-26222302D01*
X8893199Y-26043673D01*
X8659810Y-25947000D01*
X7969250Y-25947000D01*
X7810500Y-26105750D01*
X7556500Y-26105750D01*
X7397750Y-25947000D01*
X6707190Y-25947000D01*
X6473801Y-26043673D01*
X6295173Y-26222302D01*
X6228596Y-26383033D01*
X6214125Y-26361375D01*
X5722918Y-26033161D01*
X5289756Y-25947000D01*
X4997244Y-25947000D01*
X4782614Y-25989692D01*
X4837763Y-25856551D01*
X7461405Y-24321968D01*
X17086357Y-24730299D01*
G36*
X-10031000Y-25071153D02*
X-10045888Y-25146000D01*
X-10031000Y-25220847D01*
X-10031000Y-25220851D01*
X-9986904Y-25442536D01*
X-9818929Y-25693929D01*
X-9755470Y-25736331D01*
X-8718330Y-26773472D01*
X-8675929Y-26836929D01*
X-8424537Y-27004904D01*
X-8202852Y-27049000D01*
X-8202848Y-27049000D01*
X-8128001Y-27063888D01*
X-8053154Y-27049000D01*
X-7540000Y-27049000D01*
X-7540000Y-27590750D01*
X-7381250Y-27749500D01*
X-6912440Y-27749500D01*
X-6912440Y-28003500D01*
X-7381250Y-28003500D01*
X-7540000Y-28162250D01*
X-7540000Y-28450000D01*
X-8002354Y-28450000D01*
X-8077201Y-28435112D01*
X-8152048Y-28450000D01*
X-8152052Y-28450000D01*
X-8373737Y-28494096D01*
X-8404347Y-28514549D01*
X-8561674Y-28619671D01*
X-8561676Y-28619673D01*
X-8625129Y-28662071D01*
X-8667527Y-28725524D01*
X-9186362Y-29244360D01*
X-9295870Y-29199000D01*
X-9906530Y-29199000D01*
X-10470707Y-29432690D01*
X-10902510Y-29864493D01*
X-10989500Y-30074505D01*
X-10989500Y-25016890D01*
X-10031000Y-24058390D01*
X-10031000Y-25071153D01*
X-10031000Y-25071153D01*
G37*
X-10031000Y-25071153D02*
X-10045888Y-25146000D01*
X-10031000Y-25220847D01*
X-10031000Y-25220851D01*
X-9986904Y-25442536D01*
X-9818929Y-25693929D01*
X-9755470Y-25736331D01*
X-8718330Y-26773472D01*
X-8675929Y-26836929D01*
X-8424537Y-27004904D01*
X-8202852Y-27049000D01*
X-8202848Y-27049000D01*
X-8128001Y-27063888D01*
X-8053154Y-27049000D01*
X-7540000Y-27049000D01*
X-7540000Y-27590750D01*
X-7381250Y-27749500D01*
X-6912440Y-27749500D01*
X-6912440Y-28003500D01*
X-7381250Y-28003500D01*
X-7540000Y-28162250D01*
X-7540000Y-28450000D01*
X-8002354Y-28450000D01*
X-8077201Y-28435112D01*
X-8152048Y-28450000D01*
X-8152052Y-28450000D01*
X-8373737Y-28494096D01*
X-8404347Y-28514549D01*
X-8561674Y-28619671D01*
X-8561676Y-28619673D01*
X-8625129Y-28662071D01*
X-8667527Y-28725524D01*
X-9186362Y-29244360D01*
X-9295870Y-29199000D01*
X-9906530Y-29199000D01*
X-10470707Y-29432690D01*
X-10902510Y-29864493D01*
X-10989500Y-30074505D01*
X-10989500Y-25016890D01*
X-10031000Y-24058390D01*
X-10031000Y-25071153D01*
G36*
X4072875Y-26361375D02*
X3865131Y-26672286D01*
X3644882Y-26716096D01*
X3393490Y-26884071D01*
X3351090Y-26947527D01*
X2373030Y-27925588D01*
X2309571Y-27967990D01*
X2141596Y-28219383D01*
X2097500Y-28441068D01*
X2097500Y-28441072D01*
X2082612Y-28515919D01*
X2097500Y-28590766D01*
X2097500Y-28713560D01*
X1026000Y-28713560D01*
X778235Y-28762843D01*
X726000Y-28797746D01*
X726000Y-28352750D01*
X567250Y-28194000D01*
X-132000Y-28194000D01*
X-132000Y-28214000D01*
X-386000Y-28214000D01*
X-386000Y-28194000D01*
X-406000Y-28194000D01*
X-406000Y-27940000D01*
X-386000Y-27940000D01*
X-386000Y-27920000D01*
X-132000Y-27920000D01*
X-132000Y-27940000D01*
X567250Y-27940000D01*
X726000Y-27781250D01*
X726000Y-27290690D01*
X683563Y-27188238D01*
X1095485Y-26776317D01*
X1158941Y-26733917D01*
X1326916Y-26482525D01*
X1356579Y-26333401D01*
X4066082Y-26288983D01*
X4080317Y-26285000D01*
X4187178Y-26285000D01*
X4072875Y-26361375D01*
X4072875Y-26361375D01*
G37*
X4072875Y-26361375D02*
X3865131Y-26672286D01*
X3644882Y-26716096D01*
X3393490Y-26884071D01*
X3351090Y-26947527D01*
X2373030Y-27925588D01*
X2309571Y-27967990D01*
X2141596Y-28219383D01*
X2097500Y-28441068D01*
X2097500Y-28441072D01*
X2082612Y-28515919D01*
X2097500Y-28590766D01*
X2097500Y-28713560D01*
X1026000Y-28713560D01*
X778235Y-28762843D01*
X726000Y-28797746D01*
X726000Y-28352750D01*
X567250Y-28194000D01*
X-132000Y-28194000D01*
X-132000Y-28214000D01*
X-386000Y-28214000D01*
X-386000Y-28194000D01*
X-406000Y-28194000D01*
X-406000Y-27940000D01*
X-386000Y-27940000D01*
X-386000Y-27920000D01*
X-132000Y-27920000D01*
X-132000Y-27940000D01*
X567250Y-27940000D01*
X726000Y-27781250D01*
X726000Y-27290690D01*
X683563Y-27188238D01*
X1095485Y-26776317D01*
X1158941Y-26733917D01*
X1326916Y-26482525D01*
X1356579Y-26333401D01*
X4066082Y-26288983D01*
X4080317Y-26285000D01*
X4187178Y-26285000D01*
X4072875Y-26361375D01*
G36*
X-14605000Y-5715000D02*
X-14585000Y-5715000D01*
X-14585000Y-5969000D01*
X-14605000Y-5969000D01*
X-14605000Y-7620000D01*
X-14585000Y-7620000D01*
X-14585000Y-7874000D01*
X-14605000Y-7874000D01*
X-14605000Y-8848250D01*
X-14446250Y-9007000D01*
X-14105691Y-9007000D01*
X-13872302Y-8910327D01*
X-13730654Y-8768680D01*
X-13689809Y-8829809D01*
X-13479765Y-8970157D01*
X-13232000Y-9019440D01*
X-12232000Y-9019440D01*
X-11984235Y-8970157D01*
X-11850069Y-8880509D01*
X-11569000Y-9161579D01*
X-11568999Y-15644835D01*
X-11586337Y-15732000D01*
X-11545817Y-15935712D01*
X-11658854Y-15913228D01*
X-11683225Y-15918076D01*
X-12380230Y-15826313D01*
X-12427630Y-15816885D01*
X-12451846Y-15816885D01*
X-12475849Y-15813725D01*
X-12524063Y-15816885D01*
X-18663401Y-15816897D01*
X-19144760Y-12389776D01*
X-19201893Y-11875322D01*
X-17135000Y-11875322D01*
X-17135000Y-12724678D01*
X-16809966Y-13509380D01*
X-16209380Y-14109966D01*
X-15424678Y-14435000D01*
X-14575322Y-14435000D01*
X-13790620Y-14109966D01*
X-13190034Y-13509380D01*
X-12865000Y-12724678D01*
X-12865000Y-11875322D01*
X-13190034Y-11090620D01*
X-13790620Y-10490034D01*
X-14575322Y-10165000D01*
X-15424678Y-10165000D01*
X-16209380Y-10490034D01*
X-16809966Y-11090620D01*
X-17135000Y-11875322D01*
X-19201893Y-11875322D01*
X-19565218Y-8603807D01*
X-19399699Y-8769327D01*
X-19166310Y-8866000D01*
X-18700750Y-8866000D01*
X-18542000Y-8707250D01*
X-18542000Y-7858000D01*
X-18288000Y-7858000D01*
X-18288000Y-8707250D01*
X-18129250Y-8866000D01*
X-17663690Y-8866000D01*
X-17481814Y-8790664D01*
X-17261310Y-8882000D01*
X-16795750Y-8882000D01*
X-16637000Y-8723250D01*
X-16637000Y-7874000D01*
X-16383000Y-7874000D01*
X-16383000Y-8723250D01*
X-16224250Y-8882000D01*
X-15758690Y-8882000D01*
X-15660639Y-8841386D01*
X-15591698Y-8910327D01*
X-15358309Y-9007000D01*
X-15017750Y-9007000D01*
X-14859000Y-8848250D01*
X-14859000Y-7874000D01*
X-16383000Y-7874000D01*
X-16637000Y-7874000D01*
X-17297750Y-7874000D01*
X-17313750Y-7858000D01*
X-18288000Y-7858000D01*
X-18542000Y-7858000D01*
X-18562000Y-7858000D01*
X-18562000Y-7604000D01*
X-18542000Y-7604000D01*
X-18542000Y-7584000D01*
X-18288000Y-7584000D01*
X-18288000Y-7604000D01*
X-17627250Y-7604000D01*
X-17611250Y-7620000D01*
X-16637000Y-7620000D01*
X-16637000Y-7600000D01*
X-16383000Y-7600000D01*
X-16383000Y-7620000D01*
X-14859000Y-7620000D01*
X-14859000Y-5969000D01*
X-14879000Y-5969000D01*
X-14879000Y-5715000D01*
X-14859000Y-5715000D01*
X-14859000Y-5695000D01*
X-14605000Y-5695000D01*
X-14605000Y-5715000D01*
X-14605000Y-5715000D01*
G37*
X-14605000Y-5715000D02*
X-14585000Y-5715000D01*
X-14585000Y-5969000D01*
X-14605000Y-5969000D01*
X-14605000Y-7620000D01*
X-14585000Y-7620000D01*
X-14585000Y-7874000D01*
X-14605000Y-7874000D01*
X-14605000Y-8848250D01*
X-14446250Y-9007000D01*
X-14105691Y-9007000D01*
X-13872302Y-8910327D01*
X-13730654Y-8768680D01*
X-13689809Y-8829809D01*
X-13479765Y-8970157D01*
X-13232000Y-9019440D01*
X-12232000Y-9019440D01*
X-11984235Y-8970157D01*
X-11850069Y-8880509D01*
X-11569000Y-9161579D01*
X-11568999Y-15644835D01*
X-11586337Y-15732000D01*
X-11545817Y-15935712D01*
X-11658854Y-15913228D01*
X-11683225Y-15918076D01*
X-12380230Y-15826313D01*
X-12427630Y-15816885D01*
X-12451846Y-15816885D01*
X-12475849Y-15813725D01*
X-12524063Y-15816885D01*
X-18663401Y-15816897D01*
X-19144760Y-12389776D01*
X-19201893Y-11875322D01*
X-17135000Y-11875322D01*
X-17135000Y-12724678D01*
X-16809966Y-13509380D01*
X-16209380Y-14109966D01*
X-15424678Y-14435000D01*
X-14575322Y-14435000D01*
X-13790620Y-14109966D01*
X-13190034Y-13509380D01*
X-12865000Y-12724678D01*
X-12865000Y-11875322D01*
X-13190034Y-11090620D01*
X-13790620Y-10490034D01*
X-14575322Y-10165000D01*
X-15424678Y-10165000D01*
X-16209380Y-10490034D01*
X-16809966Y-11090620D01*
X-17135000Y-11875322D01*
X-19201893Y-11875322D01*
X-19565218Y-8603807D01*
X-19399699Y-8769327D01*
X-19166310Y-8866000D01*
X-18700750Y-8866000D01*
X-18542000Y-8707250D01*
X-18542000Y-7858000D01*
X-18288000Y-7858000D01*
X-18288000Y-8707250D01*
X-18129250Y-8866000D01*
X-17663690Y-8866000D01*
X-17481814Y-8790664D01*
X-17261310Y-8882000D01*
X-16795750Y-8882000D01*
X-16637000Y-8723250D01*
X-16637000Y-7874000D01*
X-16383000Y-7874000D01*
X-16383000Y-8723250D01*
X-16224250Y-8882000D01*
X-15758690Y-8882000D01*
X-15660639Y-8841386D01*
X-15591698Y-8910327D01*
X-15358309Y-9007000D01*
X-15017750Y-9007000D01*
X-14859000Y-8848250D01*
X-14859000Y-7874000D01*
X-16383000Y-7874000D01*
X-16637000Y-7874000D01*
X-17297750Y-7874000D01*
X-17313750Y-7858000D01*
X-18288000Y-7858000D01*
X-18542000Y-7858000D01*
X-18562000Y-7858000D01*
X-18562000Y-7604000D01*
X-18542000Y-7604000D01*
X-18542000Y-7584000D01*
X-18288000Y-7584000D01*
X-18288000Y-7604000D01*
X-17627250Y-7604000D01*
X-17611250Y-7620000D01*
X-16637000Y-7620000D01*
X-16637000Y-7600000D01*
X-16383000Y-7600000D01*
X-16383000Y-7620000D01*
X-14859000Y-7620000D01*
X-14859000Y-5969000D01*
X-14879000Y-5969000D01*
X-14879000Y-5715000D01*
X-14859000Y-5715000D01*
X-14859000Y-5695000D01*
X-14605000Y-5695000D01*
X-14605000Y-5715000D01*
G36*
X-11093000Y-3284631D02*
X-11093000Y-3381250D01*
X-10934250Y-3540000D01*
X-10609073Y-3540000D01*
X-10323065Y-3686554D01*
X-10299744Y-3668545D01*
X-10234289Y-3794000D01*
X-10934250Y-3794000D01*
X-11093000Y-3952750D01*
X-11093000Y-4218310D01*
X-10996327Y-4451699D01*
X-10817698Y-4630327D01*
X-10584309Y-4727000D01*
X-10318750Y-4727000D01*
X-10160000Y-4568250D01*
X-10160000Y-3936388D01*
X-9906000Y-4423221D01*
X-9906000Y-4568250D01*
X-9747787Y-4726463D01*
X-9055474Y-6053397D01*
X-9070310Y-6056348D01*
X-9363049Y-6251951D01*
X-9412425Y-6325847D01*
X-9594153Y-6507575D01*
X-9668049Y-6556951D01*
X-9863652Y-6849691D01*
X-9915000Y-7107836D01*
X-9915000Y-7107839D01*
X-9932337Y-7195000D01*
X-9915000Y-7282161D01*
X-9915000Y-7910000D01*
X-10317421Y-7910000D01*
X-11044575Y-7182847D01*
X-11093951Y-7108951D01*
X-11386690Y-6913348D01*
X-11641586Y-6862646D01*
X-11687121Y-6794500D01*
X-11633843Y-6714765D01*
X-11584560Y-6467000D01*
X-11584560Y-5217000D01*
X-11633843Y-4969235D01*
X-11774191Y-4759191D01*
X-11859942Y-4701893D01*
X-11866348Y-4669690D01*
X-11886982Y-4638809D01*
X-12012576Y-4450845D01*
X-12012577Y-4450844D01*
X-12061951Y-4376951D01*
X-12135844Y-4327577D01*
X-12929575Y-3533847D01*
X-12978951Y-3459951D01*
X-13271690Y-3264348D01*
X-13477037Y-3223502D01*
X-11093000Y-3284631D01*
X-11093000Y-3284631D01*
G37*
X-11093000Y-3284631D02*
X-11093000Y-3381250D01*
X-10934250Y-3540000D01*
X-10609073Y-3540000D01*
X-10323065Y-3686554D01*
X-10299744Y-3668545D01*
X-10234289Y-3794000D01*
X-10934250Y-3794000D01*
X-11093000Y-3952750D01*
X-11093000Y-4218310D01*
X-10996327Y-4451699D01*
X-10817698Y-4630327D01*
X-10584309Y-4727000D01*
X-10318750Y-4727000D01*
X-10160000Y-4568250D01*
X-10160000Y-3936388D01*
X-9906000Y-4423221D01*
X-9906000Y-4568250D01*
X-9747787Y-4726463D01*
X-9055474Y-6053397D01*
X-9070310Y-6056348D01*
X-9363049Y-6251951D01*
X-9412425Y-6325847D01*
X-9594153Y-6507575D01*
X-9668049Y-6556951D01*
X-9863652Y-6849691D01*
X-9915000Y-7107836D01*
X-9915000Y-7107839D01*
X-9932337Y-7195000D01*
X-9915000Y-7282161D01*
X-9915000Y-7910000D01*
X-10317421Y-7910000D01*
X-11044575Y-7182847D01*
X-11093951Y-7108951D01*
X-11386690Y-6913348D01*
X-11641586Y-6862646D01*
X-11687121Y-6794500D01*
X-11633843Y-6714765D01*
X-11584560Y-6467000D01*
X-11584560Y-5217000D01*
X-11633843Y-4969235D01*
X-11774191Y-4759191D01*
X-11859942Y-4701893D01*
X-11866348Y-4669690D01*
X-11886982Y-4638809D01*
X-12012576Y-4450845D01*
X-12012577Y-4450844D01*
X-12061951Y-4376951D01*
X-12135844Y-4327577D01*
X-12929575Y-3533847D01*
X-12978951Y-3459951D01*
X-13271690Y-3264348D01*
X-13477037Y-3223502D01*
X-11093000Y-3284631D01*
G04 #@! TD*
M02*
