G04 #@! TF.GenerationSoftware,KiCad,Pcbnew,(5.0.2)-1*
G04 #@! TF.CreationDate,2019-02-16T20:24:50+11:00*
G04 #@! TF.ProjectId,lightning trigger,6c696768-746e-4696-9e67-207472696767,rev?*
G04 #@! TF.SameCoordinates,Original*
G04 #@! TF.FileFunction,Profile,NP*
%FSLAX46Y46*%
G04 Gerber Fmt 4.6, Leading zero omitted, Abs format (unit mm)*
G04 Created by KiCad (PCBNEW (5.0.2)-1) date 16/02/2019 8:24:50 PM*
%MOMM*%
%LPD*%
G01*
G04 APERTURE LIST*
%ADD10C,0.200000*%
G04 APERTURE END LIST*
D10*
X21099207Y10732462D02*
X21123188Y6079390D01*
X20767309Y-3219096D02*
X20387747Y-7856724D01*
X10874984Y-22616423D02*
X11658822Y-22941100D01*
X20940602Y15382892D02*
X21099207Y10732462D01*
X10874984Y-16987258D02*
X10201887Y-17503744D01*
X9249984Y-19801841D02*
X9360725Y-20643003D01*
X9685401Y-18176841D02*
X9360725Y-18960679D01*
X11658822Y-16662582D02*
X10874984Y-16987258D01*
X21012524Y1427572D02*
X20767309Y-3219096D01*
X19302462Y-16551829D02*
X12499984Y-16551841D01*
X14999949Y16948164D02*
X20826034Y16948174D01*
X21123188Y6079390D02*
X21012524Y1427572D01*
X19874157Y-12481427D02*
X19302462Y-16551829D01*
X10201887Y-22099938D02*
X10874984Y-22616423D01*
X9685401Y-21426841D02*
X10201887Y-22099938D01*
X20826034Y16948174D02*
X20940602Y15382892D01*
X10201887Y-17503744D02*
X9685401Y-18176841D01*
X20387747Y-7856724D02*
X19874157Y-12481427D01*
X12499984Y-16551841D02*
X11658822Y-16662582D01*
X9360725Y-18960679D02*
X9249984Y-19801841D01*
X14158787Y17058905D02*
X14999949Y16948164D01*
X9360725Y-20643003D02*
X9685401Y-21426841D01*
X3500001Y-34996286D02*
X-6499999Y-35001863D01*
X11839617Y-34967581D02*
X11233341Y-35001843D01*
X9500001Y-34991138D02*
X9500001Y-28996286D01*
X11233341Y-35001843D02*
X9500001Y-34991138D01*
X-10099999Y-33001863D02*
X-10099999Y-35006619D01*
X15807918Y-32454742D02*
X15459472Y-32952065D01*
X15459472Y-32952065D02*
X15057217Y-33406966D01*
X14606274Y-33813654D02*
X14112385Y-34166949D01*
X15057217Y-33406966D02*
X14606274Y-33813654D01*
X-11839471Y-34967623D02*
X-12438028Y-34865280D01*
X16326376Y-31358620D02*
X16098118Y-31921330D01*
X16098118Y-31921330D02*
X15807918Y-32454742D01*
X16489787Y-30773777D02*
X16326376Y-31358620D01*
X17534075Y-26239340D02*
X16489787Y-30773777D01*
X12438174Y-34865236D02*
X11839617Y-34967581D01*
X13021389Y-34696109D02*
X12438174Y-34865236D01*
X14112385Y-34166949D02*
X13581838Y-34462355D01*
X13581838Y-34462355D02*
X13021389Y-34696109D01*
X-11233195Y-35001883D02*
X-11839471Y-34967623D01*
X18171645Y-23051831D02*
X18221645Y-22801853D01*
X18171645Y-23051831D02*
X17534075Y-26239340D01*
X12499984Y-23051841D02*
X18171645Y-23051831D01*
X11658822Y-22941100D02*
X12499984Y-23051841D01*
X-10099999Y-35006619D02*
X-11233195Y-35001883D01*
X19267346Y-16801851D02*
X19302462Y-16551829D01*
X-18171541Y-23051895D02*
X-18221542Y-23051895D01*
X3500001Y-28996286D02*
X3500001Y-34996286D01*
X9500001Y-28996286D02*
X3500001Y-28996286D01*
X-6499999Y-35001863D02*
X-6499999Y-33001863D01*
X-6499999Y-33001863D02*
X-10099999Y-33001863D01*
X-11322605Y-16801905D02*
X-11658854Y-16662626D01*
X-12438028Y-34865280D02*
X-13021245Y-34696155D01*
X-14158889Y17058852D02*
X-13822737Y17198090D01*
X-11658854Y-16662626D02*
X-12500016Y-16551885D01*
X-15000051Y16948110D02*
X-14158889Y17058852D01*
X-9360757Y-20643047D02*
X-9250016Y-19801885D01*
X-20841848Y16948100D02*
X-15000051Y16948110D01*
X-21099223Y10732388D02*
X-20940635Y15382818D01*
X-20767275Y-3219170D02*
X-21012507Y1427498D01*
X-9250016Y-19801885D02*
X-9360757Y-18960723D01*
X-15057077Y-33407019D02*
X-15459334Y-32952120D01*
X-19302381Y-16551897D02*
X-19874091Y-12481498D01*
X-9685433Y-18176885D02*
X-10201919Y-17503788D01*
X-10875016Y-22616468D02*
X-10201919Y-22099982D01*
X-11322702Y-22801905D02*
X-10875016Y-22616468D01*
X-11658854Y-22941144D02*
X-11322702Y-22801905D01*
X-18171541Y-23051895D02*
X-12500016Y-23051885D01*
X-16489657Y-30773836D02*
X-17533960Y-26239402D01*
X-16097983Y-31921387D02*
X-16326243Y-31358678D01*
X-16326243Y-31358678D02*
X-16489657Y-30773836D01*
X-15807781Y-32454798D02*
X-16097983Y-31921387D01*
X-13021245Y-34696155D02*
X-13581695Y-34462403D01*
X-20940635Y15382818D02*
X-20841848Y16948100D01*
X-11860792Y21039272D02*
X-12185468Y21823110D01*
X-21012507Y1427498D02*
X-21123187Y6079315D01*
X-11750051Y20198110D02*
X-11860792Y21039272D01*
X-13375051Y17383528D02*
X-12701954Y17900013D01*
X-10875016Y-16987303D02*
X-11322605Y-16801905D01*
X-11860792Y19356949D02*
X-11750051Y20198110D01*
X-9360757Y-18960723D02*
X-9685433Y-18176885D01*
X-12185468Y18573110D02*
X-11860792Y19356949D01*
X-12701954Y17900013D02*
X-12185468Y18573110D01*
X-14112242Y-34166999D02*
X-14606133Y-33813705D01*
X-10201919Y-17503788D02*
X-10875016Y-16987303D01*
X-12500016Y-23051885D02*
X-11658854Y-22941144D01*
X-17533960Y-26239402D02*
X-18171541Y-23051895D01*
X-14606133Y-33813705D02*
X-15057077Y-33407019D01*
X-13822737Y17198090D02*
X-13375051Y17383528D01*
X-20387697Y-7856796D02*
X-20767275Y-3219170D01*
X-9685433Y-21426885D02*
X-9360757Y-20643047D01*
X-10201919Y-22099982D02*
X-9685433Y-21426885D01*
X-19874091Y-12481498D02*
X-20387697Y-7856796D01*
X-15459334Y-32952120D02*
X-15807781Y-32454798D01*
X-12500016Y-16551885D02*
X-19302381Y-16551897D01*
X-21123187Y6079315D02*
X-21099223Y10732388D01*
X-13581695Y-34462403D02*
X-14112242Y-34166999D01*
X-12185468Y21823110D02*
X-12701954Y22496207D01*
X12835526Y34451501D02*
X14171671Y33897713D01*
X-17582720Y31257150D02*
X-16566440Y32286296D01*
X-19163836Y28842399D02*
X-18453640Y30102394D01*
X19163755Y28842467D02*
X19700701Y27499465D01*
X-13822640Y23198090D02*
X-14158889Y23337369D01*
X11437773Y34823323D02*
X12835526Y34451501D01*
X11860690Y19357002D02*
X12185366Y18573164D01*
X14158787Y23337422D02*
X13374949Y23012746D01*
X11749949Y20198164D02*
X11860690Y19357002D01*
X11860690Y21039325D02*
X11749949Y20198164D01*
X20220163Y24660255D02*
X20331953Y23448173D01*
X15422635Y33171728D02*
X16566348Y32286354D01*
X-8556836Y34998122D02*
X-51Y34998137D01*
X-19700777Y27499395D02*
X-19163836Y28842399D01*
X-12835627Y34451456D02*
X-11437875Y34823282D01*
X12185366Y21823164D02*
X11860690Y21039325D01*
X12701852Y22496261D02*
X12185366Y21823164D01*
X-10003174Y35006582D02*
X-8556836Y34998122D01*
X-12701954Y22496207D02*
X-13375051Y23012693D01*
X8556734Y34998152D02*
X10003072Y35006618D01*
X20331953Y23448173D02*
X14999949Y23448164D01*
X20054920Y26097148D02*
X20220163Y24660255D01*
X-51Y34998137D02*
X8556734Y34998152D01*
X-15422731Y33171673D02*
X-14171769Y33897663D01*
X-11437875Y34823282D02*
X-10003174Y35006582D01*
X-15000051Y23448110D02*
X-20332014Y23448101D01*
X17582631Y31257212D02*
X18453555Y30102459D01*
X19700701Y27499465D02*
X20054920Y26097148D01*
X-20054991Y26097077D02*
X-19700777Y27499395D01*
X-20220228Y24660184D02*
X-20054991Y26097077D01*
X14171671Y33897713D02*
X15422635Y33171728D01*
X18453555Y30102459D02*
X19163755Y28842467D01*
X13374949Y17383581D02*
X14158787Y17058905D01*
X12701852Y17900067D02*
X13374949Y17383581D01*
X16566348Y32286354D02*
X17582631Y31257212D01*
X-16566440Y32286296D02*
X-15422731Y33171673D01*
X-13375051Y23012693D02*
X-13822640Y23198090D01*
X-14158889Y23337369D02*
X-15000051Y23448110D01*
X13374949Y23012746D02*
X12701852Y22496261D01*
X10003072Y35006618D02*
X11437773Y34823323D01*
X-20332014Y23448101D02*
X-20220228Y24660184D01*
X-14171769Y33897663D02*
X-12835627Y34451456D01*
X-18453640Y30102394D02*
X-17582720Y31257150D01*
X12185366Y18573164D02*
X12701852Y17900067D01*
X14999949Y23448164D02*
X14158787Y23337422D01*
X12438787Y-16548260D02*
X11598453Y-16665114D01*
X18201683Y-16548260D02*
X12438787Y-16548260D01*
X11598453Y-16665114D02*
X10816996Y-16995481D01*
M02*
