 0
SECTION
 2
ENTITIES
  0
POLYLINE
 8
Layer0
 66
     1
70
    8
 10
0.0
 20
 0.0
 30
0.0
  0
VERTEX
  8
MY3DLAYER
10
12.043621115143305
20
-34.984090010729034
30
1.621124695959603e-15
 70
     32
  0
VERTEX
  8
MY3DLAYER
10
9.500051763587969
20
-34.98927537537972
30
1.617214553953156e-15
 70
     32
  0
VERTEX
  8
MY3DLAYER
10
9.500051763587969
20
-28.99442335724646
30
1.617214553953156e-15
 70
     32
  0
VERTEX
  8
MY3DLAYER
10
3.5000517635879693
20
-28.99442335724646
30
1.617214553953156e-15
 70
     32
  0
VERTEX
  8
MY3DLAYER
10
3.5000522403174297
20
-34.99442335724644
30
1.7682333134275994e-15
 70
     32
  0
VERTEX
  8
MY3DLAYER
10
-6.499948048303098
20
-35.00000033829283
30
1.847082447496869e-15
 70
     32
  0
VERTEX
  8
MY3DLAYER
10
-6.499948048303098
20
-33.00000033829283
30
1.7289685113067422e-15
 70
     32
  0
VERTEX
  8
MY3DLAYER
10
-10.099948048303098
20
-33.00000033829283
30
1.7289685113067422e-15
 70
     32
  0
VERTEX
  8
MY3DLAYER
10
-10.099948048303098
20
-35.00475616926389
30
1.845400144041517e-15
 70
     32
  0
VERTEX
  8
MY3DLAYER
10
-11.858550140160474
20
-35.01566631248783
30
2.2250731797835917e-15
 70
     32
  0
VERTEX
  8
MY3DLAYER
10
-12.159709415438794
20
-34.96515936240779
30
2.2271461052249435e-15
 70
     32
  0
VERTEX
  8
MY3DLAYER
10
-12.4554047410405
20
-34.8889219994553
30
2.2262832068923903e-15
 70
     32
  0
VERTEX
  8
MY3DLAYER
10
-12.74344202668946
20
-34.787519912846086
30
2.222490887581918e-15
 70
     32
  0
VERTEX
  8
MY3DLAYER
10
-13.021684005567664
20
-34.66170551668169
30
2.2157972866999167e-15
 70
     32
  0
VERTEX
  8
MY3DLAYER
10
-13.288066093059264
20
-34.51241236695143
30
2.2062520714656905e-15
 70
     32
  0
VERTEX
  8
MY3DLAYER
10
-13.540611706183938
20
-34.34074823445938
30
2.1939260683757244e-15
 70
     32
  0
VERTEX
  8
MY3DLAYER
10
-13.77744693005032
20
-34.14798688504256
30
2.1789107376635297e-15
 70
     32
  0
VERTEX
  8
MY3DLAYER
10
-13.996814422499561
20
-33.935558628096835
30
2.1613174946551394e-15
 70
     32
  0
VERTEX
  8
MY3DLAYER
10
-14.19708645376965
20
-33.70503970352955
30
2.1412768830557278e-15
 70
     32
  0
VERTEX
  8
MY3DLAYER
10
-14.376776984419413
20
-33.45814058589833
30
2.1189376063016916e-15
 70
     32
  0
VERTEX
  8
MY3DLAYER
10
-14.53455269189719
20
-33.19669329250551
30
2.094465424165504e-15
 70
     32
  0
VERTEX
  8
MY3DLAYER
10
-14.66924286393399
20
-32.92263778964297
30
2.0680419228009335e-15
 70
     32
  0
VERTEX
  8
MY3DLAYER
10
-15.341525241493652
20
-30.236777216591562
30
1.3205412508697466e-14
 70
     32
  0
VERTEX
  8
MY3DLAYER
10
-15.973971035713062
20
-27.54125817002298
30
1.9578802140277406e-14
 70
     32
  0
VERTEX
  8
MY3DLAYER
10
-16.56644162323637
20
-24.836671470364745
30
2.118681385885256e-14
 70
     32
  0
VERTEX
  8
MY3DLAYER
10
-16.910095718430515
20
-23.14874078406644
30
7.208061190355968e-15
 70
     32
  0
VERTEX
  8
MY3DLAYER
10
-16.910095718430515
20
-23.049914093705773
30
-1.307879181848701e-14
 70
     32
  0
VERTEX
  8
MY3DLAYER
10
-12.476298536452866
20
-23.049914093705773
30
-1.307879181848701e-14
 70
     32
  0
VERTEX
  8
MY3DLAYER
10
-11.635964050925983
20
-22.933060030542777
30
-1.309845605967195e-14
 70
     32
  0
VERTEX
  8
MY3DLAYER
10
-10.854507325678423
20
-22.602693103916035
30
-1.3113737358079265e-14
 70
     32
  0
VERTEX
  8
MY3DLAYER
10
-10.185183345117517
20
-22.081327273918006
30
-1.3123594318476034e-14
 70
     32
  0
VERTEX
  8
MY3DLAYER
10
-9.673605432408305
20
-21.404492760265285
30
-1.3127355205300618e-14
 70
     32
  0
VERTEX
  8
MY3DLAYER
10
-9.354636776879449
20
-20.618314716541377
30
-1.3124763720331083e-14
 70
     32
  0
VERTEX
  8
MY3DLAYER
10
-9.250014565284618
20
-19.77636987720543
30
-1.3115996468985463e-14
 70
     32
  0
VERTEX
  8
MY3DLAYER
10
-9.366868628447614
20
-18.936035391678548
30
-1.3101650924954402e-14
 70
     32
  0
VERTEX
  8
MY3DLAYER
10
-9.697235555074355
20
-18.15457866643099
30
-1.3082704713356477e-14
 70
     32
  0
VERTEX
  8
MY3DLAYER
10
-10.218601385072382
20
-17.48525468587008
30
-1.3060448987202002e-14
 70
     32
  0
VERTEX
  8
MY3DLAYER
10
-10.895435898725106
20
-16.97367677316087
30
-1.3036400437449067e-14
 70
     32
  0
VERTEX
  8
MY3DLAYER
10
-11.681613942449015
20
-16.654708117632016
30
-1.3012197933021233e-14
 70
     32
  0
VERTEX
  8
MY3DLAYER
10
-12.523558781784965
20
-16.550085906037182
30
-1.2989490834598725e-14
 70
     32
  0
VERTEX
  8
MY3DLAYER
10
-18.10274751109785
20
-16.550085906037182
30
-1.2989490834598725e-14
 70
     32
  0
VERTEX
  8
MY3DLAYER
10
-18.534106693896458
20
-13.939531380645592
30
-2.0026299882915436e-14
 70
     32
  0
VERTEX
  8
MY3DLAYER
10
-18.924929523731482
20
-11.198533728562513
30
-4.222957654540172e-14
 70
     32
  0
VERTEX
  8
MY3DLAYER
10
-19.275130337652893
20
-8.452050522173524
30
-6.91846835805947e-14
 70
     32
  0
VERTEX
  8
MY3DLAYER
10
-19.58463237649383
20
-5.7006837525483505
30
-1.0088571280248305e-13
 70
     32
  0
VERTEX
  8
MY3DLAYER
10
-19.853367801695825
20
-2.945036481164991
30
-1.3732571578463774e-13
 70
     32
  0
VERTEX
  8
MY3DLAYER
10
-20.08127771017627
20
-0.18571270772598314
30
-1.7849670538326698e-13
 70
     32
  0
VERTEX
  8
MY3DLAYER
10
-20.14929294861945
20
2.047808487274518
30
-1.3231947531008722e-13
 70
     32
  0
VERTEX
  8
MY3DLAYER
10
-20.18999467786379
20
4.281994327893877
30
-9.180689100028807e-14
 70
     32
  0
VERTEX
  8
MY3DLAYER
10
-20.20337681316635
20
6.516510812423884
30
-5.696500892060129e-14
 70
     32
  0
VERTEX
  8
MY3DLAYER
10
-20.18943735395219
20
8.75102388973115
30
-2.779903779081476e-14
 70
     32
  0
VERTEX
  8
MY3DLAYER
10
-20.148178384113823
20
10.985199509190217
30
-4.3133378051029704e-15
 70
     32
  0
VERTEX
  8
MY3DLAYER
10
-20.079606071699708
20
13.218703670626203
30
1.3488580019830174e-14
 70
     32
  0
VERTEX
  8
MY3DLAYER
10
-19.983730667991633
20
15.451202474241866
30
2.5604054369609104e-14
 70
     32
  0
VERTEX
  8
MY3DLAYER
10
-19.900994258943918
20
16.949999999903948
30
-1.1840641100191196e-14
 70
     32
  0
VERTEX
  8
MY3DLAYER
10
-14.99993770657717
20
16.949999999903948
30
-1.1840641100191196e-14
 70
     32
  0
VERTEX
  8
MY3DLAYER
10
-14.15877580999398
20
17.060741064464477
30
-1.18604091252794e-14
 70
     32
  0
VERTEX
  8
MY3DLAYER
10
-13.374937706577173
20
17.385417437604524
30
-1.1875827774008673e-14
 70
     32
  0
VERTEX
  8
MY3DLAYER
10
-12.70184066772089
20
17.901902961047668
30
-1.1885846290948637e-14
 70
     32
  0
VERTEX
  8
MY3DLAYER
10
-12.185355144277745
20
18.574999999903945
30
-1.1889781930726218e-14
 70
     32
  0
VERTEX
  8
MY3DLAYER
10
-11.860678771137698
20
19.358838103320753
30
-1.1887366485994524e-14
 70
     32
  0
VERTEX
  8
MY3DLAYER
10
-11.74993770657717
20
20.199999999903948
30
-1.1878764565320309e-14
 70
     32
  0
VERTEX
  8
MY3DLAYER
10
-11.860678771137698
20
21.041161896487143
30
-1.1864562375382172e-14
 70
     32
  0
VERTEX
  8
MY3DLAYER
10
-12.185355144277745
20
21.824999999903948
30
-1.1845727771954175e-14
 70
     32
  0
VERTEX
  8
MY3DLAYER
10
-12.70184066772089
20
22.49809703876023
30
-1.1823544302134277e-14
 70
     32
  0
VERTEX
  8
MY3DLAYER
10
-13.37493770657717
20
23.014582562203376
30
-1.179952373273079e-14
 70
     32
  0
VERTEX
  8
MY3DLAYER
10
-14.158775809993976
20
23.33925893534342
30
-1.1775303025852691e-14
 70
     32
  0
VERTEX
  8
MY3DLAYER
10
-14.99993770657717
20
23.449999999903948
30
-1.1752532782647113e-14
 70
     32
  0
VERTEX
  8
MY3DLAYER
10
-19.41175576300419
20
23.449999999903948
30
-1.1752532782647113e-14
 70
     32
  0
VERTEX
  8
MY3DLAYER
10
-19.327545976139188
20
24.36447242253067
30
1.717804903256876e-14
 70
     32
  0
VERTEX
  8
MY3DLAYER
10
-19.095451656935513
20
26.5869429461083
30
8.5114660475903125e-16
 70
     32
  0
VERTEX
  8
MY3DLAYER
10
-18.78101030877305
20
27.713552141945463
30
8.147453586190969e-16
 70
     32
  0
VERTEX
  8
MY3DLAYER
10
-18.345785627206926
20
28.799232167614512
30
7.763304270108668e-16
 70
     32
  0
VERTEX
  8
MY3DLAYER
10
-17.794951429808556
20
29.831076791845682
30
7.363584748630531e-16
 70
     32
  0
VERTEX
  8
MY3DLAYER
10
-17.13505586462665
20
30.796819762120606
30
6.95304676487007e-16
 70
     32
  0
VERTEX
  8
MY3DLAYER
10
-16.373943567811068
20
31.684980622108938
30
6.536570668505114e-16
 70
     32
  0
VERTEX
  8
MY3DLAYER
10
-15.520662408983936
20
32.485001187825844
30
6.119107399674159e-16
 70
     32
  0
VERTEX
  8
MY3DLAYER
10
-14.58535593293878
20
33.18737106007925
30
5.705619633719442e-16
 70
     32
  0
VERTEX
  8
MY3DLAYER
10
-13.579142776291159
20
33.78374068117691
30
5.30102278642494e-16
 70
     32
  0
VERTEX
  8
MY3DLAYER
10
-12.513984492534634
20
34.267020591916854
30
4.910126581058272e-16
 70
     32
  0
VERTEX
  8
MY3DLAYER
10
-11.402543356761294
20
34.63146570889641
30
4.537577871857452e-16
 70
     32
  0
VERTEX
  8
MY3DLAYER
10
-10.258031840416761
20
34.87274362030701
30
4.1878054036510526e-16
 70
     32
  0
VERTEX
  8
MY3DLAYER
10
-9.094055545491834
20
34.98798608831553
30
3.8649671642983053e-16
 70
     32
  0
VERTEX
  8
MY3DLAYER
10
6.115733956648388e-05
20
34.999999999946574
30
1.567109812458334e-16
 70
     32
  0
VERTEX
  8
MY3DLAYER
10
9.09417786017098
20
35.01201391157761
30
-7.307475393816373e-17
 70
     32
  0
VERTEX
  8
MY3DLAYER
10
10.25845457719256
20
34.899847215175534
30
-9.962009918189298e-17
 70
     32
  0
VERTEX
  8
MY3DLAYER
10
11.403599584806358
20
34.661594086934436
30
-1.2249678417991894e-16
 70
     32
  0
VERTEX
  8
MY3DLAYER
10
12.515999750272373
20
34.300086806992546
30
-1.4143285791515675e-16
 70
     32
  0
VERTEX
  8
MY3DLAYER
10
13.58243120149325
20
33.819622863052516
30
-1.562032141489599e-16
 70
     32
  0
VERTEX
  8
MY3DLAYER
10
14.590216528353455
20
33.22591386316707
30
-1.6663226741516493e-16
 70
     32
  0
VERTEX
  8
MY3DLAYER
10
15.527375487880636
20
32.52601763788898
30
-1.7259604032608434e-16
 70
     32
  0
VERTEX
  8
MY3DLAYER
10
16.382767421704703
20
31.728254338953686
30
-1.7402363737797974e-16
 70
     32
  0
VERTEX
  8
MY3DLAYER
10
17.146223692785746
20
30.842107531857877
30
-1.7089808773478497e-16
 70
     32
  0
VERTEX
  8
MY3DLAYER
10
17.808668567054465
20
29.878111458143092
30
-1.6325654697228811e-16
 70
     32
  0
VERTEX
  8
MY3DLAYER
10
18.362227102955682
20
28.847725807568988
30
-1.5118985538420464e-16
 70
     32
  0
VERTEX
  8
MY3DLAYER
10
18.800318766340336
20
27.76319948882246
30
-1.3484145810032936e-16
 70
     32
  0
VERTEX
  8
MY3DLAYER
10
19.117735657836114
20
26.637425018259066
30
-1.1440569985508202e-16
 70
     32
  0
VERTEX
  8
MY3DLAYER
10
19.355701208991427
20
24.415575473928634
30
1.620061948287185e-14
 70
     32
  0
VERTEX
  8
MY3DLAYER
10
19.447190291806272
20
23.449999999929975
30
-1.2511095234604865e-14
 70
     32
  0
VERTEX
  8
MY3DLAYER
10
15.00005318911092
20
23.449999999929975
30
-1.2511095234604865e-14
 70
     32
  0
VERTEX
  8
MY3DLAYER
10
14.15889129252773
20
23.33925893536945
30
-1.2491327209516662e-14
 70
     32
  0
VERTEX
  8
MY3DLAYER
10
13.37505318911092
20
23.014582562229403
30
-1.2475908560787391e-14
 70
     32
  0
VERTEX
  8
MY3DLAYER
10
12.701956150254642
20
22.498097038786256
30
-1.2465890043847427e-14
 70
     32
  0
VERTEX
  8
MY3DLAYER
10
12.1854706268115
20
21.824999999929975
30
-1.2461954404069847e-14
 70
     32
  0
VERTEX
  8
MY3DLAYER
10
11.860794253671452
20
21.041161896513167
30
-1.246436984880154e-14
 70
     32
  0
VERTEX
  8
MY3DLAYER
10
11.75005318911092
20
20.199999999929975
30
-1.2472971769475755e-14
 70
     32
  0
VERTEX
  8
MY3DLAYER
10
11.860794253671449
20
19.358838103346784
30
-1.2487173959413889e-14
 70
     32
  0
VERTEX
  8
MY3DLAYER
10
12.185470626811496
20
18.574999999929975
30
-1.2506008562841887e-14
 70
     32
  0
VERTEX
  8
MY3DLAYER
10
12.701956150254642
20
17.9019029610737
30
-1.2528192032661784e-14
 70
     32
  0
VERTEX
  8
MY3DLAYER
10
13.37505318911092
20
17.385417437630547
30
-1.2552212602065273e-14
 70
     32
  0
VERTEX
  8
MY3DLAYER
10
14.158891292527727
20
17.060741064490504
30
-1.257643330894337e-14
 70
     32
  0
VERTEX
  8
MY3DLAYER
10
15.00005318911092
20
16.949999999929975
30
-1.2599203552148948e-14
 70
     32
  0
VERTEX
  8
MY3DLAYER
10
19.951783029893754
20
16.949999999929975
30
-1.2599203552148948e-14
 70
     32
  0
VERTEX
  8
MY3DLAYER
10
20.03543357231798
20
15.504070357780405
30
2.4592869514949656e-14
 70
     32
  0
VERTEX
  8
MY3DLAYER
10
20.13720717939446
20
13.271832661188887
30
1.2472401065717689e-14
 70
     32
  0
VERTEX
  8
MY3DLAYER
10
20.21168044675583
20
11.038517472141388
30
-5.3331311656265186e-15
 70
     32
  0
VERTEX
  8
MY3DLAYER
10
20.25884224095171
20
8.80445866218453
30
-2.882106532436825e-14
 70
     32
  0
VERTEX
  8
MY3DLAYER
10
20.278685511484806
20
6.569990214030803
30
-5.798789005980396e-14
 70
     32
  0
VERTEX
  8
MY3DLAYER
10
20.27120729186737
20
4.335446171633608
30
-9.282924505014862e-14
 70
     32
  0
VERTEX
  8
MY3DLAYER
10
20.236408700062977
20
2.101160590246026
30
-1.3333992165441164e-13
 70
     32
  0
VERTEX
  8
MY3DLAYER
10
20.174294938318873
20
-0.13253251351265272
30
-1.7951386369105601e-13
 70
     32
  0
VERTEX
  8
MY3DLAYER
10
19.953676300093953
20
-2.892448821938778
30
-1.3833154089039897e-13
 70
     32
  0
VERTEX
  8
MY3DLAYER
10
19.692222573872108
20
-5.648796507207476
30
-1.0187814134561743e-13
 70
     32
  0
VERTEX
  8
MY3DLAYER
10
19.389991066688424
20
-8.40097141609633
30
-7.016165513684363e-14
 70
     32
  0
VERTEX
  8
MY3DLAYER
10
19.047048023501794
20
-11.148370309990336
30
-4.318903407846422e-14
 70
     32
  0
VERTEX
  8
MY3DLAYER
10
18.66346861267615
20
-13.890390997117981
30
-2.096619019532166e-14
 70
     32
  0
VERTEX
  8
MY3DLAYER
10
18.23933690950425
20
-16.550085906037182
30
-1.2989490834598725e-14
 70
     32
  0
VERTEX
  8
MY3DLAYER
10
12.476441218215035
20
-16.550085906037182
30
-1.2989490834598725e-14
 70
     32
  0
VERTEX
  8
MY3DLAYER
10
11.636106732688154
20
-16.66693996920018
30
-1.2969826593413785e-14
 70
     32
  0
VERTEX
  8
MY3DLAYER
10
10.854650007440595
20
-16.997306895826917
30
-1.2954545295006473e-14
 70
     32
  0
VERTEX
  8
MY3DLAYER
10
10.185326026879688
20
-17.51867272582495
30
-1.29446883346097e-14
 70
     32
  0
VERTEX
  8
MY3DLAYER
10
9.673748114170477
20
-18.19550723947767
30
-1.2940927447785115e-14
 70
     32
  0
VERTEX
  8
MY3DLAYER
10
9.354779458641621
20
-18.98168528320158
30
-1.2943518932754652e-14
 70
     32
  0
VERTEX
  8
MY3DLAYER
10
9.25015724704679
20
-19.823630122537526
30
-1.2952286184100271e-14
 70
     32
  0
VERTEX
  8
MY3DLAYER
10
9.367011310209787
20
-20.66396460806441
30
-1.2966631728131336e-14
 70
     32
  0
VERTEX
  8
MY3DLAYER
10
9.697378236836526
20
-21.445421333311966
30
-1.2985577939729256e-14
 70
     32
  0
VERTEX
  8
MY3DLAYER
10
10.218744066834555
20
-22.114745313872874
30
-1.3007833665883736e-14
 70
     32
  0
VERTEX
  8
MY3DLAYER
10
10.895578580487278
20
-22.626323226582084
30
-1.3031882215636668e-14
 70
     32
  0
VERTEX
  8
MY3DLAYER
10
11.681756624211184
20
-22.945291882110936
30
-1.3056084720064502e-14
 70
     32
  0
VERTEX
  8
MY3DLAYER
10
12.523701463547132
20
-23.049914093705773
30
-1.307879181848701e-14
 70
     32
  0
VERTEX
  8
MY3DLAYER
10
17.074629745662417
20
-23.049914093705773
30
-1.307879181848701e-14
 70
     32
  0
VERTEX
  8
MY3DLAYER
10
16.72460200214585
20
-24.792691865825976
30
2.0345631896439527e-14
 70
     32
  0
VERTEX
  8
MY3DLAYER
10
16.139279335225478
20
-27.498834505938948
30
1.876738008723334e-14
 70
     32
  0
VERTEX
  8
MY3DLAYER
10
15.513957643277923
20
-30.19601514405362
30
1.242577111516588e-14
 70
     32
  0
VERTEX
  8
MY3DLAYER
10
14.848773988154774
20
-32.88364259554403
30
1.3221949730450508e-15
 70
     32
  0
VERTEX
  8
MY3DLAYER
10
14.714808374783416
20
-33.15805300993583
30
1.355406738644486e-15
 70
     32
  0
VERTEX
  8
MY3DLAYER
10
14.557723994100243
20
-33.41991625370608
30
1.3878346529537183e-15
 70
     32
  0
VERTEX
  8
MY3DLAYER
10
14.378686428656806
20
-33.66728927416786
30
1.4192380974532838e-15
 70
     32
  0
VERTEX
  8
MY3DLAYER
10
14.179024155934549
20
-33.898336537609914
30
1.4493840552970053e-15
 70
     32
  0
VERTEX
  8
MY3DLAYER
10
13.96021869090224
20
-34.11134364914509
30
1.4780488403212648e-15
 70
     32
  0
VERTEX
  8
MY3DLAYER
10
13.723893593019989
20
-34.30473007370411
30
1.5050197568199339e-15
 70
     32
  0
VERTEX
  8
MY3DLAYER
10
13.47180241925832
20
-34.477060863768514
30
1.5300966777686243e-15
 70
     32
  0
VERTEX
  8
MY3DLAYER
10
13.205815712520934
20
-34.62705730683209
30
1.5530935297882977e-15
 70
     32
  0
VERTEX
  8
MY3DLAYER
10
12.92790712202128
20
-34.75360641358051
30
1.5738396738290693e-15
 70
     32
  0
VERTEX
  8
MY3DLAYER
10
12.640138758598857
20
-34.855769176395036
30
1.5921811713300788e-15
 70
     32
  0
VERTEX
  8
MY3DLAYER
10
12.344645893640678
20
-34.93278753687712
30
1.6079819264593966e-15
 70
     32
  0
VERTEX
  8
MY3DLAYER
10
12.043621115143305
20
-34.984090010729034
30
1.621124695959603e-15
 70
     32
  0
SEQEND
 0
ENDSEC
 0
EOF
