 0
SECTION
 2
ENTITIES
  0
POLYLINE
 8
Component#1
 66
     1
70
    8
 10
0.0
 20
 0.0
 30
0.0
  0
VERTEX
  8
MY3DLAYER
10
-17.533908892903423
20
-26.237539039812628
30
3.2114727186837982e-15
 70
     32
  0
VERTEX
  8
MY3DLAYER
10
-18.221491841423454
20
-22.800054376565328
30
2.667419666159901e-15
 70
     32
  0
VERTEX
  8
MY3DLAYER
10
-12.499964954287123
20
-22.80004424955701
30
2.612307940276059e-15
 70
     32
  0
VERTEX
  8
MY3DLAYER
10
-11.723507818979565
20
-22.697821728424223
30
2.6237215076691192e-15
 70
     32
  0
VERTEX
  8
MY3DLAYER
10
-10.999964954287133
20
-22.39812046091034
30
2.616880016155794e-15
 70
     32
  0
VERTEX
  8
MY3DLAYER
10
-10.378644610727488
20
-21.9213645931167
30
2.592249702076611e-15
 70
     32
  0
VERTEX
  8
MY3DLAYER
10
-9.90188874293382
20
-21.300044249557004
30
2.5515090806325553e-15
 70
     32
  0
VERTEX
  8
MY3DLAYER
10
-9.602187475419926
20
-20.57650138486462
30
2.497434557847974e-15
 70
     32
  0
VERTEX
  8
MY3DLAYER
10
-9.499964954287131
20
-19.80004424955705
30
2.4337112230882595e-15
 70
     32
  0
VERTEX
  8
MY3DLAYER
10
-9.602187475419926
20
-19.023587114249448
30
2.3646817163095076e-15
 70
     32
  0
VERTEX
  8
MY3DLAYER
10
-9.901888742933814
20
-18.300044249557054
30
2.2950502843220222e-15
 70
     32
  0
VERTEX
  8
MY3DLAYER
10
-10.378644610727486
20
-17.678723905997348
30
2.229562194144381e-15
 70
     32
  0
VERTEX
  8
MY3DLAYER
10
-10.99996495428713
20
-17.201968038203695
30
2.172680350897992e-15
 70
     32
  0
VERTEX
  8
MY3DLAYER
10
-11.723507818979563
20
-16.902266770689803
30
2.1282811581984205e-15
 70
     32
  0
VERTEX
  8
MY3DLAYER
10
-12.499964954287124
20
-16.80004424955701
30
2.0993903476549965e-15
 70
     32
  0
VERTEX
  8
MY3DLAYER
10
-19.26721326845977
20
-16.800056227475007
30
2.1016500981212435e-15
 70
     32
  0
VERTEX
  8
MY3DLAYER
10
-19.874039722500683
20
-12.479634753401408
30
1.856374457768455e-15
 70
     32
  0
VERTEX
  8
MY3DLAYER
10
-20.387646308856034
20
-7.854933129352704
30
1.4079083976877303e-15
 70
     32
  0
VERTEX
  8
MY3DLAYER
10
-20.76722442487939
20
-3.2173068732964185
30
9.616861634300518e-16
 70
     32
  0
VERTEX
  8
MY3DLAYER
10
-21.012456219227555
20
1.4293605566007934
30
5.18081412828994e-16
 70
     32
  0
VERTEX
  8
MY3DLAYER
10
-21.123136339558172
20
6.081178131268807
30
7.746561188814895e-17
 70
     32
  0
VERTEX
  8
MY3DLAYER
10
-21.099172104487874
20
10.734250509006348
30
-3.5979227627728735e-16
 70
     32
  0
VERTEX
  8
MY3DLAYER
10
-20.940583581201686
20
15.384681297364375
30
-7.933261004030773e-16
 70
     32
  0
VERTEX
  8
MY3DLAYER
10
-20.826021055935076
20
17.199941013523564
30
-9.928817588514441e-16
 70
     32
  0
VERTEX
  8
MY3DLAYER
10
-15.000035753624047
20
17.199951325421537
30
-8.741668771586518e-16
 70
     32
  0
VERTEX
  8
MY3DLAYER
10
-14.223578618316484
20
17.30217384655432
30
-8.627533097655906e-16
 70
     32
  0
VERTEX
  8
MY3DLAYER
10
-13.500035753624049
20
17.60187511406823
30
-8.695948012789186e-16
 70
     32
  0
VERTEX
  8
MY3DLAYER
10
-12.878715410064405
20
18.078630981861895
30
-8.942251153580993e-16
 70
     32
  0
VERTEX
  8
MY3DLAYER
10
-12.401959542270726
20
18.699951325421537
30
-9.34965736802157e-16
 70
     32
  0
VERTEX
  8
MY3DLAYER
10
-12.10225827475684
20
19.423494190113978
30
-9.890402595867392e-16
 70
     32
  0
VERTEX
  8
MY3DLAYER
10
-12.000035753624049
20
20.199951325421537
30
-1.05276359434645e-15
 70
     32
  0
VERTEX
  8
MY3DLAYER
10
-12.102258274756846
20
20.9764084607291
30
-1.1217931011252064e-15
 70
     32
  0
VERTEX
  8
MY3DLAYER
10
-12.401959542270738
20
21.699951325421534
30
-1.1914245331126887e-15
 70
     32
  0
VERTEX
  8
MY3DLAYER
10
-12.878715410064405
20
22.321271668981183
30
-1.256912623290332e-15
 70
     32
  0
VERTEX
  8
MY3DLAYER
10
-13.500035753624056
20
22.798027536774857
30
-1.3137944665367164e-15
 70
     32
  0
VERTEX
  8
MY3DLAYER
10
-14.223578618316484
20
23.097728804288742
30
-1.358193659236291e-15
 70
     32
  0
VERTEX
  8
MY3DLAYER
10
-15.000035753624044
20
23.19995132542154
30
-1.387084469779715e-15
 70
     32
  0
VERTEX
  8
MY3DLAYER
10
-20.355021465658346
20
23.19994184718508
30
-1.5194957169216467e-15
 70
     32
  0
VERTEX
  8
MY3DLAYER
10
-20.220177486341957
20
24.662046857135294
30
-1.647772847769903e-15
 70
     32
  0
VERTEX
  8
MY3DLAYER
10
-20.054939916684013
20
26.098939769801696
30
-1.7787256066938796e-15
 70
     32
  0
VERTEX
  8
MY3DLAYER
10
-19.700725851909922
20
27.501258240482837
30
-1.9015461026570514e-15
 70
     32
  0
VERTEX
  8
MY3DLAYER
10
-19.163784517142137
20
28.84426185176432
30
-2.0140674738511283e-15
 70
     32
  0
VERTEX
  8
MY3DLAYER
10
-18.453588905161507
20
30.104256649222148
30
-2.114304560877882e-15
 70
     32
  0
VERTEX
  8
MY3DLAYER
10
-17.582668649039036
20
31.259013162246806
30
-2.200488929943342e-15
 70
     32
  0
VERTEX
  8
MY3DLAYER
10
-16.566388967961124
20
32.28815858769725
30
-2.271100072468426e-15
 70
     32
  0
VERTEX
  8
MY3DLAYER
10
-15.422679586199006
20
33.17353621728058
30
-2.3248922306764914e-15
 70
     32
  0
VERTEX
  8
MY3DLAYER
10
-14.171718407771742
20
33.899525767456886
30
-2.360916375887161e-15
 70
     32
  0
VERTEX
  8
MY3DLAYER
10
-12.835575527576236
20
34.45331896044519
30
-2.3785369517641667e-15
 70
     32
  0
VERTEX
  8
MY3DLAYER
10
-11.43782385952078
20
34.82514549439018
30
-2.377443087124253e-15
 70
     32
  0
VERTEX
  8
MY3DLAYER
10
-10.003123251159609
20
35.00844541600888
30
-2.3576540804850974e-15
 70
     32
  0
VERTEX
  8
MY3DLAYER
10
-8.556785422089755
20
34.99998485463083
30
-2.3195190595909974e-15
 70
     32
  0
VERTEX
  8
MY3DLAYER
10
1.6919798895287383e-14
20
34.99999999999999
30
-2.098617424585854e-15
 70
     32
  0
VERTEX
  8
MY3DLAYER
10
8.556785422089808
20
35.000015145369176
30
-1.8777157895807126e-15
 70
     32
  0
VERTEX
  8
MY3DLAYER
10
10.003123221200543
20
35.00848082673545
30
-1.841173610535335e-15
 70
     32
  0
VERTEX
  8
MY3DLAYER
10
11.437824478428402
20
34.82518598391076
30
-1.7868862517722344e-15
 70
     32
  0
VERTEX
  8
MY3DLAYER
10
12.835577462728724
20
34.453364397962936
30
-1.7158114785524567e-15
 70
     32
  0
VERTEX
  8
MY3DLAYER
10
14.17172230332551
20
33.89957593487987
30
-1.629203228261732e-15
 70
     32
  0
VERTEX
  8
MY3DLAYER
10
15.42268605172401
20
33.17359081306945
30
-1.528589487807833e-15
 70
     32
  0
VERTEX
  8
MY3DLAYER
10
16.56639856768662
20
32.28821723218522
30
-1.4157453360965198e-15
 70
     32
  0
VERTEX
  8
MY3DLAYER
10
17.582681891899092
20
31.259075404337768
30
-1.2926616271844701e-15
 70
     32
  0
VERTEX
  8
MY3DLAYER
10
18.453606235816082
20
30.104321974349368
30
-1.1615098666170235e-15
 70
     32
  0
VERTEX
  8
MY3DLAYER
10
19.163806308132283
20
28.844329690968475
30
-1.0246039006202076e-15
 70
     32
  0
VERTEX
  8
MY3DLAYER
10
19.70075239708527
20
27.501327980450036
30
-8.843590940459453e-16
 70
     32
  0
VERTEX
  8
MY3DLAYER
10
20.054971426018305
20
26.09901076368376
30
-7.432497172739051e-16
 70
     32
  0
VERTEX
  8
MY3DLAYER
10
20.22021408222874
20
24.66211843596195
30
-6.0376529387196875e-16
 70
     32
  0
VERTEX
  8
MY3DLAYER
10
20.355063237347828
20
23.20001390336414
30
-4.664570581757335e-16
 70
     32
  0
VERTEX
  8
MY3DLAYER
10
14.999964246328963
20
23.200004424927165
30
-6.084682178320367e-16
 70
     32
  0
VERTEX
  8
MY3DLAYER
10
14.223507111021423
20
23.09778190379437
30
-6.198817852250979e-16
 70
     32
  0
VERTEX
  8
MY3DLAYER
10
13.749958904933145
20
22.90163181439516
30
-6.154041292475476e-16
 70
     32
  0
VERTEX
  8
MY3DLAYER
10
13.499964246328965
20
22.798080636280478
30
-6.130402937117701e-16
 70
     32
  0
VERTEX
  8
MY3DLAYER
10
12.878643902769321
20
22.321324768486807
30
-5.884099796325902e-16
 70
     32
  0
VERTEX
  8
MY3DLAYER
10
12.40188803497564
20
21.70000442492716
30
-5.476693581885306e-16
 70
     32
  0
VERTEX
  8
MY3DLAYER
10
12.102186767461758
20
20.976461560234725
30
-4.935948354039495e-16
 70
     32
  0
VERTEX
  8
MY3DLAYER
10
11.999964246328963
20
20.20000442492716
30
-4.298715006442376e-16
 70
     32
  0
VERTEX
  8
MY3DLAYER
10
12.102186767461758
20
19.423547289619602
30
-3.608419938654813e-16
 70
     32
  0
VERTEX
  8
MY3DLAYER
10
12.401888034975645
20
18.70000442492716
30
-2.9121056187800024e-16
 70
     32
  0
VERTEX
  8
MY3DLAYER
10
12.878643902769321
20
18.078684081367523
30
-2.257224717003563e-16
 70
     32
  0
VERTEX
  8
MY3DLAYER
10
13.49996424632896
20
17.60192821357385
30
-1.6884062845397293e-16
 70
     32
  0
VERTEX
  8
MY3DLAYER
10
13.7499695877287
20
17.49837261050035
30
-1.534994014577691e-16
 70
     32
  0
VERTEX
  8
MY3DLAYER
10
14.2235071110214
20
17.30222694605996
30
-1.2444143575439737e-16
 70
     32
  0
VERTEX
  8
MY3DLAYER
10
14.999964246328968
20
17.200004424927172
30
-9.555062521097341e-17
 70
     32
  0
VERTEX
  8
MY3DLAYER
10
20.82608406742681
20
17.200014737063245
30
8.447606191617765e-17
 70
     32
  0
VERTEX
  8
MY3DLAYER
10
20.940653018652274
20
15.384755426463009
30
2.878782520002672e-16
 70
     32
  0
VERTEX
  8
MY3DLAYER
10
21.0992580043092
20
10.734325199532247
30
7.296007312438609e-16
 70
     32
  0
VERTEX
  8
MY3DLAYER
10
21.12323871110218
20
6.081252906656464
30
1.1680963641376524e-15
 70
     32
  0
VERTEX
  8
MY3DLAYER
10
21.012575058053148
20
1.4294349402136264
30
1.6029979629539981e-15
 70
     32
  0
VERTEX
  8
MY3DLAYER
10
20.76735971275611
20
-3.217233357766913
30
2.0339413495395993e-15
 70
     32
  0
VERTEX
  8
MY3DLAYER
10
20.387798013779193
20
-7.854860957488165
30
2.4605656602712144e-15
 70
     32
  0
VERTEX
  8
MY3DLAYER
10
19.874207798718405
20
-12.479564399658305
30
2.8825136482358476e-15
 70
     32
  0
VERTEX
  8
MY3DLAYER
10
19.26739663883095
20
-16.79998802185049
30
3.114315687080389e-15
 70
     32
  0
VERTEX
  8
MY3DLAYER
10
12.500035045673721
20
-16.799999999968982
30
2.7460995495020137e-15
 70
     32
  0
VERTEX
  8
MY3DLAYER
10
11.723577910366153
20
-16.902222521101784
30
2.7346859821089528e-15
 70
     32
  0
VERTEX
  8
MY3DLAYER
10
11.000035045673714
20
-17.201923788615677
30
2.7415274736222787e-15
 70
     32
  0
VERTEX
  8
MY3DLAYER
10
10.378714702114092
20
-17.678679656409386
30
2.7661577877014632e-15
 70
     32
  0
VERTEX
  8
MY3DLAYER
10
9.901958834320398
20
-18.299999999968982
30
2.8068984091455215e-15
 70
     32
  0
VERTEX
  8
MY3DLAYER
10
9.602257566806529
20
-19.023542864661465
30
2.8609729319301023e-15
 70
     32
  0
VERTEX
  8
MY3DLAYER
10
9.50003504567371
20
-19.799999999969035
30
2.9246962666898133e-15
 70
     32
  0
VERTEX
  8
MY3DLAYER
10
9.602257566806529
20
-20.576457135276545
30
2.9937257734685707e-15
 70
     32
  0
VERTEX
  8
MY3DLAYER
10
9.901958834320416
20
-21.299999999968986
30
3.063357205456053e-15
 70
     32
  0
VERTEX
  8
MY3DLAYER
10
10.378714702114069
20
-21.921320343528638
30
3.1288452956336955e-15
 70
     32
  0
VERTEX
  8
MY3DLAYER
10
11.000035045673707
20
-22.398076211322348
30
3.1857271388800778e-15
 70
     32
  0
VERTEX
  8
MY3DLAYER
10
11.723577910366147
20
-22.69777747883623
30
3.2301263315796535e-15
 70
     32
  0
VERTEX
  8
MY3DLAYER
10
12.50003504567371
20
-22.799999999969007
30
3.2590171421230787e-15
 70
     32
  0
VERTEX
  8
MY3DLAYER
10
18.221696451596866
20
-22.799989872722616
30
3.6088906718157835e-15
 70
     32
  0
VERTEX
  8
MY3DLAYER
10
17.534125671663553
20
-26.237476969969336
30
4.1167877160344964e-15
 70
     32
  0
VERTEX
  8
MY3DLAYER
10
16.48983846206717
20
-30.771914207477405
30
4.516540677721342e-15
 70
     32
  0
VERTEX
  8
MY3DLAYER
10
16.326427289929654
20
-31.356757043117558
30
4.567358565581653e-15
 70
     32
  0
VERTEX
  8
MY3DLAYER
10
16.09816873894838
20
-31.919466903954362
30
4.614419525592432e-15
 70
     32
  0
VERTEX
  8
MY3DLAYER
10
15.807969119563857
20
-32.45287906587798
30
4.657124352340206e-15
 70
     32
  0
VERTEX
  8
MY3DLAYER
10
15.459523409160115
20
-32.95020183881341
30
4.6949293050393816e-15
 70
     32
  0
VERTEX
  8
MY3DLAYER
10
15.05726820562907
20
-33.40510304216549
30
4.72735303073185e-15
 70
     32
  0
VERTEX
  8
MY3DLAYER
10
14.60632523822333
20
-33.81179062954218
30
4.753982693131337e-15
 70
     32
  0
VERTEX
  8
MY3DLAYER
10
14.112436154949304
20
-34.16508643619959
30
4.774479229076686e-15
 70
     32
  0
VERTEX
  8
MY3DLAYER
10
13.581889416821673
20
-34.46049211021606
30
4.788581665666104e-15
 70
     32
  0
VERTEX
  8
MY3DLAYER
10
13.021440229801085
20
-34.694246387924395
30
4.796110443104267e-15
 70
     32
  0
VERTEX
  8
MY3DLAYER
10
12.438224533884295
20
-34.863372984340394
30
4.796969700954053e-15
 70
     32
  0
VERTEX
  8
MY3DLAYER
10
11.839668144484387
20
-34.96571848882158
30
4.7911484986831324e-15
 70
     32
  0
VERTEX
  8
MY3DLAYER
10
11.233392202961445
20
-34.99997978344791
30
4.7787209549646436e-15
 70
     32
  0
VERTEX
  8
MY3DLAYER
10
9.500051763587969
20
-34.98927537537972
30
1.61721455395315e-15
 70
     32
  0
VERTEX
  8
MY3DLAYER
10
9.500051763588003
20
-28.994423357246454
30
1.61721455395315e-15
 70
     32
  0
VERTEX
  8
MY3DLAYER
10
3.500051763587985
20
-28.994423357246454
30
1.6172145539531533e-15
 70
     32
  0
VERTEX
  8
MY3DLAYER
10
3.5000522403174466
20
-34.99442335724643
30
1.7682333134275956e-15
 70
     32
  0
VERTEX
  8
MY3DLAYER
10
-6.499948048303098
20
-35.000000338292814
30
1.847082447496869e-15
 70
     32
  0
VERTEX
  8
MY3DLAYER
10
-6.499948048303093
20
-33.00000033829282
30
1.728968511306735e-15
 70
     32
  0
VERTEX
  8
MY3DLAYER
10
-10.099948048303085
20
-33.00000033829283
30
1.7289685113067343e-15
 70
     32
  0
VERTEX
  8
MY3DLAYER
10
-10.099948048303094
20
-35.004756169263885
30
1.845400144041509e-15
 70
     32
  0
VERTEX
  8
MY3DLAYER
10
-11.233144405269634
20
-35.00001954884754
30
4.198725731893008e-15
 70
     32
  0
VERTEX
  8
MY3DLAYER
10
-11.839420468072621
20
-34.96576040041822
30
4.179850080886883e-15
 70
     32
  0
VERTEX
  8
MY3DLAYER
10
-12.43797721976849
20
-34.863417014807624
30
4.154766657517487e-15
 70
     32
  0
VERTEX
  8
MY3DLAYER
10
-13.021193514384223
20
-34.69429248295697
30
4.123794837400361e-15
 70
     32
  0
VERTEX
  8
MY3DLAYER
10
-13.581643528883738
20
-34.460540189221746
30
4.0873289703803425e-15
 70
     32
  0
VERTEX
  8
MY3DLAYER
10
-14.112191312734366
20
-34.16513639332516
30
4.0458333594576225e-15
 70
     32
  0
VERTEX
  8
MY3DLAYER
10
-14.60608164666082
20
-33.81184233502097
30
3.9998363490325976e-15
 70
     32
  0
VERTEX
  8
MY3DLAYER
10
-15.057026053724417
20
-33.40515634397008
30
3.949923597741284e-15
 70
     32
  0
VERTEX
  8
MY3DLAYER
10
-15.459282867588206
20
-32.95025656459107
30
3.896730621535066e-15
 70
     32
  0
VERTEX
  8
MY3DLAYER
10
-15.807730338495931
20
-32.45293502514496
30
3.8409347019503346e-15
 70
     32
  0
VERTEX
  8
MY3DLAYER
10
-16.097931846140153
20
-31.919523890521763
30
3.7832462625962935e-15
 70
     32
  0
VERTEX
  8
MY3DLAYER
10
-16.326192389094324
20
-31.356814837716364
30
3.724399823660099e-15
 70
     32
  0
VERTEX
  8
MY3DLAYER
10
-16.489605631555232
20
-30.771972580549978
30
3.665144649601391e-15
 70
     32
  0
VERTEX
  8
MY3DLAYER
10
-17.533908892903423
20
-26.237539039812628
30
3.2114727186837982e-15
 70
     32
  0
SEQEND
 0
ENDSEC
 0
EOF
