 0
SECTION
 2
ENTITIES
  0
POLYLINE
 8
Layer0
 66
     1
70
    8
 10
0.0
 20
 0.0
 30
0.0
  0
VERTEX
  8
MY3DLAYER
10
19.814264680791933
20
-16.049999999999997
30
-1.1740468940984588e-31
 70
     32
  0
VERTEX
  8
MY3DLAYER
10
12.500000000000002
20
-16.049999999999997
30
-1.1740468940984588e-31
 70
     32
  0
VERTEX
  8
MY3DLAYER
10
12.500000000000002
20
-12.050000000000006
30
-1.1740468940984588e-31
 70
     32
  0
VERTEX
  8
MY3DLAYER
10
8.750000000000009
20
-12.050000000000006
30
-1.1740468940984588e-31
 70
     32
  0
VERTEX
  8
MY3DLAYER
10
8.750000000000009
20
-19.800000000000004
30
-1.1740468940984588e-31
 70
     32
  0
VERTEX
  8
MY3DLAYER
10
8.877778151415997
20
-20.77057141913446
30
-1.1740468940984588e-31
 70
     32
  0
VERTEX
  8
MY3DLAYER
10
9.25240473580836
20
-21.675000000000004
30
-1.1740468940984588e-31
 70
     32
  0
VERTEX
  8
MY3DLAYER
10
9.848349570550454
20
-22.45165042944955
30
-1.1740468940984588e-31
 70
     32
  0
VERTEX
  8
MY3DLAYER
10
10.625000000000005
20
-23.047595264191663
30
-1.1740468940984588e-31
 70
     32
  0
VERTEX
  8
MY3DLAYER
10
11.52942858086555
20
-23.42222184858401
30
-1.1740468940984588e-31
 70
     32
  0
VERTEX
  8
MY3DLAYER
10
12.500000000000002
20
-23.550000000000008
30
-1.1740468940984588e-31
 70
     32
  0
VERTEX
  8
MY3DLAYER
10
18.462485039251877
20
-23.550000000000008
30
-1.1740468940984588e-31
 70
     32
  0
VERTEX
  8
MY3DLAYER
10
18.028142554280908
20
-25.40988598954965
30
-2.120503006299399e-15
 70
     32
  0
VERTEX
  8
MY3DLAYER
10
17.386513846674973
20
-27.91032325244283
30
-2.120503006299399e-15
 70
     32
  0
VERTEX
  8
MY3DLAYER
10
16.690614949179068
20
-30.39620310242612
30
-2.120503006299399e-15
 70
     32
  0
VERTEX
  8
MY3DLAYER
10
16.55170006813292
20
-30.95989671656411
30
-2.1139351819629777e-15
 70
     32
  0
VERTEX
  8
MY3DLAYER
10
16.36156503442717
20
-31.508437055786064
30
-2.1070605035120003e-15
 70
     32
  0
VERTEX
  8
MY3DLAYER
10
16.121819350067703
20
-32.0371807003124
30
-2.0999371654229983e-15
 70
     32
  0
VERTEX
  8
MY3DLAYER
10
15.83449247355229
20
-32.541651810315656
30
-2.0926254670880378e-15
 70
     32
  0
VERTEX
  8
MY3DLAYER
10
15.502016640408971
20
-33.017580014115005
30
-2.0851873023775277e-15
 70
     32
  0
VERTEX
  8
MY3DLAYER
10
15.127206274207705
20
-33.46093655707347
30
-2.0776856357056984e-15
 70
     32
  0
VERTEX
  8
MY3DLAYER
10
14.713234162332808
20
-33.867968405195754
30
-2.070183969033869e-15
 70
     32
  0
VERTEX
  8
MY3DLAYER
10
14.263604598188019
20
-34.235230014737205
30
-2.0627458043233595e-15
 70
     32
  0
VERTEX
  8
MY3DLAYER
10
13.78212371718822
20
-34.559612498893955
30
-2.0554341059883978e-15
 70
     32
  0
VERTEX
  8
MY3DLAYER
10
13.272867277644073
20
-34.8383699446758
30
-2.048310767899396e-15
 70
     32
  0
VERTEX
  8
MY3DLAYER
10
12.740146159276085
20
-35.06914265718919
30
-2.041436089448418e-15
 70
     32
  0
VERTEX
  8
MY3DLAYER
10
12.188469871414986
20
-35.249977134565036
30
-2.0348682651119975e-15
 70
     32
  0
VERTEX
  8
MY3DLAYER
10
10.100051951696901
20
-35.24998060934989
30
2.3051029245889657e-16
 70
     32
  0
VERTEX
  8
MY3DLAYER
10
10.100051951696901
20
-29.549985767233483
30
2.3051029245889657e-16
 70
     32
  0
VERTEX
  8
MY3DLAYER
10
7.000051951696902
20
-29.549985767233483
30
2.3051029245889657e-16
 70
     32
  0
VERTEX
  8
MY3DLAYER
10
3.9000519516968963
20
-29.549985767233483
30
2.3051029245889657e-16
 70
     32
  0
VERTEX
  8
MY3DLAYER
10
3.9000519516968963
20
-35.24999092513287
30
2.3051029245889657e-16
 70
     32
  0
VERTEX
  8
MY3DLAYER
10
-5.249948048305523
20
-35.25000614923196
30
1.25089494185202e-15
 70
     32
  0
VERTEX
  8
MY3DLAYER
10
-5.249948048305523
20
-33.55000614922962
30
1.2486732301404244e-15
 70
     32
  0
VERTEX
  8
MY3DLAYER
10
-6.999948048303093
20
-33.55000906094256
30
1.5903942936930592e-15
 70
     32
  0
VERTEX
  8
MY3DLAYER
10
-8.74994804830067
20
-33.5500119726555
30
1.6582808524701864e-15
 70
     32
  0
VERTEX
  8
MY3DLAYER
10
-8.74994804830067
20
-35.25000614923196
30
1.6582808524701864e-15
 70
     32
  0
VERTEX
  8
MY3DLAYER
10
-12.188365390780115
20
-35.250017693620286
30
2.0285559661769445e-15
 70
     32
  0
VERTEX
  8
MY3DLAYER
10
-12.740041678641216
20
-35.06918321624445
30
2.035123790513365e-15
 70
     32
  0
VERTEX
  8
MY3DLAYER
10
-13.272762797009204
20
-34.83841050373105
30
2.041998468964343e-15
 70
     32
  0
VERTEX
  8
MY3DLAYER
10
-13.782019236553351
20
-34.55965305794921
30
2.0491218070533447e-15
 70
     32
  0
VERTEX
  8
MY3DLAYER
10
-14.263500117553148
20
-34.23527057379246
30
2.0564335053883065e-15
 70
     32
  0
VERTEX
  8
MY3DLAYER
10
-14.713129681697934
20
-33.86800896425101
30
2.063871670098817e-15
 70
     32
  0
VERTEX
  8
MY3DLAYER
10
-15.12710179357283
20
-33.460977116128724
30
2.0713733367706454e-15
 70
     32
  0
VERTEX
  8
MY3DLAYER
10
-15.5019121597741
20
-33.017620573170255
30
2.078875003442475e-15
 70
     32
  0
VERTEX
  8
MY3DLAYER
10
-15.83438799291742
20
-32.541692369370914
30
2.0863131681529843e-15
 70
     32
  0
VERTEX
  8
MY3DLAYER
10
-16.121714869432836
20
-32.037221259367655
30
2.093624866487946e-15
 70
     32
  0
VERTEX
  8
MY3DLAYER
10
-16.3614605537923
20
-31.50847761484132
30
2.1007482045769477e-15
 70
     32
  0
VERTEX
  8
MY3DLAYER
10
-16.55159558749805
20
-30.959937275619364
30
2.1076228830279246e-15
 70
     32
  0
VERTEX
  8
MY3DLAYER
10
-16.690510468544193
20
-30.396243661481375
30
2.1141907073643463e-15
 70
     32
  0
VERTEX
  8
MY3DLAYER
10
-17.3864093660401
20
-27.910363811498083
30
2.1141907073643463e-15
 70
     32
  0
VERTEX
  8
MY3DLAYER
10
-18.028038073646034
20
-25.409926548604904
30
2.1141907073643463e-15
 70
     32
  0
VERTEX
  8
MY3DLAYER
10
-18.462390030445363
20
-23.550000000000008
30
-1.1740468940984588e-31
 70
     32
  0
VERTEX
  8
MY3DLAYER
10
-12.499999999999993
20
-23.550000000000008
30
-1.1740468940984588e-31
 70
     32
  0
VERTEX
  8
MY3DLAYER
10
-11.529428580865538
20
-23.42222184858401
30
-1.1740468940984588e-31
 70
     32
  0
VERTEX
  8
MY3DLAYER
10
-10.624999999999995
20
-23.047595264191663
30
-1.1740468940984588e-31
 70
     32
  0
VERTEX
  8
MY3DLAYER
10
-9.848349570550443
20
-22.451650429449575
30
-1.1740468940984588e-31
 70
     32
  0
VERTEX
  8
MY3DLAYER
10
-9.25240473580835
20
-21.675000000000004
30
-1.1740468940984588e-31
 70
     32
  0
VERTEX
  8
MY3DLAYER
10
-8.877778151415987
20
-20.77057141913446
30
-1.1740468940984588e-31
 70
     32
  0
VERTEX
  8
MY3DLAYER
10
-8.749999999999996
20
-19.800000000000004
30
-1.1740468940984588e-31
 70
     32
  0
VERTEX
  8
MY3DLAYER
10
-8.877778151415987
20
-18.829428580865567
30
-1.1740468940984588e-31
 70
     32
  0
VERTEX
  8
MY3DLAYER
10
-9.25240473580835
20
-17.925000000000022
30
-1.1740468940984588e-31
 70
     32
  0
VERTEX
  8
MY3DLAYER
10
-9.848349570550443
20
-17.148349570550455
30
-1.1740468940984588e-31
 70
     32
  0
VERTEX
  8
MY3DLAYER
10
-10.624999999999995
20
-16.552404735808366
30
-1.1740468940984588e-31
 70
     32
  0
VERTEX
  8
MY3DLAYER
10
-11.529428580865538
20
-16.177778151415996
30
-1.1740468940984588e-31
 70
     32
  0
VERTEX
  8
MY3DLAYER
10
-12.499999999999993
20
-16.049999999999997
30
-1.1740468940984588e-31
 70
     32
  0
VERTEX
  8
MY3DLAYER
10
-19.81416749435723
20
-16.049999999999997
30
5.222164382404075e-16
 70
     32
  0
VERTEX
  8
MY3DLAYER
10
-19.94062880911366
20
-15.286387869959006
30
2.1141907073643463e-15
 70
     32
  0
VERTEX
  8
MY3DLAYER
10
-20.306865779413243
20
-12.73105141741998
30
2.1141907073643463e-15
 70
     32
  0
VERTEX
  8
MY3DLAYER
10
-20.617398924909097
20
-10.168349119134529
30
2.1141907073643463e-15
 70
     32
  0
VERTEX
  8
MY3DLAYER
10
-20.872081122996768
20
-7.599495117431414
30
2.1141907073643463e-15
 70
     32
  0
VERTEX
  8
MY3DLAYER
10
-21.070791711811935
20
-5.025706469157982
30
2.1141907073643463e-15
 70
     32
  0
VERTEX
  8
MY3DLAYER
10
-21.21343654739682
20
-2.44820256906984
30
2.1141907073643463e-15
 70
     32
  0
VERTEX
  8
MY3DLAYER
10
-21.299948048303094
20
0.13179542788677037
30
2.1141907073643463e-15
 70
     32
  0
VERTEX
  8
MY3DLAYER
10
-21.381078899664985
20
2.177712517562672
30
2.1141907073643463e-15
 70
     32
  0
VERTEX
  8
MY3DLAYER
10
-21.432763019072024
20
4.224585182061296
30
2.1141907073643463e-15
 70
     32
  0
VERTEX
  8
MY3DLAYER
10
-21.454989705386105
20
6.2719896187289725
30
2.1141907073643463e-15
 70
     32
  0
VERTEX
  8
MY3DLAYER
10
-21.447754356597123
20
8.319501914808992
30
2.1141907073643463e-15
 70
     32
  0
VERTEX
  8
MY3DLAYER
10
-21.411058470775828
20
10.366698135212493
30
2.1141907073643463e-15
 70
     32
  0
VERTEX
  8
MY3DLAYER
10
-21.344909645763597
20
12.413154410293942
30
2.1141907073643463e-15
 70
     32
  0
VERTEX
  8
MY3DLAYER
10
-21.24932157759925
20
14.458447023612475
30
2.1141907073643463e-15
 70
     32
  0
VERTEX
  8
MY3DLAYER
10
-21.124314057683534
20
16.45000000027134
30
-9.01521184669037e-16
 70
     32
  0
VERTEX
  8
MY3DLAYER
10
-14.999954887511475
20
16.45000000027134
30
-9.01521184669037e-16
 70
     32
  0
VERTEX
  8
MY3DLAYER
10
-14.029385005618023
20
16.577789827649305
30
-9.596254836847533e-16
 70
     32
  0
VERTEX
  8
MY3DLAYER
10
-13.124960931574584
20
16.952427292287602
30
-1.013612491116149e-15
 70
     32
  0
VERTEX
  8
MY3DLAYER
10
-12.348317671395769
20
17.54838147008886
30
-1.0598030816245228e-15
 70
     32
  0
VERTEX
  8
MY3DLAYER
10
-11.752382179799088
20
18.32503906869676
30
-1.0950494428002888e-15
 70
     32
  0
VERTEX
  8
MY3DLAYER
10
-11.377766475706895
20
19.22947215625352
30
-1.1169495933766848e-15
 70
     32
  0
VERTEX
  8
MY3DLAYER
10
-11.25000000027135
20
20.200045112488525
30
-1.124011074283639e-15
 70
     32
  0
VERTEX
  8
MY3DLAYER
10
-11.377789827649295
20
21.170614994381964
30
-1.1157526572669917e-15
 70
     32
  0
VERTEX
  8
MY3DLAYER
10
-11.752427292287607
20
22.075039068425408
30
-1.0927371397987482e-15
 70
     32
  0
VERTEX
  8
MY3DLAYER
10
-12.348381470088867
20
22.85168232860422
30
-1.0565329913594277e-15
 70
     32
  0
VERTEX
  8
MY3DLAYER
10
-13.125039068696754
20
23.447617820200907
30
-1.0096074648349866e-15
 70
     32
  0
VERTEX
  8
MY3DLAYER
10
-14.029472156253522
20
23.8222335242931
30
-9.551584573099654e-16
 70
     32
  0
VERTEX
  8
MY3DLAYER
10
-15.000045112488515
20
23.949999999728647
30
-8.968965786659556e-16
 70
     32
  0
VERTEX
  8
MY3DLAYER
10
-20.51999066377426
20
23.949999999728647
30
-8.968965786659556e-16
 70
     32
  0
VERTEX
  8
MY3DLAYER
10
-20.436229430318846
20
24.65264686180795
30
2.1141907073643463e-15
 70
     32
  0
VERTEX
  8
MY3DLAYER
10
-20.341063788267714
20
25.952653448741728
30
1.9624137797742883e-15
 70
     32
  0
VERTEX
  8
MY3DLAYER
10
-20.08994515987279
20
27.23172071044895
30
1.797421082171825e-15
 70
     32
  0
VERTEX
  8
MY3DLAYER
10
-19.68653297709311
20
28.47120940998733
30
1.6216169744185729e-15
 70
     32
  0
VERTEX
  8
MY3DLAYER
10
-19.136705973194307
20
29.653057069917264
30
1.4375633658980298e-15
 70
     32
  0
VERTEX
  8
MY3DLAYER
10
-18.44847651477332
20
30.76004118816822
30
1.247942382032371e-15
 70
     32
  0
VERTEX
  8
MY3DLAYER
10
-17.631873841362943
20
31.77603021334385
30
1.0555172789484146e-15
 70
     32
  0
VERTEX
  8
MY3DLAYER
10
-16.69879791410926
20
32.686218622124066
30
8.630921758644664e-16
 70
     32
  0
VERTEX
  8
MY3DLAYER
10
-15.662846003315364
20
33.477342673092615
30
6.734711919987988e-16
 70
     32
  0
VERTEX
  8
MY3DLAYER
10
-14.539114541908853
20
34.137873692911874
30
4.894175834782521e-16
 70
     32
  0
VERTEX
  8
MY3DLAYER
10
-13.343979132327437
20
34.658186078179504
30
3.136134757250109e-16
 70
     32
  0
VERTEX
  8
MY3DLAYER
10
-12.094855912677602
20
35.03069756475401
30
1.4862077812253628e-16
 70
     32
  0
VERTEX
  8
MY3DLAYER
10
-10.809947759663617
20
35.24997972047237
30
-3.1561494675268372e-18
 70
     32
  0
VERTEX
  8
MY3DLAYER
10
5.2240317430688364e-05
20
35.25
30
-3.1561494675268372e-18
 70
     32
  0
VERTEX
  8
MY3DLAYER
10
10.810052240298484
20
35.250020279527625
30
-3.1561494675268372e-18
 70
     32
  0
VERTEX
  8
MY3DLAYER
10
12.094960393312467
20
35.030738123809265
30
-1.5493307705758997e-16
 70
     32
  0
VERTEX
  8
MY3DLAYER
10
13.344083612962306
20
34.658226637234755
30
-3.199257746600646e-16
 70
     32
  0
VERTEX
  8
MY3DLAYER
10
14.539219022543723
20
34.137914251967125
30
-4.957298824133056e-16
 70
     32
  0
VERTEX
  8
MY3DLAYER
10
15.662950483950233
20
33.47738323214787
30
-6.797834909338519e-16
 70
     32
  0
VERTEX
  8
MY3DLAYER
10
16.69890239474413
20
32.686259181179324
30
-8.694044747995194e-16
 70
     32
  0
VERTEX
  8
MY3DLAYER
10
17.63197832199781
20
31.776070772399105
30
-1.0618295778834685e-15
 70
     32
  0
VERTEX
  8
MY3DLAYER
10
18.448580995408186
20
30.760081747223474
30
-1.2542546809674245e-15
 70
     32
  0
VERTEX
  8
MY3DLAYER
10
19.136810453829177
20
29.653097628972517
30
-1.4438756648330832e-15
 70
     32
  0
VERTEX
  8
MY3DLAYER
10
19.68663745772798
20
28.471249969042585
30
-1.6279292733536261e-15
 70
     32
  0
VERTEX
  8
MY3DLAYER
10
20.090049640507665
20
27.231761269504204
30
-1.803733381106878e-15
 70
     32
  0
VERTEX
  8
MY3DLAYER
10
20.341168268902592
20
25.952694007796982
30
-1.9687260787093406e-15
 70
     32
  0
VERTEX
  8
MY3DLAYER
10
20.436333910953717
20
24.652687420863202
30
-2.1205030062993994e-15
 70
     32
  0
VERTEX
  8
MY3DLAYER
10
20.520099979379122
20
23.949999999728647
30
-8.968965786659556e-16
 70
     32
  0
VERTEX
  8
MY3DLAYER
10
14.999954887511489
20
23.949999999728647
30
-8.968965786659556e-16
 70
     32
  0
VERTEX
  8
MY3DLAYER
10
14.02938500561804
20
23.822210172350697
30
-8.387922796502393e-16
 70
     32
  0
VERTEX
  8
MY3DLAYER
10
13.124960931574593
20
23.447572707712386
30
-7.848052722188435e-16
 70
     32
  0
VERTEX
  8
MY3DLAYER
10
12.34831767139578
20
22.85161852991113
30
-7.386146817104698e-16
 70
     32
  0
VERTEX
  8
MY3DLAYER
10
11.752382179799094
20
22.07496093130324
30
-7.033683205347035e-16
 70
     32
  0
VERTEX
  8
MY3DLAYER
10
11.377766475706899
20
21.170527843746477
30
-6.814681699583075e-16
 70
     32
  0
VERTEX
  8
MY3DLAYER
10
11.250000000271353
20
20.19995488751148
30
-6.744066890513533e-16
 70
     32
  0
VERTEX
  8
MY3DLAYER
10
11.377789827649304
20
19.229385005618035
30
-6.826651060680006e-16
 70
     32
  0
VERTEX
  8
MY3DLAYER
10
11.752427292287615
20
18.3249609315746
30
-7.056806235362444e-16
 70
     32
  0
VERTEX
  8
MY3DLAYER
10
12.34838147008887
20
17.54831767139578
30
-7.418847719755646e-16
 70
     32
  0
VERTEX
  8
MY3DLAYER
10
13.125039068696763
20
16.95238217979908
30
-7.888102985000059e-16
 70
     32
  0
VERTEX
  8
MY3DLAYER
10
14.029472156253526
20
16.5777664757069
30
-8.432593060250268e-16
 70
     32
  0
VERTEX
  8
MY3DLAYER
10
15.000045112488523
20
16.45000000027134
30
-9.01521184669037e-16
 70
     32
  0
VERTEX
  8
MY3DLAYER
10
21.12441796107735
20
16.45000000027134
30
-9.01521184669037e-16
 70
     32
  0
VERTEX
  8
MY3DLAYER
10
21.249425480993064
20
14.458487582667729
30
-6.197336685044111e-16
 70
     32
  0
VERTEX
  8
MY3DLAYER
10
21.34501354915741
20
12.413194969349195
30
-6.197336685044111e-16
 70
     32
  0
VERTEX
  8
MY3DLAYER
10
21.41116237416964
20
10.366738694267749
30
-6.197336685044111e-16
 70
     32
  0
VERTEX
  8
MY3DLAYER
10
21.447858259990934
20
8.319542473864248
30
-6.197336685044111e-16
 70
     32
  0
VERTEX
  8
MY3DLAYER
10
21.45509360877992
20
6.272030177784227
30
-6.197336685044111e-16
 70
     32
  0
VERTEX
  8
MY3DLAYER
10
21.432866922465838
20
4.22462574111655
30
-6.197336685044111e-16
 70
     32
  0
VERTEX
  8
MY3DLAYER
10
21.3811828030588
20
2.1777530766179267
30
-6.197336685044111e-16
 70
     32
  0
VERTEX
  8
MY3DLAYER
10
21.300051951696908
20
0.131835986942025
30
-6.197336685044111e-16
 70
     32
  0
VERTEX
  8
MY3DLAYER
10
21.21354045079063
20
-2.448162010014585
30
-6.197336685044111e-16
 70
     32
  0
VERTEX
  8
MY3DLAYER
10
21.07089561520575
20
-5.0256659101027275
30
-6.197336685044111e-16
 70
     32
  0
VERTEX
  8
MY3DLAYER
10
20.872185026390582
20
-7.599454558376159
30
-6.197336685044111e-16
 70
     32
  0
VERTEX
  8
MY3DLAYER
10
20.617502828302907
20
-10.168308560079273
30
-6.197336685044111e-16
 70
     32
  0
VERTEX
  8
MY3DLAYER
10
20.306969682807054
20
-12.731010858364725
30
-6.197336685044111e-16
 70
     32
  0
VERTEX
  8
MY3DLAYER
10
19.940732712507472
20
-15.28634731090375
30
-6.197336685044111e-16
 70
     32
  0
VERTEX
  8
MY3DLAYER
10
19.814264680791933
20
-16.049999999999997
30
-1.1740468940984588e-31
 70
     32
  0
SEQEND
 0
ENDSEC
 0
EOF
