999
dxfrw 0.6.3
  0
SECTION
  2
HEADER
  9
$ACADVER
  1
AC1009
  9
$DWGCODEPAGE
  3
ANSI_1252
  9
$INSBASE
 10
0
 20
0
 30
0
  9
$EXTMIN
 10
-21.4549897053861
 20
-35.25001769362029
 30
0
  9
$EXTMAX
 10
21.45509360877992
 20
35.25002027952763
 30
0
  9
$LIMMIN
 10
0
 20
0
  9
$LIMMAX
 10
420
 20
297
  9
$ORTHOMODE
 70
    0
  9
$REGENMODE
 70
    1
  9
$FILLMODE
 70
    1
  9
$QTEXTMODE
 70
    0
  9
$MIRRTEXT
 70
    0
  9
$DRAGMODE
 70
    2
  9
$LTSCALE
 40
1
  9
$OSMODE
 70
    0
  9
$ATTMODE
 70
    0
  9
$TEXTSIZE
 40
2.5
  9
$TRACEWID
 40
15.68
  9
$TEXTSTYLE
  7
STANDARD
  9
$CLAYER
  8
0
  9
$CELTYPE
  6
BYLAYER
  9
$CECOLOR
 62
  256
  9
$DIMSCALE
 40
2.5
  9
$DIMASZ
 40
2.5
  9
$DIMEXO
 40
0.625
  9
$DIMDLI
 40
3.75
  9
$DIMRND
 40
0
  9
$DIMDLE
 40
0
  9
$DIMEXE
 40
1.25
  9
$DIMTP
 40
0
  9
$DIMTM
 40
0
  9
$DIMTXT
 40
2.5
  9
$DIMCEN
 40
2.5
  9
$DIMTSZ
 40
0
  9
$DIMTOL
 70
    0
  9
$DIMLIM
 70
    0
  9
$DIMTIH
 70
    0
  9
$DIMTOH
 70
    0
  9
$DIMSE1
 70
    0
  9
$DIMSE2
 70
    0
  9
$DIMTAD
 70
    1
  9
$DIMZIN
 70
    8
  9
$DIMBLK
  1

  9
$DIMASO
 70
    1
  9
$DIMSHO
 70
    1
  9
$DIMPOST
  1

  9
$DIMAPOST
  1

  9
$DIMALT
 70
    0
  9
$DIMALTD
 70
    3
  9
$DIMALTF
 40
0.03937
  9
$DIMLFAC
 40
1
  9
$DIMTOFL
 70
    1
  9
$DIMTVP
 40
0
  9
$DIMTIX
 70
    0
  9
$DIMSOXD
 70
    0
  9
$DIMSAH
 70
    0
  9
$DIMBLK1
  1

  9
$DIMBLK2
  1

  9
$DIMSTYLE
  2
STANDARD
  9
$DIMCLRD
 70
    0
  9
$DIMCLRE
 70
    0
  9
$DIMCLRT
 70
    0
  9
$DIMTFAC
 40
1
  9
$DIMGAP
 40
0.625
  9
$LUNITS
 70
    2
  9
$LUPREC
 70
    4
  9
$SKETCHINC
 40
1
  9
$FILLETRAD
 40
0
  9
$AUNITS
 70
    0
  9
$AUPREC
 70
    2
  9
$MENU
  1
.
  9
$ELEVATION
 40
0
  9
$PELEVATION
 40
0
  9
$THICKNESS
 40
0
  9
$LIMCHECK
 70
    0
  9
$BLIPMODE
 70
    0
  9
$CHAMFERA
 40
0
  9
$CHAMFERB
 40
0
  9
$SKPOLY
 70
    0
  9
$USRTIMER
 70
    1
  9
$ANGBASE
 50
0
  9
$ANGDIR
 70
    0
  9
$PDMODE
 70
   34
  9
$PDSIZE
 40
0
  9
$PLINEWID
 40
0
  9
$COORDS
 70
    2
  9
$SPLFRAME
 70
    0
  9
$SPLINETYPE
 70
    2
  9
$SPLINESEGS
 70
    8
  9
$ATTDIA
 70
    1
  9
$ATTREQ
 70
    1
  9
$HANDLING
 70
    1
  9
$HANDSEED
  5
20000
  9
$SURFTAB1
 70
    6
  9
$SURFTAB2
 70
    6
  9
$SURFTYPE
 70
    6
  9
$SURFU
 70
    6
  9
$SURFV
 70
    6
  9
$UCSNAME
  2

  9
$UCSORG
 10
0
 20
0
 30
0
  9
$UCSXDIR
 10
1
 20
0
 30
0
  9
$UCSYDIR
 10
0
 20
1
 30
0
  9
$PUCSNAME
  2

  9
$PUCSORG
 10
0
 20
0
 30
0
  9
$PUCSXDIR
 10
1
 20
0
 30
0
  9
$PUCSYDIR
 10
0
 20
1
 30
0
  9
$USERI1
 70
    0
  9
$USERI2
 70
    0
  9
$USERI3
 70
    0
  9
$USERI4
 70
    0
  9
$USERI5
 70
    0
  9
$USERR1
 40
0
  9
$USERR2
 40
0
  9
$USERR3
 40
0
  9
$USERR4
 40
0
  9
$USERR5
 40
0
  9
$WORLDVIEW
 70
    1
  9
$SHADEDGE
 70
    3
  9
$SHADEDIF
 70
   70
  9
$TILEMODE
 70
    1
  9
$MAXACTVP
 70
   64
  9
$PLIMCHECK
 70
    0
  9
$PEXTMIN
 10
0
 20
0
 30
0
  9
$PEXTMAX
 10
0
 20
0
 30
0
  9
$SNAPSTYLE
 70
    0
  9
$PLIMMIN
 10
0
 20
0
  9
$PLIMMAX
 10
210
 20
297
  9
$UNITMODE
 70
    0
  9
$VISRETAIN
 70
    1
  9
$PLINEGEN
 70
    0
  9
$PSLTSCALE
 70
    1
  0
ENDSEC
  0
SECTION
  2
TABLES
  0
TABLE
  2
VPORT
 70
    1
  0
VPORT
  2
*ACTIVE
 70
    0
 10
0
 20
0
 11
1
 21
1
 12
169.0295467500001
 22
69.16314150000002
 13
0
 23
0
 14
10
 24
10
 15
10
 25
10
 16
0
 26
0
 36
1
 17
0
 27
0
 37
0
 40
253.7059162500001
 41
1.988535031847134
 42
50
 43
0
 44
0
 50
0
 51
0
 71
    0
 72
  100
 73
    1
 74
    3
 75
    0
 76
    1
 77
    0
 78
    0
  0
ENDTAB
  0
TABLE
  2
LTYPE
 70
    4
  0
LTYPE
  2
BYBLOCK
 70
    0
  3

 72
   65
 73
    0
 40
0
  0
LTYPE
  2
BYLAYER
 70
    0
  3

 72
   65
 73
    0
 40
0
  0
LTYPE
  2
CONTINUOUS
 70
    0
  3
Solid line
 72
   65
 73
    0
 40
0
  0
LTYPE
  2
DOT
 70
    0
  3
Dot . . . . . . . . . . . . . . . . . . . . . .
 72
   65
 73
    2
 40
6.35
 49
0
 49
-6.35
  0
LTYPE
  2
DOTTINY
 70
    0
  3
Dot (.15x) .....................................
 72
   65
 73
    2
 40
0.9525
 49
0
 49
-0.9525
  0
LTYPE
  2
DOT2
 70
    0
  3
Dot (.5x) .....................................
 72
   65
 73
    2
 40
3.175
 49
0
 49
-3.175
  0
LTYPE
  2
DOTX2
 70
    0
  3
Dot (2x) .  .  .  .  .  .  .  .  .  .  .  .  .
 72
   65
 73
    2
 40
12.7
 49
0
 49
-12.7
  0
LTYPE
  2
DASHED
 70
    0
  3
Dashed _ _ _ _ _ _ _ _ _ _ _ _ _ _ _ _ _
 72
   65
 73
    2
 40
19.05
 49
12.7
 49
-6.35
  0
LTYPE
  2
DASHEDTINY
 70
    0
  3
Dashed (.15x) _ _ _ _ _ _ _ _ _ _ _ _ _ _ _ _ _
 72
   65
 73
    2
 40
2.8575
 49
1.905
 49
-0.9525
  0
LTYPE
  2
DASHED2
 70
    0
  3
Dashed (.5x) _ _ _ _ _ _ _ _ _ _ _ _ _ _ _ _ _
 72
   65
 73
    2
 40
9.524999999999999
 49
6.35
 49
-3.175
  0
LTYPE
  2
DASHEDX2
 70
    0
  3
Dashed (2x) ____  ____  ____  ____  ____  ___
 72
   65
 73
    2
 40
38.09999999999999
 49
25.4
 49
-12.7
  0
LTYPE
  2
DASHDOT
 70
    0
  3
Dash dot __ . __ . __ . __ . __ . __ . __ . __
 72
   65
 73
    4
 40
25.4
 49
12.7
 49
-6.35
 49
0
 49
-6.35
  0
LTYPE
  2
DASHDOTTINY
 70
    0
  3
Dash dot (.15x) _._._._._._._._._._._._._._._.
 72
   65
 73
    4
 40
3.81
 49
1.905
 49
-0.9525
 49
0
 49
-0.9525
  0
LTYPE
  2
DASHDOT2
 70
    0
  3
Dash dot (.5x) _._._._._._._._._._._._._._._.
 72
   65
 73
    4
 40
12.7
 49
6.35
 49
-3.175
 49
0
 49
-3.175
  0
LTYPE
  2
DASHDOTX2
 70
    0
  3
Dash dot (2x) ____  .  ____  .  ____  .  ___
 72
   65
 73
    4
 40
50.8
 49
25.4
 49
-12.7
 49
0
 49
-12.7
  0
LTYPE
  2
DIVIDE
 70
    0
  3
Divide ____ . . ____ . . ____ . . ____ . . ____
 72
   65
 73
    6
 40
31.75
 49
12.7
 49
-6.35
 49
0
 49
-6.35
 49
0
 49
-6.35
  0
LTYPE
  2
DIVIDETINY
 70
    0
  3
Divide (.15x) __..__..__..__..__..__..__..__.._
 72
   65
 73
    6
 40
4.7625
 49
1.905
 49
-0.9525
 49
0
 49
-0.9525
 49
0
 49
-0.9525
  0
LTYPE
  2
DIVIDE2
 70
    0
  3
Divide (.5x) __..__..__..__..__..__..__..__.._
 72
   65
 73
    6
 40
15.875
 49
6.35
 49
-3.175
 49
0
 49
-3.175
 49
0
 49
-3.175
  0
LTYPE
  2
DIVIDEX2
 70
    0
  3
Divide (2x) ________  .  .  ________  .  .  _
 72
   65
 73
    6
 40
63.5
 49
25.4
 49
-12.7
 49
0
 49
-12.7
 49
0
 49
-12.7
  0
LTYPE
  2
BORDER
 70
    0
  3
Border __ __ . __ __ . __ __ . __ __ . __ __ .
 72
   65
 73
    6
 40
44.45
 49
12.7
 49
-6.35
 49
12.7
 49
-6.35
 49
0
 49
-6.35
  0
LTYPE
  2
BORDERTINY
 70
    0
  3
Border (.15x) __.__.__.__.__.__.__.__.__.__.__.
 72
   65
 73
    6
 40
6.6675
 49
1.905
 49
-0.9525
 49
1.905
 49
-0.9525
 49
0
 49
-0.9525
  0
LTYPE
  2
BORDER2
 70
    0
  3
Border (.5x) __.__.__.__.__.__.__.__.__.__.__.
 72
   65
 73
    6
 40
22.225
 49
6.35
 49
-3.175
 49
6.35
 49
-3.175
 49
0
 49
-3.175
  0
LTYPE
  2
BORDERX2
 70
    0
  3
Border (2x) ____  ____  .  ____  ____  .  ___
 72
   65
 73
    6
 40
88.89999999999999
 49
25.4
 49
-12.7
 49
25.4
 49
-12.7
 49
0
 49
-12.7
  0
LTYPE
  2
CENTER
 70
    0
  3
Center ____ _ ____ _ ____ _ ____ _ ____ _ ____
 72
   65
 73
    4
 40
50.8
 49
31.75
 49
-6.35
 49
6.35
 49
-6.35
  0
LTYPE
  2
CENTERTINY
 70
    0
  3
Center (.15x) ___ _ ___ _ ___ _ ___ _ ___ _ ___
 72
   65
 73
    4
 40
7.62
 49
4.7625
 49
-0.9525
 49
0.9525
 49
-0.9525
  0
LTYPE
  2
CENTER2
 70
    0
  3
Center (.5x) ___ _ ___ _ ___ _ ___ _ ___ _ ___
 72
   65
 73
    4
 40
28.575
 49
19.05
 49
-3.175
 49
3.175
 49
-3.175
  0
LTYPE
  2
CENTERX2
 70
    0
  3
Center (2x) ________  __  ________  __  _____
 72
   65
 73
    4
 40
101.6
 49
63.5
 49
-12.7
 49
12.7
 49
-12.7
  0
ENDTAB
  0
TABLE
  2
LAYER
 70
    1
  0
LAYER
  2
0
 70
    0
 62
    7
  6
CONTINUOUS
  0
LAYER
  2
LAYER0
 70
    0
 62
    7
  6
CONTINUOUS
  0
ENDTAB
  0
TABLE
  2
STYLE
 70
    3
  0
STYLE
  2
STANDARD
 70
    0
 40
0
 41
1
 50
0
 71
    0
 42
1
  3
TXT
  4

  0
ENDTAB
  0
TABLE
  2
VIEW
 70
    0
  0
ENDTAB
  0
TABLE
  2
UCS
 70
    0
  0
ENDTAB
  0
TABLE
  2
APPID
 70
    1
  0
APPID
  2
ACAD
 70
    0
  0
APPID
  2
LIBRECAD
 70
    0
  0
ENDTAB
  0
TABLE
  2
DIMSTYLE
 70
    1
  0
DIMSTYLE
  2
STANDARD
 70
    0
  3

  4

  5

  6

  7

 40
1
 41
2.5
 42
0.625
 43
0.38
 44
1.25
 45
0
 46
0
 47
0
 48
0
 49
1
140
2.5
141
0.09
142
2.5
143
25.4
144
1
145
0
146
1
147
0.625
 71
    0
 72
    0
 73
    0
 74
    1
 75
    0
 76
    0
 77
    0
 78
    1
170
    0
171
    2
172
    0
173
    0
174
    0
175
    0
176
    0
177
    0
178
    0
  0
ENDTAB
  0
ENDSEC
  0
SECTION
  2
BLOCKS
  0
BLOCK
  8
0
  2
$MODEL_SPACE
 70
    0
 10
0
 20
0
 30
0
  3
$MODEL_SPACE
  1

  0
ENDBLK
  8
0
  0
BLOCK
  8
0
  2
$PAPER_SPACE
 70
    0
 10
0
 20
0
 30
0
  3
$PAPER_SPACE
  1

  0
ENDBLK
  8
0
  0
ENDSEC
  0
SECTION
  2
ENTITIES
  0
LINE
  5
31
  8
LAYER0
  6
BYLAYER
 62
  256
 10
19.81426468079193
 20
-16.05
 11
12.5
 21
-16.05
  0
LINE
  5
32
  8
LAYER0
  6
BYLAYER
 62
  256
 10
12.5
 20
-16.05
 11
12.5
 21
-12.05000000000001
  0
LINE
  5
33
  8
LAYER0
  6
BYLAYER
 62
  256
 10
12.5
 20
-12.05000000000001
 11
8.750000000000009
 21
-12.05000000000001
  0
LINE
  5
34
  8
LAYER0
  6
BYLAYER
 62
  256
 10
8.750000000000009
 20
-12.05000000000001
 11
8.750000000000009
 21
-19.8
  0
LINE
  5
35
  8
LAYER0
  6
BYLAYER
 62
  256
 10
8.750000000000009
 20
-19.8
 11
8.877778151415997
 21
-20.77057141913446
  0
LINE
  5
36
  8
LAYER0
  6
BYLAYER
 62
  256
 10
8.877778151415997
 20
-20.77057141913446
 11
9.25240473580836
 21
-21.675
  0
LINE
  5
37
  8
LAYER0
  6
BYLAYER
 62
  256
 10
9.25240473580836
 20
-21.675
 11
9.848349570550454
 21
-22.45165042944955
  0
LINE
  5
38
  8
LAYER0
  6
BYLAYER
 62
  256
 10
9.848349570550454
 20
-22.45165042944955
 11
10.62500000000001
 21
-23.04759526419166
  0
LINE
  5
39
  8
LAYER0
  6
BYLAYER
 62
  256
 10
10.62500000000001
 20
-23.04759526419166
 11
11.52942858086555
 21
-23.42222184858401
  0
LINE
  5
3A
  8
LAYER0
  6
BYLAYER
 62
  256
 10
11.52942858086555
 20
-23.42222184858401
 11
12.5
 21
-23.55000000000001
  0
LINE
  5
3B
  8
LAYER0
  6
BYLAYER
 62
  256
 10
12.5
 20
-23.55000000000001
 11
18.46248503925188
 21
-23.55000000000001
  0
LINE
  5
3C
  8
LAYER0
  6
BYLAYER
 62
  256
 10
18.46248503925188
 20
-23.55000000000001
 11
18.02814255428091
 21
-25.40988598954965
  0
LINE
  5
3D
  8
LAYER0
  6
BYLAYER
 62
  256
 10
18.02814255428091
 20
-25.40988598954965
 11
17.38651384667497
 21
-27.91032325244283
  0
LINE
  5
3E
  8
LAYER0
  6
BYLAYER
 62
  256
 10
17.38651384667497
 20
-27.91032325244283
 11
16.69061494917907
 21
-30.39620310242612
  0
LINE
  5
3F
  8
LAYER0
  6
BYLAYER
 62
  256
 10
16.69061494917907
 20
-30.39620310242612
 11
16.55170006813292
 21
-30.95989671656411
  0
LINE
  5
40
  8
LAYER0
  6
BYLAYER
 62
  256
 10
16.55170006813292
 20
-30.95989671656411
 11
16.36156503442717
 21
-31.50843705578606
  0
LINE
  5
41
  8
LAYER0
  6
BYLAYER
 62
  256
 10
16.36156503442717
 20
-31.50843705578606
 11
16.1218193500677
 21
-32.0371807003124
  0
LINE
  5
42
  8
LAYER0
  6
BYLAYER
 62
  256
 10
16.1218193500677
 20
-32.0371807003124
 11
15.83449247355229
 21
-32.54165181031566
  0
LINE
  5
43
  8
LAYER0
  6
BYLAYER
 62
  256
 10
15.83449247355229
 20
-32.54165181031566
 11
15.50201664040897
 21
-33.017580014115
  0
LINE
  5
44
  8
LAYER0
  6
BYLAYER
 62
  256
 10
15.50201664040897
 20
-33.017580014115
 11
15.1272062742077
 21
-33.46093655707347
  0
LINE
  5
45
  8
LAYER0
  6
BYLAYER
 62
  256
 10
15.1272062742077
 20
-33.46093655707347
 11
14.71323416233281
 21
-33.86796840519575
  0
LINE
  5
46
  8
LAYER0
  6
BYLAYER
 62
  256
 10
14.71323416233281
 20
-33.86796840519575
 11
14.26360459818802
 21
-34.2352300147372
  0
LINE
  5
47
  8
LAYER0
  6
BYLAYER
 62
  256
 10
14.26360459818802
 20
-34.2352300147372
 11
13.78212371718822
 21
-34.55961249889396
  0
LINE
  5
48
  8
LAYER0
  6
BYLAYER
 62
  256
 10
13.78212371718822
 20
-34.55961249889396
 11
13.27286727764407
 21
-34.8383699446758
  0
LINE
  5
49
  8
LAYER0
  6
BYLAYER
 62
  256
 10
13.27286727764407
 20
-34.8383699446758
 11
12.74014615927608
 21
-35.06914265718919
  0
LINE
  5
4A
  8
LAYER0
  6
BYLAYER
 62
  256
 10
12.74014615927608
 20
-35.06914265718919
 11
12.18846987141499
 21
-35.24997713456504
  0
LINE
  5
4B
  8
LAYER0
  6
BYLAYER
 62
  256
 10
12.18846987141499
 20
-35.24997713456504
 11
10.1000519516969
 21
-35.24998060934989
  0
LINE
  5
4C
  8
LAYER0
  6
BYLAYER
 62
  256
 10
10.1000519516969
 20
-35.24998060934989
 11
10.1000519516969
 21
-29.54998576723348
  0
LINE
  5
4D
  8
LAYER0
  6
BYLAYER
 62
  256
 10
10.1000519516969
 20
-29.54998576723348
 11
7.000051951696902
 21
-29.54998576723348
  0
LINE
  5
4E
  8
LAYER0
  6
BYLAYER
 62
  256
 10
7.000051951696902
 20
-29.54998576723348
 11
3.900051951696896
 21
-29.54998576723348
  0
LINE
  5
4F
  8
LAYER0
  6
BYLAYER
 62
  256
 10
3.900051951696896
 20
-29.54998576723348
 11
3.900051951696896
 21
-35.24999092513287
  0
LINE
  5
50
  8
LAYER0
  6
BYLAYER
 62
  256
 10
3.900051951696896
 20
-35.24999092513287
 11
-5.249948048305523
 21
-35.25000614923196
  0
LINE
  5
51
  8
LAYER0
  6
BYLAYER
 62
  256
 10
-5.249948048305523
 20
-35.25000614923196
 11
-5.249948048305523
 21
-33.55000614922962
  0
LINE
  5
52
  8
LAYER0
  6
BYLAYER
 62
  256
 10
-5.249948048305523
 20
-33.55000614922962
 11
-6.999948048303093
 21
-33.55000906094256
  0
LINE
  5
53
  8
LAYER0
  6
BYLAYER
 62
  256
 10
-6.999948048303093
 20
-33.55000906094256
 11
-8.74994804830067
 21
-33.5500119726555
  0
LINE
  5
54
  8
LAYER0
  6
BYLAYER
 62
  256
 10
-8.74994804830067
 20
-33.5500119726555
 11
-8.74994804830067
 21
-35.25000614923196
  0
LINE
  5
55
  8
LAYER0
  6
BYLAYER
 62
  256
 10
-8.74994804830067
 20
-35.25000614923196
 11
-12.18836539078012
 21
-35.25001769362029
  0
LINE
  5
56
  8
LAYER0
  6
BYLAYER
 62
  256
 10
-12.18836539078012
 20
-35.25001769362029
 11
-12.74004167864122
 21
-35.06918321624445
  0
LINE
  5
57
  8
LAYER0
  6
BYLAYER
 62
  256
 10
-12.74004167864122
 20
-35.06918321624445
 11
-13.2727627970092
 21
-34.83841050373105
  0
LINE
  5
58
  8
LAYER0
  6
BYLAYER
 62
  256
 10
-13.2727627970092
 20
-34.83841050373105
 11
-13.78201923655335
 21
-34.55965305794921
  0
LINE
  5
59
  8
LAYER0
  6
BYLAYER
 62
  256
 10
-13.78201923655335
 20
-34.55965305794921
 11
-14.26350011755315
 21
-34.23527057379246
  0
LINE
  5
5A
  8
LAYER0
  6
BYLAYER
 62
  256
 10
-14.26350011755315
 20
-34.23527057379246
 11
-14.71312968169793
 21
-33.86800896425101
  0
LINE
  5
5B
  8
LAYER0
  6
BYLAYER
 62
  256
 10
-14.71312968169793
 20
-33.86800896425101
 11
-15.12710179357283
 21
-33.46097711612872
  0
LINE
  5
5C
  8
LAYER0
  6
BYLAYER
 62
  256
 10
-15.12710179357283
 20
-33.46097711612872
 11
-15.5019121597741
 21
-33.01762057317026
  0
LINE
  5
5D
  8
LAYER0
  6
BYLAYER
 62
  256
 10
-15.5019121597741
 20
-33.01762057317026
 11
-15.83438799291742
 21
-32.54169236937091
  0
LINE
  5
5E
  8
LAYER0
  6
BYLAYER
 62
  256
 10
-15.83438799291742
 20
-32.54169236937091
 11
-16.12171486943284
 21
-32.03722125936766
  0
LINE
  5
5F
  8
LAYER0
  6
BYLAYER
 62
  256
 10
-16.12171486943284
 20
-32.03722125936766
 11
-16.3614605537923
 21
-31.50847761484132
  0
LINE
  5
60
  8
LAYER0
  6
BYLAYER
 62
  256
 10
-16.3614605537923
 20
-31.50847761484132
 11
-16.55159558749805
 21
-30.95993727561936
  0
LINE
  5
61
  8
LAYER0
  6
BYLAYER
 62
  256
 10
-16.55159558749805
 20
-30.95993727561936
 11
-16.69051046854419
 21
-30.39624366148137
  0
LINE
  5
62
  8
LAYER0
  6
BYLAYER
 62
  256
 10
-16.69051046854419
 20
-30.39624366148137
 11
-17.3864093660401
 21
-27.91036381149808
  0
LINE
  5
63
  8
LAYER0
  6
BYLAYER
 62
  256
 10
-17.3864093660401
 20
-27.91036381149808
 11
-18.02803807364603
 21
-25.4099265486049
  0
LINE
  5
64
  8
LAYER0
  6
BYLAYER
 62
  256
 10
-18.02803807364603
 20
-25.4099265486049
 11
-18.46239003044536
 21
-23.55000000000001
  0
LINE
  5
65
  8
LAYER0
  6
BYLAYER
 62
  256
 10
-18.46239003044536
 20
-23.55000000000001
 11
-12.49999999999999
 21
-23.55000000000001
  0
LINE
  5
66
  8
LAYER0
  6
BYLAYER
 62
  256
 10
-12.49999999999999
 20
-23.55000000000001
 11
-11.52942858086554
 21
-23.42222184858401
  0
LINE
  5
67
  8
LAYER0
  6
BYLAYER
 62
  256
 10
-11.52942858086554
 20
-23.42222184858401
 11
-10.62499999999999
 21
-23.04759526419166
  0
LINE
  5
68
  8
LAYER0
  6
BYLAYER
 62
  256
 10
-10.62499999999999
 20
-23.04759526419166
 11
-9.848349570550443
 21
-22.45165042944958
  0
LINE
  5
69
  8
LAYER0
  6
BYLAYER
 62
  256
 10
-9.848349570550443
 20
-22.45165042944958
 11
-9.25240473580835
 21
-21.675
  0
LINE
  5
6A
  8
LAYER0
  6
BYLAYER
 62
  256
 10
-9.25240473580835
 20
-21.675
 11
-8.877778151415987
 21
-20.77057141913446
  0
LINE
  5
6B
  8
LAYER0
  6
BYLAYER
 62
  256
 10
-8.877778151415987
 20
-20.77057141913446
 11
-8.749999999999996
 21
-19.8
  0
LINE
  5
6C
  8
LAYER0
  6
BYLAYER
 62
  256
 10
-8.749999999999996
 20
-19.8
 11
-8.877778151415987
 21
-18.82942858086557
  0
LINE
  5
6D
  8
LAYER0
  6
BYLAYER
 62
  256
 10
-8.877778151415987
 20
-18.82942858086557
 11
-9.25240473580835
 21
-17.92500000000002
  0
LINE
  5
6E
  8
LAYER0
  6
BYLAYER
 62
  256
 10
-9.25240473580835
 20
-17.92500000000002
 11
-9.848349570550443
 21
-17.14834957055045
  0
LINE
  5
6F
  8
LAYER0
  6
BYLAYER
 62
  256
 10
-9.848349570550443
 20
-17.14834957055045
 11
-10.62499999999999
 21
-16.55240473580837
  0
LINE
  5
70
  8
LAYER0
  6
BYLAYER
 62
  256
 10
-10.62499999999999
 20
-16.55240473580837
 11
-11.52942858086554
 21
-16.177778151416
  0
LINE
  5
71
  8
LAYER0
  6
BYLAYER
 62
  256
 10
-11.52942858086554
 20
-16.177778151416
 11
-12.49999999999999
 21
-16.05
  0
LINE
  5
72
  8
LAYER0
  6
BYLAYER
 62
  256
 10
-12.49999999999999
 20
-16.05
 11
-19.81416749435723
 21
-16.05
  0
LINE
  5
73
  8
LAYER0
  6
BYLAYER
 62
  256
 10
-19.81416749435723
 20
-16.05
 11
-19.94062880911366
 21
-15.28638786995901
  0
LINE
  5
74
  8
LAYER0
  6
BYLAYER
 62
  256
 10
-19.94062880911366
 20
-15.28638786995901
 11
-20.30686577941324
 21
-12.73105141741998
  0
LINE
  5
75
  8
LAYER0
  6
BYLAYER
 62
  256
 10
-20.30686577941324
 20
-12.73105141741998
 11
-20.6173989249091
 21
-10.16834911913453
  0
LINE
  5
76
  8
LAYER0
  6
BYLAYER
 62
  256
 10
-20.6173989249091
 20
-10.16834911913453
 11
-20.87208112299677
 21
-7.599495117431414
  0
LINE
  5
77
  8
LAYER0
  6
BYLAYER
 62
  256
 10
-20.87208112299677
 20
-7.599495117431414
 11
-21.07079171181194
 21
-5.025706469157982
  0
LINE
  5
78
  8
LAYER0
  6
BYLAYER
 62
  256
 10
-21.07079171181194
 20
-5.025706469157982
 11
-21.21343654739682
 21
-2.44820256906984
  0
LINE
  5
79
  8
LAYER0
  6
BYLAYER
 62
  256
 10
-21.21343654739682
 20
-2.44820256906984
 11
-21.29994804830309
 21
0.1317954278867704
  0
LINE
  5
7A
  8
LAYER0
  6
BYLAYER
 62
  256
 10
-21.29994804830309
 20
0.1317954278867704
 11
-21.38107889966498
 21
2.177712517562672
  0
LINE
  5
7B
  8
LAYER0
  6
BYLAYER
 62
  256
 10
-21.38107889966498
 20
2.177712517562672
 11
-21.43276301907202
 21
4.224585182061296
  0
LINE
  5
7C
  8
LAYER0
  6
BYLAYER
 62
  256
 10
-21.43276301907202
 20
4.224585182061296
 11
-21.4549897053861
 21
6.271989618728973
  0
LINE
  5
7D
  8
LAYER0
  6
BYLAYER
 62
  256
 10
-21.4549897053861
 20
6.271989618728973
 11
-21.44775435659712
 21
8.319501914808992
  0
LINE
  5
7E
  8
LAYER0
  6
BYLAYER
 62
  256
 10
-21.44775435659712
 20
8.319501914808992
 11
-21.41105847077583
 21
10.36669813521249
  0
LINE
  5
7F
  8
LAYER0
  6
BYLAYER
 62
  256
 10
-21.41105847077583
 20
10.36669813521249
 11
-21.3449096457636
 21
12.41315441029394
  0
LINE
  5
80
  8
LAYER0
  6
BYLAYER
 62
  256
 10
-21.3449096457636
 20
12.41315441029394
 11
-21.24932157759925
 21
14.45844702361248
  0
LINE
  5
81
  8
LAYER0
  6
BYLAYER
 62
  256
 10
-21.24932157759925
 20
14.45844702361248
 11
-21.12431405768353
 21
16.45000000027134
  0
LINE
  5
82
  8
LAYER0
  6
BYLAYER
 62
  256
 10
-21.12431405768353
 20
16.45000000027134
 11
-14.99995488751147
 21
16.45000000027134
  0
LINE
  5
83
  8
LAYER0
  6
BYLAYER
 62
  256
 10
-14.99995488751147
 20
16.45000000027134
 11
-14.02938500561802
 21
16.5777898276493
  0
LINE
  5
84
  8
LAYER0
  6
BYLAYER
 62
  256
 10
-14.02938500561802
 20
16.5777898276493
 11
-13.12496093157458
 21
16.9524272922876
  0
LINE
  5
85
  8
LAYER0
  6
BYLAYER
 62
  256
 10
-13.12496093157458
 20
16.9524272922876
 11
-12.34831767139577
 21
17.54838147008886
  0
LINE
  5
86
  8
LAYER0
  6
BYLAYER
 62
  256
 10
-12.34831767139577
 20
17.54838147008886
 11
-11.75238217979909
 21
18.32503906869676
  0
LINE
  5
87
  8
LAYER0
  6
BYLAYER
 62
  256
 10
-11.75238217979909
 20
18.32503906869676
 11
-11.3777664757069
 21
19.22947215625352
  0
LINE
  5
88
  8
LAYER0
  6
BYLAYER
 62
  256
 10
-11.3777664757069
 20
19.22947215625352
 11
-11.25000000027135
 21
20.20004511248852
  0
LINE
  5
89
  8
LAYER0
  6
BYLAYER
 62
  256
 10
-11.25000000027135
 20
20.20004511248852
 11
-11.37778982764929
 21
21.17061499438196
  0
LINE
  5
8A
  8
LAYER0
  6
BYLAYER
 62
  256
 10
-11.37778982764929
 20
21.17061499438196
 11
-11.75242729228761
 21
22.07503906842541
  0
LINE
  5
8B
  8
LAYER0
  6
BYLAYER
 62
  256
 10
-11.75242729228761
 20
22.07503906842541
 11
-12.34838147008887
 21
22.85168232860422
  0
LINE
  5
8C
  8
LAYER0
  6
BYLAYER
 62
  256
 10
-12.34838147008887
 20
22.85168232860422
 11
-13.12503906869675
 21
23.44761782020091
  0
LINE
  5
8D
  8
LAYER0
  6
BYLAYER
 62
  256
 10
-13.12503906869675
 20
23.44761782020091
 11
-14.02947215625352
 21
23.8222335242931
  0
LINE
  5
8E
  8
LAYER0
  6
BYLAYER
 62
  256
 10
-14.02947215625352
 20
23.8222335242931
 11
-15.00004511248851
 21
23.94999999972865
  0
LINE
  5
8F
  8
LAYER0
  6
BYLAYER
 62
  256
 10
-15.00004511248851
 20
23.94999999972865
 11
-20.51999066377426
 21
23.94999999972865
  0
LINE
  5
90
  8
LAYER0
  6
BYLAYER
 62
  256
 10
-20.51999066377426
 20
23.94999999972865
 11
-20.43622943031885
 21
24.65264686180795
  0
LINE
  5
91
  8
LAYER0
  6
BYLAYER
 62
  256
 10
-20.43622943031885
 20
24.65264686180795
 11
-20.34106378826771
 21
25.95265344874173
  0
LINE
  5
92
  8
LAYER0
  6
BYLAYER
 62
  256
 10
-20.34106378826771
 20
25.95265344874173
 11
-20.08994515987279
 21
27.23172071044895
  0
LINE
  5
93
  8
LAYER0
  6
BYLAYER
 62
  256
 10
-20.08994515987279
 20
27.23172071044895
 11
-19.68653297709311
 21
28.47120940998733
  0
LINE
  5
94
  8
LAYER0
  6
BYLAYER
 62
  256
 10
-19.68653297709311
 20
28.47120940998733
 11
-19.13670597319431
 21
29.65305706991726
  0
LINE
  5
95
  8
LAYER0
  6
BYLAYER
 62
  256
 10
-19.13670597319431
 20
29.65305706991726
 11
-18.44847651477332
 21
30.76004118816822
  0
LINE
  5
96
  8
LAYER0
  6
BYLAYER
 62
  256
 10
-18.44847651477332
 20
30.76004118816822
 11
-17.63187384136294
 21
31.77603021334385
  0
LINE
  5
97
  8
LAYER0
  6
BYLAYER
 62
  256
 10
-17.63187384136294
 20
31.77603021334385
 11
-16.69879791410926
 21
32.68621862212407
  0
LINE
  5
98
  8
LAYER0
  6
BYLAYER
 62
  256
 10
-16.69879791410926
 20
32.68621862212407
 11
-15.66284600331536
 21
33.47734267309261
  0
LINE
  5
99
  8
LAYER0
  6
BYLAYER
 62
  256
 10
-15.66284600331536
 20
33.47734267309261
 11
-14.53911454190885
 21
34.13787369291187
  0
LINE
  5
9A
  8
LAYER0
  6
BYLAYER
 62
  256
 10
-14.53911454190885
 20
34.13787369291187
 11
-13.34397913232744
 21
34.6581860781795
  0
LINE
  5
9B
  8
LAYER0
  6
BYLAYER
 62
  256
 10
-13.34397913232744
 20
34.6581860781795
 11
-12.0948559126776
 21
35.03069756475401
  0
LINE
  5
9C
  8
LAYER0
  6
BYLAYER
 62
  256
 10
-12.0948559126776
 20
35.03069756475401
 11
-10.80994775966362
 21
35.24997972047237
  0
LINE
  5
9D
  8
LAYER0
  6
BYLAYER
 62
  256
 10
-10.80994775966362
 20
35.24997972047237
 11
5.224031743068836e-005
 21
35.25
  0
LINE
  5
9E
  8
LAYER0
  6
BYLAYER
 62
  256
 10
5.224031743068836e-005
 20
35.25
 11
10.81005224029848
 21
35.25002027952763
  0
LINE
  5
9F
  8
LAYER0
  6
BYLAYER
 62
  256
 10
10.81005224029848
 20
35.25002027952763
 11
12.09496039331247
 21
35.03073812380926
  0
LINE
  5
A0
  8
LAYER0
  6
BYLAYER
 62
  256
 10
12.09496039331247
 20
35.03073812380926
 11
13.34408361296231
 21
34.65822663723475
  0
LINE
  5
A1
  8
LAYER0
  6
BYLAYER
 62
  256
 10
13.34408361296231
 20
34.65822663723475
 11
14.53921902254372
 21
34.13791425196712
  0
LINE
  5
A2
  8
LAYER0
  6
BYLAYER
 62
  256
 10
14.53921902254372
 20
34.13791425196712
 11
15.66295048395023
 21
33.47738323214787
  0
LINE
  5
A3
  8
LAYER0
  6
BYLAYER
 62
  256
 10
15.66295048395023
 20
33.47738323214787
 11
16.69890239474413
 21
32.68625918117932
  0
LINE
  5
A4
  8
LAYER0
  6
BYLAYER
 62
  256
 10
16.69890239474413
 20
32.68625918117932
 11
17.63197832199781
 21
31.77607077239911
  0
LINE
  5
A5
  8
LAYER0
  6
BYLAYER
 62
  256
 10
17.63197832199781
 20
31.77607077239911
 11
18.44858099540819
 21
30.76008174722347
  0
LINE
  5
A6
  8
LAYER0
  6
BYLAYER
 62
  256
 10
18.44858099540819
 20
30.76008174722347
 11
19.13681045382918
 21
29.65309762897252
  0
LINE
  5
A7
  8
LAYER0
  6
BYLAYER
 62
  256
 10
19.13681045382918
 20
29.65309762897252
 11
19.68663745772798
 21
28.47124996904259
  0
LINE
  5
A8
  8
LAYER0
  6
BYLAYER
 62
  256
 10
19.68663745772798
 20
28.47124996904259
 11
20.09004964050767
 21
27.2317612695042
  0
LINE
  5
A9
  8
LAYER0
  6
BYLAYER
 62
  256
 10
20.09004964050767
 20
27.2317612695042
 11
20.34116826890259
 21
25.95269400779698
  0
LINE
  5
AA
  8
LAYER0
  6
BYLAYER
 62
  256
 10
20.34116826890259
 20
25.95269400779698
 11
20.43633391095372
 21
24.6526874208632
  0
LINE
  5
AB
  8
LAYER0
  6
BYLAYER
 62
  256
 10
20.43633391095372
 20
24.6526874208632
 11
20.52009997937912
 21
23.94999999972865
  0
LINE
  5
AC
  8
LAYER0
  6
BYLAYER
 62
  256
 10
20.52009997937912
 20
23.94999999972865
 11
14.99995488751149
 21
23.94999999972865
  0
LINE
  5
AD
  8
LAYER0
  6
BYLAYER
 62
  256
 10
14.99995488751149
 20
23.94999999972865
 11
14.02938500561804
 21
23.8222101723507
  0
LINE
  5
AE
  8
LAYER0
  6
BYLAYER
 62
  256
 10
14.02938500561804
 20
23.8222101723507
 11
13.12496093157459
 21
23.44757270771239
  0
LINE
  5
AF
  8
LAYER0
  6
BYLAYER
 62
  256
 10
13.12496093157459
 20
23.44757270771239
 11
12.34831767139578
 21
22.85161852991113
  0
LINE
  5
B0
  8
LAYER0
  6
BYLAYER
 62
  256
 10
12.34831767139578
 20
22.85161852991113
 11
11.75238217979909
 21
22.07496093130324
  0
LINE
  5
B1
  8
LAYER0
  6
BYLAYER
 62
  256
 10
11.75238217979909
 20
22.07496093130324
 11
11.3777664757069
 21
21.17052784374648
  0
LINE
  5
B2
  8
LAYER0
  6
BYLAYER
 62
  256
 10
11.3777664757069
 20
21.17052784374648
 11
11.25000000027135
 21
20.19995488751148
  0
LINE
  5
B3
  8
LAYER0
  6
BYLAYER
 62
  256
 10
11.25000000027135
 20
20.19995488751148
 11
11.3777898276493
 21
19.22938500561803
  0
LINE
  5
B4
  8
LAYER0
  6
BYLAYER
 62
  256
 10
11.3777898276493
 20
19.22938500561803
 11
11.75242729228762
 21
18.3249609315746
  0
LINE
  5
B5
  8
LAYER0
  6
BYLAYER
 62
  256
 10
11.75242729228762
 20
18.3249609315746
 11
12.34838147008887
 21
17.54831767139578
  0
LINE
  5
B6
  8
LAYER0
  6
BYLAYER
 62
  256
 10
12.34838147008887
 20
17.54831767139578
 11
13.12503906869676
 21
16.95238217979908
  0
LINE
  5
B7
  8
LAYER0
  6
BYLAYER
 62
  256
 10
13.12503906869676
 20
16.95238217979908
 11
14.02947215625353
 21
16.5777664757069
  0
LINE
  5
B8
  8
LAYER0
  6
BYLAYER
 62
  256
 10
14.02947215625353
 20
16.5777664757069
 11
15.00004511248852
 21
16.45000000027134
  0
LINE
  5
B9
  8
LAYER0
  6
BYLAYER
 62
  256
 10
15.00004511248852
 20
16.45000000027134
 11
21.12441796107735
 21
16.45000000027134
  0
LINE
  5
BA
  8
LAYER0
  6
BYLAYER
 62
  256
 10
21.12441796107735
 20
16.45000000027134
 11
21.24942548099306
 21
14.45848758266773
  0
LINE
  5
BB
  8
LAYER0
  6
BYLAYER
 62
  256
 10
21.24942548099306
 20
14.45848758266773
 11
21.34501354915741
 21
12.4131949693492
  0
LINE
  5
BC
  8
LAYER0
  6
BYLAYER
 62
  256
 10
21.34501354915741
 20
12.4131949693492
 11
21.41116237416964
 21
10.36673869426775
  0
LINE
  5
BD
  8
LAYER0
  6
BYLAYER
 62
  256
 10
21.41116237416964
 20
10.36673869426775
 11
21.44785825999093
 21
8.319542473864248
  0
LINE
  5
BE
  8
LAYER0
  6
BYLAYER
 62
  256
 10
21.44785825999093
 20
8.319542473864248
 11
21.45509360877992
 21
6.272030177784227
  0
LINE
  5
BF
  8
LAYER0
  6
BYLAYER
 62
  256
 10
21.45509360877992
 20
6.272030177784227
 11
21.43286692246584
 21
4.22462574111655
  0
LINE
  5
C0
  8
LAYER0
  6
BYLAYER
 62
  256
 10
21.43286692246584
 20
4.22462574111655
 11
21.3811828030588
 21
2.177753076617927
  0
LINE
  5
C1
  8
LAYER0
  6
BYLAYER
 62
  256
 10
21.3811828030588
 20
2.177753076617927
 11
21.30005195169691
 21
0.131835986942025
  0
LINE
  5
C2
  8
LAYER0
  6
BYLAYER
 62
  256
 10
21.30005195169691
 20
0.131835986942025
 11
21.21354045079063
 21
-2.448162010014585
  0
LINE
  5
C3
  8
LAYER0
  6
BYLAYER
 62
  256
 10
21.21354045079063
 20
-2.448162010014585
 11
21.07089561520575
 21
-5.025665910102727
  0
LINE
  5
C4
  8
LAYER0
  6
BYLAYER
 62
  256
 10
21.07089561520575
 20
-5.025665910102727
 11
20.87218502639058
 21
-7.599454558376159
  0
LINE
  5
C5
  8
LAYER0
  6
BYLAYER
 62
  256
 10
20.87218502639058
 20
-7.599454558376159
 11
20.61750282830291
 21
-10.16830856007927
  0
LINE
  5
C6
  8
LAYER0
  6
BYLAYER
 62
  256
 10
20.61750282830291
 20
-10.16830856007927
 11
20.30696968280705
 21
-12.73101085836472
  0
LINE
  5
C7
  8
LAYER0
  6
BYLAYER
 62
  256
 10
20.30696968280705
 20
-12.73101085836472
 11
19.94073271250747
 21
-15.28634731090375
  0
LINE
  5
C8
  8
LAYER0
  6
BYLAYER
 62
  256
 10
19.94073271250747
 20
-15.28634731090375
 11
19.81426468079193
 21
-16.05
  0
ENDSEC
  0
EOF
