999
dxfrw 0.6.3
  0
SECTION
  2
HEADER
  9
$ACADVER
  1
AC1009
  9
$DWGCODEPAGE
  3
ANSI_1252
  9
$INSBASE
 10
0
 20
0
 30
0
  9
$EXTMIN
 10
-21.1231363395582
 20
-35.00475616926392
 30
0
  9
$EXTMAX
 10
21.12323871110216
 20
35.00848082673544
 30
0
  9
$LIMMIN
 10
0
 20
0
  9
$LIMMAX
 10
420
 20
297
  9
$ORTHOMODE
 70
    0
  9
$REGENMODE
 70
    1
  9
$FILLMODE
 70
    1
  9
$QTEXTMODE
 70
    0
  9
$MIRRTEXT
 70
    0
  9
$DRAGMODE
 70
    2
  9
$LTSCALE
 40
1
  9
$OSMODE
 70
    0
  9
$ATTMODE
 70
    0
  9
$TEXTSIZE
 40
2.5
  9
$TRACEWID
 40
15.68
  9
$TEXTSTYLE
  7
STANDARD
  9
$CLAYER
  8
0
  9
$CELTYPE
  6
BYLAYER
  9
$CECOLOR
 62
  256
  9
$DIMSCALE
 40
2.5
  9
$DIMASZ
 40
2.5
  9
$DIMEXO
 40
0.625
  9
$DIMDLI
 40
3.75
  9
$DIMRND
 40
0
  9
$DIMDLE
 40
0
  9
$DIMEXE
 40
1.25
  9
$DIMTP
 40
0
  9
$DIMTM
 40
0
  9
$DIMTXT
 40
2.5
  9
$DIMCEN
 40
2.5
  9
$DIMTSZ
 40
0
  9
$DIMTOL
 70
    0
  9
$DIMLIM
 70
    0
  9
$DIMTIH
 70
    0
  9
$DIMTOH
 70
    0
  9
$DIMSE1
 70
    0
  9
$DIMSE2
 70
    0
  9
$DIMTAD
 70
    1
  9
$DIMZIN
 70
    8
  9
$DIMBLK
  1

  9
$DIMASO
 70
    1
  9
$DIMSHO
 70
    1
  9
$DIMPOST
  1

  9
$DIMAPOST
  1

  9
$DIMALT
 70
    0
  9
$DIMALTD
 70
    3
  9
$DIMALTF
 40
0.03937
  9
$DIMLFAC
 40
1
  9
$DIMTOFL
 70
    1
  9
$DIMTVP
 40
0
  9
$DIMTIX
 70
    0
  9
$DIMSOXD
 70
    0
  9
$DIMSAH
 70
    0
  9
$DIMBLK1
  1

  9
$DIMBLK2
  1

  9
$DIMSTYLE
  2
STANDARD
  9
$DIMCLRD
 70
    0
  9
$DIMCLRE
 70
    0
  9
$DIMCLRT
 70
    0
  9
$DIMTFAC
 40
1
  9
$DIMGAP
 40
0.625
  9
$LUNITS
 70
    2
  9
$LUPREC
 70
    4
  9
$SKETCHINC
 40
1
  9
$FILLETRAD
 40
0
  9
$AUNITS
 70
    0
  9
$AUPREC
 70
    2
  9
$MENU
  1
.
  9
$ELEVATION
 40
0
  9
$PELEVATION
 40
0
  9
$THICKNESS
 40
0
  9
$LIMCHECK
 70
    0
  9
$BLIPMODE
 70
    0
  9
$CHAMFERA
 40
0
  9
$CHAMFERB
 40
0
  9
$SKPOLY
 70
    0
  9
$USRTIMER
 70
    1
  9
$ANGBASE
 50
0
  9
$ANGDIR
 70
    0
  9
$PDMODE
 70
   34
  9
$PDSIZE
 40
0
  9
$PLINEWID
 40
0
  9
$COORDS
 70
    2
  9
$SPLFRAME
 70
    0
  9
$SPLINETYPE
 70
    2
  9
$SPLINESEGS
 70
    8
  9
$ATTDIA
 70
    1
  9
$ATTREQ
 70
    1
  9
$HANDLING
 70
    1
  9
$HANDSEED
  5
20000
  9
$SURFTAB1
 70
    6
  9
$SURFTAB2
 70
    6
  9
$SURFTYPE
 70
    6
  9
$SURFU
 70
    6
  9
$SURFV
 70
    6
  9
$UCSNAME
  2

  9
$UCSORG
 10
0
 20
0
 30
0
  9
$UCSXDIR
 10
1
 20
0
 30
0
  9
$UCSYDIR
 10
0
 20
1
 30
0
  9
$PUCSNAME
  2

  9
$PUCSORG
 10
0
 20
0
 30
0
  9
$PUCSXDIR
 10
1
 20
0
 30
0
  9
$PUCSYDIR
 10
0
 20
1
 30
0
  9
$USERI1
 70
    0
  9
$USERI2
 70
    0
  9
$USERI3
 70
    0
  9
$USERI4
 70
    0
  9
$USERI5
 70
    0
  9
$USERR1
 40
0
  9
$USERR2
 40
0
  9
$USERR3
 40
0
  9
$USERR4
 40
0
  9
$USERR5
 40
0
  9
$WORLDVIEW
 70
    1
  9
$SHADEDGE
 70
    3
  9
$SHADEDIF
 70
   70
  9
$TILEMODE
 70
    1
  9
$MAXACTVP
 70
   64
  9
$PLIMCHECK
 70
    0
  9
$PEXTMIN
 10
0
 20
0
 30
0
  9
$PEXTMAX
 10
0
 20
0
 30
0
  9
$SNAPSTYLE
 70
    0
  9
$PLIMMIN
 10
0
 20
0
  9
$PLIMMAX
 10
210
 20
297
  9
$UNITMODE
 70
    0
  9
$VISRETAIN
 70
    1
  9
$PLINEGEN
 70
    0
  9
$PSLTSCALE
 70
    1
  0
ENDSEC
  0
SECTION
  2
TABLES
  0
TABLE
  2
VPORT
 70
    1
  0
VPORT
  2
*ACTIVE
 70
    0
 10
0
 20
0
 11
1
 21
1
 12
78.38436364235264
 22
35.67685253568913
 13
0
 23
0
 14
10
 24
10
 15
10
 25
10
 16
0
 26
0
 36
1
 17
0
 27
0
 37
0
 40
117.4269569832955
 41
1.988535031847134
 42
50
 43
0
 44
0
 50
0
 51
0
 71
    0
 72
  100
 73
    1
 74
    3
 75
    0
 76
    1
 77
    0
 78
    0
  0
ENDTAB
  0
TABLE
  2
LTYPE
 70
    4
  0
LTYPE
  2
BYBLOCK
 70
    0
  3

 72
   65
 73
    0
 40
0
  0
LTYPE
  2
BYLAYER
 70
    0
  3

 72
   65
 73
    0
 40
0
  0
LTYPE
  2
CONTINUOUS
 70
    0
  3
Solid line
 72
   65
 73
    0
 40
0
  0
LTYPE
  2
DOT
 70
    0
  3
Dot . . . . . . . . . . . . . . . . . . . . . .
 72
   65
 73
    2
 40
6.35
 49
0
 49
-6.35
  0
LTYPE
  2
DOTTINY
 70
    0
  3
Dot (.15x) .....................................
 72
   65
 73
    2
 40
0.9525
 49
0
 49
-0.9525
  0
LTYPE
  2
DOT2
 70
    0
  3
Dot (.5x) .....................................
 72
   65
 73
    2
 40
3.175
 49
0
 49
-3.175
  0
LTYPE
  2
DOTX2
 70
    0
  3
Dot (2x) .  .  .  .  .  .  .  .  .  .  .  .  .
 72
   65
 73
    2
 40
12.7
 49
0
 49
-12.7
  0
LTYPE
  2
DASHED
 70
    0
  3
Dashed _ _ _ _ _ _ _ _ _ _ _ _ _ _ _ _ _
 72
   65
 73
    2
 40
19.05
 49
12.7
 49
-6.35
  0
LTYPE
  2
DASHEDTINY
 70
    0
  3
Dashed (.15x) _ _ _ _ _ _ _ _ _ _ _ _ _ _ _ _ _
 72
   65
 73
    2
 40
2.8575
 49
1.905
 49
-0.9525
  0
LTYPE
  2
DASHED2
 70
    0
  3
Dashed (.5x) _ _ _ _ _ _ _ _ _ _ _ _ _ _ _ _ _
 72
   65
 73
    2
 40
9.524999999999999
 49
6.35
 49
-3.175
  0
LTYPE
  2
DASHEDX2
 70
    0
  3
Dashed (2x) ____  ____  ____  ____  ____  ___
 72
   65
 73
    2
 40
38.09999999999999
 49
25.4
 49
-12.7
  0
LTYPE
  2
DASHDOT
 70
    0
  3
Dash dot __ . __ . __ . __ . __ . __ . __ . __
 72
   65
 73
    4
 40
25.4
 49
12.7
 49
-6.35
 49
0
 49
-6.35
  0
LTYPE
  2
DASHDOTTINY
 70
    0
  3
Dash dot (.15x) _._._._._._._._._._._._._._._.
 72
   65
 73
    4
 40
3.81
 49
1.905
 49
-0.9525
 49
0
 49
-0.9525
  0
LTYPE
  2
DASHDOT2
 70
    0
  3
Dash dot (.5x) _._._._._._._._._._._._._._._.
 72
   65
 73
    4
 40
12.7
 49
6.35
 49
-3.175
 49
0
 49
-3.175
  0
LTYPE
  2
DASHDOTX2
 70
    0
  3
Dash dot (2x) ____  .  ____  .  ____  .  ___
 72
   65
 73
    4
 40
50.8
 49
25.4
 49
-12.7
 49
0
 49
-12.7
  0
LTYPE
  2
DIVIDE
 70
    0
  3
Divide ____ . . ____ . . ____ . . ____ . . ____
 72
   65
 73
    6
 40
31.75
 49
12.7
 49
-6.35
 49
0
 49
-6.35
 49
0
 49
-6.35
  0
LTYPE
  2
DIVIDETINY
 70
    0
  3
Divide (.15x) __..__..__..__..__..__..__..__.._
 72
   65
 73
    6
 40
4.7625
 49
1.905
 49
-0.9525
 49
0
 49
-0.9525
 49
0
 49
-0.9525
  0
LTYPE
  2
DIVIDE2
 70
    0
  3
Divide (.5x) __..__..__..__..__..__..__..__.._
 72
   65
 73
    6
 40
15.875
 49
6.35
 49
-3.175
 49
0
 49
-3.175
 49
0
 49
-3.175
  0
LTYPE
  2
DIVIDEX2
 70
    0
  3
Divide (2x) ________  .  .  ________  .  .  _
 72
   65
 73
    6
 40
63.5
 49
25.4
 49
-12.7
 49
0
 49
-12.7
 49
0
 49
-12.7
  0
LTYPE
  2
BORDER
 70
    0
  3
Border __ __ . __ __ . __ __ . __ __ . __ __ .
 72
   65
 73
    6
 40
44.45
 49
12.7
 49
-6.35
 49
12.7
 49
-6.35
 49
0
 49
-6.35
  0
LTYPE
  2
BORDERTINY
 70
    0
  3
Border (.15x) __.__.__.__.__.__.__.__.__.__.__.
 72
   65
 73
    6
 40
6.6675
 49
1.905
 49
-0.9525
 49
1.905
 49
-0.9525
 49
0
 49
-0.9525
  0
LTYPE
  2
BORDER2
 70
    0
  3
Border (.5x) __.__.__.__.__.__.__.__.__.__.__.
 72
   65
 73
    6
 40
22.225
 49
6.35
 49
-3.175
 49
6.35
 49
-3.175
 49
0
 49
-3.175
  0
LTYPE
  2
BORDERX2
 70
    0
  3
Border (2x) ____  ____  .  ____  ____  .  ___
 72
   65
 73
    6
 40
88.89999999999999
 49
25.4
 49
-12.7
 49
25.4
 49
-12.7
 49
0
 49
-12.7
  0
LTYPE
  2
CENTER
 70
    0
  3
Center ____ _ ____ _ ____ _ ____ _ ____ _ ____
 72
   65
 73
    4
 40
50.8
 49
31.75
 49
-6.35
 49
6.35
 49
-6.35
  0
LTYPE
  2
CENTERTINY
 70
    0
  3
Center (.15x) ___ _ ___ _ ___ _ ___ _ ___ _ ___
 72
   65
 73
    4
 40
7.62
 49
4.7625
 49
-0.9525
 49
0.9525
 49
-0.9525
  0
LTYPE
  2
CENTER2
 70
    0
  3
Center (.5x) ___ _ ___ _ ___ _ ___ _ ___ _ ___
 72
   65
 73
    4
 40
28.575
 49
19.05
 49
-3.175
 49
3.175
 49
-3.175
  0
LTYPE
  2
CENTERX2
 70
    0
  3
Center (2x) ________  __  ________  __  _____
 72
   65
 73
    4
 40
101.6
 49
63.5
 49
-12.7
 49
12.7
 49
-12.7
  0
ENDTAB
  0
TABLE
  2
LAYER
 70
    1
  0
LAYER
  2
0
 70
    0
 62
    7
  6
CONTINUOUS
  0
LAYER
  2
COMPONENT#1
 70
    0
 62
    7
  6
CONTINUOUS
  0
ENDTAB
  0
TABLE
  2
STYLE
 70
    3
  0
STYLE
  2
STANDARD
 70
    0
 40
0
 41
1
 50
0
 71
    0
 42
1
  3
TXT
  4

  0
ENDTAB
  0
TABLE
  2
VIEW
 70
    0
  0
ENDTAB
  0
TABLE
  2
UCS
 70
    0
  0
ENDTAB
  0
TABLE
  2
APPID
 70
    1
  0
APPID
  2
ACAD
 70
    0
  0
APPID
  2
LIBRECAD
 70
    0
  0
ENDTAB
  0
TABLE
  2
DIMSTYLE
 70
    1
  0
DIMSTYLE
  2
STANDARD
 70
    0
  3

  4

  5

  6

  7

 40
1
 41
2.5
 42
0.625
 43
0.38
 44
1.25
 45
0
 46
0
 47
0
 48
0
 49
1
140
2.5
141
0.09
142
2.5
143
25.4
144
1
145
0
146
1
147
0.625
 71
    0
 72
    0
 73
    0
 74
    1
 75
    0
 76
    0
 77
    0
 78
    1
170
    0
171
    2
172
    0
173
    0
174
    0
175
    0
176
    0
177
    0
178
    0
  0
ENDTAB
  0
ENDSEC
  0
SECTION
  2
BLOCKS
  0
BLOCK
  8
0
  2
$MODEL_SPACE
 70
    0
 10
0
 20
0
 30
0
  3
$MODEL_SPACE
  1

  0
ENDBLK
  8
0
  0
BLOCK
  8
0
  2
$PAPER_SPACE
 70
    0
 10
0
 20
0
 30
0
  3
$PAPER_SPACE
  1

  0
ENDBLK
  8
0
  0
ENDSEC
  0
SECTION
  2
ENTITIES
  0
LINE
  5
31
  8
COMPONENT#1
  6
BYLAYER
 62
  256
 10
19.26739663883093
 20
-16.7999880218505
 11
19.30251269839525
 21
-16.54996583490168
  0
LINE
  5
32
  8
COMPONENT#1
  6
BYLAYER
 62
  256
 10
-18.171490028911
 20
-23.05003216326894
 11
-18.22149139896677
 21
-23.05003225177056
  0
LINE
  5
33
  8
COMPONENT#1
  6
BYLAYER
 62
  256
 10
18.17169552399783
 20
-23.04996783642943
 11
18.22169645159685
 21
-22.79998987272266
  0
LINE
  5
34
  8
COMPONENT#1
  6
BYLAYER
 62
  256
 10
11.65887314907093
 20
-22.93923681061447
 11
12.50003504565414
 21
-23.04997787517499
  0
LINE
  5
35
  8
COMPONENT#1
  6
BYLAYER
 62
  256
 10
12.50003504565414
 20
-23.04997787517499
 11
18.17169552399783
 21
-23.04996783642943
  0
LINE
  5
36
  8
COMPONENT#1
  6
BYLAYER
 62
  256
 10
18.17169552399783
 20
-23.04996783642943
 11
17.53412567166353
 21
-26.23747696996935
  0
LINE
  5
37
  8
COMPONENT#1
  6
BYLAYER
 62
  256
 10
17.53412567166353
 20
-26.23747696996935
 11
16.48983846206715
 21
-30.77191420747742
  0
LINE
  5
38
  8
COMPONENT#1
  6
BYLAYER
 62
  256
 10
16.48983846206715
 20
-30.77191420747742
 11
16.32642728992966
 21
-31.35675704311759
  0
LINE
  5
39
  8
COMPONENT#1
  6
BYLAYER
 62
  256
 10
16.32642728992966
 20
-31.35675704311759
 11
16.09816873894838
 21
-31.91946690395441
  0
LINE
  5
3A
  8
COMPONENT#1
  6
BYLAYER
 62
  256
 10
16.09816873894838
 20
-31.91946690395441
 11
15.80796911956386
 21
-32.45287906587802
  0
LINE
  5
3B
  8
COMPONENT#1
  6
BYLAYER
 62
  256
 10
15.80796911956386
 20
-32.45287906587802
 11
15.45952340916011
 21
-32.95020183881343
  0
LINE
  5
3C
  8
COMPONENT#1
  6
BYLAYER
 62
  256
 10
15.45952340916011
 20
-32.95020183881343
 11
15.05726820562905
 21
-33.40510304216551
  0
LINE
  5
3D
  8
COMPONENT#1
  6
BYLAYER
 62
  256
 10
15.05726820562905
 20
-33.40510304216551
 11
14.60632523822335
 21
-33.81179062954219
  0
LINE
  5
3E
  8
COMPONENT#1
  6
BYLAYER
 62
  256
 10
14.60632523822335
 20
-33.81179062954219
 11
14.1124361549493
 21
-34.16508643619962
  0
LINE
  5
3F
  8
COMPONENT#1
  6
BYLAYER
 62
  256
 10
14.1124361549493
 20
-34.16508643619962
 11
13.58188941682165
 21
-34.46049211021607
  0
LINE
  5
40
  8
COMPONENT#1
  6
BYLAYER
 62
  256
 10
13.58188941682165
 20
-34.46049211021607
 11
13.02144022980108
 21
-34.69424638792441
  0
LINE
  5
41
  8
COMPONENT#1
  6
BYLAYER
 62
  256
 10
13.02144022980108
 20
-34.69424638792441
 11
12.43822453388429
 21
-34.86337298434043
  0
LINE
  5
42
  8
COMPONENT#1
  6
BYLAYER
 62
  256
 10
12.43822453388429
 20
-34.86337298434043
 11
11.8396681444844
 21
-34.96571848882159
  0
LINE
  5
43
  8
COMPONENT#1
  6
BYLAYER
 62
  256
 10
11.8396681444844
 20
-34.96571848882159
 11
11.23339220296144
 21
-34.99997978344795
  0
LINE
  5
44
  8
COMPONENT#1
  6
BYLAYER
 62
  256
 10
11.23339220296144
 20
-34.99997978344795
 11
9.500051763587933
 21
-34.98927537537975
  0
LINE
  5
45
  8
COMPONENT#1
  6
BYLAYER
 62
  256
 10
9.500051763587933
 20
-34.98927537537975
 11
9.50005176358799
 21
-28.99442335724648
  0
LINE
  5
46
  8
COMPONENT#1
  6
BYLAYER
 62
  256
 10
9.50005176358799
 20
-28.99442335724648
 11
3.500051763587985
 21
-28.99442335724646
  0
LINE
  5
47
  8
COMPONENT#1
  6
BYLAYER
 62
  256
 10
3.500051763587985
 20
-28.99442335724646
 11
3.500052240317435
 21
-34.99442335724644
  0
LINE
  5
48
  8
COMPONENT#1
  6
BYLAYER
 62
  256
 10
3.500052240317435
 20
-34.99442335724644
 11
-6.499948048303149
 21
-35.00000033829283
  0
LINE
  5
49
  8
COMPONENT#1
  6
BYLAYER
 62
  256
 10
-6.499948048303149
 20
-35.00000033829283
 11
-6.499948048303115
 21
-33.00000033829284
  0
LINE
  5
4A
  8
COMPONENT#1
  6
BYLAYER
 62
  256
 10
-6.499948048303115
 20
-33.00000033829284
 11
-10.09994804830309
 21
-33.00000033829286
  0
LINE
  5
4B
  8
COMPONENT#1
  6
BYLAYER
 62
  256
 10
-10.09994804830309
 20
-33.00000033829286
 11
-10.09994804830312
 21
-35.00475616926392
  0
LINE
  5
4C
  8
COMPONENT#1
  6
BYLAYER
 62
  256
 10
-10.09994804830312
 20
-35.00475616926392
 11
-11.23314440526964
 21
-35.00001954884758
  0
LINE
  5
4D
  8
COMPONENT#1
  6
BYLAYER
 62
  256
 10
-11.23314440526964
 20
-35.00001954884758
 11
-11.83942046807265
 21
-34.96576040041823
  0
LINE
  5
4E
  8
COMPONENT#1
  6
BYLAYER
 62
  256
 10
-11.83942046807265
 20
-34.96576040041823
 11
-12.43797721976849
 21
-34.86341701480769
  0
LINE
  5
4F
  8
COMPONENT#1
  6
BYLAYER
 62
  256
 10
-12.43797721976849
 20
-34.86341701480769
 11
-13.02119351438425
 21
-34.69429248295697
  0
LINE
  5
50
  8
COMPONENT#1
  6
BYLAYER
 62
  256
 10
-13.02119351438425
 20
-34.69429248295697
 11
-13.58164352888377
 21
-34.46054018922178
  0
LINE
  5
51
  8
COMPONENT#1
  6
BYLAYER
 62
  256
 10
-13.58164352888377
 20
-34.46054018922178
 11
-14.11219131273437
 21
-34.16513639332524
  0
LINE
  5
52
  8
COMPONENT#1
  6
BYLAYER
 62
  256
 10
-14.11219131273437
 20
-34.16513639332524
 11
-14.60608164666085
 21
-33.81184233502098
  0
LINE
  5
53
  8
COMPONENT#1
  6
BYLAYER
 62
  256
 10
-14.60608164666085
 20
-33.81184233502098
 11
-15.05702605372442
 21
-33.40515634397009
  0
LINE
  5
54
  8
COMPONENT#1
  6
BYLAYER
 62
  256
 10
-15.05702605372442
 20
-33.40515634397009
 11
-15.45928286758824
 21
-32.95025656459114
  0
LINE
  5
55
  8
COMPONENT#1
  6
BYLAYER
 62
  256
 10
-15.45928286758824
 20
-32.95025656459114
 11
-15.80773033849596
 21
-32.45293502514497
  0
LINE
  5
56
  8
COMPONENT#1
  6
BYLAYER
 62
  256
 10
-15.80773033849596
 20
-32.45293502514497
 11
-16.09793184614019
 21
-31.91952389052177
  0
LINE
  5
57
  8
COMPONENT#1
  6
BYLAYER
 62
  256
 10
-16.09793184614019
 20
-31.91952389052177
 11
-16.32619238909435
 21
-31.35681483771641
  0
LINE
  5
58
  8
COMPONENT#1
  6
BYLAYER
 62
  256
 10
-16.32619238909435
 20
-31.35681483771641
 11
-16.48960563155526
 21
-30.77197258054999
  0
LINE
  5
59
  8
COMPONENT#1
  6
BYLAYER
 62
  256
 10
-16.48960563155526
 20
-30.77197258054999
 11
-17.53390889290345
 21
-26.23753903981264
  0
LINE
  5
5A
  8
COMPONENT#1
  6
BYLAYER
 62
  256
 10
-17.53390889290345
 20
-26.23753903981264
 11
-18.171490028911
 21
-23.05003216326894
  0
LINE
  5
5B
  8
COMPONENT#1
  6
BYLAYER
 62
  256
 10
-18.171490028911
 20
-23.05003216326894
 11
-12.49996495430671
 21
-23.05002212476301
  0
LINE
  5
5C
  8
COMPONENT#1
  6
BYLAYER
 62
  256
 10
-12.49996495430671
 20
-23.05002212476301
 11
-11.65880305772354
 21
-22.93928106020251
  0
LINE
  5
5D
  8
COMPONENT#1
  6
BYLAYER
 62
  256
 10
-11.65880305772354
 20
-22.93928106020251
 11
-11.32265063027845
 21
-22.80004216573008
  0
LINE
  5
5E
  8
COMPONENT#1
  6
BYLAYER
 62
  256
 10
-11.32265063027845
 20
-22.80004216573008
 11
-10.87496495430675
 21
-22.61460468706245
  0
LINE
  5
5F
  8
COMPONENT#1
  6
BYLAYER
 62
  256
 10
-10.87496495430675
 20
-22.61460468706245
 11
-10.20186791545045
 21
-22.09811916361931
  0
LINE
  5
60
  8
COMPONENT#1
  6
BYLAYER
 62
  256
 10
-10.20186791545045
 20
-22.09811916361931
 11
-9.68538239200732
 21
-21.42502212476304
  0
LINE
  5
61
  8
COMPONENT#1
  6
BYLAYER
 62
  256
 10
-9.68538239200732
 20
-21.42502212476304
 11
-9.360706018867246
 21
-20.64118402134623
  0
LINE
  5
62
  8
COMPONENT#1
  6
BYLAYER
 62
  256
 10
-9.360706018867246
 20
-20.64118402134623
 11
-9.249964954306716
 21
-19.80002212476301
  0
LINE
  5
63
  8
COMPONENT#1
  6
BYLAYER
 62
  256
 10
-9.249964954306716
 20
-19.80002212476301
 11
-9.360706018867253
 21
-18.95886022817982
  0
LINE
  5
64
  8
COMPONENT#1
  6
BYLAYER
 62
  256
 10
-9.360706018867253
 20
-18.95886022817982
 11
-9.685382392007302
 21
-18.17502212476301
  0
LINE
  5
65
  8
COMPONENT#1
  6
BYLAYER
 62
  256
 10
-9.685382392007302
 20
-18.17502212476301
 11
-10.20186791545045
 21
-17.50192508590672
  0
LINE
  5
66
  8
COMPONENT#1
  6
BYLAYER
 62
  256
 10
-10.20186791545045
 20
-17.50192508590672
 11
-10.87496495430676
 21
-16.98543956246358
  0
LINE
  5
67
  8
COMPONENT#1
  6
BYLAYER
 62
  256
 10
-10.87496495430676
 20
-16.98543956246358
 11
-11.32255386434294
 21
-16.80004216555879
  0
LINE
  5
68
  8
COMPONENT#1
  6
BYLAYER
 62
  256
 10
-11.32255386434294
 20
-16.80004216555879
 11
-11.65880305772355
 21
-16.66076318932356
  0
LINE
  5
69
  8
COMPONENT#1
  6
BYLAYER
 62
  256
 10
-11.65880305772355
 20
-16.66076318932356
 11
-12.49996495430674
 21
-16.55002212476303
  0
LINE
  5
6A
  8
COMPONENT#1
  6
BYLAYER
 62
  256
 10
-12.49996495430674
 20
-16.55002212476303
 11
-19.30233021309422
 21
-16.55003416483746
  0
LINE
  5
6B
  8
COMPONENT#1
  6
BYLAYER
 62
  256
 10
-19.30233021309422
 20
-16.55003416483746
 11
-19.87403972250072
 21
-12.47963475340142
  0
LINE
  5
6C
  8
COMPONENT#1
  6
BYLAYER
 62
  256
 10
-19.87403972250072
 20
-12.47963475340142
 11
-20.38764630885604
 21
-7.854933129352743
  0
LINE
  5
6D
  8
COMPONENT#1
  6
BYLAYER
 62
  256
 10
-20.38764630885604
 20
-7.854933129352743
 11
-20.76722442487941
 21
-3.217306873296447
  0
LINE
  5
6E
  8
COMPONENT#1
  6
BYLAYER
 62
  256
 10
-20.76722442487941
 20
-3.217306873296447
 11
-21.01245621922756
 21
1.429360556600771
  0
LINE
  5
6F
  8
COMPONENT#1
  6
BYLAYER
 62
  256
 10
-21.01245621922756
 20
1.429360556600771
 11
-21.1231363395582
 21
6.081178131268784
  0
LINE
  5
70
  8
COMPONENT#1
  6
BYLAYER
 62
  256
 10
-21.1231363395582
 20
6.081178131268784
 11
-21.0991721044879
 21
10.73425050900634
  0
LINE
  5
71
  8
COMPONENT#1
  6
BYLAYER
 62
  256
 10
-21.0991721044879
 20
10.73425050900634
 11
-20.94058358120171
 21
15.38468129736435
  0
LINE
  5
72
  8
COMPONENT#1
  6
BYLAYER
 62
  256
 10
-20.94058358120171
 20
15.38468129736435
 11
-20.84179736584388
 21
16.94996311036209
  0
LINE
  5
73
  8
COMPONENT#1
  6
BYLAYER
 62
  256
 10
-20.84179736584388
 20
16.94996311036209
 11
-14.99999999997652
 21
16.94997345024716
  0
LINE
  5
74
  8
COMPONENT#1
  6
BYLAYER
 62
  256
 10
-14.99999999997652
 20
16.94997345024716
 11
-14.15883810339331
 21
17.0607145148077
  0
LINE
  5
75
  8
COMPONENT#1
  6
BYLAYER
 62
  256
 10
-14.15883810339331
 20
17.0607145148077
 11
-13.82268567587177
 21
17.19995340931176
  0
LINE
  5
76
  8
COMPONENT#1
  6
BYLAYER
 62
  256
 10
-13.82268567587177
 20
17.19995340931176
 11
-13.3749999999765
 21
17.38539088794774
  0
LINE
  5
77
  8
COMPONENT#1
  6
BYLAYER
 62
  256
 10
-13.3749999999765
 20
17.38539088794774
 11
-12.70190296112023
 21
17.90187641139089
  0
LINE
  5
78
  8
COMPONENT#1
  6
BYLAYER
 62
  256
 10
-12.70190296112023
 20
17.90187641139089
 11
-12.1854174376771
 21
18.57497345024716
  0
LINE
  5
79
  8
COMPONENT#1
  6
BYLAYER
 62
  256
 10
-12.1854174376771
 20
18.57497345024716
 11
-11.86074106453704
 21
19.35881155366397
  0
LINE
  5
7A
  8
COMPONENT#1
  6
BYLAYER
 62
  256
 10
-11.86074106453704
 20
19.35881155366397
 11
-11.74999999997651
 21
20.19997345024717
  0
LINE
  5
7B
  8
COMPONENT#1
  6
BYLAYER
 62
  256
 10
-11.74999999997651
 20
20.19997345024717
 11
-11.86074106453705
 21
21.04113534683036
  0
LINE
  5
7C
  8
COMPONENT#1
  6
BYLAYER
 62
  256
 10
-11.86074106453705
 20
21.04113534683036
 11
-12.18541743767709
 21
21.82497345024716
  0
LINE
  5
7D
  8
COMPONENT#1
  6
BYLAYER
 62
  256
 10
-12.18541743767709
 20
21.82497345024716
 11
-12.70190296112022
 21
22.49807048910345
  0
LINE
  5
7E
  8
COMPONENT#1
  6
BYLAYER
 62
  256
 10
-12.70190296112022
 20
22.49807048910345
 11
-13.37499999997651
 21
23.0145560125466
  0
LINE
  5
7F
  8
COMPONENT#1
  6
BYLAYER
 62
  256
 10
-13.37499999997651
 20
23.0145560125466
 11
-13.82258891008914
 21
23.19995340948303
  0
LINE
  5
80
  8
COMPONENT#1
  6
BYLAYER
 62
  256
 10
-13.82258891008914
 20
23.19995340948303
 11
-14.15883810339331
 21
23.33923238568664
  0
LINE
  5
81
  8
COMPONENT#1
  6
BYLAYER
 62
  256
 10
-14.15883810339331
 20
23.33923238568664
 11
-14.99999999997649
 21
23.44997345024717
  0
LINE
  5
82
  8
COMPONENT#1
  6
BYLAYER
 62
  256
 10
-14.99999999997649
 20
23.44997345024717
 11
-20.33196294147985
 21
23.44996401276063
  0
LINE
  5
83
  8
COMPONENT#1
  6
BYLAYER
 62
  256
 10
-20.33196294147985
 20
23.44996401276063
 11
-20.22017748634196
 21
24.66204685713528
  0
LINE
  5
84
  8
COMPONENT#1
  6
BYLAYER
 62
  256
 10
-20.22017748634196
 20
24.66204685713528
 11
-20.05493991668402
 21
26.09893976980169
  0
LINE
  5
85
  8
COMPONENT#1
  6
BYLAYER
 62
  256
 10
-20.05493991668402
 20
26.09893976980169
 11
-19.70072585190994
 21
27.50125824048284
  0
LINE
  5
86
  8
COMPONENT#1
  6
BYLAYER
 62
  256
 10
-19.70072585190994
 20
27.50125824048284
 11
-19.16378451714214
 21
28.8442618517643
  0
LINE
  5
87
  8
COMPONENT#1
  6
BYLAYER
 62
  256
 10
-19.16378451714214
 20
28.8442618517643
 11
-18.45358890516152
 21
30.10425664922212
  0
LINE
  5
88
  8
COMPONENT#1
  6
BYLAYER
 62
  256
 10
-18.45358890516152
 20
30.10425664922212
 11
-17.58266864903904
 21
31.2590131622468
  0
LINE
  5
89
  8
COMPONENT#1
  6
BYLAYER
 62
  256
 10
-17.58266864903904
 20
31.2590131622468
 11
-16.56638896796115
 21
32.28815858769723
  0
LINE
  5
8A
  8
COMPONENT#1
  6
BYLAYER
 62
  256
 10
-16.56638896796115
 20
32.28815858769723
 11
-15.42267958619902
 21
33.17353621728056
  0
LINE
  5
8B
  8
COMPONENT#1
  6
BYLAYER
 62
  256
 10
-15.42267958619902
 20
33.17353621728056
 11
-14.17171840777178
 21
33.89952576745687
  0
LINE
  5
8C
  8
COMPONENT#1
  6
BYLAYER
 62
  256
 10
-14.17171840777178
 20
33.89952576745687
 11
-12.83557552757626
 21
34.45331896044517
  0
LINE
  5
8D
  8
COMPONENT#1
  6
BYLAYER
 62
  256
 10
-12.83557552757626
 20
34.45331896044517
 11
-11.43782385952078
 21
34.82514549439016
  0
LINE
  5
8E
  8
COMPONENT#1
  6
BYLAYER
 62
  256
 10
-11.43782385952078
 20
34.82514549439016
 11
-10.00312325115964
 21
35.00844541600889
  0
LINE
  5
8F
  8
COMPONENT#1
  6
BYLAYER
 62
  256
 10
-10.00312325115964
 20
35.00844541600889
 11
-8.55678542208976
 21
34.99998485463084
  0
LINE
  5
90
  8
COMPONENT#1
  6
BYLAYER
 62
  256
 10
-8.55678542208976
 20
34.99998485463084
 11
-1.127986593019159e-014
 21
34.99999999999998
  0
LINE
  5
91
  8
COMPONENT#1
  6
BYLAYER
 62
  256
 10
-1.127986593019159e-014
 20
34.99999999999998
 11
8.556785422089803
 21
35.00001514536917
  0
LINE
  5
92
  8
COMPONENT#1
  6
BYLAYER
 62
  256
 10
8.556785422089803
 20
35.00001514536917
 11
10.00312322120054
 21
35.00848082673544
  0
LINE
  5
93
  8
COMPONENT#1
  6
BYLAYER
 62
  256
 10
10.00312322120054
 20
35.00848082673544
 11
11.43782447842838
 21
34.82518598391074
  0
LINE
  5
94
  8
COMPONENT#1
  6
BYLAYER
 62
  256
 10
11.43782447842838
 20
34.82518598391074
 11
12.83557746272872
 21
34.45336439796291
  0
LINE
  5
95
  8
COMPONENT#1
  6
BYLAYER
 62
  256
 10
12.83557746272872
 20
34.45336439796291
 11
14.17172230332549
 21
33.89957593487986
  0
LINE
  5
96
  8
COMPONENT#1
  6
BYLAYER
 62
  256
 10
14.17172230332549
 20
33.89957593487986
 11
15.42268605172398
 21
33.17359081306944
  0
LINE
  5
97
  8
COMPONENT#1
  6
BYLAYER
 62
  256
 10
15.42268605172398
 20
33.17359081306944
 11
16.56639856768662
 21
32.28821723218521
  0
LINE
  5
98
  8
COMPONENT#1
  6
BYLAYER
 62
  256
 10
16.56639856768662
 20
32.28821723218521
 11
17.5826818918991
 21
31.25907540433776
  0
LINE
  5
99
  8
COMPONENT#1
  6
BYLAYER
 62
  256
 10
17.5826818918991
 20
31.25907540433776
 11
18.45360623581608
 21
30.10432197434937
  0
LINE
  5
9A
  8
COMPONENT#1
  6
BYLAYER
 62
  256
 10
18.45360623581608
 20
30.10432197434937
 11
19.16380630813228
 21
28.84432969096845
  0
LINE
  5
9B
  8
COMPONENT#1
  6
BYLAYER
 62
  256
 10
19.16380630813228
 20
28.84432969096845
 11
19.70075239708527
 21
27.50132798045002
  0
LINE
  5
9C
  8
COMPONENT#1
  6
BYLAYER
 62
  256
 10
19.70075239708527
 20
27.50132798045002
 11
20.05497142601831
 21
26.09901076368375
  0
LINE
  5
9D
  8
COMPONENT#1
  6
BYLAYER
 62
  256
 10
20.05497142601831
 20
26.09901076368375
 11
20.22021408222872
 21
24.66211843596194
  0
LINE
  5
9E
  8
COMPONENT#1
  6
BYLAYER
 62
  256
 10
20.22021408222872
 20
24.66211843596194
 11
20.33200382809917
 21
23.45003598731171
  0
LINE
  5
9F
  8
COMPONENT#1
  6
BYLAYER
 62
  256
 10
20.33200382809917
 20
23.45003598731171
 11
14.9999999999765
 21
23.4500265497528
  0
LINE
  5
A0
  8
COMPONENT#1
  6
BYLAYER
 62
  256
 10
14.9999999999765
 20
23.4500265497528
 11
14.15883810339329
 21
23.33928548519227
  0
LINE
  5
A1
  8
COMPONENT#1
  6
BYLAYER
 62
  256
 10
14.15883810339329
 20
23.33928548519227
 11
13.37499999997647
 21
23.01460911205222
  0
LINE
  5
A2
  8
COMPONENT#1
  6
BYLAYER
 62
  256
 10
13.37499999997647
 20
23.01460911205222
 11
12.70190296112019
 21
22.49812358860907
  0
LINE
  5
A3
  8
COMPONENT#1
  6
BYLAYER
 62
  256
 10
12.70190296112019
 20
22.49812358860907
 11
12.18541743767706
 21
21.8250265497528
  0
LINE
  5
A4
  8
COMPONENT#1
  6
BYLAYER
 62
  256
 10
12.18541743767706
 20
21.8250265497528
 11
11.86074106453703
 21
21.04118844633599
  0
LINE
  5
A5
  8
COMPONENT#1
  6
BYLAYER
 62
  256
 10
11.86074106453703
 20
21.04118844633599
 11
11.74999999997648
 21
20.2000265497528
  0
LINE
  5
A6
  8
COMPONENT#1
  6
BYLAYER
 62
  256
 10
11.74999999997648
 20
20.2000265497528
 11
11.86074106453702
 21
19.3588646531696
  0
LINE
  5
A7
  8
COMPONENT#1
  6
BYLAYER
 62
  256
 10
11.86074106453702
 20
19.3588646531696
 11
12.1854174376771
 21
18.57502654975279
  0
LINE
  5
A8
  8
COMPONENT#1
  6
BYLAYER
 62
  256
 10
12.1854174376771
 20
18.57502654975279
 11
12.70190296112021
 21
17.90192951089652
  0
LINE
  5
A9
  8
COMPONENT#1
  6
BYLAYER
 62
  256
 10
12.70190296112021
 20
17.90192951089652
 11
13.37499999997649
 21
17.38544398745337
  0
LINE
  5
AA
  8
COMPONENT#1
  6
BYLAYER
 62
  256
 10
13.37499999997649
 20
17.38544398745337
 11
14.15883810339329
 21
17.06076761431331
  0
LINE
  5
AB
  8
COMPONENT#1
  6
BYLAYER
 62
  256
 10
14.15883810339329
 20
17.06076761431331
 11
14.99999999997648
 21
16.95002654975279
  0
LINE
  5
AC
  8
COMPONENT#1
  6
BYLAYER
 62
  256
 10
14.99999999997648
 20
16.95002654975279
 11
20.82608450988351
 21
16.95003686182636
  0
LINE
  5
AD
  8
COMPONENT#1
  6
BYLAYER
 62
  256
 10
20.82608450988351
 20
16.95003686182636
 11
20.94065301865226
 21
15.38475542646299
  0
LINE
  5
AE
  8
COMPONENT#1
  6
BYLAYER
 62
  256
 10
20.94065301865226
 20
15.38475542646299
 11
21.0992580043092
 21
10.73432519953223
  0
LINE
  5
AF
  8
COMPONENT#1
  6
BYLAYER
 62
  256
 10
21.0992580043092
 20
10.73432519953223
 11
21.12323871110216
 21
6.081252906656453
  0
LINE
  5
B0
  8
COMPONENT#1
  6
BYLAYER
 62
  256
 10
21.12323871110216
 20
6.081252906656453
 11
21.01257505805313
 21
1.429434940213615
  0
LINE
  5
B1
  8
COMPONENT#1
  6
BYLAYER
 62
  256
 10
21.01257505805313
 20
1.429434940213615
 11
20.76735971275611
 21
-3.217233357766936
  0
LINE
  5
B2
  8
COMPONENT#1
  6
BYLAYER
 62
  256
 10
20.76735971275611
 20
-3.217233357766936
 11
20.38779801377917
 21
-7.854860957488188
  0
LINE
  5
B3
  8
COMPONENT#1
  6
BYLAYER
 62
  256
 10
20.38779801377917
 20
-7.854860957488188
 11
19.87420779871839
 21
-12.47956439965832
  0
LINE
  5
B4
  8
COMPONENT#1
  6
BYLAYER
 62
  256
 10
19.87420779871839
 20
-12.47956439965832
 11
19.30251269839525
 21
-16.54996583490168
  0
LINE
  5
B5
  8
COMPONENT#1
  6
BYLAYER
 62
  256
 10
19.30251269839525
 20
-16.54996583490168
 11
12.50003504565411
 21
-16.54997787517501
  0
LINE
  5
B6
  8
COMPONENT#1
  6
BYLAYER
 62
  256
 10
12.50003504565411
 20
-16.54997787517501
 11
11.65887314907095
 21
-16.66071893973551
  0
LINE
  5
B7
  8
COMPONENT#1
  6
BYLAYER
 62
  256
 10
11.65887314907095
 20
-16.66071893973551
 11
10.8750350456541
 21
-16.98539531287559
  0
LINE
  5
B8
  8
COMPONENT#1
  6
BYLAYER
 62
  256
 10
10.8750350456541
 20
-16.98539531287559
 11
10.20193800679783
 21
-17.50188083631872
  0
LINE
  5
B9
  8
COMPONENT#1
  6
BYLAYER
 62
  256
 10
10.20193800679783
 20
-17.50188083631872
 11
9.685452483354691
 21
-18.174977875175
  0
LINE
  5
BA
  8
COMPONENT#1
  6
BYLAYER
 62
  256
 10
9.685452483354691
 20
-18.174977875175
 11
9.360776110214681
 21
-18.9588159785918
  0
LINE
  5
BB
  8
COMPONENT#1
  6
BYLAYER
 62
  256
 10
9.360776110214681
 20
-18.9588159785918
 11
9.250035045654135
 21
-19.79997787517499
  0
LINE
  5
BC
  8
COMPONENT#1
  6
BYLAYER
 62
  256
 10
9.250035045654135
 20
-19.79997787517499
 11
9.360776110214648
 21
-20.64113977175821
  0
LINE
  5
BD
  8
COMPONENT#1
  6
BYLAYER
 62
  256
 10
9.360776110214648
 20
-20.64113977175821
 11
9.685452483354696
 21
-21.42497787517503
  0
LINE
  5
BE
  8
COMPONENT#1
  6
BYLAYER
 62
  256
 10
9.685452483354696
 20
-21.42497787517503
 11
10.20193800679784
 21
-22.0980749140313
  0
LINE
  5
BF
  8
COMPONENT#1
  6
BYLAYER
 62
  256
 10
10.20193800679784
 20
-22.0980749140313
 11
10.87503504565412
 21
-22.61456043747444
  0
LINE
  5
C0
  8
COMPONENT#1
  6
BYLAYER
 62
  256
 10
10.87503504565412
 20
-22.61456043747444
 11
11.65887314907093
 21
-22.93923681061447
  0
ENDSEC
  0
EOF
