 0
SECTION
 2
ENTITIES
  0
POLYLINE
 8
Layer0
 66
     1
70
    8
 10
0.0
 20
 0.0
 30
0.0
  0
VERTEX
  8
MY3DLAYER
10
12.433470162734332
20
-37.761581703979246
30
0.0
 70
     32
  0
VERTEX
  8
MY3DLAYER
10
3.524958103184872e-15
20
-37.749999901099265
30
0.0
 70
     32
  0
VERTEX
  8
MY3DLAYER
10
-0.13972518529044947
20
-37.74986974680342
30
0.0
 70
     32
  0
VERTEX
  8
MY3DLAYER
10
-12.573195348024834
20
-37.73828794392347
30
0.0
 70
     32
  0
VERTEX
  8
MY3DLAYER
10
-13.507909461918896
20
-37.52069771018488
30
0.0
 70
     32
  0
VERTEX
  8
MY3DLAYER
10
-14.416727191605498
20
-37.21233701434572
30
0.0
 70
     32
  0
VERTEX
  8
MY3DLAYER
10
-15.2908568342893
20
-36.816188869944455
30
0.0
 70
     32
  0
VERTEX
  8
MY3DLAYER
10
-16.12184225209798
20
-36.33608552698534
30
0.0
 70
     32
  0
VERTEX
  8
MY3DLAYER
10
-16.90164467489962
20
-35.776671399595116
30
0.0
 70
     32
  0
VERTEX
  8
MY3DLAYER
10
-17.62272046559699
20
-35.143358136982236
30
0.0
 70
     32
  0
VERTEX
  8
MY3DLAYER
10
-18.27809409561299
20
-34.44227227233317
30
0.0
 70
     32
  0
VERTEX
  8
MY3DLAYER
10
-18.861425624619816
20
-33.68019595607752
30
0.0
 70
     32
  0
VERTEX
  8
MY3DLAYER
10
-19.36707203172721
20
-32.86450134685755
30
0.0
 70
     32
  0
VERTEX
  8
MY3DLAYER
10
-19.79014180482466
20
-32.00307929488628
30
0.0
 70
     32
  0
VERTEX
  8
MY3DLAYER
10
-20.12654225999422
20
-31.10426300759906
30
0.0
 70
     32
  0
VERTEX
  8
MY3DLAYER
10
-20.37301913323384
20
-30.176747436037502
30
0.0
 70
     32
  0
VERTEX
  8
MY3DLAYER
10
-19.20991133045631
20
-30.177830873334017
30
0.0
 70
     32
  0
VERTEX
  8
MY3DLAYER
10
-19.788044482668454
20
-27.73572036407491
30
0.0
 70
     32
  0
VERTEX
  8
MY3DLAYER
10
-20.330884663521807
20
-25.28552318442354
30
0.0
 70
     32
  0
VERTEX
  8
MY3DLAYER
10
-20.83831887825796
20
-22.827749354544984
30
0.0
 70
     32
  0
VERTEX
  8
MY3DLAYER
10
-21.310241502038107
20
-20.362910471720095
30
0.0
 70
     32
  0
VERTEX
  8
MY3DLAYER
10
-21.746554301929592
20
-17.891519603854142
30
0.0
 70
     32
  0
VERTEX
  8
MY3DLAYER
10
-22.147166457353546
20
-15.414091182678833
30
0.0
 70
     32
  0
VERTEX
  8
MY3DLAYER
10
-22.51199457898954
20
-12.931140896671428
30
0.0
 70
     32
  0
VERTEX
  8
MY3DLAYER
10
-22.840962726133576
20
-10.44318558371158
30
0.0
 70
     32
  0
VERTEX
  8
MY3DLAYER
10
-23.134002422505365
20
-7.950743123498888
30
0.0
 70
     32
  0
VERTEX
  8
MY3DLAYER
10
-23.391052670502148
20
-5.454332329754078
30
0.0
 70
     32
  0
VERTEX
  8
MY3DLAYER
10
-23.612059963895483
20
-2.9544728422253272
30
0.0
 70
     32
  0
VERTEX
  8
MY3DLAYER
10
-23.796978298968938
20
-0.45168501852264914
30
0.0
 70
     32
  0
VERTEX
  8
MY3DLAYER
10
-23.85909595630929
20
1.5304124301876132
30
0.0
 70
     32
  0
VERTEX
  8
MY3DLAYER
10
-23.896008909946374
20
3.513139424352743
30
0.0
 70
     32
  0
VERTEX
  8
MY3DLAYER
10
-23.90771119314847
20
5.4961754694374285
30
0.0
 70
     32
  0
VERTEX
  8
MY3DLAYER
10
-23.89420091431996
20
7.479200020950371
30
0.0
 70
     32
  0
VERTEX
  8
MY3DLAYER
10
-23.855480257306876
20
9.461892536258171
30
0.0
 70
     32
  0
VERTEX
  8
MY3DLAYER
10
-23.791555481043915
20
11.443932526398923
30
0.0
 70
     32
  0
VERTEX
  8
MY3DLAYER
10
-23.70243691854313
20
13.424999607886805
30
0.0
 70
     32
  0
VERTEX
  8
MY3DLAYER
10
-23.588138975222897
20
15.40477355450042
30
0.0
 70
     32
  0
VERTEX
  8
MY3DLAYER
10
-23.448680126580097
20
17.38293434904476
30
0.0
 70
     32
  0
VERTEX
  8
MY3DLAYER
10
-23.284082915203218
20
19.35916223508028
30
0.0
 70
     32
  0
VERTEX
  8
MY3DLAYER
10
-23.09437394712883
20
21.3331377686088
30
0.0
 70
     32
  0
VERTEX
  8
MY3DLAYER
10
-22.879583887540683
20
23.30454186971018
30
0.0
 70
     32
  0
VERTEX
  8
MY3DLAYER
10
-23.844963363846002
20
23.305441122666338
30
0.0
 70
     32
  0
VERTEX
  8
MY3DLAYER
10
-23.600544864706695
20
24.951767792288283
30
0.0
 70
     32
  0
VERTEX
  8
MY3DLAYER
10
-23.17989223915972
20
26.56210417778372
30
0.0
 70
     32
  0
VERTEX
  8
MY3DLAYER
10
-22.587918501408147
20
28.117642348206523
30
0.0
 70
     32
  0
VERTEX
  8
MY3DLAYER
10
-21.83153761134364
20
29.600214388606336
30
0.0
 70
     32
  0
VERTEX
  8
MY3DLAYER
10
-20.919583722921537
20
30.992504592271423
30
0.0
 70
     32
  0
VERTEX
  8
MY3DLAYER
10
-19.862708005620377
20
32.27825169960207
30
0.0
 70
     32
  0
VERTEX
  8
MY3DLAYER
10
-18.673254244060974
20
33.44243882156407
30
0.0
 70
     32
  0
VERTEX
  8
MY3DLAYER
10
-17.365114668719137
20
34.47146882951062
30
0.0
 70
     32
  0
VERTEX
  8
MY3DLAYER
10
-15.953567701558427
20
35.353323162906676
30
0.0
 70
     32
  0
VERTEX
  8
MY3DLAYER
10
-14.455099511633108
20
36.07770220015991
30
0.0
 70
     32
  0
VERTEX
  8
MY3DLAYER
10
-12.88721146480364
20
36.636145553096654
30
0.0
 70
     32
  0
VERTEX
  8
MY3DLAYER
10
-11.26821571645663
20
37.02213088010309
30
0.0
 70
     32
  0
VERTEX
  8
MY3DLAYER
10
0.0
20
37.24999999999999
30
0.0
 70
     32
  0
VERTEX
  8
MY3DLAYER
10
11.267771640966908
20
37.00113856179901
30
0.0
 70
     32
  0
VERTEX
  8
MY3DLAYER
10
12.886045488105145
20
36.61213771154494
30
0.0
 70
     32
  0
VERTEX
  8
MY3DLAYER
10
14.452890432688875
20
36.05077434841692
30
0.0
 70
     32
  0
VERTEX
  8
MY3DLAYER
10
15.950006502248803
20
35.32360491830075
30
0.0
 70
     32
  0
VERTEX
  8
MY3DLAYER
10
17.359908123020205
20
34.439122399775854
30
0.0
 70
     32
  0
VERTEX
  8
MY3DLAYER
10
18.6661283427793
20
33.40765711033442
30
0.0
 70
     32
  0
VERTEX
  8
MY3DLAYER
10
19.85341115668455
20
32.241256053392526
30
0.0
 70
     32
  0
VERTEX
  8
MY3DLAYER
10
20.907889689852915
20
30.95354221526036
30
0.0
 70
     32
  0
VERTEX
  8
MY3DLAYER
10
21.817248155586242
20
29.55955545541323
30
0.0
 70
     32
  0
VERTEX
  8
MY3DLAYER
10
22.57086569765678
20
28.075576848386326
30
0.0
 70
     32
  0
VERTEX
  8
MY3DLAYER
10
23.159940436644366
20
26.51893852889247
30
0.0
 70
     32
  0
VERTEX
  8
MY3DLAYER
10
23.5775922715262
20
24.907821261078052
30
0.0
 70
     32
  0
VERTEX
  8
MY3DLAYER
10
23.818943235847037
20
23.26104209620759
30
0.0
 70
     32
  0
VERTEX
  8
MY3DLAYER
10
22.853563759541714
20
23.261941349163717
30
0.0
 70
     32
  0
VERTEX
  8
MY3DLAYER
10
23.064680715669592
20
21.290140514806325
30
0.0
 70
     32
  0
VERTEX
  8
MY3DLAYER
10
23.250711833224237
20
19.31581497861976
30
0.0
 70
     32
  0
VERTEX
  8
MY3DLAYER
10
23.411627041521744
20
17.33928387709971
30
0.0
 70
     32
  0
VERTEX
  8
MY3DLAYER
10
23.547400329696778
20
15.360866703257111
30
0.0
 70
     32
  0
VERTEX
  8
MY3DLAYER
10
23.658009750906906
20
13.380883254973636
30
0.0
 70
     32
  0
VERTEX
  8
MY3DLAYER
10
23.743437425880238
20
11.399653583308599
30
0.0
 70
     32
  0
VERTEX
  8
MY3DLAYER
10
23.803669545805526
20
9.417497940765164
30
0.0
 70
     32
  0
VERTEX
  8
MY3DLAYER
10
23.838696374563934
20
7.434736729523584
30
0.0
 70
     32
  0
VERTEX
  8
MY3DLAYER
10
23.84851225030335
20
5.451690449649952
30
0.0
 70
     32
  0
VERTEX
  8
MY3DLAYER
10
23.833115586353244
20
3.4686796472899184
30
0.0
 70
     32
  0
VERTEX
  8
MY3DLAYER
10
23.792508871481147
20
1.4860248628545114
30
0.0
 70
     32
  0
VERTEX
  8
MY3DLAYER
10
23.72669866949054
20
-0.4959534207931599
30
0.0
 70
     32
  0
VERTEX
  8
MY3DLAYER
10
23.537117955417653
20
-2.998392397865803
30
0.0
 70
     32
  0
VERTEX
  8
MY3DLAYER
10
23.311453801150897
20
-5.497835810027766
30
0.0
 70
     32
  0
VERTEX
  8
MY3DLAYER
10
23.049753179754337
20
-7.993763386277014
30
0.0
 70
     32
  0
VERTEX
  8
MY3DLAYER
10
22.752070565453728
20
-10.485655587449413
30
0.0
 70
     32
  0
VERTEX
  8
MY3DLAYER
10
22.41846792229718
20
-12.972993714363334
30
0.0
 70
     32
  0
VERTEX
  8
MY3DLAYER
10
22.049014691257337
20
-15.455260015789218
30
0.0
 70
     32
  0
VERTEX
  8
MY3DLAYER
10
21.643787775776648
20
-17.93193779622231
30
0.0
 70
     32
  0
VERTEX
  8
MY3DLAYER
10
21.202871525759694
20
-20.402511523434573
30
0.0
 70
     32
  0
VERTEX
  8
MY3DLAYER
10
20.726357720015415
20
-22.866466935786004
30
0.0
 70
     32
  0
VERTEX
  8
MY3DLAYER
10
20.214345547152725
20
-25.323291149269984
30
0.0
 70
     32
  0
VERTEX
  8
MY3DLAYER
10
19.66694158493409
20
-27.77247276427277
30
0.0
 70
     32
  0
VERTEX
  8
MY3DLAYER
10
19.08425977809068
20
-30.213501972023966
30
0.0
 70
     32
  0
VERTEX
  8
MY3DLAYER
10
20.247367580868218
20
-30.214585409320538
30
0.0
 70
     32
  0
VERTEX
  8
MY3DLAYER
10
19.999163171558685
20
-31.141640184255923
30
0.0
 70
     32
  0
VERTEX
  8
MY3DLAYER
10
19.661088803209346
20
-32.03982819686595
30
0.0
 70
     32
  0
VERTEX
  8
MY3DLAYER
10
19.236414932890117
20
-32.90046057389985
30
0.0
 70
     32
  0
VERTEX
  8
MY3DLAYER
10
18.729249762202564
20
-33.7152117470642
30
0.0
 70
     32
  0
VERTEX
  8
MY3DLAYER
10
18.14449949544195
20
-34.476199992738565
30
0.0
 70
     32
  0
VERTEX
  8
MY3DLAYER
10
17.48782087805559
20
-35.17606367803646
30
0.0
 70
     32
  0
VERTEX
  8
MY3DLAYER
10
16.765566474531994
20
-35.80803247562214
30
0.0
 70
     32
  0
VERTEX
  8
MY3DLAYER
10
15.984723215089339
20
-36.365992858368195
30
0.0
 70
     32
  0
VERTEX
  8
MY3DLAYER
10
15.152844805649798
20
-36.8445472402721
30
0.0
 70
     32
  0
VERTEX
  8
MY3DLAYER
10
14.277978654949635
20
-37.2390661915155
30
0.0
 70
     32
  0
VERTEX
  8
MY3DLAYER
10
13.368588025677843
20
-37.54573322255053
30
0.0
 70
     32
  0
VERTEX
  8
MY3DLAYER
10
12.433470162734332
20
-37.761581703979246
30
0.0
 70
     32
  0
SEQEND
 0
ENDSEC
 0
EOF
