999
dxfrw 0.6.3
  0
SECTION
  2
HEADER
  9
$ACADVER
  1
AC1009
  9
$DWGCODEPAGE
  3
ANSI_1252
  9
$INSBASE
 10
0
 20
0
 30
0
  9
$EXTMIN
 10
-23.90771119314847
 20
-37.76158170397925
 30
0
  9
$EXTMAX
 10
23.84851225030335
 20
37.24999999999999
 30
0
  9
$LIMMIN
 10
0
 20
0
  9
$LIMMAX
 10
420
 20
297
  9
$ORTHOMODE
 70
    0
  9
$REGENMODE
 70
    1
  9
$FILLMODE
 70
    1
  9
$QTEXTMODE
 70
    0
  9
$MIRRTEXT
 70
    0
  9
$DRAGMODE
 70
    2
  9
$LTSCALE
 40
1
  9
$OSMODE
 70
    0
  9
$ATTMODE
 70
    0
  9
$TEXTSIZE
 40
2.5
  9
$TRACEWID
 40
15.68
  9
$TEXTSTYLE
  7
STANDARD
  9
$CLAYER
  8
0
  9
$CELTYPE
  6
BYLAYER
  9
$CECOLOR
 62
  256
  9
$DIMSCALE
 40
2.5
  9
$DIMASZ
 40
2.5
  9
$DIMEXO
 40
0.625
  9
$DIMDLI
 40
3.75
  9
$DIMRND
 40
0
  9
$DIMDLE
 40
0
  9
$DIMEXE
 40
1.25
  9
$DIMTP
 40
0
  9
$DIMTM
 40
0
  9
$DIMTXT
 40
2.5
  9
$DIMCEN
 40
2.5
  9
$DIMTSZ
 40
0
  9
$DIMTOL
 70
    0
  9
$DIMLIM
 70
    0
  9
$DIMTIH
 70
    0
  9
$DIMTOH
 70
    0
  9
$DIMSE1
 70
    0
  9
$DIMSE2
 70
    0
  9
$DIMTAD
 70
    1
  9
$DIMZIN
 70
    8
  9
$DIMBLK
  1

  9
$DIMASO
 70
    1
  9
$DIMSHO
 70
    1
  9
$DIMPOST
  1

  9
$DIMAPOST
  1

  9
$DIMALT
 70
    0
  9
$DIMALTD
 70
    3
  9
$DIMALTF
 40
0.03937
  9
$DIMLFAC
 40
1
  9
$DIMTOFL
 70
    1
  9
$DIMTVP
 40
0
  9
$DIMTIX
 70
    0
  9
$DIMSOXD
 70
    0
  9
$DIMSAH
 70
    0
  9
$DIMBLK1
  1

  9
$DIMBLK2
  1

  9
$DIMSTYLE
  2
STANDARD
  9
$DIMCLRD
 70
    0
  9
$DIMCLRE
 70
    0
  9
$DIMCLRT
 70
    0
  9
$DIMTFAC
 40
1
  9
$DIMGAP
 40
0.625
  9
$LUNITS
 70
    2
  9
$LUPREC
 70
    4
  9
$SKETCHINC
 40
1
  9
$FILLETRAD
 40
0
  9
$AUNITS
 70
    0
  9
$AUPREC
 70
    2
  9
$MENU
  1
.
  9
$ELEVATION
 40
0
  9
$PELEVATION
 40
0
  9
$THICKNESS
 40
0
  9
$LIMCHECK
 70
    0
  9
$BLIPMODE
 70
    0
  9
$CHAMFERA
 40
0
  9
$CHAMFERB
 40
0
  9
$SKPOLY
 70
    0
  9
$USRTIMER
 70
    1
  9
$ANGBASE
 50
0
  9
$ANGDIR
 70
    0
  9
$PDMODE
 70
   34
  9
$PDSIZE
 40
0
  9
$PLINEWID
 40
0
  9
$COORDS
 70
    2
  9
$SPLFRAME
 70
    0
  9
$SPLINETYPE
 70
    2
  9
$SPLINESEGS
 70
    8
  9
$ATTDIA
 70
    1
  9
$ATTREQ
 70
    1
  9
$HANDLING
 70
    1
  9
$HANDSEED
  5
20000
  9
$SURFTAB1
 70
    6
  9
$SURFTAB2
 70
    6
  9
$SURFTYPE
 70
    6
  9
$SURFU
 70
    6
  9
$SURFV
 70
    6
  9
$UCSNAME
  2

  9
$UCSORG
 10
0
 20
0
 30
0
  9
$UCSXDIR
 10
1
 20
0
 30
0
  9
$UCSYDIR
 10
0
 20
1
 30
0
  9
$PUCSNAME
  2

  9
$PUCSORG
 10
0
 20
0
 30
0
  9
$PUCSXDIR
 10
1
 20
0
 30
0
  9
$PUCSYDIR
 10
0
 20
1
 30
0
  9
$USERI1
 70
    0
  9
$USERI2
 70
    0
  9
$USERI3
 70
    0
  9
$USERI4
 70
    0
  9
$USERI5
 70
    0
  9
$USERR1
 40
0
  9
$USERR2
 40
0
  9
$USERR3
 40
0
  9
$USERR4
 40
0
  9
$USERR5
 40
0
  9
$WORLDVIEW
 70
    1
  9
$SHADEDGE
 70
    3
  9
$SHADEDIF
 70
   70
  9
$TILEMODE
 70
    1
  9
$MAXACTVP
 70
   64
  9
$PLIMCHECK
 70
    0
  9
$PEXTMIN
 10
0
 20
0
 30
0
  9
$PEXTMAX
 10
0
 20
0
 30
0
  9
$SNAPSTYLE
 70
    0
  9
$PLIMMIN
 10
0
 20
0
  9
$PLIMMAX
 10
210
 20
297
  9
$UNITMODE
 70
    0
  9
$VISRETAIN
 70
    1
  9
$PLINEGEN
 70
    0
  9
$PSLTSCALE
 70
    1
  0
ENDSEC
  0
SECTION
  2
TABLES
  0
TABLE
  2
VPORT
 70
    1
  0
VPORT
  2
*ACTIVE
 70
    0
 10
0
 20
0
 11
1
 21
1
 12
98.23874180151293
 22
32.58509447550183
 13
0
 23
0
 14
10
 24
10
 15
10
 25
10
 16
0
 26
0
 36
1
 17
0
 27
0
 37
0
 40
151.8059297523379
 41
1.988535031847134
 42
50
 43
0
 44
0
 50
0
 51
0
 71
    0
 72
  100
 73
    1
 74
    3
 75
    0
 76
    1
 77
    0
 78
    0
  0
ENDTAB
  0
TABLE
  2
LTYPE
 70
    4
  0
LTYPE
  2
BYBLOCK
 70
    0
  3

 72
   65
 73
    0
 40
0
  0
LTYPE
  2
BYLAYER
 70
    0
  3

 72
   65
 73
    0
 40
0
  0
LTYPE
  2
CONTINUOUS
 70
    0
  3
Solid line
 72
   65
 73
    0
 40
0
  0
LTYPE
  2
DOT
 70
    0
  3
Dot . . . . . . . . . . . . . . . . . . . . . .
 72
   65
 73
    2
 40
6.35
 49
0
 49
-6.35
  0
LTYPE
  2
DOTTINY
 70
    0
  3
Dot (.15x) .....................................
 72
   65
 73
    2
 40
0.9525
 49
0
 49
-0.9525
  0
LTYPE
  2
DOT2
 70
    0
  3
Dot (.5x) .....................................
 72
   65
 73
    2
 40
3.175
 49
0
 49
-3.175
  0
LTYPE
  2
DOTX2
 70
    0
  3
Dot (2x) .  .  .  .  .  .  .  .  .  .  .  .  .
 72
   65
 73
    2
 40
12.7
 49
0
 49
-12.7
  0
LTYPE
  2
DASHED
 70
    0
  3
Dashed _ _ _ _ _ _ _ _ _ _ _ _ _ _ _ _ _
 72
   65
 73
    2
 40
19.05
 49
12.7
 49
-6.35
  0
LTYPE
  2
DASHEDTINY
 70
    0
  3
Dashed (.15x) _ _ _ _ _ _ _ _ _ _ _ _ _ _ _ _ _
 72
   65
 73
    2
 40
2.8575
 49
1.905
 49
-0.9525
  0
LTYPE
  2
DASHED2
 70
    0
  3
Dashed (.5x) _ _ _ _ _ _ _ _ _ _ _ _ _ _ _ _ _
 72
   65
 73
    2
 40
9.524999999999999
 49
6.35
 49
-3.175
  0
LTYPE
  2
DASHEDX2
 70
    0
  3
Dashed (2x) ____  ____  ____  ____  ____  ___
 72
   65
 73
    2
 40
38.09999999999999
 49
25.4
 49
-12.7
  0
LTYPE
  2
DASHDOT
 70
    0
  3
Dash dot __ . __ . __ . __ . __ . __ . __ . __
 72
   65
 73
    4
 40
25.4
 49
12.7
 49
-6.35
 49
0
 49
-6.35
  0
LTYPE
  2
DASHDOTTINY
 70
    0
  3
Dash dot (.15x) _._._._._._._._._._._._._._._.
 72
   65
 73
    4
 40
3.81
 49
1.905
 49
-0.9525
 49
0
 49
-0.9525
  0
LTYPE
  2
DASHDOT2
 70
    0
  3
Dash dot (.5x) _._._._._._._._._._._._._._._.
 72
   65
 73
    4
 40
12.7
 49
6.35
 49
-3.175
 49
0
 49
-3.175
  0
LTYPE
  2
DASHDOTX2
 70
    0
  3
Dash dot (2x) ____  .  ____  .  ____  .  ___
 72
   65
 73
    4
 40
50.8
 49
25.4
 49
-12.7
 49
0
 49
-12.7
  0
LTYPE
  2
DIVIDE
 70
    0
  3
Divide ____ . . ____ . . ____ . . ____ . . ____
 72
   65
 73
    6
 40
31.75
 49
12.7
 49
-6.35
 49
0
 49
-6.35
 49
0
 49
-6.35
  0
LTYPE
  2
DIVIDETINY
 70
    0
  3
Divide (.15x) __..__..__..__..__..__..__..__.._
 72
   65
 73
    6
 40
4.7625
 49
1.905
 49
-0.9525
 49
0
 49
-0.9525
 49
0
 49
-0.9525
  0
LTYPE
  2
DIVIDE2
 70
    0
  3
Divide (.5x) __..__..__..__..__..__..__..__.._
 72
   65
 73
    6
 40
15.875
 49
6.35
 49
-3.175
 49
0
 49
-3.175
 49
0
 49
-3.175
  0
LTYPE
  2
DIVIDEX2
 70
    0
  3
Divide (2x) ________  .  .  ________  .  .  _
 72
   65
 73
    6
 40
63.5
 49
25.4
 49
-12.7
 49
0
 49
-12.7
 49
0
 49
-12.7
  0
LTYPE
  2
BORDER
 70
    0
  3
Border __ __ . __ __ . __ __ . __ __ . __ __ .
 72
   65
 73
    6
 40
44.45
 49
12.7
 49
-6.35
 49
12.7
 49
-6.35
 49
0
 49
-6.35
  0
LTYPE
  2
BORDERTINY
 70
    0
  3
Border (.15x) __.__.__.__.__.__.__.__.__.__.__.
 72
   65
 73
    6
 40
6.6675
 49
1.905
 49
-0.9525
 49
1.905
 49
-0.9525
 49
0
 49
-0.9525
  0
LTYPE
  2
BORDER2
 70
    0
  3
Border (.5x) __.__.__.__.__.__.__.__.__.__.__.
 72
   65
 73
    6
 40
22.225
 49
6.35
 49
-3.175
 49
6.35
 49
-3.175
 49
0
 49
-3.175
  0
LTYPE
  2
BORDERX2
 70
    0
  3
Border (2x) ____  ____  .  ____  ____  .  ___
 72
   65
 73
    6
 40
88.89999999999999
 49
25.4
 49
-12.7
 49
25.4
 49
-12.7
 49
0
 49
-12.7
  0
LTYPE
  2
CENTER
 70
    0
  3
Center ____ _ ____ _ ____ _ ____ _ ____ _ ____
 72
   65
 73
    4
 40
50.8
 49
31.75
 49
-6.35
 49
6.35
 49
-6.35
  0
LTYPE
  2
CENTERTINY
 70
    0
  3
Center (.15x) ___ _ ___ _ ___ _ ___ _ ___ _ ___
 72
   65
 73
    4
 40
7.62
 49
4.7625
 49
-0.9525
 49
0.9525
 49
-0.9525
  0
LTYPE
  2
CENTER2
 70
    0
  3
Center (.5x) ___ _ ___ _ ___ _ ___ _ ___ _ ___
 72
   65
 73
    4
 40
28.575
 49
19.05
 49
-3.175
 49
3.175
 49
-3.175
  0
LTYPE
  2
CENTERX2
 70
    0
  3
Center (2x) ________  __  ________  __  _____
 72
   65
 73
    4
 40
101.6
 49
63.5
 49
-12.7
 49
12.7
 49
-12.7
  0
ENDTAB
  0
TABLE
  2
LAYER
 70
    1
  0
LAYER
  2
0
 70
    0
 62
    7
  6
CONTINUOUS
  0
LAYER
  2
LAYER0
 70
    0
 62
    7
  6
CONTINUOUS
  0
ENDTAB
  0
TABLE
  2
STYLE
 70
    3
  0
STYLE
  2
STANDARD
 70
    0
 40
0
 41
1
 50
0
 71
    0
 42
1
  3
TXT
  4

  0
ENDTAB
  0
TABLE
  2
VIEW
 70
    0
  0
ENDTAB
  0
TABLE
  2
UCS
 70
    0
  0
ENDTAB
  0
TABLE
  2
APPID
 70
    1
  0
APPID
  2
ACAD
 70
    0
  0
APPID
  2
LIBRECAD
 70
    0
  0
ENDTAB
  0
TABLE
  2
DIMSTYLE
 70
    1
  0
DIMSTYLE
  2
STANDARD
 70
    0
  3

  4

  5

  6

  7

 40
1
 41
2.5
 42
0.625
 43
0.38
 44
1.25
 45
0
 46
0
 47
0
 48
0
 49
1
140
2.5
141
0.09
142
2.5
143
25.4
144
1
145
0
146
1
147
0.625
 71
    0
 72
    0
 73
    0
 74
    1
 75
    0
 76
    0
 77
    0
 78
    1
170
    0
171
    2
172
    0
173
    0
174
    0
175
    0
176
    0
177
    0
178
    0
  0
ENDTAB
  0
ENDSEC
  0
SECTION
  2
BLOCKS
  0
BLOCK
  8
0
  2
$MODEL_SPACE
 70
    0
 10
0
 20
0
 30
0
  3
$MODEL_SPACE
  1

  0
ENDBLK
  8
0
  0
BLOCK
  8
0
  2
$PAPER_SPACE
 70
    0
 10
0
 20
0
 30
0
  3
$PAPER_SPACE
  1

  0
ENDBLK
  8
0
  0
ENDSEC
  0
SECTION
  2
ENTITIES
  0
LINE
  5
31
  8
LAYER0
  6
BYLAYER
 62
  256
 10
12.43347016273433
 20
-37.76158170397925
 11
3.524958103184872e-015
 21
-37.74999990109927
  0
LINE
  5
32
  8
LAYER0
  6
BYLAYER
 62
  256
 10
3.524958103184872e-015
 20
-37.74999990109927
 11
-0.1397251852904495
 21
-37.74986974680342
  0
LINE
  5
33
  8
LAYER0
  6
BYLAYER
 62
  256
 10
-0.1397251852904495
 20
-37.74986974680342
 11
-12.57319534802483
 21
-37.73828794392347
  0
LINE
  5
34
  8
LAYER0
  6
BYLAYER
 62
  256
 10
-12.57319534802483
 20
-37.73828794392347
 11
-13.5079094619189
 21
-37.52069771018488
  0
LINE
  5
35
  8
LAYER0
  6
BYLAYER
 62
  256
 10
-13.5079094619189
 20
-37.52069771018488
 11
-14.4167271916055
 21
-37.21233701434572
  0
LINE
  5
36
  8
LAYER0
  6
BYLAYER
 62
  256
 10
-14.4167271916055
 20
-37.21233701434572
 11
-15.2908568342893
 21
-36.81618886994445
  0
LINE
  5
37
  8
LAYER0
  6
BYLAYER
 62
  256
 10
-15.2908568342893
 20
-36.81618886994445
 11
-16.12184225209798
 21
-36.33608552698534
  0
LINE
  5
38
  8
LAYER0
  6
BYLAYER
 62
  256
 10
-16.12184225209798
 20
-36.33608552698534
 11
-16.90164467489962
 21
-35.77667139959512
  0
LINE
  5
39
  8
LAYER0
  6
BYLAYER
 62
  256
 10
-16.90164467489962
 20
-35.77667139959512
 11
-17.62272046559699
 21
-35.14335813698224
  0
LINE
  5
3A
  8
LAYER0
  6
BYLAYER
 62
  256
 10
-17.62272046559699
 20
-35.14335813698224
 11
-18.27809409561299
 21
-34.44227227233317
  0
LINE
  5
3B
  8
LAYER0
  6
BYLAYER
 62
  256
 10
-18.27809409561299
 20
-34.44227227233317
 11
-18.86142562461982
 21
-33.68019595607752
  0
LINE
  5
3C
  8
LAYER0
  6
BYLAYER
 62
  256
 10
-18.86142562461982
 20
-33.68019595607752
 11
-19.36707203172721
 21
-32.86450134685755
  0
LINE
  5
3D
  8
LAYER0
  6
BYLAYER
 62
  256
 10
-19.36707203172721
 20
-32.86450134685755
 11
-19.79014180482466
 21
-32.00307929488628
  0
LINE
  5
3E
  8
LAYER0
  6
BYLAYER
 62
  256
 10
-19.79014180482466
 20
-32.00307929488628
 11
-20.12654225999422
 21
-31.10426300759906
  0
LINE
  5
3F
  8
LAYER0
  6
BYLAYER
 62
  256
 10
-20.12654225999422
 20
-31.10426300759906
 11
-20.37301913323384
 21
-30.1767474360375
  0
LINE
  5
40
  8
LAYER0
  6
BYLAYER
 62
  256
 10
-20.37301913323384
 20
-30.1767474360375
 11
-19.20991133045631
 21
-30.17783087333402
  0
LINE
  5
41
  8
LAYER0
  6
BYLAYER
 62
  256
 10
-19.20991133045631
 20
-30.17783087333402
 11
-19.78804448266845
 21
-27.73572036407491
  0
LINE
  5
42
  8
LAYER0
  6
BYLAYER
 62
  256
 10
-19.78804448266845
 20
-27.73572036407491
 11
-20.33088466352181
 21
-25.28552318442354
  0
LINE
  5
43
  8
LAYER0
  6
BYLAYER
 62
  256
 10
-20.33088466352181
 20
-25.28552318442354
 11
-20.83831887825796
 21
-22.82774935454498
  0
LINE
  5
44
  8
LAYER0
  6
BYLAYER
 62
  256
 10
-20.83831887825796
 20
-22.82774935454498
 11
-21.31024150203811
 21
-20.3629104717201
  0
LINE
  5
45
  8
LAYER0
  6
BYLAYER
 62
  256
 10
-21.31024150203811
 20
-20.3629104717201
 11
-21.74655430192959
 21
-17.89151960385414
  0
LINE
  5
46
  8
LAYER0
  6
BYLAYER
 62
  256
 10
-21.74655430192959
 20
-17.89151960385414
 11
-22.14716645735355
 21
-15.41409118267883
  0
LINE
  5
47
  8
LAYER0
  6
BYLAYER
 62
  256
 10
-22.14716645735355
 20
-15.41409118267883
 11
-22.51199457898954
 21
-12.93114089667143
  0
LINE
  5
48
  8
LAYER0
  6
BYLAYER
 62
  256
 10
-22.51199457898954
 20
-12.93114089667143
 11
-22.84096272613358
 21
-10.44318558371158
  0
LINE
  5
49
  8
LAYER0
  6
BYLAYER
 62
  256
 10
-22.84096272613358
 20
-10.44318558371158
 11
-23.13400242250536
 21
-7.950743123498888
  0
LINE
  5
4A
  8
LAYER0
  6
BYLAYER
 62
  256
 10
-23.13400242250536
 20
-7.950743123498888
 11
-23.39105267050215
 21
-5.454332329754078
  0
LINE
  5
4B
  8
LAYER0
  6
BYLAYER
 62
  256
 10
-23.39105267050215
 20
-5.454332329754078
 11
-23.61205996389548
 21
-2.954472842225327
  0
LINE
  5
4C
  8
LAYER0
  6
BYLAYER
 62
  256
 10
-23.61205996389548
 20
-2.954472842225327
 11
-23.79697829896894
 21
-0.4516850185226491
  0
LINE
  5
4D
  8
LAYER0
  6
BYLAYER
 62
  256
 10
-23.79697829896894
 20
-0.4516850185226491
 11
-23.85909595630929
 21
1.530412430187613
  0
LINE
  5
4E
  8
LAYER0
  6
BYLAYER
 62
  256
 10
-23.85909595630929
 20
1.530412430187613
 11
-23.89600890994637
 21
3.513139424352743
  0
LINE
  5
4F
  8
LAYER0
  6
BYLAYER
 62
  256
 10
-23.89600890994637
 20
3.513139424352743
 11
-23.90771119314847
 21
5.496175469437429
  0
LINE
  5
50
  8
LAYER0
  6
BYLAYER
 62
  256
 10
-23.90771119314847
 20
5.496175469437429
 11
-23.89420091431996
 21
7.479200020950371
  0
LINE
  5
51
  8
LAYER0
  6
BYLAYER
 62
  256
 10
-23.89420091431996
 20
7.479200020950371
 11
-23.85548025730688
 21
9.461892536258171
  0
LINE
  5
52
  8
LAYER0
  6
BYLAYER
 62
  256
 10
-23.85548025730688
 20
9.461892536258171
 11
-23.79155548104391
 21
11.44393252639892
  0
LINE
  5
53
  8
LAYER0
  6
BYLAYER
 62
  256
 10
-23.79155548104391
 20
11.44393252639892
 11
-23.70243691854313
 21
13.42499960788681
  0
LINE
  5
54
  8
LAYER0
  6
BYLAYER
 62
  256
 10
-23.70243691854313
 20
13.42499960788681
 11
-23.5881389752229
 21
15.40477355450042
  0
LINE
  5
55
  8
LAYER0
  6
BYLAYER
 62
  256
 10
-23.5881389752229
 20
15.40477355450042
 11
-23.4486801265801
 21
17.38293434904476
  0
LINE
  5
56
  8
LAYER0
  6
BYLAYER
 62
  256
 10
-23.4486801265801
 20
17.38293434904476
 11
-23.28408291520322
 21
19.35916223508028
  0
LINE
  5
57
  8
LAYER0
  6
BYLAYER
 62
  256
 10
-23.28408291520322
 20
19.35916223508028
 11
-23.09437394712883
 21
21.3331377686088
  0
LINE
  5
58
  8
LAYER0
  6
BYLAYER
 62
  256
 10
-23.09437394712883
 20
21.3331377686088
 11
-22.87958388754068
 21
23.30454186971018
  0
LINE
  5
59
  8
LAYER0
  6
BYLAYER
 62
  256
 10
-22.87958388754068
 20
23.30454186971018
 11
-23.844963363846
 21
23.30544112266634
  0
LINE
  5
5A
  8
LAYER0
  6
BYLAYER
 62
  256
 10
-23.844963363846
 20
23.30544112266634
 11
-23.60054486470669
 21
24.95176779228828
  0
LINE
  5
5B
  8
LAYER0
  6
BYLAYER
 62
  256
 10
-23.60054486470669
 20
24.95176779228828
 11
-23.17989223915972
 21
26.56210417778372
  0
LINE
  5
5C
  8
LAYER0
  6
BYLAYER
 62
  256
 10
-23.17989223915972
 20
26.56210417778372
 11
-22.58791850140815
 21
28.11764234820652
  0
LINE
  5
5D
  8
LAYER0
  6
BYLAYER
 62
  256
 10
-22.58791850140815
 20
28.11764234820652
 11
-21.83153761134364
 21
29.60021438860634
  0
LINE
  5
5E
  8
LAYER0
  6
BYLAYER
 62
  256
 10
-21.83153761134364
 20
29.60021438860634
 11
-20.91958372292154
 21
30.99250459227142
  0
LINE
  5
5F
  8
LAYER0
  6
BYLAYER
 62
  256
 10
-20.91958372292154
 20
30.99250459227142
 11
-19.86270800562038
 21
32.27825169960207
  0
LINE
  5
60
  8
LAYER0
  6
BYLAYER
 62
  256
 10
-19.86270800562038
 20
32.27825169960207
 11
-18.67325424406097
 21
33.44243882156407
  0
LINE
  5
61
  8
LAYER0
  6
BYLAYER
 62
  256
 10
-18.67325424406097
 20
33.44243882156407
 11
-17.36511466871914
 21
34.47146882951062
  0
LINE
  5
62
  8
LAYER0
  6
BYLAYER
 62
  256
 10
-17.36511466871914
 20
34.47146882951062
 11
-15.95356770155843
 21
35.35332316290668
  0
LINE
  5
63
  8
LAYER0
  6
BYLAYER
 62
  256
 10
-15.95356770155843
 20
35.35332316290668
 11
-14.45509951163311
 21
36.07770220015991
  0
LINE
  5
64
  8
LAYER0
  6
BYLAYER
 62
  256
 10
-14.45509951163311
 20
36.07770220015991
 11
-12.88721146480364
 21
36.63614555309665
  0
LINE
  5
65
  8
LAYER0
  6
BYLAYER
 62
  256
 10
-12.88721146480364
 20
36.63614555309665
 11
-11.26821571645663
 21
37.02213088010309
  0
LINE
  5
66
  8
LAYER0
  6
BYLAYER
 62
  256
 10
-11.26821571645663
 20
37.02213088010309
 11
0
 21
37.24999999999999
  0
LINE
  5
67
  8
LAYER0
  6
BYLAYER
 62
  256
 10
0
 20
37.24999999999999
 11
11.26777164096691
 21
37.00113856179901
  0
LINE
  5
68
  8
LAYER0
  6
BYLAYER
 62
  256
 10
11.26777164096691
 20
37.00113856179901
 11
12.88604548810514
 21
36.61213771154494
  0
LINE
  5
69
  8
LAYER0
  6
BYLAYER
 62
  256
 10
12.88604548810514
 20
36.61213771154494
 11
14.45289043268887
 21
36.05077434841692
  0
LINE
  5
6A
  8
LAYER0
  6
BYLAYER
 62
  256
 10
14.45289043268887
 20
36.05077434841692
 11
15.9500065022488
 21
35.32360491830075
  0
LINE
  5
6B
  8
LAYER0
  6
BYLAYER
 62
  256
 10
15.9500065022488
 20
35.32360491830075
 11
17.3599081230202
 21
34.43912239977585
  0
LINE
  5
6C
  8
LAYER0
  6
BYLAYER
 62
  256
 10
17.3599081230202
 20
34.43912239977585
 11
18.6661283427793
 21
33.40765711033442
  0
LINE
  5
6D
  8
LAYER0
  6
BYLAYER
 62
  256
 10
18.6661283427793
 20
33.40765711033442
 11
19.85341115668455
 21
32.24125605339253
  0
LINE
  5
6E
  8
LAYER0
  6
BYLAYER
 62
  256
 10
19.85341115668455
 20
32.24125605339253
 11
20.90788968985292
 21
30.95354221526036
  0
LINE
  5
6F
  8
LAYER0
  6
BYLAYER
 62
  256
 10
20.90788968985292
 20
30.95354221526036
 11
21.81724815558624
 21
29.55955545541323
  0
LINE
  5
70
  8
LAYER0
  6
BYLAYER
 62
  256
 10
21.81724815558624
 20
29.55955545541323
 11
22.57086569765678
 21
28.07557684838633
  0
LINE
  5
71
  8
LAYER0
  6
BYLAYER
 62
  256
 10
22.57086569765678
 20
28.07557684838633
 11
23.15994043664437
 21
26.51893852889247
  0
LINE
  5
72
  8
LAYER0
  6
BYLAYER
 62
  256
 10
23.15994043664437
 20
26.51893852889247
 11
23.5775922715262
 21
24.90782126107805
  0
LINE
  5
73
  8
LAYER0
  6
BYLAYER
 62
  256
 10
23.5775922715262
 20
24.90782126107805
 11
23.81894323584704
 21
23.26104209620759
  0
LINE
  5
74
  8
LAYER0
  6
BYLAYER
 62
  256
 10
23.81894323584704
 20
23.26104209620759
 11
22.85356375954171
 21
23.26194134916372
  0
LINE
  5
75
  8
LAYER0
  6
BYLAYER
 62
  256
 10
22.85356375954171
 20
23.26194134916372
 11
23.06468071566959
 21
21.29014051480632
  0
LINE
  5
76
  8
LAYER0
  6
BYLAYER
 62
  256
 10
23.06468071566959
 20
21.29014051480632
 11
23.25071183322424
 21
19.31581497861976
  0
LINE
  5
77
  8
LAYER0
  6
BYLAYER
 62
  256
 10
23.25071183322424
 20
19.31581497861976
 11
23.41162704152174
 21
17.33928387709971
  0
LINE
  5
78
  8
LAYER0
  6
BYLAYER
 62
  256
 10
23.41162704152174
 20
17.33928387709971
 11
23.54740032969678
 21
15.36086670325711
  0
LINE
  5
79
  8
LAYER0
  6
BYLAYER
 62
  256
 10
23.54740032969678
 20
15.36086670325711
 11
23.65800975090691
 21
13.38088325497364
  0
LINE
  5
7A
  8
LAYER0
  6
BYLAYER
 62
  256
 10
23.65800975090691
 20
13.38088325497364
 11
23.74343742588024
 21
11.3996535833086
  0
LINE
  5
7B
  8
LAYER0
  6
BYLAYER
 62
  256
 10
23.74343742588024
 20
11.3996535833086
 11
23.80366954580553
 21
9.417497940765164
  0
LINE
  5
7C
  8
LAYER0
  6
BYLAYER
 62
  256
 10
23.80366954580553
 20
9.417497940765164
 11
23.83869637456393
 21
7.434736729523584
  0
LINE
  5
7D
  8
LAYER0
  6
BYLAYER
 62
  256
 10
23.83869637456393
 20
7.434736729523584
 11
23.84851225030335
 21
5.451690449649952
  0
LINE
  5
7E
  8
LAYER0
  6
BYLAYER
 62
  256
 10
23.84851225030335
 20
5.451690449649952
 11
23.83311558635324
 21
3.468679647289918
  0
LINE
  5
7F
  8
LAYER0
  6
BYLAYER
 62
  256
 10
23.83311558635324
 20
3.468679647289918
 11
23.79250887148115
 21
1.486024862854511
  0
LINE
  5
80
  8
LAYER0
  6
BYLAYER
 62
  256
 10
23.79250887148115
 20
1.486024862854511
 11
23.72669866949054
 21
-0.4959534207931599
  0
LINE
  5
81
  8
LAYER0
  6
BYLAYER
 62
  256
 10
23.72669866949054
 20
-0.4959534207931599
 11
23.53711795541765
 21
-2.998392397865803
  0
LINE
  5
82
  8
LAYER0
  6
BYLAYER
 62
  256
 10
23.53711795541765
 20
-2.998392397865803
 11
23.3114538011509
 21
-5.497835810027766
  0
LINE
  5
83
  8
LAYER0
  6
BYLAYER
 62
  256
 10
23.3114538011509
 20
-5.497835810027766
 11
23.04975317975434
 21
-7.993763386277014
  0
LINE
  5
84
  8
LAYER0
  6
BYLAYER
 62
  256
 10
23.04975317975434
 20
-7.993763386277014
 11
22.75207056545373
 21
-10.48565558744941
  0
LINE
  5
85
  8
LAYER0
  6
BYLAYER
 62
  256
 10
22.75207056545373
 20
-10.48565558744941
 11
22.41846792229718
 21
-12.97299371436333
  0
LINE
  5
86
  8
LAYER0
  6
BYLAYER
 62
  256
 10
22.41846792229718
 20
-12.97299371436333
 11
22.04901469125734
 21
-15.45526001578922
  0
LINE
  5
87
  8
LAYER0
  6
BYLAYER
 62
  256
 10
22.04901469125734
 20
-15.45526001578922
 11
21.64378777577665
 21
-17.93193779622231
  0
LINE
  5
88
  8
LAYER0
  6
BYLAYER
 62
  256
 10
21.64378777577665
 20
-17.93193779622231
 11
21.20287152575969
 21
-20.40251152343457
  0
LINE
  5
89
  8
LAYER0
  6
BYLAYER
 62
  256
 10
21.20287152575969
 20
-20.40251152343457
 11
20.72635772001541
 21
-22.866466935786
  0
LINE
  5
8A
  8
LAYER0
  6
BYLAYER
 62
  256
 10
20.72635772001541
 20
-22.866466935786
 11
20.21434554715272
 21
-25.32329114926998
  0
LINE
  5
8B
  8
LAYER0
  6
BYLAYER
 62
  256
 10
20.21434554715272
 20
-25.32329114926998
 11
19.66694158493409
 21
-27.77247276427277
  0
LINE
  5
8C
  8
LAYER0
  6
BYLAYER
 62
  256
 10
19.66694158493409
 20
-27.77247276427277
 11
19.08425977809068
 21
-30.21350197202397
  0
LINE
  5
8D
  8
LAYER0
  6
BYLAYER
 62
  256
 10
19.08425977809068
 20
-30.21350197202397
 11
20.24736758086822
 21
-30.21458540932054
  0
LINE
  5
8E
  8
LAYER0
  6
BYLAYER
 62
  256
 10
20.24736758086822
 20
-30.21458540932054
 11
19.99916317155868
 21
-31.14164018425592
  0
LINE
  5
8F
  8
LAYER0
  6
BYLAYER
 62
  256
 10
19.99916317155868
 20
-31.14164018425592
 11
19.66108880320935
 21
-32.03982819686595
  0
LINE
  5
90
  8
LAYER0
  6
BYLAYER
 62
  256
 10
19.66108880320935
 20
-32.03982819686595
 11
19.23641493289012
 21
-32.90046057389985
  0
LINE
  5
91
  8
LAYER0
  6
BYLAYER
 62
  256
 10
19.23641493289012
 20
-32.90046057389985
 11
18.72924976220256
 21
-33.7152117470642
  0
LINE
  5
92
  8
LAYER0
  6
BYLAYER
 62
  256
 10
18.72924976220256
 20
-33.7152117470642
 11
18.14449949544195
 21
-34.47619999273856
  0
LINE
  5
93
  8
LAYER0
  6
BYLAYER
 62
  256
 10
18.14449949544195
 20
-34.47619999273856
 11
17.48782087805559
 21
-35.17606367803646
  0
LINE
  5
94
  8
LAYER0
  6
BYLAYER
 62
  256
 10
17.48782087805559
 20
-35.17606367803646
 11
16.76556647453199
 21
-35.80803247562214
  0
LINE
  5
95
  8
LAYER0
  6
BYLAYER
 62
  256
 10
16.76556647453199
 20
-35.80803247562214
 11
15.98472321508934
 21
-36.36599285836819
  0
LINE
  5
96
  8
LAYER0
  6
BYLAYER
 62
  256
 10
15.98472321508934
 20
-36.36599285836819
 11
15.1528448056498
 21
-36.8445472402721
  0
LINE
  5
97
  8
LAYER0
  6
BYLAYER
 62
  256
 10
15.1528448056498
 20
-36.8445472402721
 11
14.27797865494964
 21
-37.2390661915155
  0
LINE
  5
98
  8
LAYER0
  6
BYLAYER
 62
  256
 10
14.27797865494964
 20
-37.2390661915155
 11
13.36858802567784
 21
-37.54573322255053
  0
LINE
  5
99
  8
LAYER0
  6
BYLAYER
 62
  256
 10
13.36858802567784
 20
-37.54573322255053
 11
12.43347016273433
 21
-37.76158170397925
  0
ENDSEC
  0
EOF
