 0
SECTION
 2
ENTITIES
  0
LINE
 8
Component#1
10
19.26739663883093
20
-16.7999880218505
30
3.1143156870803915e-15
11
19.302512698395248
21
-16.549965834901684
31
2.997033283598925e-15
  0
LINE
 8
Component#1
10
-18.171490028911002
20
-23.050032163268945
30
2.5937898598243873e-15
11
-18.221491398966766
21
-23.050032251770556
31
2.4793050645408776e-15
  0
POLYLINE
 8
Component#1
 66
     1
70
    8
 10
0.0
 20
 0.0
 30
0.0
  0
VERTEX
  8
MY3DLAYER
10
11.658873149070933
20
-22.939236810614474
30
3.241139412160795e-15
 70
     32
  0
VERTEX
  8
MY3DLAYER
10
12.500035045654135
20
-23.049977875174992
30
3.2724107796790584e-15
 70
     32
  0
VERTEX
  8
MY3DLAYER
10
18.171695523997826
20
-23.049967836429428
30
3.532327832158445e-15
 70
     32
  0
VERTEX
  8
MY3DLAYER
10
17.534125671663535
20
-26.237476969969347
30
4.116787716034495e-15
 70
     32
  0
VERTEX
  8
MY3DLAYER
10
16.48983846206715
20
-30.771914207477415
30
4.516540677721342e-15
 70
     32
  0
VERTEX
  8
MY3DLAYER
10
16.326427289929658
20
-31.356757043117593
30
4.567358565581653e-15
 70
     32
  0
VERTEX
  8
MY3DLAYER
10
16.09816873894838
20
-31.919466903954408
30
4.614419525592433e-15
 70
     32
  0
VERTEX
  8
MY3DLAYER
10
15.807969119563863
20
-32.45287906587802
30
4.657124352340204e-15
 70
     32
  0
VERTEX
  8
MY3DLAYER
10
15.45952340916011
20
-32.95020183881343
30
4.69492930503938e-15
 70
     32
  0
VERTEX
  8
MY3DLAYER
10
15.057268205629052
20
-33.40510304216551
30
4.7273530307318515e-15
 70
     32
  0
VERTEX
  8
MY3DLAYER
10
14.606325238223347
20
-33.81179062954219
30
4.753982693131339e-15
 70
     32
  0
VERTEX
  8
MY3DLAYER
10
14.112436154949298
20
-34.16508643619962
30
4.774479229076686e-15
 70
     32
  0
VERTEX
  8
MY3DLAYER
10
13.581889416821655
20
-34.46049211021607
30
4.788581665666104e-15
 70
     32
  0
VERTEX
  8
MY3DLAYER
10
13.02144022980108
20
-34.69424638792441
30
4.796110443104266e-15
 70
     32
  0
VERTEX
  8
MY3DLAYER
10
12.438224533884295
20
-34.86337298434043
30
4.796969700954054e-15
 70
     32
  0
VERTEX
  8
MY3DLAYER
10
11.8396681444844
20
-34.965718488821594
30
4.791148498683135e-15
 70
     32
  0
VERTEX
  8
MY3DLAYER
10
11.23339220296144
20
-34.99997978344795
30
4.778720954964641e-15
 70
     32
  0
VERTEX
  8
MY3DLAYER
10
9.500051763587933
20
-34.989275375379755
30
1.6172145539531527e-15
 70
     32
  0
VERTEX
  8
MY3DLAYER
10
9.50005176358799
20
-28.994423357246475
30
1.6172145539531495e-15
 70
     32
  0
VERTEX
  8
MY3DLAYER
10
3.500051763587985
20
-28.994423357246465
30
1.6172145539531538e-15
 70
     32
  0
VERTEX
  8
MY3DLAYER
10
3.5000522403174354
20
-34.99442335724644
30
1.7682333134275956e-15
 70
     32
  0
VERTEX
  8
MY3DLAYER
10
-6.499948048303149
20
-35.00000033829283
30
1.8470824474968694e-15
 70
     32
  0
VERTEX
  8
MY3DLAYER
10
-6.499948048303115
20
-33.00000033829284
30
1.7289685113067369e-15
 70
     32
  0
VERTEX
  8
MY3DLAYER
10
-10.099948048303094
20
-33.000000338292864
30
1.7289685113067343e-15
 70
     32
  0
VERTEX
  8
MY3DLAYER
10
-10.099948048303123
20
-35.00475616926392
30
1.8454001440415107e-15
 70
     32
  0
VERTEX
  8
MY3DLAYER
10
-11.233144405269645
20
-35.00001954884758
30
4.19872573189301e-15
 70
     32
  0
VERTEX
  8
MY3DLAYER
10
-11.839420468072646
20
-34.965760400418226
30
4.179850080886883e-15
 70
     32
  0
VERTEX
  8
MY3DLAYER
10
-12.437977219768491
20
-34.86341701480769
30
4.1547666575174895e-15
 70
     32
  0
VERTEX
  8
MY3DLAYER
10
-13.021193514384246
20
-34.694292482956975
30
4.123794837400359e-15
 70
     32
  0
VERTEX
  8
MY3DLAYER
10
-13.581643528883772
20
-34.46054018922178
30
4.0873289703803464e-15
 70
     32
  0
VERTEX
  8
MY3DLAYER
10
-14.112191312734371
20
-34.16513639332524
30
4.045833359457629e-15
 70
     32
  0
VERTEX
  8
MY3DLAYER
10
-14.606081646660847
20
-33.811842335020984
30
3.999836349032597e-15
 70
     32
  0
VERTEX
  8
MY3DLAYER
10
-15.057026053724424
20
-33.40515634397009
30
3.949923597741285e-15
 70
     32
  0
VERTEX
  8
MY3DLAYER
10
-15.459282867588236
20
-32.950256564591136
30
3.8967306215350685e-15
 70
     32
  0
VERTEX
  8
MY3DLAYER
10
-15.80773033849596
20
-32.45293502514497
30
3.8409347019503346e-15
 70
     32
  0
VERTEX
  8
MY3DLAYER
10
-16.097931846140188
20
-31.919523890521774
30
3.783246262596291e-15
 70
     32
  0
VERTEX
  8
MY3DLAYER
10
-16.326192389094352
20
-31.356814837716406
30
3.724399823660101e-15
 70
     32
  0
VERTEX
  8
MY3DLAYER
10
-16.489605631555257
20
-30.77197258054999
30
3.665144649601393e-15
 70
     32
  0
VERTEX
  8
MY3DLAYER
10
-17.533908892903447
20
-26.23753903981264
30
3.2114727186837982e-15
 70
     32
  0
VERTEX
  8
MY3DLAYER
10
-18.171490028911002
20
-23.050032163268945
30
2.5937898598243873e-15
 70
     32
  0
VERTEX
  8
MY3DLAYER
10
-12.499964954306712
20
-23.050022124763007
30
2.627011765597998e-15
 70
     32
  0
VERTEX
  8
MY3DLAYER
10
-11.658803057723535
20
-22.939281060202514
30
2.639376803554321e-15
 70
     32
  0
VERTEX
  8
MY3DLAYER
10
-11.322650630278448
20
-22.80004216573008
30
2.6609099078045935e-15
 70
     32
  0
VERTEX
  8
MY3DLAYER
10
-10.874964954306751
20
-22.614604687062446
30
2.631992855046171e-15
 70
     32
  0
VERTEX
  8
MY3DLAYER
10
-10.201867915450446
20
-22.098119163619312
30
2.6053631239618236e-15
 70
     32
  0
VERTEX
  8
MY3DLAYER
10
-9.68538239200732
20
-21.42502212476304
30
2.5613023824669684e-15
 70
     32
  0
VERTEX
  8
MY3DLAYER
10
-9.360706018867246
20
-20.641184021346227
30
2.502813297280662e-15
 70
     32
  0
VERTEX
  8
MY3DLAYER
10
-9.249964954306716
20
-19.800022124763014
30
2.433881802900563e-15
 70
     32
  0
VERTEX
  8
MY3DLAYER
10
-9.360706018867253
20
-18.958860228179823
30
2.3592054667540034e-15
 70
     32
  0
VERTEX
  8
MY3DLAYER
10
-9.685382392007302
20
-18.17502212476301
30
2.283873357740884e-15
 70
     32
  0
VERTEX
  8
MY3DLAYER
10
-10.201867915450451
20
-17.501925085906716
30
2.2130192345982532e-15
 70
     32
  0
VERTEX
  8
MY3DLAYER
10
-10.874964954306758
20
-16.985439562463583
30
2.1514716887263102e-15
 70
     32
  0
VERTEX
  8
MY3DLAYER
10
-11.322553864342945
20
-16.800042165558793
30
2.144400090575105e-15
 70
     32
  0
VERTEX
  8
MY3DLAYER
10
-11.658803057723548
20
-16.66076318932356
30
2.1034250836640945e-15
 70
     32
  0
VERTEX
  8
MY3DLAYER
10
-12.499964954306735
20
-16.550022124763032
30
2.07215371614583e-15
 70
     32
  0
VERTEX
  8
MY3DLAYER
10
-19.302330213094223
20
-16.550034164837456
30
1.9920000805176103e-15
 70
     32
  0
VERTEX
  8
MY3DLAYER
10
-19.874039722500715
20
-12.47963475340142
30
1.856374457768456e-15
 70
     32
  0
VERTEX
  8
MY3DLAYER
10
-20.38764630885604
20
-7.854933129352743
30
1.4079083976877328e-15
 70
     32
  0
VERTEX
  8
MY3DLAYER
10
-20.76722442487941
20
-3.217306873296447
30
9.616861634300536e-16
 70
     32
  0
VERTEX
  8
MY3DLAYER
10
-21.01245621922756
20
1.4293605566007708
30
5.180814128289966e-16
 70
     32
  0
VERTEX
  8
MY3DLAYER
10
-21.123136339558204
20
6.081178131268784
30
7.746561188815177e-17
 70
     32
  0
VERTEX
  8
MY3DLAYER
10
-21.099172104487902
20
10.734250509006337
30
-3.597922762772842e-16
 70
     32
  0
VERTEX
  8
MY3DLAYER
10
-20.940583581201707
20
15.38468129736435
30
-7.933261004030748e-16
 70
     32
  0
VERTEX
  8
MY3DLAYER
10
-20.84179736584388
20
16.949963110362095
30
-9.873445722730372e-16
 70
     32
  0
VERTEX
  8
MY3DLAYER
10
-14.999999999976517
20
16.949973450247164
30
-8.584764187474463e-16
 70
     32
  0
VERTEX
  8
MY3DLAYER
10
-14.158838103393306
20
17.060714514807696
30
-8.460971422583861e-16
 70
     32
  0
VERTEX
  8
MY3DLAYER
10
-13.822685675871767
20
17.199953409311764
30
-8.450430309409623e-16
 70
     32
  0
VERTEX
  8
MY3DLAYER
10
-13.374999999976502
20
17.38539088794774
30
-8.534669548717731e-16
 70
     32
  0
VERTEX
  8
MY3DLAYER
10
-12.701902961120227
20
17.901876411390887
30
-8.800836160371933e-16
 70
     32
  0
VERTEX
  8
MY3DLAYER
10
-12.1854174376771
20
18.574973450247164
30
-9.241332442823355e-16
 70
     32
  0
VERTEX
  8
MY3DLAYER
10
-11.860741064537041
20
19.358811553663973
30
-9.826139302377448e-16
 70
     32
  0
VERTEX
  8
MY3DLAYER
10
-11.749999999976508
20
20.19997345024717
30
-1.0515403117994654e-15
 70
     32
  0
VERTEX
  8
MY3DLAYER
10
-11.860741064537047
20
21.041135346830362
30
-1.1262151699702967e-15
 70
     32
  0
VERTEX
  8
MY3DLAYER
10
-12.185417437677094
20
21.82497345024716
30
-1.2015495365719332e-15
 70
     32
  0
VERTEX
  8
MY3DLAYER
10
-12.701902961120222
20
22.498070489103448
30
-1.272409499016402e-15
 70
     32
  0
VERTEX
  8
MY3DLAYER
10
-13.374999999976508
20
23.0145560125466
30
-1.3339660679647369e-15
 70
     32
  0
VERTEX
  8
MY3DLAYER
10
-13.822588910089143
20
23.199953409483033
30
-1.3601548874205115e-15
 70
     32
  0
VERTEX
  8
MY3DLAYER
10
-14.15883810339331
20
23.33923238568664
30
-1.3820242649701487e-15
 70
     32
  0
VERTEX
  8
MY3DLAYER
10
-14.999999999976493
20
23.44997345024717
30
-1.413309003326643e-15
 70
     32
  0
VERTEX
  8
MY3DLAYER
10
-20.331962941479855
20
23.44996401276063
30
-1.5461950242203276e-15
 70
     32
  0
VERTEX
  8
MY3DLAYER
10
-20.220177486341957
20
24.662046857135277
30
-1.6477728477699e-15
 70
     32
  0
VERTEX
  8
MY3DLAYER
10
-20.054939916684024
20
26.098939769801692
30
-1.7787256066938777e-15
 70
     32
  0
VERTEX
  8
MY3DLAYER
10
-19.700725851909944
20
27.501258240482837
30
-1.9015461026570498e-15
 70
     32
  0
VERTEX
  8
MY3DLAYER
10
-19.163784517142144
20
28.844261851764298
30
-2.014067473851124e-15
 70
     32
  0
VERTEX
  8
MY3DLAYER
10
-18.45358890516152
20
30.104256649222123
30
-2.114304560877879e-15
 70
     32
  0
VERTEX
  8
MY3DLAYER
10
-17.58266864903904
20
31.259013162246795
30
-2.2004889299433395e-15
 70
     32
  0
VERTEX
  8
MY3DLAYER
10
-16.56638896796115
20
32.28815858769723
30
-2.2711000724684236e-15
 70
     32
  0
VERTEX
  8
MY3DLAYER
10
-15.422679586199022
20
33.17353621728056
30
-2.3248922306764875e-15
 70
     32
  0
VERTEX
  8
MY3DLAYER
10
-14.171718407771776
20
33.89952576745687
30
-2.3609163758871585e-15
 70
     32
  0
VERTEX
  8
MY3DLAYER
10
-12.835575527576259
20
34.45331896044517
30
-2.3785369517641643e-15
 70
     32
  0
VERTEX
  8
MY3DLAYER
10
-11.437823859520783
20
34.82514549439016
30
-2.3774430871242494e-15
 70
     32
  0
VERTEX
  8
MY3DLAYER
10
-10.00312325115964
20
35.00844541600889
30
-2.3576540804850966e-15
 70
     32
  0
VERTEX
  8
MY3DLAYER
10
-8.55678542208976
20
34.99998485463084
30
-2.319519059590995e-15
 70
     32
  0
VERTEX
  8
MY3DLAYER
10
-1.127986593019159e-14
20
34.99999999999998
30
-2.098617424585851e-15
 70
     32
  0
VERTEX
  8
MY3DLAYER
10
8.556785422089803
20
35.00001514536917
30
-1.8777157895807106e-15
 70
     32
  0
VERTEX
  8
MY3DLAYER
10
10.003123221200537
20
35.00848082673544
30
-1.8411736105353333e-15
 70
     32
  0
VERTEX
  8
MY3DLAYER
10
11.437824478428384
20
34.82518598391074
30
-1.7868862517722332e-15
 70
     32
  0
VERTEX
  8
MY3DLAYER
10
12.835577462728718
20
34.453364397962915
30
-1.7158114785524522e-15
 70
     32
  0
VERTEX
  8
MY3DLAYER
10
14.171722303325492
20
33.899575934879856
30
-1.6292032282617292e-15
 70
     32
  0
VERTEX
  8
MY3DLAYER
10
15.422686051723982
20
33.17359081306944
30
-1.5285894878078298e-15
 70
     32
  0
VERTEX
  8
MY3DLAYER
10
16.566398567686615
20
32.28821723218521
30
-1.415745336096518e-15
 70
     32
  0
VERTEX
  8
MY3DLAYER
10
17.5826818918991
20
31.259075404337757
30
-1.292661627184469e-15
 70
     32
  0
VERTEX
  8
MY3DLAYER
10
18.453606235816082
20
30.104321974349368
30
-1.1615098666170213e-15
 70
     32
  0
VERTEX
  8
MY3DLAYER
10
19.163806308132276
20
28.844329690968454
30
-1.0246039006202044e-15
 70
     32
  0
VERTEX
  8
MY3DLAYER
10
19.700752397085267
20
27.50132798045002
30
-8.843590940459431e-16
 70
     32
  0
VERTEX
  8
MY3DLAYER
10
20.054971426018312
20
26.09901076368375
30
-7.43249717273902e-16
 70
     32
  0
VERTEX
  8
MY3DLAYER
10
20.220214082228722
20
24.66211843596194
30
-6.037652938719657e-16
 70
     32
  0
VERTEX
  8
MY3DLAYER
10
20.33200382809917
20
23.45003598731171
30
-4.919687127272328e-16
 70
     32
  0
VERTEX
  8
MY3DLAYER
10
14.999999999976504
20
23.450026549752803
30
-6.316512520864485e-16
 70
     32
  0
VERTEX
  8
MY3DLAYER
10
14.158838103393292
20
23.339285485192274
30
-6.440305285755069e-16
 70
     32
  0
VERTEX
  8
MY3DLAYER
10
13.374999999976474
20
23.01460911205222
30
-6.366607159621207e-16
 70
     32
  0
VERTEX
  8
MY3DLAYER
10
12.701902961120192
20
22.498123588609072
30
-6.100440547967015e-16
 70
     32
  0
VERTEX
  8
MY3DLAYER
10
12.185417437677062
20
21.825026549752796
30
-5.659944265515581e-16
 70
     32
  0
VERTEX
  8
MY3DLAYER
10
11.860741064537029
20
21.041188446335987
30
-5.075137405961469e-16
 70
     32
  0
VERTEX
  8
MY3DLAYER
10
11.749999999976483
20
20.200026549752796
30
-4.385873590344279e-16
 70
     32
  0
VERTEX
  8
MY3DLAYER
10
11.860741064537024
20
19.358864653169604
30
-3.6391250086359727e-16
 70
     32
  0
VERTEX
  8
MY3DLAYER
10
12.185417437677096
20
18.57502654975279
30
-2.885781342619586e-16
 70
     32
  0
VERTEX
  8
MY3DLAYER
10
12.701902961120208
20
17.901929510896515
30
-2.1771817181749347e-16
 70
     32
  0
VERTEX
  8
MY3DLAYER
10
13.374999999976492
20
17.385443987453367
30
-1.5616160286915615e-16
 70
     32
  0
VERTEX
  8
MY3DLAYER
10
14.158838103393292
20
17.060767614313313
30
-1.0810340586374572e-16
 70
     32
  0
VERTEX
  8
MY3DLAYER
10
14.999999999976483
20
16.950026549752792
30
-7.681866750725168e-17
 70
     32
  0
VERTEX
  8
MY3DLAYER
10
20.826084509883515
20
16.950036861826362
30
7.358730043886108e-17
 70
     32
  0
VERTEX
  8
MY3DLAYER
10
20.940653018652256
20
15.384755426462993
30
2.878782520002697e-16
 70
     32
  0
VERTEX
  8
MY3DLAYER
10
21.0992580043092
20
10.734325199532229
30
7.296007312438641e-16
 70
     32
  0
VERTEX
  8
MY3DLAYER
10
21.12323871110216
20
6.081252906656453
30
1.1680963641376542e-15
 70
     32
  0
VERTEX
  8
MY3DLAYER
10
21.012575058053134
20
1.429434940213615
30
1.6029979629539993e-15
 70
     32
  0
VERTEX
  8
MY3DLAYER
10
20.76735971275611
20
-3.217233357766936
30
2.0339413495396017e-15
 70
     32
  0
VERTEX
  8
MY3DLAYER
10
20.387798013779168
20
-7.854860957488188
30
2.4605656602712156e-15
 70
     32
  0
VERTEX
  8
MY3DLAYER
10
19.874207798718395
20
-12.479564399658317
30
2.88251364823585e-15
 70
     32
  0
VERTEX
  8
MY3DLAYER
10
19.302512698395248
20
-16.549965834901684
30
2.997033283598925e-15
 70
     32
  0
VERTEX
  8
MY3DLAYER
10
12.500035045654107
20
-16.549977875175014
30
2.7175527302268903e-15
 70
     32
  0
VERTEX
  8
MY3DLAYER
10
11.658873149070955
20
-16.66071893973551
30
2.705187692270568e-15
 70
     32
  0
VERTEX
  8
MY3DLAYER
10
10.875035045654103
20
-16.98539531287559
30
2.712571640778718e-15
 70
     32
  0
VERTEX
  8
MY3DLAYER
10
10.201938006797832
20
-17.501880836318723
30
2.739201371863065e-15
 70
     32
  0
VERTEX
  8
MY3DLAYER
10
9.685452483354691
20
-18.174977875174996
30
2.7832621133579204e-15
 70
     32
  0
VERTEX
  8
MY3DLAYER
10
9.360776110214681
20
-18.958815978591797
30
2.841751198544229e-15
 70
     32
  0
VERTEX
  8
MY3DLAYER
10
9.250035045654135
20
-19.799977875174985
30
2.910682692924323e-15
 70
     32
  0
VERTEX
  8
MY3DLAYER
10
9.360776110214648
20
-20.641139771758212
30
2.9853590290708874e-15
 70
     32
  0
VERTEX
  8
MY3DLAYER
10
9.685452483354696
20
-21.424977875175035
30
3.0606911380840066e-15
 70
     32
  0
VERTEX
  8
MY3DLAYER
10
10.201938006797839
20
-22.098074914031304
30
3.131545261226634e-15
 70
     32
  0
VERTEX
  8
MY3DLAYER
10
10.875035045654121
20
-22.61456043747444
30
3.1930928070985805e-15
 70
     32
  0
VERTEX
  8
MY3DLAYER
10
11.658873149070933
20
-22.939236810614474
30
3.241139412160795e-15
 70
     32
  0
SEQEND
  0
LINE
 8
Component#1
10
18.171695523997826
20
-23.049967836429428
30
3.532327832158445e-15
11
18.22169645159685
21
-22.799989872722662
31
3.608890671815786e-15
 0
ENDSEC
 0
EOF
