999
dxfrw 0.6.3
  0
SECTION
  2
HEADER
  9
$ACADVER
  1
AC1009
  9
$DWGCODEPAGE
  3
ANSI_1252
  9
$INSBASE
 10
0
 20
0
 30
0
  9
$EXTMIN
 10
-20.20337681316635
 20
-35.01566631248783
 30
0
  9
$EXTMAX
 10
20.27868551148481
 20
35.01201391157761
 30
0
  9
$LIMMIN
 10
0
 20
0
  9
$LIMMAX
 10
420
 20
297
  9
$ORTHOMODE
 70
    0
  9
$REGENMODE
 70
    1
  9
$FILLMODE
 70
    1
  9
$QTEXTMODE
 70
    0
  9
$MIRRTEXT
 70
    0
  9
$DRAGMODE
 70
    2
  9
$LTSCALE
 40
1
  9
$OSMODE
 70
    0
  9
$ATTMODE
 70
    0
  9
$TEXTSIZE
 40
2.5
  9
$TRACEWID
 40
15.68
  9
$TEXTSTYLE
  7
STANDARD
  9
$CLAYER
  8
0
  9
$CELTYPE
  6
BYLAYER
  9
$CECOLOR
 62
  256
  9
$DIMSCALE
 40
2.5
  9
$DIMASZ
 40
2.5
  9
$DIMEXO
 40
0.625
  9
$DIMDLI
 40
3.75
  9
$DIMRND
 40
0
  9
$DIMDLE
 40
0
  9
$DIMEXE
 40
1.25
  9
$DIMTP
 40
0
  9
$DIMTM
 40
0
  9
$DIMTXT
 40
2.5
  9
$DIMCEN
 40
2.5
  9
$DIMTSZ
 40
0
  9
$DIMTOL
 70
    0
  9
$DIMLIM
 70
    0
  9
$DIMTIH
 70
    0
  9
$DIMTOH
 70
    0
  9
$DIMSE1
 70
    0
  9
$DIMSE2
 70
    0
  9
$DIMTAD
 70
    1
  9
$DIMZIN
 70
    8
  9
$DIMBLK
  1

  9
$DIMASO
 70
    1
  9
$DIMSHO
 70
    1
  9
$DIMPOST
  1

  9
$DIMAPOST
  1

  9
$DIMALT
 70
    0
  9
$DIMALTD
 70
    3
  9
$DIMALTF
 40
0.03937
  9
$DIMLFAC
 40
1
  9
$DIMTOFL
 70
    1
  9
$DIMTVP
 40
0
  9
$DIMTIX
 70
    0
  9
$DIMSOXD
 70
    0
  9
$DIMSAH
 70
    0
  9
$DIMBLK1
  1

  9
$DIMBLK2
  1

  9
$DIMSTYLE
  2
STANDARD
  9
$DIMCLRD
 70
    0
  9
$DIMCLRE
 70
    0
  9
$DIMCLRT
 70
    0
  9
$DIMTFAC
 40
1
  9
$DIMGAP
 40
0.625
  9
$LUNITS
 70
    2
  9
$LUPREC
 70
    4
  9
$SKETCHINC
 40
1
  9
$FILLETRAD
 40
0
  9
$AUNITS
 70
    0
  9
$AUPREC
 70
    2
  9
$MENU
  1
.
  9
$ELEVATION
 40
0
  9
$PELEVATION
 40
0
  9
$THICKNESS
 40
0
  9
$LIMCHECK
 70
    0
  9
$BLIPMODE
 70
    0
  9
$CHAMFERA
 40
0
  9
$CHAMFERB
 40
0
  9
$SKPOLY
 70
    0
  9
$USRTIMER
 70
    1
  9
$ANGBASE
 50
0
  9
$ANGDIR
 70
    0
  9
$PDMODE
 70
   34
  9
$PDSIZE
 40
0
  9
$PLINEWID
 40
0
  9
$COORDS
 70
    2
  9
$SPLFRAME
 70
    0
  9
$SPLINETYPE
 70
    2
  9
$SPLINESEGS
 70
    8
  9
$ATTDIA
 70
    1
  9
$ATTREQ
 70
    1
  9
$HANDLING
 70
    1
  9
$HANDSEED
  5
20000
  9
$SURFTAB1
 70
    6
  9
$SURFTAB2
 70
    6
  9
$SURFTYPE
 70
    6
  9
$SURFU
 70
    6
  9
$SURFV
 70
    6
  9
$UCSNAME
  2

  9
$UCSORG
 10
0
 20
0
 30
0
  9
$UCSXDIR
 10
1
 20
0
 30
0
  9
$UCSYDIR
 10
0
 20
1
 30
0
  9
$PUCSNAME
  2

  9
$PUCSORG
 10
0
 20
0
 30
0
  9
$PUCSXDIR
 10
1
 20
0
 30
0
  9
$PUCSYDIR
 10
0
 20
1
 30
0
  9
$USERI1
 70
    0
  9
$USERI2
 70
    0
  9
$USERI3
 70
    0
  9
$USERI4
 70
    0
  9
$USERI5
 70
    0
  9
$USERR1
 40
0
  9
$USERR2
 40
0
  9
$USERR3
 40
0
  9
$USERR4
 40
0
  9
$USERR5
 40
0
  9
$WORLDVIEW
 70
    1
  9
$SHADEDGE
 70
    3
  9
$SHADEDIF
 70
   70
  9
$TILEMODE
 70
    1
  9
$MAXACTVP
 70
   64
  9
$PLIMCHECK
 70
    0
  9
$PEXTMIN
 10
0
 20
0
 30
0
  9
$PEXTMAX
 10
0
 20
0
 30
0
  9
$SNAPSTYLE
 70
    0
  9
$PLIMMIN
 10
0
 20
0
  9
$PLIMMAX
 10
210
 20
297
  9
$UNITMODE
 70
    0
  9
$VISRETAIN
 70
    1
  9
$PLINEGEN
 70
    0
  9
$PSLTSCALE
 70
    1
  0
ENDSEC
  0
SECTION
  2
TABLES
  0
TABLE
  2
VPORT
 70
    1
  0
VPORT
  2
*ACTIVE
 70
    0
 10
0
 20
0
 11
1
 21
1
 12
113.566402814424
 22
51.1213720316623
 13
0
 23
0
 14
10
 24
10
 15
10
 25
10
 16
0
 26
0
 36
1
 17
0
 27
0
 37
0
 40
172.6033421284082
 41
1.988535031847134
 42
50
 43
0
 44
0
 50
0
 51
0
 71
    0
 72
  100
 73
    1
 74
    3
 75
    0
 76
    1
 77
    0
 78
    0
  0
ENDTAB
  0
TABLE
  2
LTYPE
 70
    4
  0
LTYPE
  2
BYBLOCK
 70
    0
  3

 72
   65
 73
    0
 40
0
  0
LTYPE
  2
BYLAYER
 70
    0
  3

 72
   65
 73
    0
 40
0
  0
LTYPE
  2
CONTINUOUS
 70
    0
  3
Solid line
 72
   65
 73
    0
 40
0
  0
LTYPE
  2
DOT
 70
    0
  3
Dot . . . . . . . . . . . . . . . . . . . . . .
 72
   65
 73
    2
 40
6.35
 49
0
 49
-6.35
  0
LTYPE
  2
DOTTINY
 70
    0
  3
Dot (.15x) .....................................
 72
   65
 73
    2
 40
0.9525
 49
0
 49
-0.9525
  0
LTYPE
  2
DOT2
 70
    0
  3
Dot (.5x) .....................................
 72
   65
 73
    2
 40
3.175
 49
0
 49
-3.175
  0
LTYPE
  2
DOTX2
 70
    0
  3
Dot (2x) .  .  .  .  .  .  .  .  .  .  .  .  .
 72
   65
 73
    2
 40
12.7
 49
0
 49
-12.7
  0
LTYPE
  2
DASHED
 70
    0
  3
Dashed _ _ _ _ _ _ _ _ _ _ _ _ _ _ _ _ _
 72
   65
 73
    2
 40
19.05
 49
12.7
 49
-6.35
  0
LTYPE
  2
DASHEDTINY
 70
    0
  3
Dashed (.15x) _ _ _ _ _ _ _ _ _ _ _ _ _ _ _ _ _
 72
   65
 73
    2
 40
2.8575
 49
1.905
 49
-0.9525
  0
LTYPE
  2
DASHED2
 70
    0
  3
Dashed (.5x) _ _ _ _ _ _ _ _ _ _ _ _ _ _ _ _ _
 72
   65
 73
    2
 40
9.524999999999999
 49
6.35
 49
-3.175
  0
LTYPE
  2
DASHEDX2
 70
    0
  3
Dashed (2x) ____  ____  ____  ____  ____  ___
 72
   65
 73
    2
 40
38.09999999999999
 49
25.4
 49
-12.7
  0
LTYPE
  2
DASHDOT
 70
    0
  3
Dash dot __ . __ . __ . __ . __ . __ . __ . __
 72
   65
 73
    4
 40
25.4
 49
12.7
 49
-6.35
 49
0
 49
-6.35
  0
LTYPE
  2
DASHDOTTINY
 70
    0
  3
Dash dot (.15x) _._._._._._._._._._._._._._._.
 72
   65
 73
    4
 40
3.81
 49
1.905
 49
-0.9525
 49
0
 49
-0.9525
  0
LTYPE
  2
DASHDOT2
 70
    0
  3
Dash dot (.5x) _._._._._._._._._._._._._._._.
 72
   65
 73
    4
 40
12.7
 49
6.35
 49
-3.175
 49
0
 49
-3.175
  0
LTYPE
  2
DASHDOTX2
 70
    0
  3
Dash dot (2x) ____  .  ____  .  ____  .  ___
 72
   65
 73
    4
 40
50.8
 49
25.4
 49
-12.7
 49
0
 49
-12.7
  0
LTYPE
  2
DIVIDE
 70
    0
  3
Divide ____ . . ____ . . ____ . . ____ . . ____
 72
   65
 73
    6
 40
31.75
 49
12.7
 49
-6.35
 49
0
 49
-6.35
 49
0
 49
-6.35
  0
LTYPE
  2
DIVIDETINY
 70
    0
  3
Divide (.15x) __..__..__..__..__..__..__..__.._
 72
   65
 73
    6
 40
4.7625
 49
1.905
 49
-0.9525
 49
0
 49
-0.9525
 49
0
 49
-0.9525
  0
LTYPE
  2
DIVIDE2
 70
    0
  3
Divide (.5x) __..__..__..__..__..__..__..__.._
 72
   65
 73
    6
 40
15.875
 49
6.35
 49
-3.175
 49
0
 49
-3.175
 49
0
 49
-3.175
  0
LTYPE
  2
DIVIDEX2
 70
    0
  3
Divide (2x) ________  .  .  ________  .  .  _
 72
   65
 73
    6
 40
63.5
 49
25.4
 49
-12.7
 49
0
 49
-12.7
 49
0
 49
-12.7
  0
LTYPE
  2
BORDER
 70
    0
  3
Border __ __ . __ __ . __ __ . __ __ . __ __ .
 72
   65
 73
    6
 40
44.45
 49
12.7
 49
-6.35
 49
12.7
 49
-6.35
 49
0
 49
-6.35
  0
LTYPE
  2
BORDERTINY
 70
    0
  3
Border (.15x) __.__.__.__.__.__.__.__.__.__.__.
 72
   65
 73
    6
 40
6.6675
 49
1.905
 49
-0.9525
 49
1.905
 49
-0.9525
 49
0
 49
-0.9525
  0
LTYPE
  2
BORDER2
 70
    0
  3
Border (.5x) __.__.__.__.__.__.__.__.__.__.__.
 72
   65
 73
    6
 40
22.225
 49
6.35
 49
-3.175
 49
6.35
 49
-3.175
 49
0
 49
-3.175
  0
LTYPE
  2
BORDERX2
 70
    0
  3
Border (2x) ____  ____  .  ____  ____  .  ___
 72
   65
 73
    6
 40
88.89999999999999
 49
25.4
 49
-12.7
 49
25.4
 49
-12.7
 49
0
 49
-12.7
  0
LTYPE
  2
CENTER
 70
    0
  3
Center ____ _ ____ _ ____ _ ____ _ ____ _ ____
 72
   65
 73
    4
 40
50.8
 49
31.75
 49
-6.35
 49
6.35
 49
-6.35
  0
LTYPE
  2
CENTERTINY
 70
    0
  3
Center (.15x) ___ _ ___ _ ___ _ ___ _ ___ _ ___
 72
   65
 73
    4
 40
7.62
 49
4.7625
 49
-0.9525
 49
0.9525
 49
-0.9525
  0
LTYPE
  2
CENTER2
 70
    0
  3
Center (.5x) ___ _ ___ _ ___ _ ___ _ ___ _ ___
 72
   65
 73
    4
 40
28.575
 49
19.05
 49
-3.175
 49
3.175
 49
-3.175
  0
LTYPE
  2
CENTERX2
 70
    0
  3
Center (2x) ________  __  ________  __  _____
 72
   65
 73
    4
 40
101.6
 49
63.5
 49
-12.7
 49
12.7
 49
-12.7
  0
ENDTAB
  0
TABLE
  2
LAYER
 70
    1
  0
LAYER
  2
0
 70
    0
 62
    7
  6
CONTINUOUS
  0
LAYER
  2
LAYER0
 70
    0
 62
    7
  6
CONTINUOUS
  0
ENDTAB
  0
TABLE
  2
STYLE
 70
    3
  0
STYLE
  2
STANDARD
 70
    0
 40
0
 41
1
 50
0
 71
    0
 42
1
  3
TXT
  4

  0
ENDTAB
  0
TABLE
  2
VIEW
 70
    0
  0
ENDTAB
  0
TABLE
  2
UCS
 70
    0
  0
ENDTAB
  0
TABLE
  2
APPID
 70
    1
  0
APPID
  2
ACAD
 70
    0
  0
APPID
  2
LIBRECAD
 70
    0
  0
ENDTAB
  0
TABLE
  2
DIMSTYLE
 70
    1
  0
DIMSTYLE
  2
STANDARD
 70
    0
  3

  4

  5

  6

  7

 40
1
 41
2.5
 42
0.625
 43
0.38
 44
1.25
 45
0
 46
0
 47
0
 48
0
 49
1
140
2.5
141
0.09
142
2.5
143
25.4
144
1
145
0
146
1
147
0.625
 71
    0
 72
    0
 73
    0
 74
    1
 75
    0
 76
    0
 77
    0
 78
    1
170
    0
171
    2
172
    0
173
    0
174
    0
175
    0
176
    0
177
    0
178
    0
  0
ENDTAB
  0
ENDSEC
  0
SECTION
  2
BLOCKS
  0
BLOCK
  8
0
  2
$MODEL_SPACE
 70
    0
 10
0
 20
0
 30
0
  3
$MODEL_SPACE
  1

  0
ENDBLK
  8
0
  0
BLOCK
  8
0
  2
$PAPER_SPACE
 70
    0
 10
0
 20
0
 30
0
  3
$PAPER_SPACE
  1

  0
ENDBLK
  8
0
  0
ENDSEC
  0
SECTION
  2
ENTITIES
  0
LINE
  5
31
  8
LAYER0
  6
BYLAYER
 62
  256
 10
12.0436211151433
 20
-34.98409001072903
 11
9.500051763587969
 21
-34.98927537537972
  0
LINE
  5
32
  8
LAYER0
  6
BYLAYER
 62
  256
 10
9.500051763587969
 20
-34.98927537537972
 11
9.500051763587969
 21
-28.99442335724646
  0
LINE
  5
33
  8
LAYER0
  6
BYLAYER
 62
  256
 10
9.500051763587969
 20
-28.99442335724646
 11
3.500051763587969
 21
-28.99442335724646
  0
LINE
  5
34
  8
LAYER0
  6
BYLAYER
 62
  256
 10
3.500051763587969
 20
-28.99442335724646
 11
3.50005224031743
 21
-34.99442335724644
  0
LINE
  5
35
  8
LAYER0
  6
BYLAYER
 62
  256
 10
3.50005224031743
 20
-34.99442335724644
 11
-6.499948048303098
 21
-35.00000033829283
  0
LINE
  5
36
  8
LAYER0
  6
BYLAYER
 62
  256
 10
-6.499948048303098
 20
-35.00000033829283
 11
-6.499948048303098
 21
-33.00000033829283
  0
LINE
  5
37
  8
LAYER0
  6
BYLAYER
 62
  256
 10
-6.499948048303098
 20
-33.00000033829283
 11
-10.0999480483031
 21
-33.00000033829283
  0
LINE
  5
38
  8
LAYER0
  6
BYLAYER
 62
  256
 10
-10.0999480483031
 20
-33.00000033829283
 11
-10.0999480483031
 21
-35.00475616926389
  0
LINE
  5
39
  8
LAYER0
  6
BYLAYER
 62
  256
 10
-10.0999480483031
 20
-35.00475616926389
 11
-11.85855014016047
 21
-35.01566631248783
  0
LINE
  5
3A
  8
LAYER0
  6
BYLAYER
 62
  256
 10
-11.85855014016047
 20
-35.01566631248783
 11
-12.15970941543879
 21
-34.96515936240779
  0
LINE
  5
3B
  8
LAYER0
  6
BYLAYER
 62
  256
 10
-12.15970941543879
 20
-34.96515936240779
 11
-12.4554047410405
 21
-34.8889219994553
  0
LINE
  5
3C
  8
LAYER0
  6
BYLAYER
 62
  256
 10
-12.4554047410405
 20
-34.8889219994553
 11
-12.74344202668946
 21
-34.78751991284609
  0
LINE
  5
3D
  8
LAYER0
  6
BYLAYER
 62
  256
 10
-12.74344202668946
 20
-34.78751991284609
 11
-13.02168400556766
 21
-34.66170551668169
  0
LINE
  5
3E
  8
LAYER0
  6
BYLAYER
 62
  256
 10
-13.02168400556766
 20
-34.66170551668169
 11
-13.28806609305926
 21
-34.51241236695143
  0
LINE
  5
3F
  8
LAYER0
  6
BYLAYER
 62
  256
 10
-13.28806609305926
 20
-34.51241236695143
 11
-13.54061170618394
 21
-34.34074823445938
  0
LINE
  5
40
  8
LAYER0
  6
BYLAYER
 62
  256
 10
-13.54061170618394
 20
-34.34074823445938
 11
-13.77744693005032
 21
-34.14798688504256
  0
LINE
  5
41
  8
LAYER0
  6
BYLAYER
 62
  256
 10
-13.77744693005032
 20
-34.14798688504256
 11
-13.99681442249956
 21
-33.93555862809684
  0
LINE
  5
42
  8
LAYER0
  6
BYLAYER
 62
  256
 10
-13.99681442249956
 20
-33.93555862809684
 11
-14.19708645376965
 21
-33.70503970352955
  0
LINE
  5
43
  8
LAYER0
  6
BYLAYER
 62
  256
 10
-14.19708645376965
 20
-33.70503970352955
 11
-14.37677698441941
 21
-33.45814058589833
  0
LINE
  5
44
  8
LAYER0
  6
BYLAYER
 62
  256
 10
-14.37677698441941
 20
-33.45814058589833
 11
-14.53455269189719
 21
-33.19669329250551
  0
LINE
  5
45
  8
LAYER0
  6
BYLAYER
 62
  256
 10
-14.53455269189719
 20
-33.19669329250551
 11
-14.66924286393399
 21
-32.92263778964297
  0
LINE
  5
46
  8
LAYER0
  6
BYLAYER
 62
  256
 10
-14.66924286393399
 20
-32.92263778964297
 11
-15.34152524149365
 21
-30.23677721659156
  0
LINE
  5
47
  8
LAYER0
  6
BYLAYER
 62
  256
 10
-15.34152524149365
 20
-30.23677721659156
 11
-15.97397103571306
 21
-27.54125817002298
  0
LINE
  5
48
  8
LAYER0
  6
BYLAYER
 62
  256
 10
-15.97397103571306
 20
-27.54125817002298
 11
-16.56644162323637
 21
-24.83667147036475
  0
LINE
  5
49
  8
LAYER0
  6
BYLAYER
 62
  256
 10
-16.56644162323637
 20
-24.83667147036475
 11
-16.91009571843052
 21
-23.14874078406644
  0
LINE
  5
4A
  8
LAYER0
  6
BYLAYER
 62
  256
 10
-16.91009571843052
 20
-23.14874078406644
 11
-16.91009571843052
 21
-23.04991409370577
  0
LINE
  5
4B
  8
LAYER0
  6
BYLAYER
 62
  256
 10
-16.91009571843052
 20
-23.04991409370577
 11
-12.47629853645287
 21
-23.04991409370577
  0
LINE
  5
4C
  8
LAYER0
  6
BYLAYER
 62
  256
 10
-12.47629853645287
 20
-23.04991409370577
 11
-11.63596405092598
 21
-22.93306003054278
  0
LINE
  5
4D
  8
LAYER0
  6
BYLAYER
 62
  256
 10
-11.63596405092598
 20
-22.93306003054278
 11
-10.85450732567842
 21
-22.60269310391604
  0
LINE
  5
4E
  8
LAYER0
  6
BYLAYER
 62
  256
 10
-10.85450732567842
 20
-22.60269310391604
 11
-10.18518334511752
 21
-22.08132727391801
  0
LINE
  5
4F
  8
LAYER0
  6
BYLAYER
 62
  256
 10
-10.18518334511752
 20
-22.08132727391801
 11
-9.673605432408305
 21
-21.40449276026528
  0
LINE
  5
50
  8
LAYER0
  6
BYLAYER
 62
  256
 10
-9.673605432408305
 20
-21.40449276026528
 11
-9.354636776879449
 21
-20.61831471654138
  0
LINE
  5
51
  8
LAYER0
  6
BYLAYER
 62
  256
 10
-9.354636776879449
 20
-20.61831471654138
 11
-9.250014565284618
 21
-19.77636987720543
  0
LINE
  5
52
  8
LAYER0
  6
BYLAYER
 62
  256
 10
-9.250014565284618
 20
-19.77636987720543
 11
-9.366868628447614
 21
-18.93603539167855
  0
LINE
  5
53
  8
LAYER0
  6
BYLAYER
 62
  256
 10
-9.366868628447614
 20
-18.93603539167855
 11
-9.697235555074355
 21
-18.15457866643099
  0
LINE
  5
54
  8
LAYER0
  6
BYLAYER
 62
  256
 10
-9.697235555074355
 20
-18.15457866643099
 11
-10.21860138507238
 21
-17.48525468587008
  0
LINE
  5
55
  8
LAYER0
  6
BYLAYER
 62
  256
 10
-10.21860138507238
 20
-17.48525468587008
 11
-10.89543589872511
 21
-16.97367677316087
  0
LINE
  5
56
  8
LAYER0
  6
BYLAYER
 62
  256
 10
-10.89543589872511
 20
-16.97367677316087
 11
-11.68161394244902
 21
-16.65470811763202
  0
LINE
  5
57
  8
LAYER0
  6
BYLAYER
 62
  256
 10
-11.68161394244902
 20
-16.65470811763202
 11
-12.52355878178497
 21
-16.55008590603718
  0
LINE
  5
58
  8
LAYER0
  6
BYLAYER
 62
  256
 10
-12.52355878178497
 20
-16.55008590603718
 11
-18.10274751109785
 21
-16.55008590603718
  0
LINE
  5
59
  8
LAYER0
  6
BYLAYER
 62
  256
 10
-18.10274751109785
 20
-16.55008590603718
 11
-18.53410669389646
 21
-13.93953138064559
  0
LINE
  5
5A
  8
LAYER0
  6
BYLAYER
 62
  256
 10
-18.53410669389646
 20
-13.93953138064559
 11
-18.92492952373148
 21
-11.19853372856251
  0
LINE
  5
5B
  8
LAYER0
  6
BYLAYER
 62
  256
 10
-18.92492952373148
 20
-11.19853372856251
 11
-19.27513033765289
 21
-8.452050522173524
  0
LINE
  5
5C
  8
LAYER0
  6
BYLAYER
 62
  256
 10
-19.27513033765289
 20
-8.452050522173524
 11
-19.58463237649383
 21
-5.70068375254835
  0
LINE
  5
5D
  8
LAYER0
  6
BYLAYER
 62
  256
 10
-19.58463237649383
 20
-5.70068375254835
 11
-19.85336780169582
 21
-2.945036481164991
  0
LINE
  5
5E
  8
LAYER0
  6
BYLAYER
 62
  256
 10
-19.85336780169582
 20
-2.945036481164991
 11
-20.08127771017627
 21
-0.1857127077259831
  0
LINE
  5
5F
  8
LAYER0
  6
BYLAYER
 62
  256
 10
-20.08127771017627
 20
-0.1857127077259831
 11
-20.14929294861945
 21
2.047808487274518
  0
LINE
  5
60
  8
LAYER0
  6
BYLAYER
 62
  256
 10
-20.14929294861945
 20
2.047808487274518
 11
-20.18999467786379
 21
4.281994327893877
  0
LINE
  5
61
  8
LAYER0
  6
BYLAYER
 62
  256
 10
-20.18999467786379
 20
4.281994327893877
 11
-20.20337681316635
 21
6.516510812423884
  0
LINE
  5
62
  8
LAYER0
  6
BYLAYER
 62
  256
 10
-20.20337681316635
 20
6.516510812423884
 11
-20.18943735395219
 21
8.751023889731149
  0
LINE
  5
63
  8
LAYER0
  6
BYLAYER
 62
  256
 10
-20.18943735395219
 20
8.751023889731149
 11
-20.14817838411382
 21
10.98519950919022
  0
LINE
  5
64
  8
LAYER0
  6
BYLAYER
 62
  256
 10
-20.14817838411382
 20
10.98519950919022
 11
-20.07960607169971
 21
13.2187036706262
  0
LINE
  5
65
  8
LAYER0
  6
BYLAYER
 62
  256
 10
-20.07960607169971
 20
13.2187036706262
 11
-19.98373066799163
 21
15.45120247424187
  0
LINE
  5
66
  8
LAYER0
  6
BYLAYER
 62
  256
 10
-19.98373066799163
 20
15.45120247424187
 11
-19.90099425894392
 21
16.94999999990395
  0
LINE
  5
67
  8
LAYER0
  6
BYLAYER
 62
  256
 10
-19.90099425894392
 20
16.94999999990395
 11
-14.99993770657717
 21
16.94999999990395
  0
LINE
  5
68
  8
LAYER0
  6
BYLAYER
 62
  256
 10
-14.99993770657717
 20
16.94999999990395
 11
-14.15877580999398
 21
17.06074106446448
  0
LINE
  5
69
  8
LAYER0
  6
BYLAYER
 62
  256
 10
-14.15877580999398
 20
17.06074106446448
 11
-13.37493770657717
 21
17.38541743760452
  0
LINE
  5
6A
  8
LAYER0
  6
BYLAYER
 62
  256
 10
-13.37493770657717
 20
17.38541743760452
 11
-12.70184066772089
 21
17.90190296104767
  0
LINE
  5
6B
  8
LAYER0
  6
BYLAYER
 62
  256
 10
-12.70184066772089
 20
17.90190296104767
 11
-12.18535514427774
 21
18.57499999990394
  0
LINE
  5
6C
  8
LAYER0
  6
BYLAYER
 62
  256
 10
-12.18535514427774
 20
18.57499999990394
 11
-11.8606787711377
 21
19.35883810332075
  0
LINE
  5
6D
  8
LAYER0
  6
BYLAYER
 62
  256
 10
-11.8606787711377
 20
19.35883810332075
 11
-11.74993770657717
 21
20.19999999990395
  0
LINE
  5
6E
  8
LAYER0
  6
BYLAYER
 62
  256
 10
-11.74993770657717
 20
20.19999999990395
 11
-11.8606787711377
 21
21.04116189648714
  0
LINE
  5
6F
  8
LAYER0
  6
BYLAYER
 62
  256
 10
-11.8606787711377
 20
21.04116189648714
 11
-12.18535514427774
 21
21.82499999990395
  0
LINE
  5
70
  8
LAYER0
  6
BYLAYER
 62
  256
 10
-12.18535514427774
 20
21.82499999990395
 11
-12.70184066772089
 21
22.49809703876023
  0
LINE
  5
71
  8
LAYER0
  6
BYLAYER
 62
  256
 10
-12.70184066772089
 20
22.49809703876023
 11
-13.37493770657717
 21
23.01458256220338
  0
LINE
  5
72
  8
LAYER0
  6
BYLAYER
 62
  256
 10
-13.37493770657717
 20
23.01458256220338
 11
-14.15877580999398
 21
23.33925893534342
  0
LINE
  5
73
  8
LAYER0
  6
BYLAYER
 62
  256
 10
-14.15877580999398
 20
23.33925893534342
 11
-14.99993770657717
 21
23.44999999990395
  0
LINE
  5
74
  8
LAYER0
  6
BYLAYER
 62
  256
 10
-14.99993770657717
 20
23.44999999990395
 11
-19.41175576300419
 21
23.44999999990395
  0
LINE
  5
75
  8
LAYER0
  6
BYLAYER
 62
  256
 10
-19.41175576300419
 20
23.44999999990395
 11
-19.32754597613919
 21
24.36447242253067
  0
LINE
  5
76
  8
LAYER0
  6
BYLAYER
 62
  256
 10
-19.32754597613919
 20
24.36447242253067
 11
-19.09545165693551
 21
26.5869429461083
  0
LINE
  5
77
  8
LAYER0
  6
BYLAYER
 62
  256
 10
-19.09545165693551
 20
26.5869429461083
 11
-18.78101030877305
 21
27.71355214194546
  0
LINE
  5
78
  8
LAYER0
  6
BYLAYER
 62
  256
 10
-18.78101030877305
 20
27.71355214194546
 11
-18.34578562720693
 21
28.79923216761451
  0
LINE
  5
79
  8
LAYER0
  6
BYLAYER
 62
  256
 10
-18.34578562720693
 20
28.79923216761451
 11
-17.79495142980856
 21
29.83107679184568
  0
LINE
  5
7A
  8
LAYER0
  6
BYLAYER
 62
  256
 10
-17.79495142980856
 20
29.83107679184568
 11
-17.13505586462665
 21
30.79681976212061
  0
LINE
  5
7B
  8
LAYER0
  6
BYLAYER
 62
  256
 10
-17.13505586462665
 20
30.79681976212061
 11
-16.37394356781107
 21
31.68498062210894
  0
LINE
  5
7C
  8
LAYER0
  6
BYLAYER
 62
  256
 10
-16.37394356781107
 20
31.68498062210894
 11
-15.52066240898394
 21
32.48500118782584
  0
LINE
  5
7D
  8
LAYER0
  6
BYLAYER
 62
  256
 10
-15.52066240898394
 20
32.48500118782584
 11
-14.58535593293878
 21
33.18737106007925
  0
LINE
  5
7E
  8
LAYER0
  6
BYLAYER
 62
  256
 10
-14.58535593293878
 20
33.18737106007925
 11
-13.57914277629116
 21
33.78374068117691
  0
LINE
  5
7F
  8
LAYER0
  6
BYLAYER
 62
  256
 10
-13.57914277629116
 20
33.78374068117691
 11
-12.51398449253463
 21
34.26702059191685
  0
LINE
  5
80
  8
LAYER0
  6
BYLAYER
 62
  256
 10
-12.51398449253463
 20
34.26702059191685
 11
-11.40254335676129
 21
34.63146570889641
  0
LINE
  5
81
  8
LAYER0
  6
BYLAYER
 62
  256
 10
-11.40254335676129
 20
34.63146570889641
 11
-10.25803184041676
 21
34.87274362030701
  0
LINE
  5
82
  8
LAYER0
  6
BYLAYER
 62
  256
 10
-10.25803184041676
 20
34.87274362030701
 11
-9.094055545491834
 21
34.98798608831553
  0
LINE
  5
83
  8
LAYER0
  6
BYLAYER
 62
  256
 10
-9.094055545491834
 20
34.98798608831553
 11
6.115733956648388e-005
 21
34.99999999994657
  0
LINE
  5
84
  8
LAYER0
  6
BYLAYER
 62
  256
 10
6.115733956648388e-005
 20
34.99999999994657
 11
9.09417786017098
 21
35.01201391157761
  0
LINE
  5
85
  8
LAYER0
  6
BYLAYER
 62
  256
 10
9.09417786017098
 20
35.01201391157761
 11
10.25845457719256
 21
34.89984721517553
  0
LINE
  5
86
  8
LAYER0
  6
BYLAYER
 62
  256
 10
10.25845457719256
 20
34.89984721517553
 11
11.40359958480636
 21
34.66159408693444
  0
LINE
  5
87
  8
LAYER0
  6
BYLAYER
 62
  256
 10
11.40359958480636
 20
34.66159408693444
 11
12.51599975027237
 21
34.30008680699255
  0
LINE
  5
88
  8
LAYER0
  6
BYLAYER
 62
  256
 10
12.51599975027237
 20
34.30008680699255
 11
13.58243120149325
 21
33.81962286305252
  0
LINE
  5
89
  8
LAYER0
  6
BYLAYER
 62
  256
 10
13.58243120149325
 20
33.81962286305252
 11
14.59021652835346
 21
33.22591386316707
  0
LINE
  5
8A
  8
LAYER0
  6
BYLAYER
 62
  256
 10
14.59021652835346
 20
33.22591386316707
 11
15.52737548788064
 21
32.52601763788898
  0
LINE
  5
8B
  8
LAYER0
  6
BYLAYER
 62
  256
 10
15.52737548788064
 20
32.52601763788898
 11
16.3827674217047
 21
31.72825433895369
  0
LINE
  5
8C
  8
LAYER0
  6
BYLAYER
 62
  256
 10
16.3827674217047
 20
31.72825433895369
 11
17.14622369278575
 21
30.84210753185788
  0
LINE
  5
8D
  8
LAYER0
  6
BYLAYER
 62
  256
 10
17.14622369278575
 20
30.84210753185788
 11
17.80866856705446
 21
29.87811145814309
  0
LINE
  5
8E
  8
LAYER0
  6
BYLAYER
 62
  256
 10
17.80866856705446
 20
29.87811145814309
 11
18.36222710295568
 21
28.84772580756899
  0
LINE
  5
8F
  8
LAYER0
  6
BYLAYER
 62
  256
 10
18.36222710295568
 20
28.84772580756899
 11
18.80031876634034
 21
27.76319948882246
  0
LINE
  5
90
  8
LAYER0
  6
BYLAYER
 62
  256
 10
18.80031876634034
 20
27.76319948882246
 11
19.11773565783611
 21
26.63742501825907
  0
LINE
  5
91
  8
LAYER0
  6
BYLAYER
 62
  256
 10
19.11773565783611
 20
26.63742501825907
 11
19.35570120899143
 21
24.41557547392863
  0
LINE
  5
92
  8
LAYER0
  6
BYLAYER
 62
  256
 10
19.35570120899143
 20
24.41557547392863
 11
19.44719029180627
 21
23.44999999992998
  0
LINE
  5
93
  8
LAYER0
  6
BYLAYER
 62
  256
 10
19.44719029180627
 20
23.44999999992998
 11
15.00005318911092
 21
23.44999999992998
  0
LINE
  5
94
  8
LAYER0
  6
BYLAYER
 62
  256
 10
15.00005318911092
 20
23.44999999992998
 11
14.15889129252773
 21
23.33925893536945
  0
LINE
  5
95
  8
LAYER0
  6
BYLAYER
 62
  256
 10
14.15889129252773
 20
23.33925893536945
 11
13.37505318911092
 21
23.0145825622294
  0
LINE
  5
96
  8
LAYER0
  6
BYLAYER
 62
  256
 10
13.37505318911092
 20
23.0145825622294
 11
12.70195615025464
 21
22.49809703878626
  0
LINE
  5
97
  8
LAYER0
  6
BYLAYER
 62
  256
 10
12.70195615025464
 20
22.49809703878626
 11
12.1854706268115
 21
21.82499999992998
  0
LINE
  5
98
  8
LAYER0
  6
BYLAYER
 62
  256
 10
12.1854706268115
 20
21.82499999992998
 11
11.86079425367145
 21
21.04116189651317
  0
LINE
  5
99
  8
LAYER0
  6
BYLAYER
 62
  256
 10
11.86079425367145
 20
21.04116189651317
 11
11.75005318911092
 21
20.19999999992998
  0
LINE
  5
9A
  8
LAYER0
  6
BYLAYER
 62
  256
 10
11.75005318911092
 20
20.19999999992998
 11
11.86079425367145
 21
19.35883810334678
  0
LINE
  5
9B
  8
LAYER0
  6
BYLAYER
 62
  256
 10
11.86079425367145
 20
19.35883810334678
 11
12.1854706268115
 21
18.57499999992998
  0
LINE
  5
9C
  8
LAYER0
  6
BYLAYER
 62
  256
 10
12.1854706268115
 20
18.57499999992998
 11
12.70195615025464
 21
17.9019029610737
  0
LINE
  5
9D
  8
LAYER0
  6
BYLAYER
 62
  256
 10
12.70195615025464
 20
17.9019029610737
 11
13.37505318911092
 21
17.38541743763055
  0
LINE
  5
9E
  8
LAYER0
  6
BYLAYER
 62
  256
 10
13.37505318911092
 20
17.38541743763055
 11
14.15889129252773
 21
17.0607410644905
  0
LINE
  5
9F
  8
LAYER0
  6
BYLAYER
 62
  256
 10
14.15889129252773
 20
17.0607410644905
 11
15.00005318911092
 21
16.94999999992998
  0
LINE
  5
A0
  8
LAYER0
  6
BYLAYER
 62
  256
 10
15.00005318911092
 20
16.94999999992998
 11
19.95178302989375
 21
16.94999999992998
  0
LINE
  5
A1
  8
LAYER0
  6
BYLAYER
 62
  256
 10
19.95178302989375
 20
16.94999999992998
 11
20.03543357231798
 21
15.5040703577804
  0
LINE
  5
A2
  8
LAYER0
  6
BYLAYER
 62
  256
 10
20.03543357231798
 20
15.5040703577804
 11
20.13720717939446
 21
13.27183266118889
  0
LINE
  5
A3
  8
LAYER0
  6
BYLAYER
 62
  256
 10
20.13720717939446
 20
13.27183266118889
 11
20.21168044675583
 21
11.03851747214139
  0
LINE
  5
A4
  8
LAYER0
  6
BYLAYER
 62
  256
 10
20.21168044675583
 20
11.03851747214139
 11
20.25884224095171
 21
8.80445866218453
  0
LINE
  5
A5
  8
LAYER0
  6
BYLAYER
 62
  256
 10
20.25884224095171
 20
8.80445866218453
 11
20.27868551148481
 21
6.569990214030803
  0
LINE
  5
A6
  8
LAYER0
  6
BYLAYER
 62
  256
 10
20.27868551148481
 20
6.569990214030803
 11
20.27120729186737
 21
4.335446171633608
  0
LINE
  5
A7
  8
LAYER0
  6
BYLAYER
 62
  256
 10
20.27120729186737
 20
4.335446171633608
 11
20.23640870006298
 21
2.101160590246026
  0
LINE
  5
A8
  8
LAYER0
  6
BYLAYER
 62
  256
 10
20.23640870006298
 20
2.101160590246026
 11
20.17429493831887
 21
-0.1325325135126527
  0
LINE
  5
A9
  8
LAYER0
  6
BYLAYER
 62
  256
 10
20.17429493831887
 20
-0.1325325135126527
 11
19.95367630009395
 21
-2.892448821938778
  0
LINE
  5
AA
  8
LAYER0
  6
BYLAYER
 62
  256
 10
19.95367630009395
 20
-2.892448821938778
 11
19.69222257387211
 21
-5.648796507207476
  0
LINE
  5
AB
  8
LAYER0
  6
BYLAYER
 62
  256
 10
19.69222257387211
 20
-5.648796507207476
 11
19.38999106668842
 21
-8.400971416096329
  0
LINE
  5
AC
  8
LAYER0
  6
BYLAYER
 62
  256
 10
19.38999106668842
 20
-8.400971416096329
 11
19.04704802350179
 21
-11.14837030999034
  0
LINE
  5
AD
  8
LAYER0
  6
BYLAYER
 62
  256
 10
19.04704802350179
 20
-11.14837030999034
 11
18.66346861267615
 21
-13.89039099711798
  0
LINE
  5
AE
  8
LAYER0
  6
BYLAYER
 62
  256
 10
18.66346861267615
 20
-13.89039099711798
 11
18.23933690950425
 21
-16.55008590603718
  0
LINE
  5
AF
  8
LAYER0
  6
BYLAYER
 62
  256
 10
18.23933690950425
 20
-16.55008590603718
 11
12.47644121821503
 21
-16.55008590603718
  0
LINE
  5
B0
  8
LAYER0
  6
BYLAYER
 62
  256
 10
12.47644121821503
 20
-16.55008590603718
 11
11.63610673268815
 21
-16.66693996920018
  0
LINE
  5
B1
  8
LAYER0
  6
BYLAYER
 62
  256
 10
11.63610673268815
 20
-16.66693996920018
 11
10.8546500074406
 21
-16.99730689582692
  0
LINE
  5
B2
  8
LAYER0
  6
BYLAYER
 62
  256
 10
10.8546500074406
 20
-16.99730689582692
 11
10.18532602687969
 21
-17.51867272582495
  0
LINE
  5
B3
  8
LAYER0
  6
BYLAYER
 62
  256
 10
10.18532602687969
 20
-17.51867272582495
 11
9.673748114170477
 21
-18.19550723947767
  0
LINE
  5
B4
  8
LAYER0
  6
BYLAYER
 62
  256
 10
9.673748114170477
 20
-18.19550723947767
 11
9.354779458641621
 21
-18.98168528320158
  0
LINE
  5
B5
  8
LAYER0
  6
BYLAYER
 62
  256
 10
9.354779458641621
 20
-18.98168528320158
 11
9.25015724704679
 21
-19.82363012253753
  0
LINE
  5
B6
  8
LAYER0
  6
BYLAYER
 62
  256
 10
9.25015724704679
 20
-19.82363012253753
 11
9.367011310209787
 21
-20.66396460806441
  0
LINE
  5
B7
  8
LAYER0
  6
BYLAYER
 62
  256
 10
9.367011310209787
 20
-20.66396460806441
 11
9.697378236836526
 21
-21.44542133331197
  0
LINE
  5
B8
  8
LAYER0
  6
BYLAYER
 62
  256
 10
9.697378236836526
 20
-21.44542133331197
 11
10.21874406683455
 21
-22.11474531387287
  0
LINE
  5
B9
  8
LAYER0
  6
BYLAYER
 62
  256
 10
10.21874406683455
 20
-22.11474531387287
 11
10.89557858048728
 21
-22.62632322658208
  0
LINE
  5
BA
  8
LAYER0
  6
BYLAYER
 62
  256
 10
10.89557858048728
 20
-22.62632322658208
 11
11.68175662421118
 21
-22.94529188211094
  0
LINE
  5
BB
  8
LAYER0
  6
BYLAYER
 62
  256
 10
11.68175662421118
 20
-22.94529188211094
 11
12.52370146354713
 21
-23.04991409370577
  0
LINE
  5
BC
  8
LAYER0
  6
BYLAYER
 62
  256
 10
12.52370146354713
 20
-23.04991409370577
 11
17.07462974566242
 21
-23.04991409370577
  0
LINE
  5
BD
  8
LAYER0
  6
BYLAYER
 62
  256
 10
17.07462974566242
 20
-23.04991409370577
 11
16.72460200214585
 21
-24.79269186582598
  0
LINE
  5
BE
  8
LAYER0
  6
BYLAYER
 62
  256
 10
16.72460200214585
 20
-24.79269186582598
 11
16.13927933522548
 21
-27.49883450593895
  0
LINE
  5
BF
  8
LAYER0
  6
BYLAYER
 62
  256
 10
16.13927933522548
 20
-27.49883450593895
 11
15.51395764327792
 21
-30.19601514405362
  0
LINE
  5
C0
  8
LAYER0
  6
BYLAYER
 62
  256
 10
15.51395764327792
 20
-30.19601514405362
 11
14.84877398815477
 21
-32.88364259554403
  0
LINE
  5
C1
  8
LAYER0
  6
BYLAYER
 62
  256
 10
14.84877398815477
 20
-32.88364259554403
 11
14.71480837478342
 21
-33.15805300993583
  0
LINE
  5
C2
  8
LAYER0
  6
BYLAYER
 62
  256
 10
14.71480837478342
 20
-33.15805300993583
 11
14.55772399410024
 21
-33.41991625370608
  0
LINE
  5
C3
  8
LAYER0
  6
BYLAYER
 62
  256
 10
14.55772399410024
 20
-33.41991625370608
 11
14.37868642865681
 21
-33.66728927416786
  0
LINE
  5
C4
  8
LAYER0
  6
BYLAYER
 62
  256
 10
14.37868642865681
 20
-33.66728927416786
 11
14.17902415593455
 21
-33.89833653760991
  0
LINE
  5
C5
  8
LAYER0
  6
BYLAYER
 62
  256
 10
14.17902415593455
 20
-33.89833653760991
 11
13.96021869090224
 21
-34.11134364914509
  0
LINE
  5
C6
  8
LAYER0
  6
BYLAYER
 62
  256
 10
13.96021869090224
 20
-34.11134364914509
 11
13.72389359301999
 21
-34.30473007370411
  0
LINE
  5
C7
  8
LAYER0
  6
BYLAYER
 62
  256
 10
13.72389359301999
 20
-34.30473007370411
 11
13.47180241925832
 21
-34.47706086376851
  0
LINE
  5
C8
  8
LAYER0
  6
BYLAYER
 62
  256
 10
13.47180241925832
 20
-34.47706086376851
 11
13.20581571252093
 21
-34.62705730683209
  0
LINE
  5
C9
  8
LAYER0
  6
BYLAYER
 62
  256
 10
13.20581571252093
 20
-34.62705730683209
 11
12.92790712202128
 21
-34.75360641358051
  0
LINE
  5
CA
  8
LAYER0
  6
BYLAYER
 62
  256
 10
12.92790712202128
 20
-34.75360641358051
 11
12.64013875859886
 21
-34.85576917639504
  0
LINE
  5
CB
  8
LAYER0
  6
BYLAYER
 62
  256
 10
12.64013875859886
 20
-34.85576917639504
 11
12.34464589364068
 21
-34.93278753687712
  0
LINE
  5
CC
  8
LAYER0
  6
BYLAYER
 62
  256
 10
12.34464589364068
 20
-34.93278753687712
 11
12.0436211151433
 21
-34.98409001072903
  0
ENDSEC
  0
EOF
